<?xml version="1.0" encoding="utf-8"?>
<!-- Generator: Adobe Illustrator 16.0.0, SVG Export Plug-In . SVG Version: 6.00 Build 0)  -->
<!DOCTYPE svg PUBLIC "-//W3C//DTD SVG 1.1//EN" "http://www.w3.org/Graphics/SVG/1.1/DTD/svg11.dtd">
<svg version="1.1" id="Layer_1" xmlns="http://www.w3.org/2000/svg" xmlns:xlink="http://www.w3.org/1999/xlink" x="0px" y="0px"
	 width="1068.421px" height="2406.602px" viewBox="0 0 1068.421 2406.602" enable-background="new 0 0 1068.421 2406.602"
	 xml:space="preserve">
<polygon fill="none" stroke="#ED1C24" stroke-width="0.25" stroke-miterlimit="10" points="738.832,2235.898 730.25,2235.898 
	730.25,2244.898 721.25,2244.898 721.25,2235.898 712.562,2235.898 712.562,2244.898 703.562,2244.898 703.562,2235.898 
	694.957,2235.898 694.957,2244.898 685.957,2244.898 685.957,2235.898 677.27,2235.898 677.27,2244.898 668.27,2244.898 
	668.27,2235.898 659.625,2235.898 659.625,2244.898 650.625,2244.898 650.625,2235.898 641.938,2235.898 641.938,2244.898 
	632.938,2244.898 632.938,2235.898 624.332,2235.898 624.332,2244.898 615.332,2244.898 615.332,2235.898 606.645,2235.898 
	606.645,2244.898 597.645,2244.898 597.645,2235.898 589.062,2235.898 589.062,2244.898 580.062,2244.898 580.062,2235.898 
	571.375,2235.898 571.375,2244.898 562.375,2244.898 562.375,2235.898 553.77,2235.898 553.77,2244.898 544.77,2244.898 
	544.77,2235.898 536.082,2235.898 536.082,2244.898 527.082,2244.898 527.082,2235.898 518.551,2235.898 518.505,2226.777 
	509.505,2226.777 509.505,2217.777 518.505,2217.777 518.505,2209.09 509.505,2209.09 509.505,2200.09 518.505,2200.09 
	518.505,2191.486 509.505,2191.486 509.505,2182.486 518.505,2182.486 518.505,2173.799 509.505,2173.799 509.505,2164.799 
	518.505,2164.799 518.505,2156.152 509.505,2156.152 509.505,2147.152 518.505,2147.152 518.505,2138.465 509.505,2138.465 
	509.505,2129.465 518.505,2129.465 518.505,2120.861 509.505,2120.861 509.505,2111.861 518.505,2111.861 518.505,2103.174 
	509.505,2103.174 509.505,2094.174 518.505,2094.174 518.505,2085.59 509.505,2085.59 509.505,2076.59 518.505,2076.59 
	518.505,2067.902 509.505,2067.902 509.505,2058.902 518.505,2058.902 518.505,2050.299 509.505,2050.299 509.505,2041.299 
	518.505,2041.299 518.505,2032.611 509.505,2032.611 509.505,2023.611 518.505,2023.611 518.551,2014.903 527.082,2014.903 
	527.082,2005.903 536.082,2005.903 536.082,2014.903 544.77,2014.903 544.77,2005.903 553.77,2005.903 553.77,2014.903 
	562.375,2014.903 562.375,2005.903 571.375,2005.903 571.375,2014.903 580.062,2014.903 580.062,2005.903 589.062,2005.903 
	589.062,2014.903 597.645,2014.903 597.645,2005.903 606.645,2005.903 606.645,2014.903 615.332,2014.903 615.332,2005.903 
	624.332,2005.903 624.332,2014.903 632.938,2014.903 632.938,2005.903 641.938,2005.903 641.938,2014.903 650.625,2014.903 
	650.625,2005.903 659.625,2005.903 659.625,2014.903 668.27,2014.903 668.27,2005.903 677.27,2005.903 677.27,2014.903 
	685.957,2014.903 685.957,2005.903 694.957,2005.903 694.957,2014.903 703.562,2014.903 703.562,2005.903 712.562,2005.903 
	712.562,2014.903 721.25,2014.903 721.25,2005.903 730.25,2005.903 730.25,2014.903 738.832,2014.903 738.812,2023.611 
	747.812,2023.611 747.812,2032.611 738.812,2032.611 738.812,2041.299 747.812,2041.299 747.812,2050.299 738.812,2050.299 
	738.812,2058.902 747.812,2058.902 747.812,2067.902 738.812,2067.902 738.812,2076.59 747.812,2076.59 747.812,2085.59 
	738.812,2085.59 738.812,2094.174 747.812,2094.174 747.812,2103.174 738.812,2103.174 738.812,2111.861 747.812,2111.861 
	747.812,2120.861 738.812,2120.861 738.812,2129.465 747.812,2129.465 747.812,2138.465 738.812,2138.465 738.812,2147.152 
	747.812,2147.152 747.812,2156.152 738.812,2156.152 738.812,2164.799 747.812,2164.799 747.812,2173.799 738.812,2173.799 
	738.812,2182.486 747.812,2182.486 747.812,2191.486 738.812,2191.486 738.812,2200.09 747.812,2200.09 747.812,2209.09 
	738.812,2209.09 738.812,2217.777 747.812,2217.777 747.812,2226.777 738.812,2226.777 "/>
<polygon fill="none" stroke="#ED1C24" stroke-width="0.25" stroke-miterlimit="10" points="346.285,2235.898 336.979,2235.898 
	336.979,2244.898 327.979,2244.898 327.979,2235.898 319.291,2235.898 319.291,2244.898 310.291,2244.898 310.291,2235.898 
	301.687,2235.898 301.687,2244.898 292.687,2244.898 292.687,2235.898 283.999,2235.898 283.999,2244.898 274.999,2244.898 
	274.999,2235.898 266.354,2235.898 266.354,2244.898 257.354,2244.898 257.354,2235.898 248.666,2235.898 248.666,2244.898 
	239.666,2244.898 239.666,2235.898 231.062,2235.898 231.062,2244.898 222.062,2244.898 222.062,2235.898 213.374,2235.898 
	213.374,2244.898 204.374,2244.898 204.374,2235.898 195.791,2235.898 195.791,2244.898 186.791,2244.898 186.791,2235.898 
	178.104,2235.898 178.104,2244.898 169.104,2244.898 169.104,2235.898 160.499,2235.898 160.499,2244.898 151.499,2244.898 
	151.499,2235.898 142.812,2235.898 142.812,2244.898 133.812,2244.898 133.812,2235.898 126.004,2235.898 125.958,2226.777 
	116.958,2226.777 116.958,2217.777 125.958,2217.777 125.958,2209.09 116.958,2209.09 116.958,2200.09 125.958,2200.09 
	125.958,2191.486 116.958,2191.486 116.958,2182.486 125.958,2182.486 125.958,2173.799 116.958,2173.799 116.958,2164.799 
	125.958,2164.799 125.958,2156.152 116.958,2156.152 116.958,2147.152 125.958,2147.152 125.958,2138.465 116.958,2138.465 
	116.958,2129.465 125.958,2129.465 125.958,2120.861 116.958,2120.861 116.958,2111.861 125.958,2111.861 125.958,2103.174 
	116.958,2103.174 116.958,2094.174 125.958,2094.174 125.958,2085.59 116.958,2085.59 116.958,2076.59 125.958,2076.59 
	125.958,2067.902 116.958,2067.902 116.958,2058.902 125.958,2058.902 125.958,2050.299 116.958,2050.299 116.958,2041.299 
	125.958,2041.299 125.958,2032.611 116.958,2032.611 116.958,2023.611 125.958,2023.611 126.004,2014.903 134.535,2014.903 
	134.535,2005.903 143.535,2005.903 143.535,2014.903 152.223,2014.903 152.223,2005.903 161.223,2005.903 161.223,2014.903 
	169.828,2014.903 169.828,2005.903 178.828,2005.903 178.828,2014.903 187.516,2014.903 187.516,2005.903 196.516,2005.903 
	196.516,2014.903 205.098,2014.903 205.098,2005.903 214.098,2005.903 214.098,2014.903 222.785,2014.903 222.785,2005.903 
	231.785,2005.903 231.785,2014.903 240.391,2014.903 240.391,2005.903 249.391,2005.903 249.391,2014.903 258.078,2014.903 
	258.078,2005.903 267.078,2005.903 267.078,2014.903 275.723,2014.903 275.723,2005.903 284.723,2005.903 284.723,2014.903 
	293.41,2014.903 293.41,2005.903 302.41,2005.903 302.41,2014.903 311.016,2014.903 311.016,2005.903 320.016,2005.903 
	320.016,2014.903 328.703,2014.903 328.703,2005.903 337.703,2005.903 337.703,2014.903 346.285,2014.903 346.266,2023.611 
	355.266,2023.611 355.266,2032.611 346.266,2032.611 346.266,2041.299 355.266,2041.299 355.266,2050.299 346.266,2050.299 
	346.266,2058.902 355.266,2058.902 355.266,2067.902 346.266,2067.902 346.266,2076.59 355.266,2076.59 355.266,2085.59 
	346.266,2085.59 346.266,2094.174 355.266,2094.174 355.266,2103.174 346.266,2103.174 346.266,2111.861 355.266,2111.861 
	355.266,2120.861 346.266,2120.861 346.266,2129.465 355.266,2129.465 355.266,2138.465 346.266,2138.465 346.266,2147.152 
	355.266,2147.152 355.266,2156.152 346.266,2156.152 346.266,2164.799 355.266,2164.799 355.266,2173.799 346.266,2173.799 
	346.266,2182.486 355.266,2182.486 355.266,2191.486 346.266,2191.486 346.266,2200.09 355.266,2200.09 355.266,2209.09 
	346.266,2209.09 346.266,2217.777 355.266,2217.777 355.266,2226.777 346.266,2226.777 "/>
<rect x="696.479" y="2036.402" fill="none" stroke="#ED1C24" stroke-width="0.25" stroke-miterlimit="10" width="9" height="9"/>
<rect x="696.479" y="2054.07" fill="none" stroke="#ED1C24" stroke-width="0.25" stroke-miterlimit="10" width="9" height="9"/>
<rect x="696.479" y="2071.654" fill="none" stroke="#ED1C24" stroke-width="0.25" stroke-miterlimit="10" width="9" height="9"/>
<rect x="696.479" y="2131.902" fill="none" stroke="#ED1C24" stroke-width="0.25" stroke-miterlimit="10" width="9" height="9"/>
<path fill="none" stroke="#ED1C24" stroke-width="0.25" stroke-miterlimit="10" d="M659.312,2035.027"/>
<rect x="624.729" y="2036.402" fill="none" stroke="#ED1C24" stroke-width="0.25" stroke-miterlimit="10" width="9" height="9"/>
<rect x="624.729" y="2054.07" fill="none" stroke="#ED1C24" stroke-width="0.25" stroke-miterlimit="10" width="9" height="9"/>
<rect x="624.729" y="2071.654" fill="none" stroke="#ED1C24" stroke-width="0.25" stroke-miterlimit="10" width="9" height="9"/>
<rect x="624.729" y="2131.902" fill="none" stroke="#ED1C24" stroke-width="0.25" stroke-miterlimit="10" width="9" height="9"/>
<rect x="552.729" y="2036.402" fill="none" stroke="#ED1C24" stroke-width="0.25" stroke-miterlimit="10" width="9" height="9"/>
<rect x="552.729" y="2054.07" fill="none" stroke="#ED1C24" stroke-width="0.25" stroke-miterlimit="10" width="9" height="9"/>
<rect x="552.729" y="2071.654" fill="none" stroke="#ED1C24" stroke-width="0.25" stroke-miterlimit="10" width="9" height="9"/>
<rect x="552.729" y="2131.902" fill="none" stroke="#ED1C24" stroke-width="0.25" stroke-miterlimit="10" width="9" height="9"/>
<path fill="none" stroke="#ED1C24" stroke-width="0.25" stroke-miterlimit="10" d="M729.262,1968.07
	c0,3.977-3.223,7.199-7.199,7.199H537.797c-3.977,0-7.201-3.223-7.201-7.199v-99.6c0-3.977,3.225-7.2,7.201-7.2h184.266
	c3.977,0,7.199,3.224,7.199,7.2V1968.07z"/>
<polygon fill="none" stroke="#ED1C24" stroke-width="0.25" stroke-miterlimit="10" points="901.221,2236.106 892.221,2236.106 
	892.366,2244.898 883.366,2244.898 883.366,2235.898 874.783,2235.898 874.783,2244.898 865.783,2244.898 865.783,2235.898 
	857.096,2235.898 857.096,2244.898 848.096,2244.898 848.096,2235.898 839.491,2235.898 839.491,2244.898 830.491,2244.898 
	830.491,2235.898 821.804,2235.898 821.804,2244.898 812.804,2244.898 812.804,2235.898 804.158,2235.898 804.158,2244.898 
	795.158,2244.898 795.158,2235.898 786.471,2235.898 786.471,2244.898 777.471,2244.898 777.471,2235.898 768.866,2235.898 
	768.866,2244.898 759.866,2244.898 759.824,2236.106 750.824,2236.106 750.824,2226.527 759.824,2226.527 759.824,2217.945 
	750.824,2217.945 750.824,2208.945 759.824,2208.945 759.824,2200.258 750.824,2200.258 750.824,2191.258 759.824,2191.258 
	759.824,2182.652 750.824,2182.652 750.824,2173.652 759.824,2173.652 759.824,2164.965 750.824,2164.965 750.824,2155.965 
	759.824,2155.965 759.824,2147.32 750.824,2147.32 750.824,2138.32 759.824,2138.32 759.824,2129.633 750.824,2129.633 
	750.824,2120.633 759.824,2120.633 759.824,2112.027 750.824,2112.027 750.824,2103.027 759.824,2103.027 759.824,2094.34 
	750.824,2094.34 750.824,2085.34 759.824,2085.34 759.824,2076.758 750.824,2076.758 750.824,2067.758 759.824,2067.758 
	759.824,2059.07 750.824,2059.07 750.824,2050.07 759.824,2050.07 759.824,2041.465 750.824,2041.465 750.824,2032.465 
	759.824,2032.465 759.824,2023.777 750.824,2023.777 750.824,2014.777 759.824,2014.777 759.866,2005.903 768.866,2005.903 
	768.866,2014.903 777.471,2014.903 777.471,2005.903 786.471,2005.903 786.471,2014.903 795.158,2014.903 795.158,2005.903 
	804.158,2005.903 804.158,2014.903 812.804,2014.903 812.804,2005.903 821.804,2005.903 821.804,2014.903 830.491,2014.903 
	830.491,2005.903 839.491,2005.903 839.491,2014.903 848.096,2014.903 848.096,2005.903 857.096,2005.903 857.096,2014.903 
	865.783,2014.903 865.783,2005.903 874.783,2005.903 874.783,2014.903 883.366,2014.903 883.366,2005.903 892.366,2005.903 
	892.366,2014.903 901.221,2014.777 901.221,2023.777 892.221,2023.777 892.221,2032.465 901.221,2032.465 901.221,2041.465 
	892.221,2041.465 892.221,2050.07 901.221,2050.07 901.221,2059.07 892.221,2059.07 892.221,2067.758 901.221,2067.758 
	901.221,2076.758 892.221,2076.758 892.221,2085.34 901.221,2085.34 901.221,2094.34 892.221,2094.34 892.221,2103.027 
	901.221,2103.027 901.221,2112.027 892.221,2112.027 892.221,2120.633 901.221,2120.633 901.221,2129.633 892.221,2129.633 
	892.221,2138.32 901.221,2138.32 901.221,2147.32 892.221,2147.32 892.221,2155.965 901.221,2155.965 901.221,2164.965 
	892.221,2164.965 892.221,2173.652 901.221,2173.652 901.221,2182.652 892.221,2182.652 892.221,2191.258 901.221,2191.258 
	901.221,2200.258 892.221,2200.258 892.221,2208.945 901.221,2208.945 901.221,2217.945 892.221,2217.945 892.221,2226.527 
	901.221,2226.527 "/>
<polygon fill="none" stroke="#ED1C24" stroke-width="0.25" stroke-miterlimit="10" points="507.302,2236.106 498.302,2236.106 
	498.447,2244.898 489.447,2244.898 489.447,2235.898 480.865,2235.898 480.865,2244.898 471.865,2244.898 471.865,2235.898 
	463.178,2235.898 463.178,2244.898 454.178,2244.898 454.178,2235.898 445.572,2235.898 445.572,2244.898 436.572,2244.898 
	436.572,2235.898 427.885,2235.898 427.885,2244.898 418.885,2244.898 418.885,2235.898 410.24,2235.898 410.24,2244.898 
	401.24,2244.898 401.24,2235.898 392.553,2235.898 392.553,2244.898 383.553,2244.898 383.553,2235.898 374.947,2235.898 
	374.947,2244.898 365.947,2244.898 365.906,2236.106 356.906,2236.106 356.906,2226.527 365.906,2226.527 365.906,2217.945 
	356.906,2217.945 356.906,2208.945 365.906,2208.945 365.906,2200.258 356.906,2200.258 356.906,2191.258 365.906,2191.258 
	365.906,2182.652 356.906,2182.652 356.906,2173.652 365.906,2173.652 365.906,2164.965 356.906,2164.965 356.906,2155.965 
	365.906,2155.965 365.906,2147.32 356.906,2147.32 356.906,2138.32 365.906,2138.32 365.906,2129.633 356.906,2129.633 
	356.906,2120.633 365.906,2120.633 365.906,2112.027 356.906,2112.027 356.906,2103.027 365.906,2103.027 365.906,2094.34 
	356.906,2094.34 356.906,2085.34 365.906,2085.34 365.906,2076.758 356.906,2076.758 356.906,2067.758 365.906,2067.758 
	365.906,2059.07 356.906,2059.07 356.906,2050.07 365.906,2050.07 365.906,2041.465 356.906,2041.465 356.906,2032.465 
	365.906,2032.465 365.906,2023.777 356.906,2023.777 356.906,2014.777 365.906,2014.777 365.947,2005.903 374.947,2005.903 
	374.947,2014.903 383.553,2014.903 383.553,2005.903 392.553,2005.903 392.553,2014.903 401.24,2014.903 401.24,2005.903 
	410.24,2005.903 410.24,2014.903 418.885,2014.903 418.885,2005.903 427.885,2005.903 427.885,2014.903 436.572,2014.903 
	436.572,2005.903 445.572,2005.903 445.572,2014.903 454.178,2014.903 454.178,2005.903 463.178,2005.903 463.178,2014.903 
	471.865,2014.903 471.865,2005.903 480.865,2005.903 480.865,2014.903 489.447,2014.903 489.447,2005.903 498.447,2005.903 
	498.447,2014.903 507.364,2014.84 507.302,2023.777 498.302,2023.777 498.302,2032.465 507.302,2032.465 507.302,2041.465 
	498.302,2041.465 498.302,2050.07 507.302,2050.07 507.302,2059.07 498.302,2059.07 498.302,2067.758 507.302,2067.758 
	507.302,2076.758 498.302,2076.758 498.302,2085.34 507.302,2085.34 507.302,2094.34 498.302,2094.34 498.302,2103.027 
	507.302,2103.027 507.302,2112.027 498.302,2112.027 498.302,2120.633 507.302,2120.633 507.302,2129.633 498.302,2129.633 
	498.302,2138.32 507.302,2138.32 507.302,2147.32 498.302,2147.32 498.302,2155.965 507.302,2155.965 507.302,2164.965 
	498.302,2164.965 498.302,2173.652 507.302,2173.652 507.302,2182.652 498.302,2182.652 498.302,2191.258 507.302,2191.258 
	507.302,2200.258 498.302,2200.258 498.302,2208.945 507.302,2208.945 507.302,2217.945 498.302,2217.945 498.302,2226.527 
	507.302,2226.527 "/>
<polygon fill="none" stroke="#ED1C24" stroke-width="0.25" stroke-miterlimit="10" points="740.924,1994.668 732.342,1994.668 
	732.342,1985.668 723.342,1985.668 723.342,1994.668 714.654,1994.668 714.654,1985.668 705.654,1985.668 705.654,1994.668 
	697.049,1994.668 697.049,1985.668 688.049,1985.668 688.049,1994.668 679.361,1994.668 679.361,1985.668 670.361,1985.668 
	670.361,1994.668 661.717,1994.668 661.717,1985.668 652.717,1985.668 652.717,1994.668 644.029,1994.668 644.029,1985.668 
	635.029,1985.668 635.029,1994.668 626.424,1994.668 626.424,1985.668 617.424,1985.668 617.424,1994.668 608.736,1994.668 
	608.736,1985.668 599.736,1985.668 599.736,1994.668 591.154,1994.668 591.154,1985.668 582.154,1985.668 582.154,1994.668 
	573.467,1994.668 573.467,1985.668 564.467,1985.668 564.467,1994.668 555.861,1994.668 555.861,1985.668 546.861,1985.668 
	546.861,1994.668 538.174,1994.668 538.174,1985.668 529.174,1985.668 529.174,1994.668 520.643,1994.668 511.18,1994.668 
	511.033,1994.23 511.033,1985.605 520.033,1985.605 520.033,1976.605 511.033,1976.605 511.033,1968.023 520.033,1968.023 
	520.033,1959.023 511.033,1959.023 511.033,1950.336 520.033,1950.336 520.033,1941.336 511.033,1941.336 511.033,1932.73 
	520.033,1932.73 520.033,1923.73 511.033,1923.73 511.033,1915.043 520.033,1915.043 520.033,1906.043 511.033,1906.043 
	511.033,1897.398 520.033,1897.398 520.033,1888.398 511.033,1888.398 511.033,1879.711 520.033,1879.711 520.033,1870.711 
	511.033,1870.711 511.033,1862.105 520.033,1862.105 519.848,1853.042 510.992,1853.042 510.992,1844.168 519.848,1844.042 
	528.848,1844.042 528.848,1853.042 537.43,1853.042 537.43,1844.042 546.43,1844.042 546.43,1853.042 555.117,1853.042 
	555.117,1844.042 564.117,1844.042 564.117,1853.042 572.723,1853.042 572.723,1844.042 581.723,1844.042 581.723,1853.042 
	590.41,1853.042 590.41,1844.042 599.41,1844.042 599.41,1853.042 608.055,1853.042 608.055,1844.042 617.055,1844.042 
	617.055,1853.042 625.742,1853.042 625.742,1844.042 634.742,1844.042 634.742,1853.042 643.348,1853.042 643.348,1844.042 
	652.348,1844.042 652.348,1853.042 661.035,1853.042 661.035,1844.042 670.035,1844.042 670.035,1853.042 678.617,1853.042 
	678.617,1844.042 687.617,1844.042 687.617,1853.042 696.305,1853.042 696.305,1844.042 705.305,1844.042 705.305,1853.042 
	713.91,1853.042 713.91,1844.042 722.91,1844.042 722.91,1853.042 731.598,1853.042 731.598,1844.042 740.221,1844.042 
	740.598,1844.042 749.389,1844.042 749.389,1853.043 740.596,1853.043 740.596,1862.043 749.596,1862.043 749.596,1870.626 
	740.596,1870.626 740.596,1879.626 749.596,1879.626 749.596,1888.313 740.596,1888.313 740.596,1897.313 749.596,1897.313 
	749.596,1905.918 740.596,1905.918 740.596,1914.918 749.596,1914.918 749.596,1923.605 740.596,1923.605 740.596,1932.605 
	749.596,1932.605 749.596,1941.251 740.596,1941.251 740.596,1950.251 749.596,1950.251 749.596,1958.938 740.596,1958.938 
	740.596,1967.938 749.596,1967.938 749.596,1976.543 740.596,1976.543 740.596,1985.543 749.471,1985.584 749.471,1994.584 "/>
<polygon fill="none" stroke="#ED1C24" stroke-width="0.25" stroke-miterlimit="10" points="517.742,1643.067 526.324,1643.067 
	526.324,1652.067 535.324,1652.067 535.324,1643.067 544.012,1643.067 544.012,1652.067 553.012,1652.067 553.012,1643.067 
	561.617,1643.067 561.617,1652.067 570.617,1652.067 570.617,1643.067 579.305,1643.067 579.305,1652.067 588.305,1652.067 
	588.305,1643.067 596.949,1643.067 596.949,1652.067 605.949,1652.067 605.949,1643.067 614.637,1643.067 614.637,1652.067 
	623.637,1652.067 623.637,1643.067 632.242,1643.067 632.242,1652.067 641.242,1652.067 641.242,1643.067 649.93,1643.067 
	649.93,1652.067 658.93,1652.067 658.93,1643.067 667.512,1643.067 667.512,1652.067 676.512,1652.067 676.512,1643.067 
	685.199,1643.067 685.199,1652.067 694.199,1652.067 694.199,1643.067 702.805,1643.067 702.805,1652.067 711.805,1652.067 
	711.805,1643.067 720.492,1643.067 720.492,1652.067 729.492,1652.067 729.492,1643.067 738.023,1643.067 747.486,1643.067 
	747.633,1643.506 747.633,1652.131 738.633,1652.131 738.633,1661.131 747.633,1661.131 747.633,1669.713 738.633,1669.713 
	738.633,1678.713 747.633,1678.713 747.633,1687.4 738.633,1687.4 738.633,1696.4 747.633,1696.4 747.633,1705.006 
	738.633,1705.006 738.633,1714.006 747.633,1714.006 747.633,1722.693 738.633,1722.693 738.633,1731.693 747.633,1731.693 
	747.633,1740.338 738.633,1740.338 738.633,1749.338 747.633,1749.338 747.633,1758.025 738.633,1758.025 738.633,1767.025 
	747.633,1767.025 747.633,1775.631 738.633,1775.631 738.818,1784.693 747.674,1784.693 747.674,1793.568 738.818,1793.693 
	729.818,1793.693 729.818,1784.693 721.236,1784.693 721.236,1793.693 712.236,1793.693 712.236,1784.693 703.549,1784.693 
	703.549,1793.693 694.549,1793.693 694.549,1784.693 685.943,1784.693 685.943,1793.693 676.943,1793.693 676.943,1784.693 
	668.256,1784.693 668.256,1793.693 659.256,1793.693 659.256,1784.693 650.611,1784.693 650.611,1793.693 641.611,1793.693 
	641.611,1784.693 632.924,1784.693 632.924,1793.693 623.924,1793.693 623.924,1784.693 615.318,1784.693 615.318,1793.693 
	606.318,1793.693 606.318,1784.693 597.631,1784.693 597.631,1793.693 588.631,1793.693 588.631,1784.693 580.049,1784.693 
	580.049,1793.693 571.049,1793.693 571.049,1784.693 562.361,1784.693 562.361,1793.693 553.361,1793.693 553.361,1784.693 
	544.756,1784.693 544.756,1793.693 535.756,1793.693 535.756,1784.693 527.068,1784.693 527.068,1793.693 518.445,1793.693 
	518.068,1793.693 509.277,1793.693 509.277,1784.693 518.07,1784.693 518.07,1775.693 509.07,1775.693 509.07,1767.109 
	518.07,1767.109 518.07,1758.109 509.07,1758.109 509.07,1749.422 518.07,1749.422 518.07,1740.423 509.07,1740.423 
	509.07,1731.818 518.07,1731.818 518.07,1722.818 509.07,1722.818 509.07,1714.131 518.07,1714.131 518.07,1705.131 
	509.07,1705.131 509.07,1696.485 518.07,1696.485 518.07,1687.485 509.07,1687.485 509.07,1678.798 518.07,1678.798 
	518.07,1669.798 509.07,1669.798 509.07,1661.193 518.07,1661.193 518.07,1652.193 509.195,1652.151 509.195,1643.151 "/>
<polygon fill="none" stroke="#ED1C24" stroke-width="0.25" stroke-miterlimit="10" points="514.529,2255.852 523.112,2255.852 
	523.112,2264.852 532.112,2264.852 532.112,2255.852 540.8,2255.852 540.8,2264.852 549.8,2264.852 549.8,2255.852 
	558.404,2255.852 558.404,2264.852 567.404,2264.852 567.404,2255.852 576.092,2255.852 576.092,2264.852 585.092,2264.852 
	585.092,2255.852 593.737,2255.852 593.737,2264.852 602.737,2264.852 602.737,2255.852 611.425,2255.852 611.425,2264.852 
	620.425,2264.852 620.425,2255.852 629.029,2255.852 629.029,2264.852 638.029,2264.852 638.029,2255.852 646.717,2255.852 
	646.717,2264.852 655.717,2264.852 655.717,2255.852 664.3,2255.852 664.3,2264.852 673.3,2264.852 673.3,2255.852 
	681.987,2255.852 681.987,2264.852 690.987,2264.852 690.987,2255.852 699.592,2255.852 699.592,2264.852 708.592,2264.852 
	708.592,2255.852 717.279,2255.852 717.279,2264.852 726.279,2264.852 726.279,2255.852 734.811,2255.852 744.274,2255.852 
	744.42,2256.289 744.42,2264.914 735.42,2264.914 735.42,2273.914 744.42,2273.914 744.42,2282.496 735.42,2282.496 
	735.42,2291.496 744.42,2291.496 744.42,2300.184 735.42,2300.184 735.42,2309.184 744.42,2309.184 744.42,2317.789 
	735.42,2317.789 735.42,2326.789 744.42,2326.789 744.42,2335.477 735.42,2335.477 735.42,2344.477 744.42,2344.477 
	744.42,2353.121 735.42,2353.121 735.42,2362.122 744.42,2362.122 744.42,2370.809 735.42,2370.809 735.42,2379.809 
	744.42,2379.809 744.42,2388.414 735.42,2388.414 735.606,2397.477 744.462,2397.477 744.462,2406.352 735.606,2406.477 
	726.606,2406.477 726.606,2397.477 718.023,2397.477 718.023,2406.477 709.023,2406.477 709.023,2397.477 700.336,2397.477 
	700.336,2406.477 691.336,2406.477 691.336,2397.477 682.731,2397.477 682.731,2406.477 673.731,2406.477 673.731,2397.477 
	665.044,2397.477 665.044,2406.477 656.044,2406.477 656.044,2397.477 647.398,2397.477 647.398,2406.477 638.398,2406.477 
	638.398,2397.477 629.711,2397.477 629.711,2406.477 620.711,2406.477 620.711,2397.477 612.106,2397.477 612.106,2406.477 
	603.106,2406.477 603.106,2397.477 594.419,2397.477 594.419,2406.477 585.419,2406.477 585.419,2397.477 576.836,2397.477 
	576.836,2406.477 567.836,2406.477 567.836,2397.477 559.148,2397.477 559.148,2406.477 550.148,2406.477 550.148,2397.477 
	541.544,2397.477 541.544,2406.477 532.544,2406.477 532.544,2397.477 523.856,2397.477 523.856,2406.477 515.232,2406.477 
	514.856,2406.477 506.065,2406.477 506.065,2397.477 514.857,2397.477 514.857,2388.477 505.857,2388.477 505.857,2379.893 
	514.857,2379.893 514.857,2370.893 505.857,2370.893 505.857,2362.206 514.857,2362.206 514.857,2353.207 505.857,2353.207 
	505.857,2344.602 514.857,2344.602 514.857,2335.602 505.857,2335.602 505.857,2326.914 514.857,2326.914 514.857,2317.914 
	505.857,2317.914 505.857,2309.27 514.857,2309.27 514.857,2300.27 505.857,2300.27 505.857,2291.582 514.857,2291.582 
	514.857,2282.582 505.857,2282.582 505.857,2273.977 514.857,2273.977 514.857,2264.977 505.983,2264.936 505.983,2255.936 "/>
<polygon fill="none" stroke="#ED1C24" stroke-width="0.25" stroke-miterlimit="10" points="741.408,1447.812 732.826,1447.812 
	732.826,1438.812 723.826,1438.812 723.826,1447.812 715.139,1447.812 715.139,1438.812 706.139,1438.812 706.139,1447.812 
	697.533,1447.812 697.533,1438.812 688.533,1438.812 688.533,1447.812 679.846,1447.812 679.846,1438.812 670.846,1438.812 
	670.846,1447.812 662.201,1447.812 662.201,1438.812 653.201,1438.812 653.201,1447.812 644.514,1447.812 644.514,1438.812 
	635.514,1438.812 635.514,1447.812 626.91,1447.812 626.91,1438.812 617.909,1438.812 617.909,1447.812 609.222,1447.812 
	609.222,1438.812 600.222,1438.812 600.222,1447.812 591.639,1447.812 591.639,1438.812 582.639,1438.812 582.639,1447.812 
	573.951,1447.812 573.951,1438.812 564.951,1438.812 564.951,1447.812 556.347,1447.812 556.347,1438.812 547.347,1438.812 
	547.347,1447.812 538.659,1447.812 538.659,1438.812 529.659,1438.812 529.659,1447.812 521.128,1447.812 511.664,1447.812 
	511.519,1447.373 511.519,1438.748 520.519,1438.748 520.519,1429.748 511.519,1429.748 511.519,1421.166 520.519,1421.166 
	520.519,1412.166 511.519,1412.166 511.519,1403.479 520.519,1403.479 520.519,1394.479 511.519,1394.479 511.519,1385.874 
	520.519,1385.874 520.519,1376.874 511.519,1376.874 511.519,1368.187 520.519,1368.187 520.519,1359.187 511.519,1359.187 
	511.519,1350.542 520.519,1350.542 520.519,1341.542 511.519,1341.542 511.519,1332.854 520.519,1332.854 520.519,1323.854 
	511.519,1323.854 511.519,1315.249 520.519,1315.249 520.332,1306.186 511.477,1306.186 511.477,1297.312 520.332,1297.186 
	529.332,1297.186 529.332,1306.186 537.915,1306.186 537.915,1297.186 546.915,1297.186 546.915,1306.186 555.603,1306.186 
	555.603,1297.186 564.603,1297.186 564.603,1306.186 573.207,1306.186 573.207,1297.186 582.207,1297.186 582.207,1306.186 
	590.895,1306.186 590.895,1297.186 599.895,1297.186 599.895,1306.186 608.54,1306.186 608.54,1297.186 617.54,1297.186 
	617.54,1306.186 626.229,1306.186 626.229,1297.186 635.229,1297.186 635.229,1306.186 643.832,1306.186 643.832,1297.186 
	652.832,1297.186 652.832,1306.186 661.52,1306.186 661.52,1297.186 670.52,1297.186 670.52,1306.186 679.102,1306.186 
	679.102,1297.186 688.102,1297.186 688.102,1306.186 696.789,1306.186 696.789,1297.186 705.789,1297.186 705.789,1306.186 
	714.395,1306.186 714.395,1297.186 723.395,1297.186 723.395,1306.186 732.082,1306.186 732.082,1297.186 740.705,1297.186 
	741.082,1297.186 749.873,1297.186 749.873,1306.187 741.08,1306.187 741.08,1315.187 750.08,1315.187 750.08,1323.77 
	741.08,1323.77 741.08,1332.77 750.08,1332.77 750.08,1341.457 741.08,1341.457 741.08,1350.457 750.08,1350.457 750.08,1359.062 
	741.08,1359.062 741.08,1368.062 750.08,1368.062 750.08,1376.749 741.08,1376.749 741.08,1385.749 750.08,1385.749 
	750.08,1394.395 741.08,1394.395 741.08,1403.395 750.08,1403.395 750.08,1412.082 741.08,1412.082 741.08,1421.082 
	750.08,1421.082 750.08,1429.686 741.08,1429.686 741.08,1438.686 749.955,1438.729 749.955,1447.729 "/>
<circle fill="none" stroke="#ED1C24" stroke-width="0.25" stroke-miterlimit="10" cx="715.471" cy="1421.83" r="9"/>
<circle fill="none" stroke="#ED1C24" stroke-width="0.25" stroke-miterlimit="10" cx="715.471" cy="1397.08" r="9"/>
<circle fill="none" stroke="#ED1C24" stroke-width="0.25" stroke-miterlimit="10" cx="715.471" cy="1372.33" r="9"/>
<circle fill="none" stroke="#ED1C24" stroke-width="0.25" stroke-miterlimit="10" cx="715.471" cy="1347.705" r="9"/>
<circle fill="none" stroke="#ED1C24" stroke-width="0.25" stroke-miterlimit="10" cx="715.471" cy="1322.955" r="9"/>
<circle fill="none" stroke="#ED1C24" stroke-width="0.25" stroke-miterlimit="10" cx="691.096" cy="1421.83" r="9"/>
<circle fill="none" stroke="#ED1C24" stroke-width="0.25" stroke-miterlimit="10" cx="691.096" cy="1397.08" r="9"/>
<circle fill="none" stroke="#ED1C24" stroke-width="0.25" stroke-miterlimit="10" cx="691.096" cy="1372.33" r="9"/>
<circle fill="none" stroke="#ED1C24" stroke-width="0.25" stroke-miterlimit="10" cx="691.096" cy="1347.705" r="9"/>
<circle fill="none" stroke="#ED1C24" stroke-width="0.25" stroke-miterlimit="10" cx="691.096" cy="1322.955" r="9"/>
<circle fill="none" stroke="#ED1C24" stroke-width="0.25" stroke-miterlimit="10" cx="666.846" cy="1421.83" r="9"/>
<circle fill="none" stroke="#ED1C24" stroke-width="0.25" stroke-miterlimit="10" cx="666.846" cy="1397.08" r="9"/>
<circle fill="none" stroke="#ED1C24" stroke-width="0.25" stroke-miterlimit="10" cx="666.846" cy="1372.33" r="9"/>
<circle fill="none" stroke="#ED1C24" stroke-width="0.25" stroke-miterlimit="10" cx="666.846" cy="1347.705" r="9"/>
<circle fill="none" stroke="#ED1C24" stroke-width="0.25" stroke-miterlimit="10" cx="666.846" cy="1322.955" r="9"/>
<circle fill="none" stroke="#ED1C24" stroke-width="0.25" stroke-miterlimit="10" cx="642.596" cy="1421.83" r="9"/>
<circle fill="none" stroke="#ED1C24" stroke-width="0.25" stroke-miterlimit="10" cx="642.596" cy="1397.08" r="9"/>
<circle fill="none" stroke="#ED1C24" stroke-width="0.25" stroke-miterlimit="10" cx="642.596" cy="1372.33" r="9"/>
<circle fill="none" stroke="#ED1C24" stroke-width="0.25" stroke-miterlimit="10" cx="642.596" cy="1347.705" r="9"/>
<circle fill="none" stroke="#ED1C24" stroke-width="0.25" stroke-miterlimit="10" cx="642.596" cy="1322.955" r="9"/>
<circle fill="none" stroke="#ED1C24" stroke-width="0.25" stroke-miterlimit="10" cx="618.346" cy="1421.83" r="9"/>
<circle fill="none" stroke="#ED1C24" stroke-width="0.25" stroke-miterlimit="10" cx="618.346" cy="1397.08" r="9"/>
<circle fill="none" stroke="#ED1C24" stroke-width="0.25" stroke-miterlimit="10" cx="618.346" cy="1372.33" r="9"/>
<circle fill="none" stroke="#ED1C24" stroke-width="0.25" stroke-miterlimit="10" cx="618.346" cy="1347.705" r="9"/>
<circle fill="none" stroke="#ED1C24" stroke-width="0.25" stroke-miterlimit="10" cx="618.346" cy="1322.955" r="9"/>
<circle fill="none" stroke="#ED1C24" stroke-width="0.25" stroke-miterlimit="10" cx="594.221" cy="1421.83" r="9"/>
<circle fill="none" stroke="#ED1C24" stroke-width="0.25" stroke-miterlimit="10" cx="594.221" cy="1397.08" r="9"/>
<circle fill="none" stroke="#ED1C24" stroke-width="0.25" stroke-miterlimit="10" cx="594.221" cy="1372.33" r="9"/>
<circle fill="none" stroke="#ED1C24" stroke-width="0.25" stroke-miterlimit="10" cx="594.221" cy="1347.705" r="9"/>
<circle fill="none" stroke="#ED1C24" stroke-width="0.25" stroke-miterlimit="10" cx="594.221" cy="1322.955" r="9"/>
<circle fill="none" stroke="#ED1C24" stroke-width="0.25" stroke-miterlimit="10" cx="569.971" cy="1421.83" r="9"/>
<circle fill="none" stroke="#ED1C24" stroke-width="0.25" stroke-miterlimit="10" cx="569.971" cy="1397.08" r="9"/>
<circle fill="none" stroke="#ED1C24" stroke-width="0.25" stroke-miterlimit="10" cx="569.971" cy="1372.33" r="9"/>
<circle fill="none" stroke="#ED1C24" stroke-width="0.25" stroke-miterlimit="10" cx="569.971" cy="1347.705" r="9"/>
<circle fill="none" stroke="#ED1C24" stroke-width="0.25" stroke-miterlimit="10" cx="569.971" cy="1322.955" r="9"/>
<circle fill="none" stroke="#ED1C24" stroke-width="0.25" stroke-miterlimit="10" cx="545.721" cy="1421.83" r="9"/>
<circle fill="none" stroke="#ED1C24" stroke-width="0.25" stroke-miterlimit="10" cx="545.721" cy="1397.08" r="9"/>
<circle fill="none" stroke="#ED1C24" stroke-width="0.25" stroke-miterlimit="10" cx="545.721" cy="1372.33" r="9"/>
<circle fill="none" stroke="#ED1C24" stroke-width="0.25" stroke-miterlimit="10" cx="545.721" cy="1347.705" r="9"/>
<circle fill="none" stroke="#ED1C24" stroke-width="0.25" stroke-miterlimit="10" cx="545.721" cy="1322.955" r="9"/>
<polygon fill="none" stroke="#ED1C24" stroke-width="0.25" stroke-miterlimit="10" points="517.241,1618.518 508.241,1618.518 
	508.241,1609.518 517.241,1609.518 517.241,1600.871 508.241,1600.871 508.241,1591.871 517.241,1591.871 517.241,1583.184 
	508.241,1583.184 508.241,1574.184 517.241,1574.184 517.241,1565.58 508.241,1565.58 508.241,1556.58 517.241,1556.58 
	517.241,1547.893 508.241,1547.893 508.241,1538.893 517.241,1538.893 517.241,1530.309 508.241,1530.309 508.241,1521.309 
	517.241,1521.309 517.241,1512.621 508.241,1512.621 508.241,1503.621 517.241,1503.621 517.241,1495.018 508.241,1495.018 
	508.241,1486.018 517.241,1486.018 517.241,1477.33 508.241,1477.33 508.241,1468.33 517.241,1468.33 517.287,1459.621 
	525.818,1459.621 525.818,1450.621 534.818,1450.621 534.818,1459.621 543.506,1459.621 543.506,1450.621 552.506,1450.621 
	552.506,1459.621 561.111,1459.621 561.111,1450.621 570.111,1450.621 570.111,1459.621 578.799,1459.621 578.799,1450.621 
	587.799,1450.621 587.799,1459.621 596.381,1459.621 596.381,1450.621 605.381,1450.621 605.381,1459.621 614.068,1459.621 
	614.068,1450.621 623.068,1450.621 623.068,1459.621 631.674,1459.621 631.674,1450.621 640.674,1450.621 640.674,1459.621 
	649.361,1459.621 649.361,1450.621 658.361,1450.621 658.361,1459.621 667.006,1459.621 667.006,1450.621 676.006,1450.621 
	676.006,1459.621 684.693,1459.621 684.693,1450.621 693.693,1450.621 693.693,1459.621 702.299,1459.621 702.299,1450.621 
	711.299,1450.621 711.299,1459.621 719.986,1459.621 719.986,1450.621 728.986,1450.621 728.986,1459.621 737.568,1459.621 
	737.549,1468.33 746.549,1468.33 746.549,1477.33 737.549,1477.33 737.549,1486.018 746.549,1486.018 746.549,1495.018 
	737.549,1495.018 737.549,1503.621 746.549,1503.621 746.549,1512.621 737.549,1512.621 737.549,1521.309 746.549,1521.309 
	746.549,1530.309 737.549,1530.309 737.549,1538.893 746.549,1538.893 746.549,1547.893 737.549,1547.893 737.549,1556.58 
	746.549,1556.58 746.549,1565.58 737.549,1565.58 737.549,1574.184 746.549,1574.184 746.549,1583.184 737.549,1583.184 
	737.549,1591.871 746.549,1591.871 746.549,1600.871 737.549,1600.871 737.549,1609.518 746.549,1609.518 746.549,1618.518 
	737.549,1618.518 737.568,1626.83 728.986,1626.83 728.986,1635.83 719.986,1635.83 719.986,1626.83 711.299,1626.83 
	711.299,1635.83 702.299,1635.83 702.299,1626.83 693.693,1626.83 693.693,1635.83 684.693,1635.83 684.693,1626.83 
	676.006,1626.83 676.006,1635.83 667.006,1635.83 667.006,1626.83 658.361,1626.83 658.361,1635.83 649.361,1635.83 
	649.361,1626.83 640.674,1626.83 640.674,1635.83 631.674,1635.83 631.674,1626.83 623.068,1626.83 623.068,1635.83 
	614.068,1635.83 614.068,1626.83 605.381,1626.83 605.381,1635.83 596.381,1635.83 596.381,1626.83 587.799,1626.83 
	587.799,1635.83 578.799,1635.83 578.799,1626.83 570.111,1626.83 570.111,1635.83 561.111,1635.83 561.111,1626.83 
	552.506,1626.83 552.506,1635.83 543.506,1635.83 543.506,1626.83 534.818,1626.83 534.818,1635.83 525.818,1635.83 
	525.818,1626.83 517.287,1626.83 "/>
<polygon fill="none" stroke="#ED1C24" stroke-width="0.25" stroke-miterlimit="10" points="124.694,1618.518 115.694,1618.518 
	115.694,1609.518 124.694,1609.518 124.694,1600.871 115.694,1600.871 115.694,1591.871 124.694,1591.871 124.694,1583.184 
	115.694,1583.184 115.694,1574.184 124.694,1574.184 124.694,1565.58 115.694,1565.58 115.694,1556.58 124.694,1556.58 
	124.694,1547.893 115.694,1547.893 115.694,1538.893 124.694,1538.893 124.694,1530.309 115.694,1530.309 115.694,1521.309 
	124.694,1521.309 124.694,1512.621 115.694,1512.621 115.694,1503.621 124.694,1503.621 124.694,1495.018 115.694,1495.018 
	115.694,1486.018 124.694,1486.018 124.694,1477.33 115.694,1477.33 115.694,1468.33 124.694,1468.33 124.741,1459.621 
	133.272,1459.621 133.272,1450.621 142.272,1450.621 142.272,1459.621 150.96,1459.621 150.96,1450.621 159.96,1450.621 
	159.96,1459.621 168.563,1459.621 168.563,1450.621 177.563,1450.621 177.563,1459.621 186.251,1459.621 186.251,1450.621 
	195.251,1450.621 195.251,1459.621 203.835,1459.621 203.835,1450.621 212.835,1450.621 212.835,1459.621 221.522,1459.621 
	221.522,1450.621 230.522,1450.621 230.522,1459.621 239.126,1459.621 239.126,1450.621 248.126,1450.621 248.126,1459.621 
	256.813,1459.621 256.813,1450.621 265.813,1450.621 265.813,1459.621 274.46,1459.621 274.46,1450.621 283.46,1450.621 
	283.46,1459.621 292.147,1459.621 292.147,1450.621 301.147,1450.621 301.147,1459.621 309.751,1459.621 309.751,1450.621 
	318.751,1450.621 318.751,1459.621 327.438,1459.621 327.438,1450.621 336.438,1450.621 336.438,1459.621 345.022,1459.621 
	345.002,1468.33 354.002,1468.33 354.002,1477.33 345.002,1477.33 345.002,1486.018 354.002,1486.018 354.002,1495.018 
	345.002,1495.018 345.002,1503.621 354.002,1503.621 354.002,1512.621 345.002,1512.621 345.002,1521.309 354.002,1521.309 
	354.002,1530.309 345.002,1530.309 345.002,1538.893 354.002,1538.893 354.002,1547.893 345.002,1547.893 345.002,1556.58 
	354.002,1556.58 354.002,1565.58 345.002,1565.58 345.002,1574.184 354.002,1574.184 354.002,1583.184 345.002,1583.184 
	345.002,1591.871 354.002,1591.871 354.002,1600.871 345.002,1600.871 345.002,1609.518 354.002,1609.518 354.002,1618.518 
	345.002,1618.518 345.022,1626.83 335.715,1626.83 335.715,1635.83 326.715,1635.83 326.715,1626.83 318.027,1626.83 
	318.027,1635.83 309.027,1635.83 309.027,1626.83 300.423,1626.83 300.423,1635.83 291.423,1635.83 291.423,1626.83 
	282.735,1626.83 282.735,1635.83 273.735,1635.83 273.735,1626.83 265.09,1626.83 265.09,1635.83 256.09,1635.83 256.09,1626.83 
	247.402,1626.83 247.402,1635.83 238.402,1635.83 238.402,1626.83 229.798,1626.83 229.798,1635.83 220.798,1635.83 
	220.798,1626.83 212.11,1626.83 212.11,1635.83 203.11,1635.83 203.11,1626.83 194.527,1626.83 194.527,1635.83 185.527,1635.83 
	185.527,1626.83 176.84,1626.83 176.84,1635.83 167.84,1635.83 167.84,1626.83 159.235,1626.83 159.235,1635.83 150.235,1635.83 
	150.235,1626.83 141.548,1626.83 141.548,1635.83 132.548,1635.83 132.548,1626.83 124.741,1626.83 "/>
<rect x="695.216" y="1481.121" fill="none" stroke="#ED1C24" stroke-width="0.25" stroke-miterlimit="10" width="9" height="9"/>
<rect x="695.216" y="1498.789" fill="none" stroke="#ED1C24" stroke-width="0.25" stroke-miterlimit="10" width="9" height="9"/>
<rect x="695.216" y="1516.373" fill="none" stroke="#ED1C24" stroke-width="0.25" stroke-miterlimit="10" width="9" height="9"/>
<rect x="695.216" y="1576.621" fill="none" stroke="#ED1C24" stroke-width="0.25" stroke-miterlimit="10" width="9" height="9"/>
<path fill="none" stroke="#ED1C24" stroke-width="0.25" stroke-miterlimit="10" d="M658.049,1479.746"/>
<rect x="623.466" y="1481.121" fill="none" stroke="#ED1C24" stroke-width="0.25" stroke-miterlimit="10" width="9" height="9"/>
<rect x="623.466" y="1498.789" fill="none" stroke="#ED1C24" stroke-width="0.25" stroke-miterlimit="10" width="9" height="9"/>
<rect x="623.466" y="1516.373" fill="none" stroke="#ED1C24" stroke-width="0.25" stroke-miterlimit="10" width="9" height="9"/>
<rect x="623.466" y="1576.621" fill="none" stroke="#ED1C24" stroke-width="0.25" stroke-miterlimit="10" width="9" height="9"/>
<rect x="551.466" y="1481.121" fill="none" stroke="#ED1C24" stroke-width="0.25" stroke-miterlimit="10" width="9" height="9"/>
<rect x="551.466" y="1498.789" fill="none" stroke="#ED1C24" stroke-width="0.25" stroke-miterlimit="10" width="9" height="9"/>
<rect x="551.466" y="1516.373" fill="none" stroke="#ED1C24" stroke-width="0.25" stroke-miterlimit="10" width="9" height="9"/>
<rect x="551.466" y="1576.621" fill="none" stroke="#ED1C24" stroke-width="0.25" stroke-miterlimit="10" width="9" height="9"/>
<polygon fill="none" stroke="#ED1C24" stroke-width="0.25" stroke-miterlimit="10" points="749.561,1618.371 758.561,1618.371 
	758.561,1609.684 749.561,1609.684 749.561,1600.684 758.561,1600.684 758.561,1592.039 749.561,1592.039 749.561,1583.039 
	758.561,1583.039 758.561,1574.352 749.561,1574.352 749.561,1565.352 758.561,1565.352 758.561,1556.746 749.561,1556.746 
	749.561,1547.746 758.561,1547.746 758.561,1539.059 749.561,1539.059 749.561,1530.059 758.561,1530.059 758.561,1521.477 
	749.561,1521.477 749.561,1512.477 758.561,1512.477 758.561,1503.789 749.561,1503.789 749.561,1494.789 758.561,1494.789 
	758.561,1486.184 749.561,1486.184 749.561,1477.184 758.561,1477.184 758.561,1468.496 749.561,1468.496 749.561,1459.496 
	758.561,1459.496 758.603,1450.621 767.603,1450.621 767.603,1459.621 776.207,1459.621 776.207,1450.621 785.207,1450.621 
	785.207,1459.621 793.895,1459.621 793.895,1450.621 802.895,1450.621 802.895,1459.621 811.54,1459.621 811.54,1450.621 
	820.54,1450.621 820.54,1459.621 829.228,1459.621 829.228,1450.621 838.228,1450.621 838.228,1459.621 846.832,1459.621 
	846.832,1450.621 855.832,1450.621 855.832,1459.621 864.52,1459.621 864.52,1450.621 873.52,1450.621 873.52,1459.621 
	882.103,1459.621 882.103,1450.621 891.103,1450.621 891.103,1459.621 899.957,1459.496 899.957,1468.496 890.957,1468.496 
	890.957,1477.184 899.957,1477.184 899.957,1486.184 890.957,1486.184 890.957,1494.789 899.957,1494.789 899.957,1503.789 
	890.957,1503.789 890.957,1512.477 899.957,1512.477 899.957,1521.477 890.957,1521.477 890.957,1530.059 899.957,1530.059 
	899.957,1539.059 890.957,1539.059 890.957,1547.746 899.957,1547.746 899.957,1556.746 890.957,1556.746 890.957,1565.352 
	899.957,1565.352 899.957,1574.352 890.957,1574.352 890.957,1583.039 899.957,1583.039 899.957,1592.039 890.957,1592.039 
	890.957,1600.684 899.957,1600.684 899.957,1609.684 890.957,1609.684 890.957,1618.371 899.957,1618.371 899.957,1627.037 
	890.957,1627.037 891.103,1635.83 882.103,1635.83 882.103,1626.83 873.52,1626.83 873.52,1635.83 864.52,1635.83 864.52,1626.83 
	855.832,1626.83 855.832,1635.83 846.832,1635.83 846.832,1626.83 838.228,1626.83 838.228,1635.83 829.228,1635.83 
	829.228,1626.83 820.54,1626.83 820.54,1635.83 811.54,1635.83 811.54,1626.83 802.895,1626.83 802.895,1635.83 793.895,1635.83 
	793.895,1626.83 785.207,1626.83 785.207,1635.83 776.207,1635.83 776.207,1626.83 767.603,1626.83 767.603,1635.83 
	758.603,1635.83 758.561,1627.037 749.561,1627.037 "/>
<polygon fill="none" stroke="#ED1C24" stroke-width="0.25" stroke-miterlimit="10" points="355.642,1618.371 364.642,1618.371 
	364.642,1609.684 355.642,1609.684 355.642,1600.684 364.642,1600.684 364.642,1592.039 355.642,1592.039 355.642,1583.039 
	364.642,1583.039 364.642,1574.352 355.642,1574.352 355.642,1565.352 364.642,1565.352 364.642,1556.746 355.642,1556.746 
	355.642,1547.746 364.642,1547.746 364.642,1539.059 355.642,1539.059 355.642,1530.059 364.642,1530.059 364.642,1521.477 
	355.642,1521.477 355.642,1512.477 364.642,1512.477 364.642,1503.789 355.642,1503.789 355.642,1494.789 364.642,1494.789 
	364.642,1486.184 355.642,1486.184 355.642,1477.184 364.642,1477.184 364.642,1468.496 355.642,1468.496 355.642,1459.496 
	364.642,1459.496 364.685,1450.621 373.685,1450.621 373.685,1459.621 382.288,1459.621 382.288,1450.621 391.288,1450.621 
	391.288,1459.621 399.976,1459.621 399.976,1450.621 408.976,1450.621 408.976,1459.621 417.622,1459.621 417.622,1450.621 
	426.622,1450.621 426.622,1459.621 435.31,1459.621 435.31,1450.621 444.31,1450.621 444.31,1459.621 452.913,1459.621 
	452.913,1450.621 461.913,1450.621 461.913,1459.621 470.601,1459.621 470.601,1450.621 479.601,1450.621 479.601,1459.621 
	488.185,1459.621 488.185,1450.621 497.185,1450.621 497.185,1459.621 506.101,1459.559 506.038,1468.496 497.038,1468.496 
	497.038,1477.184 506.038,1477.184 506.038,1486.184 497.038,1486.184 497.038,1494.789 506.038,1494.789 506.038,1503.789 
	497.038,1503.789 497.038,1512.477 506.038,1512.477 506.038,1521.477 497.038,1521.477 497.038,1530.059 506.038,1530.059 
	506.038,1539.059 497.038,1539.059 497.038,1547.746 506.038,1547.746 506.038,1556.746 497.038,1556.746 497.038,1565.352 
	506.038,1565.352 506.038,1574.352 497.038,1574.352 497.038,1583.039 506.038,1583.039 506.038,1592.039 497.038,1592.039 
	497.038,1600.684 506.038,1600.684 506.038,1609.684 497.038,1609.684 497.038,1618.371 506.038,1618.371 506.038,1627.037 
	497.038,1627.037 497.185,1635.83 488.185,1635.83 488.185,1626.83 479.601,1626.83 479.601,1635.83 470.601,1635.83 
	470.601,1626.83 461.913,1626.83 461.913,1635.83 452.913,1635.83 452.913,1626.83 444.31,1626.83 444.31,1635.83 435.31,1635.83 
	435.31,1626.83 426.622,1626.83 426.622,1635.83 417.622,1635.83 417.622,1626.83 408.976,1626.83 408.976,1635.83 399.976,1635.83 
	399.976,1626.83 391.288,1626.83 391.288,1635.83 382.288,1635.83 382.288,1626.83 373.685,1626.83 373.685,1635.83 
	364.685,1635.83 364.642,1627.037 355.642,1627.037 "/>
<polygon fill="none" stroke="#ED1C24" stroke-width="0.25" stroke-miterlimit="10" points="506.568,617.872 515.15,617.872 
	515.15,626.872 524.15,626.872 524.15,617.872 532.838,617.872 532.838,626.872 541.838,626.872 541.838,617.872 550.443,617.872 
	550.443,626.872 559.443,626.872 559.443,617.872 568.131,617.872 568.131,626.872 577.131,626.872 577.131,617.872 
	585.775,617.872 585.775,626.872 594.775,626.872 594.775,617.872 603.463,617.872 603.463,626.872 612.463,626.872 
	612.463,617.872 621.068,617.872 621.068,626.872 630.068,626.872 630.068,617.872 638.756,617.872 638.756,626.872 
	647.756,626.872 647.756,617.872 656.338,617.872 656.338,626.872 665.338,626.872 665.338,617.872 674.025,617.872 
	674.025,626.872 683.025,626.872 683.025,617.872 691.631,617.872 691.631,626.872 700.631,626.872 700.631,617.872 
	709.318,617.872 709.318,626.872 718.318,626.872 718.318,617.872 726.85,617.872 736.312,617.872 736.459,618.311 736.459,626.936 
	727.459,626.936 727.459,635.936 736.459,635.936 736.459,644.518 727.459,644.518 727.459,653.518 736.459,653.518 
	736.459,662.205 727.459,662.205 727.459,671.205 736.459,671.205 736.459,679.811 727.459,679.811 727.459,688.811 
	736.459,688.811 736.459,697.498 727.459,697.498 727.459,706.498 736.459,706.498 736.459,715.143 727.459,715.143 
	727.459,724.144 736.459,724.144 736.459,732.83 727.459,732.83 727.459,741.83 736.459,741.83 736.459,750.436 727.459,750.436 
	727.645,759.498 736.5,759.498 736.5,768.373 727.645,768.498 718.645,768.498 718.645,759.498 710.062,759.498 710.062,768.498 
	701.062,768.498 701.062,759.498 692.375,759.498 692.375,768.498 683.375,768.498 683.375,759.498 674.77,759.498 674.77,768.498 
	665.77,768.498 665.77,759.498 657.082,759.498 657.082,768.498 648.082,768.498 648.082,759.498 639.438,759.498 639.438,768.498 
	630.438,768.498 630.438,759.498 621.75,759.498 621.75,768.498 612.75,768.498 612.75,759.498 604.145,759.498 604.145,768.498 
	595.145,768.498 595.145,759.498 586.457,759.498 586.457,768.498 577.457,768.498 577.457,759.498 568.875,759.498 
	568.875,768.498 559.875,768.498 559.875,759.498 551.188,759.498 551.188,768.498 542.188,768.498 542.188,759.498 
	533.582,759.498 533.582,768.498 524.582,768.498 524.582,759.498 515.895,759.498 515.895,768.498 507.271,768.498 
	506.895,768.498 498.104,768.498 498.104,759.498 506.896,759.498 506.896,750.498 497.896,750.498 497.896,741.914 
	506.896,741.914 506.896,732.914 497.896,732.914 497.896,724.228 506.896,724.228 506.896,715.228 497.896,715.228 
	497.896,706.623 506.896,706.623 506.896,697.623 497.896,697.623 497.896,688.936 506.896,688.936 506.896,679.936 
	497.896,679.936 497.896,671.29 506.896,671.29 506.896,662.29 497.896,662.29 497.896,653.603 506.896,653.603 506.896,644.603 
	497.896,644.603 497.896,635.998 506.896,635.998 506.896,626.998 498.021,626.956 498.021,617.956 "/>
<polygon fill="none" stroke="#ED1C24" stroke-width="0.25" stroke-miterlimit="10" points="723.824,445.183 732.824,445.183 
	732.824,454.183 723.824,454.183 723.824,462.87 732.824,462.87 732.824,471.87 723.824,471.87 723.824,480.474 732.824,480.474 
	732.824,489.474 723.824,489.474 723.824,498.161 732.824,498.161 732.824,507.161 723.824,507.161 723.824,515.745 
	732.824,515.745 732.824,524.745 723.824,524.745 723.824,533.433 732.824,533.433 732.824,542.433 723.824,542.433 
	723.824,551.036 732.824,551.036 732.824,560.036 723.824,560.036 723.824,568.724 732.824,568.724 732.824,577.724 
	723.824,577.724 723.824,586.37 732.824,586.37 732.824,595.37 723.824,595.37 723.844,603.683 715.262,603.683 715.262,612.683 
	706.262,612.683 706.262,603.683 697.574,603.683 697.574,612.683 688.574,612.683 688.574,603.683 679.969,603.683 
	679.969,612.683 670.969,612.683 670.969,603.683 662.281,603.683 662.281,612.683 653.281,612.683 653.281,603.683 
	644.637,603.683 644.637,612.683 635.637,612.683 635.637,603.683 626.949,603.683 626.949,612.683 617.949,612.683 
	617.949,603.683 609.344,603.683 609.344,612.683 600.344,612.683 600.344,603.683 591.656,603.683 591.656,612.683 
	582.656,612.683 582.656,603.683 574.074,603.683 574.074,612.683 565.074,612.683 565.074,603.683 556.387,603.683 
	556.387,612.683 547.387,612.683 547.387,603.683 538.781,603.683 538.781,612.683 529.781,612.683 529.781,603.683 
	521.094,603.683 521.094,612.683 512.094,612.683 512.094,603.683 503.562,603.683 503.517,595.37 494.517,595.37 494.517,586.37 
	503.517,586.37 503.517,577.724 494.517,577.724 494.517,568.724 503.517,568.724 503.517,560.036 494.517,560.036 494.517,551.036 
	503.517,551.036 503.517,542.433 494.517,542.433 494.517,533.433 503.517,533.433 503.517,524.745 494.517,524.745 
	494.517,515.745 503.517,515.745 503.517,507.161 494.517,507.161 494.517,498.161 503.517,498.161 503.517,489.474 
	494.517,489.474 494.517,480.474 503.517,480.474 503.517,471.87 494.517,471.87 494.517,462.87 503.517,462.87 503.517,454.183 
	494.517,454.183 494.517,445.183 503.517,445.183 "/>
<polygon fill="none" stroke="#ED1C24" stroke-width="0.25" stroke-miterlimit="10" points="331.277,560.036 331.277,568.724 
	340.277,568.724 340.277,577.724 331.277,577.724 331.277,586.37 340.277,586.37 340.277,595.37 331.277,595.37 331.298,603.683 
	321.99,603.683 321.99,612.683 312.99,612.683 312.99,603.683 304.303,603.683 304.303,612.683 295.303,612.683 295.303,603.683 
	286.698,603.683 286.698,612.683 277.698,612.683 277.698,603.683 269.011,603.683 269.011,612.683 260.011,612.683 
	260.011,603.683 251.365,603.683 251.365,612.683 242.365,612.683 242.365,603.683 233.678,603.683 233.678,612.683 
	224.678,612.683 224.678,603.683 216.073,603.683 216.073,612.683 207.073,612.683 207.073,603.683 198.386,603.683 
	198.386,612.683 189.386,612.683 189.386,603.683 180.803,603.683 180.803,612.683 171.803,612.683 171.803,603.683 
	163.115,603.683 163.115,612.683 154.115,612.683 154.115,603.683 145.511,603.683 145.511,612.683 136.511,612.683 
	136.511,603.683 127.823,603.683 127.823,612.683 118.823,612.683 118.823,603.683 111.017,603.683 110.97,595.37 101.97,595.37 
	101.97,586.37 110.97,586.37 110.97,577.724 101.97,577.724 101.97,568.724 110.97,568.724 110.97,560.036 "/>
<rect x="681.491" y="457.974" fill="none" stroke="#ED1C24" stroke-width="0.25" stroke-miterlimit="10" width="9" height="9"/>
<rect x="681.491" y="475.642" fill="none" stroke="#ED1C24" stroke-width="0.25" stroke-miterlimit="10" width="9" height="9"/>
<rect x="681.491" y="493.226" fill="none" stroke="#ED1C24" stroke-width="0.25" stroke-miterlimit="10" width="9" height="9"/>
<rect x="681.491" y="553.474" fill="none" stroke="#ED1C24" stroke-width="0.25" stroke-miterlimit="10" width="9" height="9"/>
<path fill="none" stroke="#ED1C24" stroke-width="0.25" stroke-miterlimit="10" d="M644.324,456.599"/>
<rect x="609.741" y="457.974" fill="none" stroke="#ED1C24" stroke-width="0.25" stroke-miterlimit="10" width="9" height="9"/>
<rect x="609.741" y="475.642" fill="none" stroke="#ED1C24" stroke-width="0.25" stroke-miterlimit="10" width="9" height="9"/>
<rect x="609.741" y="493.226" fill="none" stroke="#ED1C24" stroke-width="0.25" stroke-miterlimit="10" width="9" height="9"/>
<rect x="609.741" y="553.474" fill="none" stroke="#ED1C24" stroke-width="0.25" stroke-miterlimit="10" width="9" height="9"/>
<rect x="537.741" y="457.974" fill="none" stroke="#ED1C24" stroke-width="0.25" stroke-miterlimit="10" width="9" height="9"/>
<rect x="537.741" y="475.642" fill="none" stroke="#ED1C24" stroke-width="0.25" stroke-miterlimit="10" width="9" height="9"/>
<rect x="537.741" y="493.226" fill="none" stroke="#ED1C24" stroke-width="0.25" stroke-miterlimit="10" width="9" height="9"/>
<rect x="537.741" y="553.474" fill="none" stroke="#ED1C24" stroke-width="0.25" stroke-miterlimit="10" width="9" height="9"/>
<polygon fill="none" stroke="#ED1C24" stroke-width="0.25" stroke-miterlimit="10" points="877.232,559.892 886.232,559.892 
	886.232,568.892 877.232,568.892 877.232,577.536 886.232,577.536 886.232,586.536 877.232,586.536 877.232,595.224 
	886.232,595.224 886.232,603.89 877.232,603.89 877.378,612.683 868.378,612.683 868.378,603.683 859.795,603.683 859.795,612.683 
	850.795,612.683 850.795,603.683 842.107,603.683 842.107,612.683 833.107,612.683 833.107,603.683 824.503,603.683 
	824.503,612.683 815.503,612.683 815.503,603.683 806.815,603.683 806.815,612.683 797.815,612.683 797.815,603.683 789.17,603.683 
	789.17,612.683 780.17,612.683 780.17,603.683 771.482,603.683 771.482,612.683 762.482,612.683 762.482,603.683 753.878,603.683 
	753.878,612.683 744.878,612.683 744.836,603.89 735.836,603.89 735.836,595.224 744.836,595.224 744.836,586.536 735.836,586.536 
	735.836,577.536 744.836,577.536 744.836,568.892 735.836,568.892 735.836,559.892 744.836,559.892 744.836,551.204 
	735.836,551.204 735.836,542.204 744.836,542.204 744.836,533.599 735.836,533.599 735.836,524.599 744.836,524.599 
	744.836,515.911 735.836,515.911 735.836,506.911 744.836,506.911 744.836,498.329 735.836,498.329 735.836,489.329 
	744.836,489.329 744.836,480.642 735.836,480.642 735.836,471.642 744.836,471.642 744.836,463.036 735.836,463.036 
	735.836,454.036 744.836,454.036 744.836,445.349 "/>
<polygon fill="none" stroke="#ED1C24" stroke-width="0.25" stroke-miterlimit="10" points="483.313,445.349 483.313,454.036 
	492.313,454.036 492.313,463.036 483.313,463.036 483.313,471.642 492.313,471.642 492.313,480.642 483.313,480.642 
	483.313,489.329 492.313,489.329 492.313,498.329 483.313,498.329 483.313,506.911 492.313,506.911 492.313,515.911 
	483.313,515.911 483.313,524.599 492.313,524.599 492.313,533.599 483.313,533.599 483.313,542.204 492.313,542.204 
	492.313,551.204 483.313,551.204 483.313,559.892 492.313,559.892 492.313,568.892 483.313,568.892 483.313,577.536 
	492.313,577.536 492.313,586.536 483.313,586.536 483.313,595.224 492.313,595.224 492.313,603.89 483.313,603.89 483.46,612.683 
	474.46,612.683 474.46,603.683 465.876,603.683 465.876,612.683 456.876,612.683 456.876,603.683 448.188,603.683 448.188,612.683 
	439.188,612.683 439.188,603.683 430.585,603.683 430.585,612.683 421.585,612.683 421.585,603.683 412.897,603.683 
	412.897,612.683 403.897,612.683 403.897,603.683 395.251,603.683 395.251,612.683 386.251,612.683 386.251,603.683 
	377.563,603.683 377.563,612.683 368.563,612.683 368.563,603.683 359.96,603.683 359.96,612.683 350.96,612.683 350.917,603.89 
	341.917,603.89 341.917,595.224 350.917,595.224 350.917,586.536 341.917,586.536 341.917,577.536 350.917,577.536 350.917,568.892 
	341.917,568.892 341.917,559.892 350.917,559.892 "/>
<rect x="689.577" y="833.256" fill="none" stroke="#ED1C24" stroke-width="0.25" stroke-miterlimit="10" width="9" height="9"/>
<rect x="689.577" y="850.924" fill="none" stroke="#ED1C24" stroke-width="0.25" stroke-miterlimit="10" width="9" height="9"/>
<rect x="689.577" y="868.508" fill="none" stroke="#ED1C24" stroke-width="0.25" stroke-miterlimit="10" width="9" height="9"/>
<rect x="689.577" y="928.756" fill="none" stroke="#ED1C24" stroke-width="0.25" stroke-miterlimit="10" width="9" height="9"/>
<path fill="none" stroke="#ED1C24" stroke-width="0.25" stroke-miterlimit="10" d="M652.41,831.881"/>
<rect x="617.827" y="833.256" fill="none" stroke="#ED1C24" stroke-width="0.25" stroke-miterlimit="10" width="9" height="9"/>
<rect x="617.827" y="850.924" fill="none" stroke="#ED1C24" stroke-width="0.25" stroke-miterlimit="10" width="9" height="9"/>
<rect x="617.827" y="868.508" fill="none" stroke="#ED1C24" stroke-width="0.25" stroke-miterlimit="10" width="9" height="9"/>
<rect x="617.827" y="928.756" fill="none" stroke="#ED1C24" stroke-width="0.25" stroke-miterlimit="10" width="9" height="9"/>
<rect x="545.827" y="833.256" fill="none" stroke="#ED1C24" stroke-width="0.25" stroke-miterlimit="10" width="9" height="9"/>
<rect x="545.827" y="850.924" fill="none" stroke="#ED1C24" stroke-width="0.25" stroke-miterlimit="10" width="9" height="9"/>
<rect x="545.827" y="868.508" fill="none" stroke="#ED1C24" stroke-width="0.25" stroke-miterlimit="10" width="9" height="9"/>
<rect x="545.827" y="928.756" fill="none" stroke="#ED1C24" stroke-width="0.25" stroke-miterlimit="10" width="9" height="9"/>
<polygon fill="none" stroke="#ED1C24" stroke-width="0.25" stroke-miterlimit="10" points="515.858,1119.755 524.441,1119.755 
	524.441,1128.755 533.441,1128.755 533.441,1119.755 542.129,1119.755 542.129,1128.755 551.129,1128.755 551.129,1119.755 
	559.733,1119.755 559.733,1128.755 568.733,1128.755 568.733,1119.755 577.421,1119.755 577.421,1128.755 586.421,1128.755 
	586.421,1119.755 595.066,1119.755 595.066,1128.755 604.066,1128.755 604.066,1119.755 612.754,1119.755 612.754,1128.755 
	621.754,1128.755 621.754,1119.755 630.358,1119.755 630.358,1128.755 639.358,1128.755 639.358,1119.755 648.046,1119.755 
	648.046,1128.755 657.046,1128.755 657.046,1119.755 665.629,1119.755 665.629,1128.755 674.629,1128.755 674.629,1119.755 
	683.316,1119.755 683.316,1128.755 692.316,1128.755 692.316,1119.755 700.921,1119.755 700.921,1128.755 709.921,1128.755 
	709.921,1119.755 718.608,1119.755 718.608,1128.755 727.608,1128.755 727.608,1119.755 736.14,1119.755 745.604,1119.755 
	745.749,1120.192 745.749,1128.817 736.749,1128.817 736.749,1137.817 745.749,1137.817 745.749,1146.399 736.749,1146.399 
	736.749,1155.399 745.749,1155.399 745.749,1164.087 736.749,1164.087 736.749,1173.087 745.749,1173.087 745.749,1181.692 
	736.749,1181.692 736.749,1190.692 745.749,1190.692 745.749,1199.38 736.749,1199.38 736.749,1208.38 745.749,1208.38 
	745.749,1217.024 736.749,1217.024 736.749,1226.024 745.749,1226.024 745.749,1234.712 736.749,1234.712 736.749,1243.712 
	745.749,1243.712 745.749,1252.317 736.749,1252.317 736.936,1261.38 745.791,1261.38 745.791,1270.255 736.936,1270.38 
	727.936,1270.38 727.936,1261.38 719.353,1261.38 719.353,1270.38 710.353,1270.38 710.353,1261.38 701.665,1261.38 
	701.665,1270.38 692.665,1270.38 692.665,1261.38 684.061,1261.38 684.061,1270.38 675.061,1270.38 675.061,1261.38 
	666.373,1261.38 666.373,1270.38 657.373,1270.38 657.373,1261.38 648.728,1261.38 648.728,1270.38 639.728,1270.38 
	639.728,1261.38 631.04,1261.38 631.04,1270.38 622.04,1270.38 622.04,1261.38 613.436,1261.38 613.436,1270.38 604.436,1270.38 
	604.436,1261.38 595.748,1261.38 595.748,1270.38 586.748,1270.38 586.748,1261.38 578.165,1261.38 578.165,1270.38 
	569.165,1270.38 569.165,1261.38 560.478,1261.38 560.478,1270.38 551.478,1270.38 551.478,1261.38 542.873,1261.38 
	542.873,1270.38 533.873,1270.38 533.873,1261.38 525.186,1261.38 525.186,1270.38 516.562,1270.38 516.186,1270.38 
	507.395,1270.38 507.395,1261.38 516.187,1261.38 516.187,1252.38 507.187,1252.38 507.187,1243.796 516.187,1243.796 
	516.187,1234.796 507.187,1234.796 507.187,1226.108 516.187,1226.108 516.187,1217.11 507.187,1217.11 507.187,1208.505 
	516.187,1208.505 516.187,1199.505 507.187,1199.505 507.187,1190.817 516.187,1190.817 516.187,1181.817 507.187,1181.817 
	507.187,1173.173 516.187,1173.173 516.187,1164.173 507.187,1164.173 507.187,1155.485 516.187,1155.485 516.187,1146.485 
	507.187,1146.485 507.187,1137.88 516.187,1137.88 516.187,1128.88 507.312,1128.839 507.312,1119.839 "/>
<polyline fill="none" stroke="#ED1C24" stroke-width="0.25" stroke-miterlimit="10" points="885.318,1023.381 894.318,1023.381 
	894.318,1032.382 885.318,1032.382 885.318,1040.964 894.318,1040.964 894.318,1049.964 885.318,1049.964 885.318,1058.569 
	894.318,1058.569 894.318,1067.569 885.318,1067.569 885.318,1076.257 894.318,1076.257 894.318,1085.257 885.318,1085.257 
	885.318,1093.839 894.318,1093.839 894.318,1102.839 885.318,1102.839 885.464,1111.632 876.464,1111.632 876.464,1102.632 
	867.881,1102.632 867.881,1111.632 858.881,1111.632 858.881,1102.632 850.193,1102.632 850.193,1111.632 841.193,1111.632 
	841.193,1102.632 832.589,1102.632 832.589,1111.632 823.589,1111.632 823.589,1102.632 814.901,1102.632 814.901,1111.632 
	805.901,1111.632 805.901,1102.632 797.256,1102.632 797.256,1111.632 788.256,1111.632 788.256,1102.632 779.568,1102.632 
	779.568,1111.632 770.568,1111.632 770.568,1102.632 761.964,1102.632 761.964,1111.632 752.964,1111.632 752.922,1102.839 
	743.922,1102.839 743.922,1093.839 752.922,1093.839 752.922,1085.257 743.922,1085.257 743.922,1076.257 752.922,1076.257 
	752.922,1067.569 743.922,1067.569 743.922,1058.569 752.922,1058.569 752.922,1049.964 743.922,1049.964 743.922,1040.964 
	752.922,1040.964 752.922,1032.382 743.922,1032.382 743.922,1023.381 752.922,1023.381 752.922,1014.799 743.922,1014.799 
	743.922,1005.799 752.922,1005.799 752.922,997.112 743.922,997.112 743.922,988.112 752.922,988.112 752.922,979.506 
	743.922,979.506 743.922,970.506 752.922,970.506 752.922,961.819 743.922,961.819 743.922,952.818 752.922,952.818 
	752.922,944.174 743.922,944.174 743.922,935.174 752.922,935.174 752.922,926.486 743.922,926.486 743.922,917.486 
	752.922,917.486 752.922,908.881 743.922,908.881 743.922,899.881 752.922,899.881 752.922,891.193 743.922,891.193 
	743.922,882.193 752.922,882.193 752.922,873.611 743.922,873.611 743.922,864.611 752.922,864.611 752.922,855.924 
	743.922,855.924 743.922,846.924 752.922,846.924 752.922,838.318 743.922,838.318 743.922,829.318 752.922,829.318 
	752.922,820.631 752.922,820.412 885.318,1023.381 "/>
<polygon fill="none" stroke="#ED1C24" stroke-width="0.25" stroke-miterlimit="10" points="731.91,820.465 740.91,820.465 
	740.91,829.465 731.91,829.465 731.91,838.152 740.91,838.152 740.91,847.152 731.91,847.152 731.91,855.756 740.91,855.756 
	740.91,864.756 731.91,864.756 731.91,873.443 740.91,873.443 740.91,882.443 731.91,882.443 731.91,891.027 740.91,891.027 
	740.91,900.027 731.91,900.027 731.91,908.715 740.91,908.715 740.91,917.715 731.91,917.715 731.91,926.318 740.91,926.318 
	740.91,935.318 731.91,935.318 731.91,944.006 740.91,944.006 740.91,953.006 731.91,953.006 731.91,961.653 740.91,961.653 
	740.91,970.653 731.91,970.653 731.91,979.34 740.91,979.34 740.91,988.34 731.91,988.34 731.91,996.944 740.91,996.944 
	740.91,1005.944 731.91,1005.944 731.91,1014.631 740.91,1014.631 740.91,1023.631 731.91,1023.631 731.91,1032.216 
	740.91,1032.216 740.91,1041.216 731.91,1041.216 731.91,1049.798 740.91,1049.798 740.91,1058.798 731.91,1058.798 
	731.91,1067.401 740.91,1067.401 740.91,1076.401 731.91,1076.401 731.91,1085.089 740.91,1085.089 740.91,1094.089 
	731.91,1094.089 731.93,1102.632 723.348,1102.632 723.348,1111.632 714.348,1111.632 714.348,1102.632 705.66,1102.632 
	705.66,1111.632 696.66,1111.632 696.66,1102.632 688.055,1102.632 688.055,1111.632 679.055,1111.632 679.055,1102.632 
	670.367,1102.632 670.367,1111.632 661.367,1111.632 661.367,1102.632 652.723,1102.632 652.723,1111.632 643.723,1111.632 
	643.723,1102.632 635.035,1102.632 635.035,1111.632 626.035,1111.632 626.035,1102.632 617.43,1102.632 617.43,1111.632 
	608.43,1111.632 608.43,1102.632 599.742,1102.632 599.742,1111.632 590.742,1111.632 590.742,1102.632 582.16,1102.632 
	582.16,1111.632 573.16,1111.632 573.16,1102.632 564.473,1102.632 564.473,1111.632 555.473,1111.632 555.473,1102.632 
	546.867,1102.632 546.867,1111.632 537.867,1111.632 537.867,1102.632 529.18,1102.632 529.18,1111.632 520.18,1111.632 
	520.18,1102.632 511.648,1102.632 511.603,1094.089 502.603,1094.089 502.603,1085.089 511.603,1085.089 511.603,1076.401 
	502.603,1076.401 502.603,1067.401 511.603,1067.401 511.603,1058.798 502.603,1058.798 502.603,1049.798 511.603,1049.798 
	511.603,1041.216 502.603,1041.216 502.603,1032.216 511.603,1032.216 511.603,1023.631 502.603,1023.631 502.603,1014.631 
	511.603,1014.631 511.603,1005.944 502.603,1005.944 502.603,996.944 511.603,996.944 511.603,988.34 502.603,988.34 
	502.603,979.34 511.603,979.34 511.603,970.653 502.603,970.653 502.603,961.653 511.603,961.653 511.603,953.006 502.603,953.006 
	502.603,944.006 511.603,944.006 511.603,935.318 502.603,935.318 502.603,926.318 511.603,926.318 511.603,917.715 
	502.603,917.715 502.603,908.715 511.603,908.715 511.603,900.027 502.603,900.027 502.603,891.027 511.603,891.027 
	511.603,882.443 502.603,882.443 502.603,873.443 511.603,873.443 511.603,864.756 502.603,864.756 502.603,855.756 
	511.603,855.756 511.603,847.152 502.603,847.152 502.603,838.152 511.603,838.152 511.603,829.465 502.603,829.465 
	502.603,820.465 511.603,820.465 511.699,820.412 731.509,820.412 "/>
<polygon fill="none" stroke="#ED1C24" stroke-width="0.25" stroke-miterlimit="10" points="491.399,820.631 491.399,829.318 
	500.399,829.318 500.399,838.318 491.399,838.318 491.399,846.924 500.399,846.924 500.399,855.924 491.399,855.924 
	491.399,864.611 500.399,864.611 500.399,873.611 491.399,873.611 491.399,882.193 500.399,882.193 500.399,891.193 
	491.399,891.193 491.399,899.881 500.399,899.881 500.399,908.881 491.399,908.881 491.399,917.486 500.399,917.486 
	500.399,926.486 491.399,926.486 491.399,935.174 500.399,935.174 500.399,944.174 491.399,944.174 491.399,952.818 
	500.399,952.818 500.399,961.819 491.399,961.819 491.399,970.506 500.399,970.506 500.399,979.506 491.399,979.506 
	491.399,988.112 500.399,988.112 500.399,997.112 491.399,997.112 491.399,1005.799 500.399,1005.799 500.399,1014.799 
	491.399,1014.799 491.399,1023.381 500.399,1023.381 500.399,1032.382 491.399,1032.382 491.399,1040.964 500.399,1040.964 
	500.399,1049.964 491.399,1049.964 491.399,1058.569 500.399,1058.569 500.399,1067.569 491.399,1067.569 491.399,1076.257 
	500.399,1076.257 500.399,1085.257 491.399,1085.257 491.399,1093.839 500.399,1093.839 500.399,1102.839 491.399,1102.839 
	491.545,1111.632 482.545,1111.632 482.545,1102.632 473.963,1102.632 473.963,1111.632 464.963,1111.632 464.963,1102.632 
	456.275,1102.632 456.275,1111.632 447.275,1111.632 447.275,1102.632 438.67,1102.632 438.67,1111.632 429.67,1111.632 
	429.67,1102.632 420.982,1102.632 420.982,1111.632 411.982,1111.632 411.982,1102.632 403.338,1102.632 403.338,1111.632 
	394.338,1111.632 394.338,1102.632 385.65,1102.632 385.65,1111.632 376.65,1111.632 376.65,1102.632 368.045,1102.632 
	368.045,1111.632 359.045,1111.632 359.004,1102.839 350.004,1102.839 350.004,1093.839 359.004,1093.839 359.004,1085.257 
	350.004,1085.257 350.004,1076.257 359.004,1076.257 359.004,1067.569 350.004,1067.569 350.004,1058.569 359.004,1058.569 
	359.004,1049.964 350.004,1049.964 350.004,1040.964 359.004,1040.964 359.004,1032.382 350.004,1032.382 350.004,1023.381 
	359.004,1023.381 359.166,1023.339 "/>
<path fill="none" stroke="#ED1C24" stroke-width="0.25" stroke-miterlimit="10" d="M339.166,1023.631"/>
<polygon fill="none" stroke="#ED1C24" stroke-width="0.25" stroke-miterlimit="10" points="119.056,1023.631 339.166,1023.631 
	339.363,1023.631 339.363,1032.216 348.363,1032.216 348.363,1041.216 339.363,1041.216 339.363,1049.798 348.363,1049.798 
	348.363,1058.798 339.363,1058.798 339.363,1067.401 348.363,1067.401 348.363,1076.401 339.363,1076.401 339.363,1085.089 
	348.363,1085.089 348.363,1094.089 339.363,1094.089 339.383,1102.632 330.076,1102.632 330.076,1111.632 321.076,1111.632 
	321.076,1102.632 312.389,1102.632 312.389,1111.632 303.389,1111.632 303.389,1102.632 294.784,1102.632 294.784,1111.632 
	285.784,1111.632 285.784,1102.632 277.097,1102.632 277.097,1111.632 268.097,1111.632 268.097,1102.632 259.451,1102.632 
	259.451,1111.632 250.451,1111.632 250.451,1102.632 241.764,1102.632 241.764,1111.632 232.764,1111.632 232.764,1102.632 
	224.159,1102.632 224.159,1111.632 215.159,1111.632 215.159,1102.632 206.472,1102.632 206.472,1111.632 197.472,1111.632 
	197.472,1102.632 188.889,1102.632 188.889,1111.632 179.889,1111.632 179.889,1102.632 171.201,1102.632 171.201,1111.632 
	162.201,1111.632 162.201,1102.632 153.597,1102.632 153.597,1111.632 144.597,1111.632 144.597,1102.632 135.909,1102.632 
	135.909,1111.632 126.909,1111.632 126.909,1102.632 119.102,1102.632 119.056,1094.089 110.056,1094.089 110.056,1085.089 
	119.056,1085.089 119.056,1076.401 110.056,1076.401 110.056,1067.401 119.056,1067.401 119.056,1058.798 110.056,1058.798 
	110.056,1049.798 119.056,1049.798 119.056,1041.216 110.056,1041.216 110.056,1032.216 119.056,1032.216 "/>
<polyline fill="none" stroke="#ED1C24" stroke-width="0.25" stroke-miterlimit="10" points="428.982,348.898 428.982,357.898 
	420.295,357.898 420.295,348.898 411.295,348.898 411.295,357.898 402.689,357.898 402.689,348.898 393.689,348.898 
	393.689,357.898 385.002,357.898 385.002,348.898 376.002,348.898 376.002,357.898 367.357,357.898 367.357,348.898 
	358.357,348.898 358.357,357.898 349.67,357.898 349.67,348.898 340.67,348.898 340.67,357.898 332.064,357.898 332.064,348.898 
	323.064,348.898 323.064,357.898 314.377,357.898 314.377,348.898 305.377,348.898 305.377,357.898 296.795,357.898 
	296.795,348.898 287.795,348.898 287.795,357.898 279.107,357.898 279.107,348.898 270.107,348.898 270.107,357.898 
	261.502,357.898 261.502,348.898 252.502,348.898 252.502,357.898 243.814,357.898 243.814,348.898 234.814,348.898 
	234.814,357.898 226.283,357.898 216.82,357.898 216.674,357.459 216.674,348.834 225.674,348.834 225.674,339.834 216.674,339.834 
	216.674,331.252 225.674,331.252 225.674,322.252 216.674,322.252 216.674,313.565 225.674,313.565 225.674,304.565 
	216.674,304.565 216.674,295.959 225.674,295.959 225.674,286.959 216.674,286.959 216.674,278.272 225.674,278.272 
	225.674,269.272 216.674,269.272 216.674,260.627 225.674,260.627 225.674,251.626 216.674,251.626 216.674,242.94 225.674,242.94 
	225.674,233.94 216.674,233.94 216.674,225.334 225.674,225.334 225.488,216.272 216.633,216.272 216.633,207.397 225.488,207.272 
	234.488,207.272 234.488,216.272 243.07,216.272 243.07,207.272 252.07,207.272 252.07,216.272 260.758,216.272 260.758,207.272 
	269.758,207.272 269.758,216.272 278.363,216.272 278.363,207.272 287.363,207.272 287.363,216.272 296.051,216.272 
	296.051,207.272 305.051,207.272 305.051,216.272 313.695,216.272 313.695,207.272 322.695,207.272 322.695,216.272 
	331.383,216.272 331.383,207.272 340.383,207.272 340.383,216.272 348.988,216.272 348.988,207.272 357.988,207.272 
	357.988,216.272 366.676,216.272 366.676,207.272 375.676,207.272 375.676,216.272 384.258,216.272 384.258,207.272 
	393.258,207.272 393.258,216.272 401.945,216.272 401.945,207.272 410.945,207.272 410.945,216.272 419.551,216.272 
	419.551,207.272 428.551,207.272 428.551,216.272 "/>
<polygon fill="none" stroke="#ED1C24" stroke-width="0.25" stroke-miterlimit="10" points="225.715,189.607 216.715,189.607 
	216.715,180.607 225.715,180.607 225.715,171.92 216.715,171.92 216.715,162.92 225.715,162.92 225.715,154.316 216.715,154.316 
	216.715,145.316 225.715,145.316 225.715,136.629 216.715,136.629 216.715,127.629 225.715,127.629 225.715,118.982 
	216.715,118.982 216.715,109.982 225.715,109.982 225.695,101.67 234.277,101.67 234.277,79.272 826.033,79.272 826.033,101.67 
	834.564,101.67 834.61,109.982 843.61,109.982 843.61,118.982 834.61,118.982 834.61,127.629 843.61,127.629 843.61,136.629 
	834.61,136.629 834.61,145.316 843.61,145.316 843.61,154.316 834.61,154.316 834.61,162.92 843.61,162.92 843.61,171.92 
	834.61,171.92 834.61,180.607 843.61,180.607 843.61,189.607 834.61,189.607 "/>
<rect x="419.758" y="92.67" fill="none" stroke="#ED1C24" stroke-width="0.25" stroke-miterlimit="10" width="8.688" height="9"/>
<rect x="402.152" y="92.67" fill="none" stroke="#ED1C24" stroke-width="0.25" stroke-miterlimit="10" width="8.605" height="9"/>
<rect x="384.465" y="92.67" fill="none" stroke="#ED1C24" stroke-width="0.25" stroke-miterlimit="10" width="8.688" height="9"/>
<rect x="366.883" y="92.67" fill="none" stroke="#ED1C24" stroke-width="0.25" stroke-miterlimit="10" width="8.582" height="9"/>
<rect x="349.195" y="92.67" fill="none" stroke="#ED1C24" stroke-width="0.25" stroke-miterlimit="10" width="8.688" height="9"/>
<rect x="331.59" y="92.67" fill="none" stroke="#ED1C24" stroke-width="0.25" stroke-miterlimit="10" width="8.605" height="9"/>
<rect x="313.902" y="92.67" fill="none" stroke="#ED1C24" stroke-width="0.25" stroke-miterlimit="10" width="8.688" height="9"/>
<rect x="296.258" y="92.67" fill="none" stroke="#ED1C24" stroke-width="0.25" stroke-miterlimit="10" width="8.645" height="9"/>
<rect x="278.57" y="92.67" fill="none" stroke="#ED1C24" stroke-width="0.25" stroke-miterlimit="10" width="8.688" height="9"/>
<rect x="260.965" y="92.67" fill="none" stroke="#ED1C24" stroke-width="0.25" stroke-miterlimit="10" width="8.605" height="9"/>
<rect x="243.277" y="92.67" fill="none" stroke="#ED1C24" stroke-width="0.25" stroke-miterlimit="10" width="8.688" height="9"/>
<polygon fill="none" stroke="#ED1C24" stroke-width="0.25" stroke-miterlimit="10" points="224.991,57.481 215.991,57.481 
	215.991,48.481 224.991,48.481 224.991,39.835 215.991,39.835 215.991,30.835 224.991,30.835 224.971,22.522 234.278,22.522 
	234.278,0.125 826.033,0.125 826.033,22.522 833.84,22.522 833.887,30.835 842.887,30.835 842.887,39.835 833.887,39.835 
	833.887,48.481 842.887,48.481 842.887,57.481 833.887,57.481 "/>
<rect x="419.758" y="13.522" fill="none" stroke="#ED1C24" stroke-width="0.25" stroke-miterlimit="10" width="8.688" height="9"/>
<rect x="402.153" y="13.522" fill="none" stroke="#ED1C24" stroke-width="0.25" stroke-miterlimit="10" width="8.604" height="9"/>
<rect x="384.466" y="13.522" fill="none" stroke="#ED1C24" stroke-width="0.25" stroke-miterlimit="10" width="8.688" height="9"/>
<rect x="366.883" y="13.522" fill="none" stroke="#ED1C24" stroke-width="0.25" stroke-miterlimit="10" width="8.583" height="9"/>
<rect x="349.195" y="13.522" fill="none" stroke="#ED1C24" stroke-width="0.25" stroke-miterlimit="10" width="8.688" height="9"/>
<rect x="331.591" y="13.522" fill="none" stroke="#ED1C24" stroke-width="0.25" stroke-miterlimit="10" width="8.604" height="9"/>
<rect x="313.903" y="13.522" fill="none" stroke="#ED1C24" stroke-width="0.25" stroke-miterlimit="10" width="8.688" height="9"/>
<rect x="296.258" y="13.522" fill="none" stroke="#ED1C24" stroke-width="0.25" stroke-miterlimit="10" width="8.646" height="9"/>
<rect x="278.57" y="13.522" fill="none" stroke="#ED1C24" stroke-width="0.25" stroke-miterlimit="10" width="8.688" height="9"/>
<rect x="260.966" y="13.522" fill="none" stroke="#ED1C24" stroke-width="0.25" stroke-miterlimit="10" width="8.604" height="9"/>
<rect x="243.278" y="13.522" fill="none" stroke="#ED1C24" stroke-width="0.25" stroke-miterlimit="10" width="8.688" height="9"/>
<rect x="270.383" y="108.772" fill="none" stroke="#ED1C24" stroke-width="0.25" stroke-miterlimit="10" width="9" height="9"/>
<rect x="270.383" y="126.44" fill="none" stroke="#ED1C24" stroke-width="0.25" stroke-miterlimit="10" width="9" height="9"/>
<rect x="270.383" y="144.024" fill="none" stroke="#ED1C24" stroke-width="0.25" stroke-miterlimit="10" width="9" height="9"/>
<rect x="270.383" y="161.272" fill="none" stroke="#ED1C24" stroke-width="0.25" stroke-miterlimit="10" width="9" height="9"/>
<rect x="414.133" y="108.772" fill="none" stroke="#ED1C24" stroke-width="0.25" stroke-miterlimit="10" width="9" height="9"/>
<rect x="414.133" y="126.44" fill="none" stroke="#ED1C24" stroke-width="0.25" stroke-miterlimit="10" width="9" height="9"/>
<rect x="414.133" y="144.024" fill="none" stroke="#ED1C24" stroke-width="0.25" stroke-miterlimit="10" width="9" height="9"/>
<rect x="414.133" y="161.272" fill="none" stroke="#ED1C24" stroke-width="0.25" stroke-miterlimit="10" width="9" height="9"/>
<polygon fill="none" stroke="#ED1C24" stroke-width="0.25" stroke-miterlimit="10" points="72.307,136.461 72.307,127.816 
	63.307,127.816 63.307,118.816 72.307,118.816 72.307,110.129 63.307,110.129 63.307,101.463 72.307,101.463 72.161,79.522 
	204.661,79.522 204.703,101.463 213.703,101.463 213.703,110.129 204.703,110.129 204.703,118.816 213.703,118.816 213.703,127.816 
	204.703,127.816 204.703,136.461 213.703,136.461 213.703,145.461 204.703,145.461 204.703,154.148 213.703,154.148 
	213.703,163.148 204.703,163.148 204.703,171.754 213.703,171.754 213.703,180.754 204.703,180.754 204.703,189.441 "/>
<rect x="187.057" y="92.67" fill="none" stroke="#ED1C24" stroke-width="0.25" stroke-miterlimit="10" width="8.604" height="9"/>
<rect x="169.369" y="92.67" fill="none" stroke="#ED1C24" stroke-width="0.25" stroke-miterlimit="10" width="8.688" height="9"/>
<rect x="151.724" y="92.67" fill="none" stroke="#ED1C24" stroke-width="0.25" stroke-miterlimit="10" width="8.646" height="9"/>
<rect x="134.036" y="92.67" fill="none" stroke="#ED1C24" stroke-width="0.25" stroke-miterlimit="10" width="8.688" height="9"/>
<rect x="116.432" y="92.67" fill="none" stroke="#ED1C24" stroke-width="0.25" stroke-miterlimit="10" width="8.604" height="9"/>
<rect x="98.744" y="92.67" fill="none" stroke="#ED1C24" stroke-width="0.25" stroke-miterlimit="10" width="8.688" height="9"/>
<rect x="81.161" y="92.67" fill="none" stroke="#ED1C24" stroke-width="0.25" stroke-miterlimit="10" width="8.583" height="9"/>
<polygon fill="none" stroke="#ED1C24" stroke-width="0.25" stroke-miterlimit="10" points="854.813,189.441 854.813,180.754 
	845.813,180.754 845.813,171.754 854.813,171.754 854.813,163.148 845.813,163.148 845.813,154.148 854.813,154.148 
	854.813,145.461 845.813,145.461 845.813,136.461 854.813,136.461 854.813,127.816 845.813,127.816 845.813,118.816 
	854.813,118.816 854.813,110.129 845.813,110.129 845.813,101.463 854.813,101.463 854.667,79.272 987.167,79.272 987.21,101.463 
	996.21,101.463 996.21,110.129 987.21,110.129 987.21,118.816 996.21,118.816 996.21,127.816 987.21,127.816 987.21,136.461 "/>
<rect x="969.563" y="92.67" fill="none" stroke="#ED1C24" stroke-width="0.25" stroke-miterlimit="10" width="8.604" height="9"/>
<rect x="951.876" y="92.67" fill="none" stroke="#ED1C24" stroke-width="0.25" stroke-miterlimit="10" width="8.688" height="9"/>
<rect x="934.229" y="92.67" fill="none" stroke="#ED1C24" stroke-width="0.25" stroke-miterlimit="10" width="8.646" height="9"/>
<rect x="916.542" y="92.67" fill="none" stroke="#ED1C24" stroke-width="0.25" stroke-miterlimit="10" width="8.688" height="9"/>
<rect x="898.938" y="92.67" fill="none" stroke="#ED1C24" stroke-width="0.25" stroke-miterlimit="10" width="8.604" height="9"/>
<rect x="881.251" y="92.67" fill="none" stroke="#ED1C24" stroke-width="0.25" stroke-miterlimit="10" width="8.688" height="9"/>
<rect x="863.667" y="92.67" fill="none" stroke="#ED1C24" stroke-width="0.25" stroke-miterlimit="10" width="8.584" height="9"/>
<polyline fill="none" stroke="#ED1C24" stroke-width="0.25" stroke-miterlimit="10" points="428.582,216.272 437.164,216.272 
	437.164,207.272 446.164,207.272 446.164,216.272 454.852,216.272 454.852,207.272 463.852,207.272 463.852,216.272 
	472.457,216.272 472.457,207.272 481.457,207.272 481.457,216.272 490.145,216.272 490.145,207.272 499.145,207.272 
	499.145,216.272 507.789,216.272 507.789,207.272 516.789,207.272 516.789,216.272 525.477,216.272 525.477,207.272 
	534.477,207.272 534.477,216.272 543.082,216.272 543.082,207.272 552.082,207.272 552.082,216.272 560.77,216.272 560.77,207.272 
	569.77,207.272 569.77,216.272 578.352,216.272 578.352,207.272 587.352,207.272 587.352,216.272 596.039,216.272 596.039,207.272 
	605.039,207.272 605.039,216.272 613.645,216.272 613.645,207.272 622.645,207.272 622.645,216.272 "/>
<polyline fill="none" stroke="#ED1C24" stroke-width="0.25" stroke-miterlimit="10" points="623.076,348.898 623.076,357.898 
	614.389,357.898 614.389,348.898 605.389,348.898 605.389,357.898 596.783,357.898 596.783,348.898 587.783,348.898 
	587.783,357.898 579.096,357.898 579.096,348.898 570.096,348.898 570.096,357.898 561.451,357.898 561.451,348.898 
	552.451,348.898 552.451,357.898 543.764,357.898 543.764,348.898 534.764,348.898 534.764,357.898 526.158,357.898 
	526.158,348.898 517.158,348.898 517.158,357.898 508.471,357.898 508.471,348.898 499.471,348.898 499.471,357.898 
	490.889,357.898 490.889,348.898 481.889,348.898 481.889,357.898 473.201,357.898 473.201,348.898 464.201,348.898 
	464.201,357.898 455.596,357.898 455.596,348.898 446.596,348.898 446.596,357.898 437.908,357.898 437.908,348.898 
	428.908,348.898 "/>
<rect x="613.852" y="92.67" fill="none" stroke="#ED1C24" stroke-width="0.25" stroke-miterlimit="10" width="8.688" height="9"/>
<rect x="596.246" y="92.67" fill="none" stroke="#ED1C24" stroke-width="0.25" stroke-miterlimit="10" width="8.605" height="9"/>
<rect x="578.559" y="92.67" fill="none" stroke="#ED1C24" stroke-width="0.25" stroke-miterlimit="10" width="8.688" height="9"/>
<rect x="560.977" y="92.67" fill="none" stroke="#ED1C24" stroke-width="0.25" stroke-miterlimit="10" width="8.582" height="9"/>
<rect x="543.289" y="92.67" fill="none" stroke="#ED1C24" stroke-width="0.25" stroke-miterlimit="10" width="8.688" height="9"/>
<rect x="525.684" y="92.67" fill="none" stroke="#ED1C24" stroke-width="0.25" stroke-miterlimit="10" width="8.605" height="9"/>
<rect x="507.996" y="92.67" fill="none" stroke="#ED1C24" stroke-width="0.25" stroke-miterlimit="10" width="8.688" height="9"/>
<rect x="490.352" y="92.67" fill="none" stroke="#ED1C24" stroke-width="0.25" stroke-miterlimit="10" width="8.645" height="9"/>
<rect x="472.664" y="92.67" fill="none" stroke="#ED1C24" stroke-width="0.25" stroke-miterlimit="10" width="8.688" height="9"/>
<rect x="455.059" y="92.67" fill="none" stroke="#ED1C24" stroke-width="0.25" stroke-miterlimit="10" width="8.605" height="9"/>
<rect x="437.371" y="92.67" fill="none" stroke="#ED1C24" stroke-width="0.25" stroke-miterlimit="10" width="8.688" height="9"/>
<rect x="613.852" y="13.522" fill="none" stroke="#ED1C24" stroke-width="0.25" stroke-miterlimit="10" width="8.688" height="9"/>
<rect x="596.248" y="13.522" fill="none" stroke="#ED1C24" stroke-width="0.25" stroke-miterlimit="10" width="8.604" height="9"/>
<rect x="578.561" y="13.522" fill="none" stroke="#ED1C24" stroke-width="0.25" stroke-miterlimit="10" width="8.688" height="9"/>
<rect x="560.977" y="13.522" fill="none" stroke="#ED1C24" stroke-width="0.25" stroke-miterlimit="10" width="8.584" height="9"/>
<rect x="543.289" y="13.522" fill="none" stroke="#ED1C24" stroke-width="0.25" stroke-miterlimit="10" width="8.688" height="9"/>
<rect x="525.686" y="13.522" fill="none" stroke="#ED1C24" stroke-width="0.25" stroke-miterlimit="10" width="8.604" height="9"/>
<rect x="507.998" y="13.522" fill="none" stroke="#ED1C24" stroke-width="0.25" stroke-miterlimit="10" width="8.688" height="9"/>
<rect x="490.352" y="13.522" fill="none" stroke="#ED1C24" stroke-width="0.25" stroke-miterlimit="10" width="8.646" height="9"/>
<rect x="472.664" y="13.522" fill="none" stroke="#ED1C24" stroke-width="0.25" stroke-miterlimit="10" width="8.688" height="9"/>
<rect x="455.061" y="13.522" fill="none" stroke="#ED1C24" stroke-width="0.25" stroke-miterlimit="10" width="8.604" height="9"/>
<rect x="437.373" y="13.522" fill="none" stroke="#ED1C24" stroke-width="0.25" stroke-miterlimit="10" width="8.688" height="9"/>
<polyline fill="none" stroke="#ED1C24" stroke-width="0.25" stroke-miterlimit="10" points="622.691,216.272 631.273,216.272 
	631.273,207.272 640.273,207.272 640.273,216.272 648.961,216.272 648.961,207.272 657.961,207.272 657.961,216.272 
	666.566,216.272 666.566,207.272 675.566,207.272 675.566,216.272 684.254,216.272 684.254,207.272 693.254,207.272 
	693.254,216.272 701.898,216.272 701.898,207.272 710.898,207.272 710.898,216.272 719.586,216.272 719.586,207.272 
	728.586,207.272 728.586,216.272 737.191,216.272 737.191,207.272 746.191,207.272 746.191,216.272 754.879,216.272 
	754.879,207.272 763.879,207.272 763.879,216.272 772.461,216.272 772.461,207.272 781.461,207.272 781.461,216.272 
	790.148,216.272 790.148,207.272 799.148,207.272 799.148,216.272 807.754,216.272 807.754,207.272 816.754,207.272 
	816.754,216.272 825.826,216.272 825.826,207.272 834.449,207.272 834.826,207.272 843.617,207.272 843.617,216.272 
	834.824,216.272 834.824,225.272 843.824,225.272 843.824,233.856 834.824,233.856 834.824,242.856 843.824,242.856 
	843.824,251.542 834.824,251.542 834.824,260.542 843.824,260.542 843.824,269.147 834.824,269.147 834.824,278.147 
	843.824,278.147 843.824,286.834 834.824,286.834 834.824,295.834 843.824,295.834 843.824,304.48 834.824,304.48 834.824,313.48 
	843.824,313.48 843.824,322.167 834.824,322.167 834.824,331.167 843.824,331.167 843.824,339.772 834.824,339.772 834.824,348.772 
	843.699,348.814 843.699,357.814 835.152,357.898 826.57,357.898 826.57,348.898 817.186,348.898 817.186,357.898 808.498,357.898 
	808.498,348.898 799.498,348.898 799.498,357.898 790.893,357.898 790.893,348.898 781.893,348.898 781.893,357.898 
	773.205,357.898 773.205,348.898 764.205,348.898 764.205,357.898 755.561,357.898 755.561,348.898 746.561,348.898 
	746.561,357.898 737.873,357.898 737.873,348.898 728.873,348.898 728.873,357.898 720.268,357.898 720.268,348.898 
	711.268,348.898 711.268,357.898 702.58,357.898 702.58,348.898 693.58,348.898 693.58,357.898 684.998,357.898 684.998,348.898 
	675.998,348.898 675.998,357.898 667.311,357.898 667.311,348.898 658.311,348.898 658.311,357.898 649.705,357.898 
	649.705,348.898 640.705,348.898 640.705,357.898 632.018,357.898 632.018,348.898 623.018,348.898 "/>
<rect x="807.961" y="92.67" fill="none" stroke="#ED1C24" stroke-width="0.25" stroke-miterlimit="10" width="8.688" height="9"/>
<rect x="790.355" y="92.67" fill="none" stroke="#ED1C24" stroke-width="0.25" stroke-miterlimit="10" width="8.605" height="9"/>
<rect x="772.668" y="92.67" fill="none" stroke="#ED1C24" stroke-width="0.25" stroke-miterlimit="10" width="8.688" height="9"/>
<rect x="755.086" y="92.67" fill="none" stroke="#ED1C24" stroke-width="0.25" stroke-miterlimit="10" width="8.582" height="9"/>
<rect x="737.398" y="92.67" fill="none" stroke="#ED1C24" stroke-width="0.25" stroke-miterlimit="10" width="8.688" height="9"/>
<rect x="719.793" y="92.67" fill="none" stroke="#ED1C24" stroke-width="0.25" stroke-miterlimit="10" width="8.605" height="9"/>
<rect x="702.105" y="92.67" fill="none" stroke="#ED1C24" stroke-width="0.25" stroke-miterlimit="10" width="8.688" height="9"/>
<rect x="684.461" y="92.67" fill="none" stroke="#ED1C24" stroke-width="0.25" stroke-miterlimit="10" width="8.645" height="9"/>
<rect x="666.773" y="92.67" fill="none" stroke="#ED1C24" stroke-width="0.25" stroke-miterlimit="10" width="8.688" height="9"/>
<rect x="649.168" y="92.67" fill="none" stroke="#ED1C24" stroke-width="0.25" stroke-miterlimit="10" width="8.605" height="9"/>
<rect x="631.48" y="92.67" fill="none" stroke="#ED1C24" stroke-width="0.25" stroke-miterlimit="10" width="8.688" height="9"/>
<rect x="807.961" y="13.522" fill="none" stroke="#ED1C24" stroke-width="0.25" stroke-miterlimit="10" width="8.688" height="9"/>
<rect x="790.357" y="13.522" fill="none" stroke="#ED1C24" stroke-width="0.25" stroke-miterlimit="10" width="8.604" height="9"/>
<rect x="772.669" y="13.522" fill="none" stroke="#ED1C24" stroke-width="0.25" stroke-miterlimit="10" width="8.688" height="9"/>
<rect x="755.086" y="13.522" fill="none" stroke="#ED1C24" stroke-width="0.25" stroke-miterlimit="10" width="8.583" height="9"/>
<rect x="737.398" y="13.522" fill="none" stroke="#ED1C24" stroke-width="0.25" stroke-miterlimit="10" width="8.688" height="9"/>
<rect x="719.794" y="13.522" fill="none" stroke="#ED1C24" stroke-width="0.25" stroke-miterlimit="10" width="8.604" height="9"/>
<rect x="702.106" y="13.522" fill="none" stroke="#ED1C24" stroke-width="0.25" stroke-miterlimit="10" width="8.688" height="9"/>
<rect x="684.461" y="13.522" fill="none" stroke="#ED1C24" stroke-width="0.25" stroke-miterlimit="10" width="8.646" height="9"/>
<rect x="666.773" y="13.522" fill="none" stroke="#ED1C24" stroke-width="0.25" stroke-miterlimit="10" width="8.688" height="9"/>
<rect x="649.169" y="13.522" fill="none" stroke="#ED1C24" stroke-width="0.25" stroke-miterlimit="10" width="8.604" height="9"/>
<rect x="631.481" y="13.522" fill="none" stroke="#ED1C24" stroke-width="0.25" stroke-miterlimit="10" width="8.688" height="9"/>
<polygon fill="none" stroke="#ED1C24" stroke-width="0.25" stroke-miterlimit="10" points="174.716,311.423 162.034,311.423 
	161.718,311.214 155.455,300.205 159.973,296.244 167.455,299.275 167.628,299.423 177.65,299.423 177.65,238.298 162.034,238.298 
	161.718,238.089 147.977,221.284 157.266,213.688 167.455,226.15 167.628,226.298 185.775,226.298 185.775,227.673 194.775,227.673 
	194.775,236.673 185.775,236.673 185.775,245.341 194.775,245.341 194.775,254.341 185.775,254.341 185.775,262.925 
	194.775,262.925 194.775,271.925 185.775,271.925 185.775,280.173 194.775,280.173 194.775,289.173 185.775,289.173 
	185.775,311.205 "/>
<rect x="629.552" y="108.772" fill="none" stroke="#ED1C24" stroke-width="0.25" stroke-miterlimit="10" width="9" height="9"/>
<rect x="629.552" y="126.44" fill="none" stroke="#ED1C24" stroke-width="0.25" stroke-miterlimit="10" width="9" height="9"/>
<rect x="629.552" y="144.024" fill="none" stroke="#ED1C24" stroke-width="0.25" stroke-miterlimit="10" width="9" height="9"/>
<rect x="629.552" y="161.272" fill="none" stroke="#ED1C24" stroke-width="0.25" stroke-miterlimit="10" width="9" height="9"/>
<rect x="773.22" y="108.772" fill="none" stroke="#ED1C24" stroke-width="0.25" stroke-miterlimit="10" width="9" height="9"/>
<rect x="773.22" y="126.44" fill="none" stroke="#ED1C24" stroke-width="0.25" stroke-miterlimit="10" width="9" height="9"/>
<rect x="773.22" y="144.024" fill="none" stroke="#ED1C24" stroke-width="0.25" stroke-miterlimit="10" width="9" height="9"/>
<rect x="773.22" y="161.272" fill="none" stroke="#ED1C24" stroke-width="0.25" stroke-miterlimit="10" width="9" height="9"/>
<polygon fill="none" stroke="#ED1C24" stroke-width="0.25" stroke-miterlimit="10" points="156.109,241.706 168.791,241.706 
	169.107,241.915 175.37,252.925 170.853,256.885 163.37,253.854 163.197,253.706 153.175,253.706 153.175,314.831 168.791,314.831 
	169.107,315.04 182.849,331.846 173.56,339.441 163.37,326.979 163.197,326.831 145.05,326.831 145.05,325.456 136.05,325.456 
	136.05,316.456 145.05,316.456 145.05,307.788 136.05,307.788 136.05,298.788 145.05,298.788 145.05,290.204 136.05,290.204 
	136.05,281.204 145.05,281.204 145.05,272.956 136.05,272.956 136.05,263.956 145.05,263.956 145.05,241.925 "/>
<polygon fill="none" stroke="#ED1C24" stroke-width="0.25" stroke-miterlimit="10" points="113.657,311.423 100.976,311.423 
	100.659,311.214 94.396,300.205 98.914,296.244 106.396,299.275 106.569,299.423 116.592,299.423 116.592,238.298 100.976,238.298 
	100.659,238.089 86.918,221.284 96.207,213.688 106.396,226.15 106.569,226.298 124.717,226.298 124.717,227.673 133.717,227.673 
	133.717,236.673 124.717,236.673 124.717,245.341 133.717,245.341 133.717,254.341 124.717,254.341 124.717,262.925 
	133.717,262.925 133.717,271.925 124.717,271.925 124.717,280.173 133.717,280.173 133.717,289.173 124.717,289.173 
	124.717,311.205 "/>
<polygon fill="none" stroke="#ED1C24" stroke-width="0.25" stroke-miterlimit="10" points="95.051,241.706 107.732,241.706 
	108.049,241.915 114.312,252.925 109.794,256.885 102.312,253.854 102.139,253.706 92.116,253.706 92.116,314.831 107.732,314.831 
	108.049,315.04 121.79,331.846 112.501,339.441 102.312,326.979 102.139,326.831 83.991,326.831 83.991,325.456 74.991,325.456 
	74.991,316.456 83.991,316.456 83.991,307.788 74.991,307.788 74.991,298.788 83.991,298.788 83.991,290.204 74.991,290.204 
	74.991,281.204 83.991,281.204 83.991,272.956 74.991,272.956 74.991,263.956 83.991,263.956 83.991,241.925 "/>
<polygon fill="none" stroke="#ED1C24" stroke-width="0.25" stroke-miterlimit="10" points="800.39,729.478 789.638,729.478 
	789.321,729.269 777.828,713.83 784.576,712.632 795.059,717.33 795.231,717.478 803.324,717.478 803.324,656.353 789.638,656.353 
	789.321,656.144 775.58,639.338 784.869,631.743 795.059,644.205 795.231,644.353 811.449,644.353 811.449,645.728 820.449,645.728 
	820.449,654.728 811.449,654.728 811.449,663.396 820.449,663.396 820.449,672.396 811.449,672.396 811.449,680.98 820.449,680.98 
	820.449,689.98 811.449,689.98 811.449,741.228 820.449,741.228 820.449,750.228 811.449,750.228 803.574,750.228 "/>
<polygon fill="none" stroke="#ED1C24" stroke-width="0.25" stroke-miterlimit="10" points="778.263,664.013 789.015,664.013 
	789.331,664.222 800.824,679.661 794.076,680.858 783.594,676.161 783.421,676.013 775.328,676.013 775.328,737.138 
	789.015,737.138 789.331,737.347 803.072,754.152 793.783,761.748 783.594,749.286 783.421,749.138 767.203,749.138 
	767.203,747.763 758.203,747.763 758.203,738.763 767.203,738.763 767.203,730.095 758.203,730.095 758.203,721.095 
	767.203,721.095 767.203,712.511 758.203,712.511 758.203,703.511 767.203,703.511 767.203,652.263 758.203,652.263 
	758.203,643.263 767.203,643.263 775.078,643.263 "/>
<polygon fill="none" stroke="#ED1C24" stroke-width="0.25" stroke-miterlimit="10" points="834.307,653.357 845.059,653.357 
	845.375,653.566 856.868,669.005 850.12,670.203 839.638,665.505 839.465,665.357 831.372,665.357 831.372,726.482 845.059,726.482 
	845.375,726.691 859.116,743.497 849.827,751.092 839.638,738.63 839.465,738.482 823.247,738.482 823.247,737.107 814.247,737.107 
	814.247,728.107 823.247,728.107 823.247,719.439 814.247,719.439 814.247,710.439 823.247,710.439 823.247,701.855 
	814.247,701.855 814.247,692.855 823.247,692.855 823.247,641.607 814.247,641.607 814.247,632.607 823.247,632.607 
	831.122,632.607 "/>
<polygon fill="none" stroke="#ED1C24" stroke-width="0.25" stroke-miterlimit="10" points="239.005,964.647 228.253,964.647 
	227.937,964.438 216.443,948.999 223.191,947.801 233.674,952.499 233.847,952.647 241.939,952.647 241.939,891.522 
	228.253,891.522 227.937,891.313 214.195,874.507 223.484,866.912 233.674,879.374 233.847,879.522 250.064,879.522 
	250.064,880.897 259.064,880.897 259.064,889.897 250.064,889.897 250.064,898.565 259.064,898.565 259.064,907.565 
	250.064,907.565 250.064,916.149 259.064,916.149 259.064,925.149 250.064,925.149 250.064,976.397 259.064,976.397 
	259.064,985.397 250.064,985.397 242.189,985.397 "/>
<polygon fill="none" stroke="#ED1C24" stroke-width="0.25" stroke-miterlimit="10" points="216.878,899.182 227.63,899.182 
	227.946,899.391 239.439,914.83 232.691,916.027 222.209,911.33 222.036,911.182 213.943,911.182 213.943,972.307 227.63,972.307 
	227.946,972.516 241.688,989.321 232.398,996.917 222.209,984.456 222.036,984.307 205.818,984.307 205.818,982.932 
	196.818,982.932 196.818,973.932 205.818,973.932 205.818,965.264 196.818,965.264 196.818,956.264 205.818,956.264 205.818,947.68 
	196.818,947.68 196.818,938.68 205.818,938.68 205.818,887.432 196.818,887.432 196.818,878.432 205.818,878.432 213.693,878.432 
	"/>
<polygon fill="none" stroke="#ED1C24" stroke-width="0.25" stroke-miterlimit="10" points="272.922,888.526 283.674,888.526 
	283.99,888.735 295.483,904.174 288.735,905.372 278.253,900.674 278.08,900.526 269.987,900.526 269.987,961.651 283.674,961.651 
	283.99,961.86 297.731,978.666 288.442,986.261 278.253,973.799 278.08,973.651 261.862,973.651 261.862,972.276 252.862,972.276 
	252.862,963.276 261.862,963.276 261.862,954.608 252.862,954.608 252.862,945.608 261.862,945.608 261.862,937.024 
	252.862,937.024 252.862,928.024 261.862,928.024 261.862,876.776 252.862,876.776 252.862,867.776 261.862,867.776 
	269.737,867.776 "/>
<polygon fill="none" stroke="#ED1C24" stroke-width="0.25" stroke-miterlimit="10" points="435.539,1407.204 424.787,1407.204 
	424.471,1406.995 412.978,1391.556 419.726,1390.358 430.208,1395.056 430.381,1395.204 438.474,1395.204 438.474,1334.079 
	424.787,1334.079 424.471,1333.87 410.729,1317.064 420.019,1309.469 430.208,1321.931 430.381,1322.079 446.599,1322.079 
	446.599,1323.454 455.599,1323.454 455.599,1332.454 446.599,1332.454 446.599,1341.122 455.599,1341.122 455.599,1350.122 
	446.599,1350.122 446.599,1358.706 455.599,1358.706 455.599,1367.706 446.599,1367.706 446.599,1418.954 455.599,1418.954 
	455.599,1427.954 446.599,1427.954 438.724,1427.954 "/>
<polygon fill="none" stroke="#ED1C24" stroke-width="0.25" stroke-miterlimit="10" points="413.412,1341.738 424.164,1341.738 
	424.48,1341.947 435.974,1357.387 429.226,1358.584 418.743,1353.887 418.57,1353.738 410.478,1353.738 410.478,1414.864 
	424.164,1414.864 424.48,1415.073 438.222,1431.878 428.933,1439.474 418.743,1427.013 418.57,1426.864 402.353,1426.864 
	402.353,1425.489 393.353,1425.489 393.353,1416.489 402.353,1416.489 402.353,1407.821 393.353,1407.821 393.353,1398.821 
	402.353,1398.821 402.353,1390.236 393.353,1390.236 393.353,1381.236 402.353,1381.236 402.353,1329.988 393.353,1329.988 
	393.353,1320.988 402.353,1320.988 410.228,1320.988 "/>
<polygon fill="none" stroke="#ED1C24" stroke-width="0.25" stroke-miterlimit="10" points="469.456,1331.083 480.208,1331.083 
	480.524,1331.292 492.018,1346.731 485.27,1347.929 474.787,1343.231 474.614,1343.083 466.521,1343.083 466.521,1404.208 
	480.208,1404.208 480.524,1404.417 494.266,1421.223 484.977,1428.818 474.787,1416.356 474.614,1416.208 458.396,1416.208 
	458.396,1414.833 449.396,1414.833 449.396,1405.833 458.396,1405.833 458.396,1397.165 449.396,1397.165 449.396,1388.165 
	458.396,1388.165 458.396,1379.581 449.396,1379.581 449.396,1370.581 458.396,1370.581 458.396,1319.333 449.396,1319.333 
	449.396,1310.333 458.396,1310.333 466.271,1310.333 "/>
<polygon fill="none" stroke="#ED1C24" stroke-width="0.25" stroke-miterlimit="10" points="435.539,1962.133 424.787,1962.133 
	424.471,1961.924 412.978,1946.484 419.726,1945.287 430.208,1949.984 430.381,1950.133 438.474,1950.133 438.474,1889.008 
	424.787,1889.008 424.471,1888.799 410.729,1871.993 420.019,1864.397 430.208,1876.859 430.381,1877.008 446.599,1877.008 
	446.599,1878.383 455.599,1878.383 455.599,1887.383 446.599,1887.383 446.599,1896.051 455.599,1896.051 455.599,1905.051 
	446.599,1905.051 446.599,1913.635 455.599,1913.635 455.599,1922.635 446.599,1922.635 446.599,1973.883 455.599,1973.883 
	455.599,1982.883 446.599,1982.883 438.724,1982.883 "/>
<polygon fill="none" stroke="#ED1C24" stroke-width="0.25" stroke-miterlimit="10" points="413.412,1896.667 424.164,1896.667 
	424.48,1896.876 435.974,1912.315 429.226,1913.513 418.743,1908.815 418.57,1908.667 410.478,1908.667 410.478,1969.793 
	424.164,1969.793 424.48,1970.002 438.222,1986.807 428.933,1994.402 418.743,1981.941 418.57,1981.793 402.353,1981.793 
	402.353,1980.418 393.353,1980.418 393.353,1971.418 402.353,1971.418 402.353,1962.75 393.353,1962.75 393.353,1953.75 
	402.353,1953.75 402.353,1945.165 393.353,1945.165 393.353,1936.165 402.353,1936.165 402.353,1884.917 393.353,1884.917 
	393.353,1875.917 402.353,1875.917 410.228,1875.917 "/>
<polygon fill="none" stroke="#ED1C24" stroke-width="0.25" stroke-miterlimit="10" points="469.456,1886.012 480.208,1886.012 
	480.524,1886.221 492.018,1901.66 485.27,1902.857 474.787,1898.16 474.614,1898.012 466.521,1898.012 466.521,1959.137 
	480.208,1959.137 480.524,1959.346 494.266,1976.151 484.977,1983.747 474.787,1971.285 474.614,1971.137 458.396,1971.137 
	458.396,1969.762 449.396,1969.762 449.396,1960.762 458.396,1960.762 458.396,1952.094 449.396,1952.094 449.396,1943.094 
	458.396,1943.094 458.396,1934.51 449.396,1934.51 449.396,1925.51 458.396,1925.51 458.396,1874.262 449.396,1874.262 
	449.396,1865.262 458.396,1865.262 466.271,1865.262 "/>
</svg>
