<?xml version="1.0" encoding="utf-8"?>
<!-- Generator: Adobe Illustrator 21.0.2, SVG Export Plug-In . SVG Version: 6.00 Build 0)  -->
<svg version="1.1" id="_x30_" xmlns="http://www.w3.org/2000/svg" xmlns:xlink="http://www.w3.org/1999/xlink" x="0px" y="0px"
	 viewBox="0 0 640 430" style="enable-background:new 0 0 640 430;" xml:space="preserve">
<style type="text/css">
	.st0{fill:none;stroke:#000000;stroke-width:0.7087;stroke-linecap:round;stroke-linejoin:round;stroke-miterlimit:10;}
	.st1{font-family:'MyriadPro-Regular';}
	.st2{font-size:17px;}
	.st3{font-size:18px;}
</style>
<g id="LINE">
	<line class="st0" x1="54.9" y1="217.4" x2="58.1" y2="217.4"/>
</g>
<g id="LINE_1_">
	<line class="st0" x1="296.9" y1="217.4" x2="300.1" y2="217.4"/>
</g>
<g id="CIRCLE">
	<path class="st0" d="M145.9,323.6c0-19.9,16.1-36,36-36s36,16.1,36,36s-16.1,36-36,36S145.9,343.5,145.9,323.6L145.9,323.6z"/>
</g>
<g id="CIRCLE_1_">
	<path class="st0" d="M179.8,191.7c0-1.7,1.3-3,3-3s3,1.3,3,3s-1.3,3-3,3S179.8,193.4,179.8,191.7L179.8,191.7z"/>
</g>
<g id="CIRCLE_2_">
	<path class="st0" d="M462.3,190.3c0-1.5,1.2-2.7,2.7-2.7s2.7,1.2,2.7,2.7c0,1.5-1.2,2.7-2.7,2.7S462.3,191.8,462.3,190.3
		L462.3,190.3z"/>
</g>
<g id="CIRCLE_3_">
	<path class="st0" d="M429,323.2c0-21,17-38,38-38s38,17,38,38s-17,38-38,38S429,344.2,429,323.2L429,323.2z"/>
</g>
<g id="MTEXT_1_">
	<text transform="matrix(1 0 0 1 408.6273 53.54)" class="st1 st2">3 mm</text>
</g>
<g id="LWPOLYLINE">
	<path class="st0" d="M464.5,263.3c-4.2,0.2-8.4,0.8-12.5,1.9l2.6,9.7l-2.9,0.8l-2.6-9.6c-4,1.3-8,3-11.6,5l5,8.7l-2.6,1.5l-5-8.6
		c-3.6,2.3-6.9,4.9-9.9,7.9l7.1,7.1l-2.1,2.1l-7-7c-2.9,3.1-5.4,6.5-7.5,10.2l8.7,5l-1.5,2.6l-8.6-5c-2,3.8-3.5,7.7-4.7,11.8
		l9.7,2.6l-0.8,2.9l-9.6-2.6c-0.9,4.1-1.4,8.4-1.5,12.6h10v3h-10c0.2,4.2,0.8,8.4,1.9,12.5l9.7-2.6l0.8,2.9l-9.6,2.6
		c1.3,4,3,8,5,11.6l8.7-5l1.5,2.6l-8.6,5c2.3,3.6,4.9,6.9,7.9,9.9l7.1-7.1l2.1,2.1l-7,7c3.1,2.9,6.5,5.4,10.2,7.5l5-8.7l2.6,1.5
		l-5,8.6c3.8,2,7.7,3.5,11.8,4.7l2.6-9.7l2.9,0.8l-2.6,9.6c4.1,0.9,8.4,1.4,12.6,1.5v-10h3v10c4.2-0.2,8.4-0.8,12.5-1.9l-2.6-9.7
		l2.9-0.8l2.6,9.6c4-1.3,8-3,11.6-5l-5-8.7l2.6-1.5l5,8.6c3.6-2.3,6.9-4.9,9.9-7.9L502,359l2.1-2.1l7,7c2.9-3.1,5.4-6.5,7.6-10.2
		l-8.7-5l1.5-2.6l8.6,5c2-3.8,3.5-7.7,4.7-11.8l-9.7-2.6l0.8-2.9l9.6,2.6c0.9-4.1,1.4-8.4,1.5-12.6h-10v-3h10
		c-0.2-4.2-0.8-8.4-1.9-12.5l-9.7,2.6l-0.8-2.9l9.6-2.6c-1.3-4-3-8-5-11.6l-8.7,5l-1.5-2.6l8.6-5c-2.3-3.6-4.9-6.9-7.9-9.9l-7.1,7.1
		l-2.1-2.1l7-7c-3.1-2.9-6.5-5.4-10.2-7.5l-5,8.7l-2.6-1.5l5-8.6c-3.8-2-7.7-3.5-11.8-4.7l-2.6,9.7l-2.9-0.8l2.6-9.6
		c-4.1-0.9-8.4-1.4-12.6-1.5v10h-3L464.5,263.3L464.5,263.3z"/>
</g>
<g id="LWPOLYLINE_1_">
	<path class="st0" d="M494.6,242.5c-3.7,2.1-7.6,3.8-11.6,5.1l-2.6-9.6l-2.9,0.8l2.6,9.7c-4.1,1.1-8.3,1.7-12.5,1.9v-9.9h-3v10
		c-4.2,0-8.5-0.5-12.6-1.4l2.6-9.6l-2.9-0.8l-2.6,9.7c-4.1-1.1-8-2.7-11.8-4.7l5-8.6l-2.6-1.5l-5,8.7c-3.6-2.1-7.1-4.7-10.2-7.6l7-7
		l-2.1-2.1l-7.1,7.1c-3-3-5.6-6.4-7.9-9.9l8.6-5l-1.5-2.6l-8.7,5c-2.1-3.7-3.8-7.6-5-11.6l9.6-2.6l-0.8-2.9l-9.7,2.6
		c-1.1-4.1-1.7-8.3-1.9-12.6h10v-3h-10c0-4.2,0.5-8.5,1.5-12.6l9.6,2.6l0.8-2.9l-9.7-2.6c1.1-4.1,2.7-8,4.7-11.8l8.6,5l1.5-2.6
		l-8.7-5c2.1-3.6,4.7-7.1,7.5-10.2l7,7l2.1-2.1l-7.1-7.1c3-3,6.4-5.6,9.9-7.9l5,8.6l2.6-1.5l-5-8.7c3.7-2.1,7.6-3.8,11.6-5.1
		l2.6,9.6l2.9-0.8l-2.6-9.7c4.1-1.1,8.3-1.7,12.5-1.9v9.9h3v-10c4.2,0,8.5,0.5,12.6,1.4l-2.6,9.6l2.9,0.8l2.6-9.7
		c4.1,1.1,8,2.7,11.8,4.7l-5,8.6l2.6,1.5l5-8.7c3.6,2.1,7.1,4.7,10.2,7.6l-7,7l2.1,2.1l7.1-7.1c3,3,5.6,6.4,7.9,9.9l-8.6,5l1.5,2.6
		l8.7-5c2.1,3.7,3.8,7.6,5,11.6l-9.6,2.6l0.8,2.9l9.7-2.6c1.1,4.1,1.7,8.3,1.9,12.6h-10v3h10c0,4.2-0.5,8.5-1.5,12.6l-9.6-2.6
		l-0.8,2.9l9.7,2.6c-1.1,4.1-2.7,8-4.7,11.8l-8.6-5l-1.5,2.6l8.7,5c-2.2,3.6-4.7,7.1-7.5,10.2l-7-7L500,226l7.1,7.1
		c-3,3-6.4,5.6-9.9,7.9l-5-8.6l-2.6,1.5L494.6,242.5z"/>
</g>
<g id="LWPOLYLINE_2_">
	<path class="st0" d="M343,218.4h-3v10h-8.5c0-72.4,58.6-131,131-131s131,58.6,131,131H585v-10h-3v10h-8.5c0-61.3-49.7-111-111-111
		s-111,49.7-111,111H343V218.4z"/>
</g>
<g id="LWPOLYLINE_3_">
	<path class="st0" d="M131.8,191.1c0,1.1,0,2.1,0.1,3.2h-9c0.3,6.8,1.7,13.5,4.3,19.8l8.3-3.4c0.4,1,0.8,1.9,1.3,2.9l-8.3,3.4
		c2.9,6.2,6.8,11.8,11.6,16.7l6.4-6.4c0.7,0.8,1.5,1.5,2.3,2.2l-6.4,6.4c5,4.6,10.8,8.3,17.1,11l3.4-8.3c1,0.4,2,0.8,2.9,1.2
		l-3.4,8.3c6.4,2.3,13.1,3.6,20,3.6v-9c1.1,0,2.1,0,3.2-0.1v9c6.8-0.3,13.5-1.7,19.8-4.3l-3.4-8.3c1-0.4,1.9-0.8,2.9-1.3l3.4,8.3
		c6.2-2.9,11.8-6.8,16.7-11.6l-6.4-6.4c0.8-0.7,1.5-1.5,2.2-2.3l6.4,6.4c4.6-5,8.3-10.8,11-17.1l-8.3-3.4c0.4-1,0.8-2,1.2-2.9
		l8.3,3.4c2.3-6.4,3.6-13.1,3.6-20h-9c0-1.1,0-2.1-0.1-3.2h9c-0.3-6.8-1.7-13.5-4.3-19.8l-8.3,3.4c-0.4-1-0.8-1.9-1.3-2.9l8.3-3.4
		c-2.9-6.2-6.8-11.8-11.6-16.7l-6.4,6.4c-0.7-0.8-1.5-1.5-2.3-2.2l6.4-6.4c-5-4.6-10.8-8.3-17.1-11l-3.4,8.3c-1-0.4-2-0.8-2.9-1.2
		l3.4-8.3c-6.4-2.3-13.1-3.6-20-3.6v9c-1.1,0-2.1,0-3.2,0.1v-9c-6.8,0.3-13.5,1.7-19.8,4.3l3.4,8.3c-1,0.4-1.9,0.8-2.9,1.3l-3.4-8.3
		c-6.2,2.9-11.8,6.8-16.7,11.6l6.4,6.4c-0.8,0.7-1.5,1.5-2.2,2.3l-6.4-6.4c-4.6,5-8.3,10.8-11,17.1l8.3,3.4c-0.4,1-0.8,2-1.2,2.9
		l-8.3-3.4c-2.3,6.4-3.6,13.1-3.6,20H131.8z"/>
</g>
<g id="LWPOLYLINE_4_">
	<path class="st0" d="M160.1,277.5l-3.4-8.3c-6.2,2.9-11.8,6.8-16.7,11.5l6.4,6.4c-0.8,0.7-1.5,1.5-2.2,2.3l-6.4-6.4
		c-4.6,5-8.3,10.8-11,17l8.3,3.4c-0.4,1-0.8,2-1.2,3l-8.3-3.4c-2.3,6.4-3.6,13.1-3.6,20h9c0,1.1,0,2.1,0.1,3.2h-9
		c0.3,6.8,1.7,13.5,4.3,19.8l8.3-3.4c0.4,1,0.8,2,1.3,2.9l-8.3,3.4c2.9,6.2,6.8,11.8,11.6,16.7l6.4-6.4c0.7,0.8,1.5,1.5,2.3,2.2
		l-6.4,6.4c5,4.6,10.8,8.3,17.1,11l3.4-8.3c1,0.4,2,0.8,2.9,1.2l-3.4,8.3c6.4,2.3,13.1,3.6,20,3.6v-9c1.1,0,2.1,0,3.2,0v9
		c6.8-0.3,13.5-1.7,19.8-4.3l-3.4-8.3c1-0.4,1.9-0.8,2.9-1.3l3.4,8.3c6.2-2.9,11.8-6.8,16.7-11.5l-6.4-6.4c0.8-0.7,1.5-1.5,2.2-2.3
		l6.4,6.4c4.6-5,8.3-10.8,11-17l-8.3-3.4c0.4-1,0.8-2,1.2-3l8.3,3.4c2.3-6.4,3.6-13.1,3.6-20h-9c0-1.1,0-2.1-0.1-3.2h9
		c-0.3-6.8-1.7-13.5-4.3-19.8l-8.3,3.4c-0.4-1-0.8-2-1.3-2.9l8.3-3.4c-2.9-6.2-6.8-11.8-11.6-16.7l-6.4,6.4
		c-0.7-0.8-1.5-1.5-2.3-2.2l6.4-6.4c-5-4.6-10.8-8.3-17.1-11l-3.4,8.3c-1-0.4-2-0.8-2.9-1.2l3.4-8.3c-6.4-2.3-13.1-3.6-20-3.6v9
		c-1.1,0-2.1,0-3.2,0v-9c-6.8,0.3-13.5,1.7-19.8,4.3l3.4,8.3C162,276.6,161,277,160.1,277.5z"/>
</g>
<g id="LWPOLYLINE_5_">
	<path class="st0" d="M288.5,228.4c0-61.3-49.7-111-111-111s-111,49.7-111,111h-8.4v-11h-3.2v11h-8.4c0-72.4,58.7-131,131-131
		s131,58.6,131,131h-8.4v-11h-3.2v11H288.5z"/>
</g>
<text transform="matrix(1 0 0 1 150 52)" class="st1 st2">1/8 inches</text>
<text transform="matrix(1 0 0 1 264 391)" class="st1 st3">freepatternsarea</text>
</svg>
