  0
SECTION
  2
HEADER
  9
$ACADVER
  1
AC1009
  9
$INSBASE
 10
0.0
 20
0.0
 30
0.0
  9
$EXTMIN
 10
0.0
 20
0.0
 30
0.0
  9
$EXTMAX
 10
0.0
 20
0.0
 30
0.0
  0
ENDSEC
  0
SECTION
  2
TABLES
  0
TABLE
  2
VPORT
 70
0
  0
ENDTAB
  0
TABLE
  2
LTYPE
 70
1
  0
LTYPE
  2
CONTINUOUS
 70
0
  3
Solid line
 72
65
 73
0
 40
0.0
  0
ENDTAB
  0
TABLE
  2
LAYER
 70
1
  0
LAYER
  2
PYDXF
 70
64
 62
7
  6
continuous
  0
ENDTAB
  0
TABLE
  2
STYLE
 70
1
  0
STYLE
  2
STANDARD
 70
0
 40
0
 41
1.0
 50
0.0
 71
0
 42
1
 3
ARIAL.TTF
 4

  0
ENDTAB
  0
TABLE
  2
VIEW
 70
0
  0
ENDTAB
  0
ENDSEC
  0
SECTION
  2
BLOCKS
  0
BLOCK
  8
0
  2
SKETCH002
 70
0
 10
0.0
 20
0.0
 30
0.0
  3
SKETCH002
  0
POLYLINE
  8
0
 62
7
 70
1
 66
1
 10
0.0
 20
0.0
 30
0.0
  0
VERTEX
  8
0
 10
-0.05217
 20
162.229296
  0
VERTEX
  8
0
 10
-0.05217
 20
155.979296
  0
VERTEX
  8
0
 10
2.94783
 20
155.979296
  0
VERTEX
  8
0
 10
2.94783
 20
149.729296
  0
VERTEX
  8
0
 10
-0.05217
 20
149.729296
  0
VERTEX
  8
0
 10
-0.05217
 20
143.479296
  0
VERTEX
  8
0
 10
2.94783
 20
143.479296
  0
VERTEX
  8
0
 10
2.94783
 20
137.229296
  0
VERTEX
  8
0
 10
-0.05217
 20
137.229296
  0
VERTEX
  8
0
 10
-0.05217
 20
127.979296
  0
VERTEX
  8
0
 10
12.19783
 20
127.979296
  0
VERTEX
  8
0
 10
12.19783
 20
130.979296
  0
VERTEX
  8
0
 10
24.69783
 20
130.979296
  0
VERTEX
  8
0
 10
24.69783
 20
127.979296
  0
VERTEX
  8
0
 10
37.19783
 20
127.979296
  0
VERTEX
  8
0
 10
37.19783
 20
130.979296
  0
VERTEX
  8
0
 10
49.69783
 20
130.979296
  0
VERTEX
  8
0
 10
49.69783
 20
127.979296
  0
VERTEX
  8
0
 10
62.19783
 20
127.979296
  0
VERTEX
  8
0
 10
62.19783
 20
130.979296
  0
VERTEX
  8
0
 10
74.69783
 20
130.979296
  0
VERTEX
  8
0
 10
74.69783
 20
127.979296
  0
VERTEX
  8
0
 10
87.19783
 20
127.979296
  0
VERTEX
  8
0
 10
87.19783
 20
130.979296
  0
VERTEX
  8
0
 10
99.69783
 20
130.979296
  0
VERTEX
  8
0
 10
99.69783
 20
127.979296
  0
VERTEX
  8
0
 10
112.19783
 20
127.979296
  0
VERTEX
  8
0
 10
112.19783
 20
130.979296
  0
VERTEX
  8
0
 10
124.69783
 20
130.979296
  0
VERTEX
  8
0
 10
124.69783
 20
127.979296
  0
VERTEX
  8
0
 10
137.19783
 20
127.979296
  0
VERTEX
  8
0
 10
137.19783
 20
130.979296
  0
VERTEX
  8
0
 10
149.69783
 20
130.979296
  0
VERTEX
  8
0
 10
149.69783
 20
127.979296
  0
VERTEX
  8
0
 10
162.19783
 20
127.979296
  0
VERTEX
  8
0
 10
162.19783
 20
130.979296
  0
VERTEX
  8
0
 10
174.69783
 20
130.979296
  0
VERTEX
  8
0
 10
174.69783
 20
127.979296
  0
VERTEX
  8
0
 10
187.19783
 20
127.979296
  0
VERTEX
  8
0
 10
187.19783
 20
130.979296
  0
VERTEX
  8
0
 10
199.69783
 20
130.979296
  0
VERTEX
  8
0
 10
199.69783
 20
127.979296
  0
VERTEX
  8
0
 10
212.19783
 20
127.979296
  0
VERTEX
  8
0
 10
212.19783
 20
130.979296
  0
VERTEX
  8
0
 10
224.69783
 20
130.979296
  0
VERTEX
  8
0
 10
224.69783
 20
127.979296
  0
VERTEX
  8
0
 10
237.19783
 20
127.979296
  0
VERTEX
  8
0
 10
237.19783
 20
130.979296
  0
VERTEX
  8
0
 10
249.69783
 20
130.979296
  0
VERTEX
  8
0
 10
249.69783
 20
127.979296
  0
VERTEX
  8
0
 10
261.94783
 20
127.979296
  0
VERTEX
  8
0
 10
261.94783
 20
137.229296
  0
VERTEX
  8
0
 10
258.94783
 20
137.229296
  0
VERTEX
  8
0
 10
258.94783
 20
143.479296
  0
VERTEX
  8
0
 10
261.94783
 20
143.479296
  0
VERTEX
  8
0
 10
261.94783
 20
149.729296
  0
VERTEX
  8
0
 10
258.94783
 20
149.729296
  0
VERTEX
  8
0
 10
258.94783
 20
155.979296
  0
VERTEX
  8
0
 10
261.94783
 20
155.979296
  0
VERTEX
  8
0
 10
261.94783
 20
162.229296
  0
VERTEX
  8
0
 10
229.94783
 20
162.229296
  0
VERTEX
  8
0
 10
229.94783
 20
146.604296
  0
VERTEX
  8
0
 10
226.94783
 20
146.604296
  0
VERTEX
  8
0
 10
226.94783
 20
162.229296
  0
VERTEX
  8
0
 10
197.94783
 20
162.229296
  0
VERTEX
  8
0
 10
197.94783
 20
146.604296
  0
VERTEX
  8
0
 10
194.94783
 20
146.604296
  0
VERTEX
  8
0
 10
194.94783
 20
162.229296
  0
VERTEX
  8
0
 10
165.94783
 20
162.229296
  0
VERTEX
  8
0
 10
165.94783
 20
146.604296
  0
VERTEX
  8
0
 10
162.94783
 20
146.604296
  0
VERTEX
  8
0
 10
162.94783
 20
162.229296
  0
VERTEX
  8
0
 10
133.94783
 20
162.229296
  0
VERTEX
  8
0
 10
133.94783
 20
146.604296
  0
VERTEX
  8
0
 10
127.94783
 20
146.604296
  0
VERTEX
  8
0
 10
127.94783
 20
162.229296
  0
VERTEX
  8
0
 10
98.94783
 20
162.229296
  0
VERTEX
  8
0
 10
98.94783
 20
146.604296
  0
VERTEX
  8
0
 10
95.94783
 20
146.604296
  0
VERTEX
  8
0
 10
95.94783
 20
162.229296
  0
VERTEX
  8
0
 10
66.94783
 20
162.229296
  0
VERTEX
  8
0
 10
66.94783
 20
146.604296
  0
VERTEX
  8
0
 10
63.94783
 20
146.604296
  0
VERTEX
  8
0
 10
63.94783
 20
162.229296
  0
VERTEX
  8
0
 10
34.94783
 20
162.229296
  0
VERTEX
  8
0
 10
34.94783
 20
146.604296
  0
VERTEX
  8
0
 10
31.94783
 20
146.604296
  0
VERTEX
  8
0
 10
31.94783
 20
162.229296
  0
SEQEND
  8
0
  0
CIRCLE
  8
0
 62
7
 10
50.44783
 20
154.729296
 30
0.0
 40
1.75
  0
CIRCLE
  8
0
 62
7
 10
80.44783
 20
154.729296
 30
0.0
 40
1.75
  0
CIRCLE
  8
0
 62
7
 10
181.44783
 20
154.729296
 30
0.0
 40
1.75
  0
CIRCLE
  8
0
 62
7
 10
211.44783
 20
154.729296
 30
0.0
 40
1.75
  0
ENDBLK
  0
ENDSEC
  0
SECTION
  2
ENTITIES
  0
POLYLINE
  8
0
 62
7
 70
1
 66
1
 10
0.0
 20
0.0
 30
0.0
  0
VERTEX
  8
0
 10
-31.25
 20
3.0
  0
VERTEX
  8
0
 10
-24.997503
 20
3.0
  0
VERTEX
  8
0
 10
-24.997503
 20
6.21669449252e-15
  0
VERTEX
  8
0
 10
-18.747503
 20
4.82891571174e-15
  0
VERTEX
  8
0
 10
-18.747503
 20
3.0
  0
VERTEX
  8
0
 10
-12.497503
 20
3.0
  0
VERTEX
  8
0
 10
-12.497503
 20
3.44113693096e-15
  0
VERTEX
  8
0
 10
-6.247503
 20
2.05335815018e-15
  0
VERTEX
  8
0
 10
-6.247503
 20
3.0
  0
VERTEX
  8
0
 10
3.0
 20
3.0
  0
VERTEX
  8
0
 10
3.0
 20
15.5
  0
VERTEX
  8
0
 10
3.99680288865e-15
 20
15.5
  0
VERTEX
  8
0
 10
6.66133814775e-15
 20
28.0
  0
VERTEX
  8
0
 10
3.0
 20
28.0
  0
VERTEX
  8
0
 10
3.0
 20
40.5
  0
VERTEX
  8
0
 10
9.32587340685e-15
 20
40.5
  0
VERTEX
  8
0
 10
1.24344978758e-14
 20
53.0
  0
VERTEX
  8
0
 10
3.0
 20
53.0
  0
VERTEX
  8
0
 10
3.0
 20
65.5
  0
VERTEX
  8
0
 10
1.50990331349e-14
 20
65.5
  0
VERTEX
  8
0
 10
1.7763568394e-14
 20
78.0
  0
VERTEX
  8
0
 10
3.0
 20
78.0
  0
VERTEX
  8
0
 10
3.0
 20
90.5
  0
VERTEX
  8
0
 10
2.04281036531e-14
 20
90.5
  0
VERTEX
  8
0
 10
2.35367281221e-14
 20
103.0
  0
VERTEX
  8
0
 10
3.0
 20
103.0
  0
VERTEX
  8
0
 10
3.0
 20
115.5
  0
VERTEX
  8
0
 10
2.62012633812e-14
 20
115.5
  0
VERTEX
  8
0
 10
2.88657986403e-14
 20
128.0
  0
VERTEX
  8
0
 10
-6.25
 20
128.0
  0
VERTEX
  8
0
 10
-6.25
 20
131.0
  0
VERTEX
  8
0
 10
-12.5
 20
131.0
  0
VERTEX
  8
0
 10
-12.5
 20
128.0
  0
VERTEX
  8
0
 10
-18.75
 20
128.0
  0
VERTEX
  8
0
 10
-18.75
 20
131.0
  0
VERTEX
  8
0
 10
-25.0
 20
131.0
  0
VERTEX
  8
0
 10
-25.0
 20
128.0
  0
VERTEX
  8
0
 10
-31.25
 20
128.0
  0
VERTEX
  8
0
 10
-31.25
 20
99.0
  0
VERTEX
  8
0
 10
-15.625
 20
99.0
  0
VERTEX
  8
0
 10
-15.625
 20
96.0
  0
VERTEX
  8
0
 10
-31.25
 20
96.0
  0
VERTEX
  8
0
 10
-31.25
 20
67.0
  0
VERTEX
  8
0
 10
-15.625
 20
67.0
  0
VERTEX
  8
0
 10
-15.625
 20
64.0
  0
VERTEX
  8
0
 10
-31.25
 20
64.0
  0
VERTEX
  8
0
 10
-31.25
 20
35.0
  0
VERTEX
  8
0
 10
-15.625
 20
35.0
  0
VERTEX
  8
0
 10
-15.625
 20
32.0
  0
VERTEX
  8
0
 10
-31.25
 20
32.0
  0
SEQEND
  8
0
  0
INSERT
  2
SKETCH002
  8
0
 10
0.0
 20
0.0
 30
0.0
  0
POLYLINE
  8
0
 62
7
 70
1
 66
1
 10
0.0
 20
0.0
 30
0.0
  0
VERTEX
  8
0
 10
-0.05217
 20
-31.229296
  0
VERTEX
  8
0
 10
-0.05217
 20
-24.979296
  0
VERTEX
  8
0
 10
2.94783
 20
-24.979296
  0
VERTEX
  8
0
 10
2.94783
 20
-18.729296
  0
VERTEX
  8
0
 10
-0.05217
 20
-18.729296
  0
VERTEX
  8
0
 10
-0.05217
 20
-12.479296
  0
VERTEX
  8
0
 10
2.94783
 20
-12.479296
  0
VERTEX
  8
0
 10
2.94783
 20
-6.229296
  0
VERTEX
  8
0
 10
-0.05217
 20
-6.229296
  0
VERTEX
  8
0
 10
-0.05217
 20
3.020704
  0
VERTEX
  8
0
 10
12.19783
 20
3.020704
  0
VERTEX
  8
0
 10
12.19783
 20
0.020704
  0
VERTEX
  8
0
 10
24.69783
 20
0.020704
  0
VERTEX
  8
0
 10
24.69783
 20
3.020704
  0
VERTEX
  8
0
 10
37.19783
 20
3.020704
  0
VERTEX
  8
0
 10
37.19783
 20
0.020704
  0
VERTEX
  8
0
 10
49.69783
 20
0.020704
  0
VERTEX
  8
0
 10
49.69783
 20
3.020704
  0
VERTEX
  8
0
 10
62.19783
 20
3.020704
  0
VERTEX
  8
0
 10
62.19783
 20
0.020704
  0
VERTEX
  8
0
 10
74.69783
 20
0.020704
  0
VERTEX
  8
0
 10
74.69783
 20
3.020704
  0
VERTEX
  8
0
 10
87.19783
 20
3.020704
  0
VERTEX
  8
0
 10
87.19783
 20
0.020704
  0
VERTEX
  8
0
 10
99.69783
 20
0.020704
  0
VERTEX
  8
0
 10
99.69783
 20
3.020704
  0
VERTEX
  8
0
 10
112.19783
 20
3.020704
  0
VERTEX
  8
0
 10
112.19783
 20
0.020704
  0
VERTEX
  8
0
 10
124.69783
 20
0.020704
  0
VERTEX
  8
0
 10
124.69783
 20
3.020704
  0
VERTEX
  8
0
 10
137.19783
 20
3.020704
  0
VERTEX
  8
0
 10
137.19783
 20
0.020704
  0
VERTEX
  8
0
 10
149.69783
 20
0.020704
  0
VERTEX
  8
0
 10
149.69783
 20
3.020704
  0
VERTEX
  8
0
 10
162.19783
 20
3.020704
  0
VERTEX
  8
0
 10
162.19783
 20
0.020704
  0
VERTEX
  8
0
 10
174.69783
 20
0.020704
  0
VERTEX
  8
0
 10
174.69783
 20
3.020704
  0
VERTEX
  8
0
 10
187.19783
 20
3.020704
  0
VERTEX
  8
0
 10
187.19783
 20
0.020704
  0
VERTEX
  8
0
 10
199.69783
 20
0.020704
  0
VERTEX
  8
0
 10
199.69783
 20
3.020704
  0
VERTEX
  8
0
 10
212.19783
 20
3.020704
  0
VERTEX
  8
0
 10
212.19783
 20
0.020704
  0
VERTEX
  8
0
 10
224.69783
 20
0.020704
  0
VERTEX
  8
0
 10
224.69783
 20
3.020704
  0
VERTEX
  8
0
 10
237.19783
 20
3.020704
  0
VERTEX
  8
0
 10
237.19783
 20
0.020704
  0
VERTEX
  8
0
 10
249.69783
 20
0.020704
  0
VERTEX
  8
0
 10
249.69783
 20
3.020704
  0
VERTEX
  8
0
 10
261.94783
 20
3.020704
  0
VERTEX
  8
0
 10
261.94783
 20
-6.229296
  0
VERTEX
  8
0
 10
258.94783
 20
-6.229296
  0
VERTEX
  8
0
 10
258.94783
 20
-12.479296
  0
VERTEX
  8
0
 10
261.94783
 20
-12.479296
  0
VERTEX
  8
0
 10
261.94783
 20
-18.729296
  0
VERTEX
  8
0
 10
258.94783
 20
-18.729296
  0
VERTEX
  8
0
 10
258.94783
 20
-24.979296
  0
VERTEX
  8
0
 10
261.94783
 20
-24.979296
  0
VERTEX
  8
0
 10
261.94783
 20
-31.229296
  0
VERTEX
  8
0
 10
229.94783
 20
-31.229296
  0
VERTEX
  8
0
 10
229.94783
 20
-15.604296
  0
VERTEX
  8
0
 10
226.94783
 20
-15.604296
  0
VERTEX
  8
0
 10
226.94783
 20
-31.229296
  0
VERTEX
  8
0
 10
197.94783
 20
-31.229296
  0
VERTEX
  8
0
 10
197.94783
 20
-15.604296
  0
VERTEX
  8
0
 10
194.94783
 20
-15.604296
  0
VERTEX
  8
0
 10
194.94783
 20
-31.229296
  0
VERTEX
  8
0
 10
165.94783
 20
-31.229296
  0
VERTEX
  8
0
 10
165.94783
 20
-15.604296
  0
VERTEX
  8
0
 10
162.94783
 20
-15.604296
  0
VERTEX
  8
0
 10
162.94783
 20
-31.229296
  0
VERTEX
  8
0
 10
133.94783
 20
-31.229296
  0
VERTEX
  8
0
 10
133.94783
 20
-15.604296
  0
VERTEX
  8
0
 10
127.94783
 20
-15.604296
  0
VERTEX
  8
0
 10
127.94783
 20
-31.229296
  0
VERTEX
  8
0
 10
98.94783
 20
-31.229296
  0
VERTEX
  8
0
 10
98.94783
 20
-15.604296
  0
VERTEX
  8
0
 10
95.94783
 20
-15.604296
  0
VERTEX
  8
0
 10
95.94783
 20
-31.229296
  0
VERTEX
  8
0
 10
66.94783
 20
-31.229296
  0
VERTEX
  8
0
 10
66.94783
 20
-15.604296
  0
VERTEX
  8
0
 10
63.94783
 20
-15.604296
  0
VERTEX
  8
0
 10
63.94783
 20
-31.229296
  0
VERTEX
  8
0
 10
34.94783
 20
-31.229296
  0
VERTEX
  8
0
 10
34.94783
 20
-15.604296
  0
VERTEX
  8
0
 10
31.94783
 20
-15.604296
  0
VERTEX
  8
0
 10
31.94783
 20
-31.229296
  0
SEQEND
  8
0
  0
POLYLINE
  8
0
 62
7
 70
1
 66
1
 10
0.0
 20
0.0
 30
0.0
  0
VERTEX
  8
0
 10
293.25
 20
3.0
  0
VERTEX
  8
0
 10
286.997503
 20
3.0
  0
VERTEX
  8
0
 10
286.997503
 20
6.21669449252e-15
  0
VERTEX
  8
0
 10
280.747503
 20
4.82891571174e-15
  0
VERTEX
  8
0
 10
280.747503
 20
3.0
  0
VERTEX
  8
0
 10
274.497503
 20
3.0
  0
VERTEX
  8
0
 10
274.497503
 20
3.44113693096e-15
  0
VERTEX
  8
0
 10
268.247503
 20
2.05335815018e-15
  0
VERTEX
  8
0
 10
268.247503
 20
3.0
  0
VERTEX
  8
0
 10
259.0
 20
3.0
  0
VERTEX
  8
0
 10
259.0
 20
15.5
  0
VERTEX
  8
0
 10
262.0
 20
15.5
  0
VERTEX
  8
0
 10
262.0
 20
28.0
  0
VERTEX
  8
0
 10
259.0
 20
28.0
  0
VERTEX
  8
0
 10
259.0
 20
40.5
  0
VERTEX
  8
0
 10
262.0
 20
40.5
  0
VERTEX
  8
0
 10
262.0
 20
53.0
  0
VERTEX
  8
0
 10
259.0
 20
53.0
  0
VERTEX
  8
0
 10
259.0
 20
65.5
  0
VERTEX
  8
0
 10
262.0
 20
65.5
  0
VERTEX
  8
0
 10
262.0
 20
78.0
  0
VERTEX
  8
0
 10
259.0
 20
78.0
  0
VERTEX
  8
0
 10
259.0
 20
90.5
  0
VERTEX
  8
0
 10
262.0
 20
90.5
  0
VERTEX
  8
0
 10
262.0
 20
103.0
  0
VERTEX
  8
0
 10
259.0
 20
103.0
  0
VERTEX
  8
0
 10
259.0
 20
115.5
  0
VERTEX
  8
0
 10
262.0
 20
115.5
  0
VERTEX
  8
0
 10
262.0
 20
128.0
  0
VERTEX
  8
0
 10
268.25
 20
128.0
  0
VERTEX
  8
0
 10
268.25
 20
131.0
  0
VERTEX
  8
0
 10
274.5
 20
131.0
  0
VERTEX
  8
0
 10
274.5
 20
128.0
  0
VERTEX
  8
0
 10
280.75
 20
128.0
  0
VERTEX
  8
0
 10
280.75
 20
131.0
  0
VERTEX
  8
0
 10
287.0
 20
131.0
  0
VERTEX
  8
0
 10
287.0
 20
128.0
  0
VERTEX
  8
0
 10
293.25
 20
128.0
  0
VERTEX
  8
0
 10
293.25
 20
99.0
  0
VERTEX
  8
0
 10
277.625
 20
99.0
  0
VERTEX
  8
0
 10
277.625
 20
96.0
  0
VERTEX
  8
0
 10
293.25
 20
96.0
  0
VERTEX
  8
0
 10
293.25
 20
67.0
  0
VERTEX
  8
0
 10
277.625
 20
67.0
  0
VERTEX
  8
0
 10
277.625
 20
64.0
  0
VERTEX
  8
0
 10
293.25
 20
64.0
  0
VERTEX
  8
0
 10
293.25
 20
35.0
  0
VERTEX
  8
0
 10
277.625
 20
35.0
  0
VERTEX
  8
0
 10
277.625
 20
32.0
  0
VERTEX
  8
0
 10
293.25
 20
32.0
  0
SEQEND
  8
0
  0
ENDSEC
  0
EOF
