  0
SECTION
  2
HEADER
  9
$ACADVER
  1
AC1009
  9
$INSBASE
 10
0.0
 20
0.0
 30
0.0
  9
$EXTMIN
 10
0.0
 20
0.0
 30
0.0
  9
$EXTMAX
 10
0.0
 20
0.0
 30
0.0
  0
ENDSEC
  0
SECTION
  2
TABLES
  0
TABLE
  2
VPORT
 70
0
  0
ENDTAB
  0
TABLE
  2
LTYPE
 70
1
  0
LTYPE
  2
CONTINUOUS
 70
0
  3
Solid line
 72
65
 73
0
 40
0.0
  0
ENDTAB
  0
TABLE
  2
LAYER
 70
1
  0
LAYER
  2
PYDXF
 70
64
 62
7
  6
continuous
  0
ENDTAB
  0
TABLE
  2
STYLE
 70
1
  0
STYLE
  2
STANDARD
 70
0
 40
0
 41
1.0
 50
0.0
 71
0
 42
1
 3
ARIAL.TTF
 4

  0
ENDTAB
  0
TABLE
  2
VIEW
 70
0
  0
ENDTAB
  0
ENDSEC
  0
SECTION
  2
BLOCKS
  0
BLOCK
  8
0
  2
SKETCH001
 70
0
 10
0.0
 20
0.0
 30
0.0
  3
SKETCH001
  0
POLYLINE
  8
0
 62
7
 70
0
 66
1
 10
0.0
 20
0.0
 30
0.0
  0
VERTEX
  8
0
 10
32.0
 20
31.25
  0
VERTEX
  8
0
 10
32.0
 20
46.875
  0
VERTEX
  8
0
 10
35.0
 20
46.875
  0
VERTEX
  8
0
 10
35.0
 20
31.25
  0
SEQEND
  8
0
  0
POLYLINE
  8
0
 62
7
 70
0
 66
1
 10
0.0
 20
0.0
 30
0.0
  0
VERTEX
  8
0
 10
64.0
 20
31.25
  0
VERTEX
  8
0
 10
64.0
 20
46.875
  0
VERTEX
  8
0
 10
67.0
 20
46.875
  0
VERTEX
  8
0
 10
67.0
 20
31.25
  0
SEQEND
  8
0
  0
POLYLINE
  8
0
 62
7
 70
0
 66
1
 10
0.0
 20
0.0
 30
0.0
  0
VERTEX
  8
0
 10
96.0
 20
31.25
  0
VERTEX
  8
0
 10
96.0
 20
46.875
  0
VERTEX
  8
0
 10
99.0
 20
46.875
  0
VERTEX
  8
0
 10
99.0
 20
31.25
  0
SEQEND
  8
0
  0
POLYLINE
  8
0
 62
7
 70
0
 66
1
 10
0.0
 20
0.0
 30
0.0
  0
VERTEX
  8
0
 10
131.0
 20
31.25
  0
VERTEX
  8
0
 10
131.0
 20
46.875
  0
VERTEX
  8
0
 10
128.0
 20
46.875
  0
VERTEX
  8
0
 10
128.0
 20
62.5
  0
VERTEX
  8
0
 10
3.0
 20
62.5
  0
VERTEX
  8
0
 10
3.0
 20
46.875
  0
VERTEX
  8
0
 10
0.0
 20
46.875
  0
VERTEX
  8
0
 10
0.0
 20
31.25
  0
SEQEND
  8
0
  0
ENDBLK
  0
BLOCK
  8
0
  2
SKETCH003
 70
0
 10
0.0
 20
0.0
 30
0.0
  3
SKETCH003
  0
POLYLINE
  8
0
 62
7
 70
0
 66
1
 10
0.0
 20
0.0
 30
0.0
  0
VERTEX
  8
0
 10
32.0
 20
93.75
  0
VERTEX
  8
0
 10
32.0
 20
109.375
  0
VERTEX
  8
0
 10
35.0
 20
109.375
  0
VERTEX
  8
0
 10
35.0
 20
93.75
  0
SEQEND
  8
0
  0
POLYLINE
  8
0
 62
7
 70
0
 66
1
 10
0.0
 20
0.0
 30
0.0
  0
VERTEX
  8
0
 10
64.0
 20
93.75
  0
VERTEX
  8
0
 10
64.0
 20
109.375
  0
VERTEX
  8
0
 10
67.0
 20
109.375
  0
VERTEX
  8
0
 10
67.0
 20
93.75
  0
SEQEND
  8
0
  0
POLYLINE
  8
0
 62
7
 70
0
 66
1
 10
0.0
 20
0.0
 30
0.0
  0
VERTEX
  8
0
 10
96.0
 20
93.75
  0
VERTEX
  8
0
 10
96.0
 20
109.375
  0
VERTEX
  8
0
 10
99.0
 20
109.375
  0
VERTEX
  8
0
 10
99.0
 20
93.75
  0
SEQEND
  8
0
  0
POLYLINE
  8
0
 62
7
 70
0
 66
1
 10
0.0
 20
0.0
 30
0.0
  0
VERTEX
  8
0
 10
131.0
 20
93.75
  0
VERTEX
  8
0
 10
131.0
 20
109.375
  0
VERTEX
  8
0
 10
128.0
 20
109.375
  0
VERTEX
  8
0
 10
128.0
 20
125.0
  0
VERTEX
  8
0
 10
3.0
 20
125.0
  0
VERTEX
  8
0
 10
3.0
 20
109.375
  0
VERTEX
  8
0
 10
0.0
 20
109.375
  0
VERTEX
  8
0
 10
0.0
 20
93.75
  0
SEQEND
  8
0
  0
ENDBLK
  0
BLOCK
  8
0
  2
SKETCH005
 70
0
 10
0.0
 20
0.0
 30
0.0
  3
SKETCH005
  0
POLYLINE
  8
0
 62
7
 70
0
 66
1
 10
0.0
 20
0.0
 30
0.0
  0
VERTEX
  8
0
 10
160.0
 20
31.25
  0
VERTEX
  8
0
 10
160.0
 20
46.875
  0
VERTEX
  8
0
 10
163.0
 20
46.875
  0
VERTEX
  8
0
 10
163.0
 20
31.25
  0
SEQEND
  8
0
  0
POLYLINE
  8
0
 62
7
 70
0
 66
1
 10
0.0
 20
0.0
 30
0.0
  0
VERTEX
  8
0
 10
192.0
 20
31.25
  0
VERTEX
  8
0
 10
192.0
 20
46.875
  0
VERTEX
  8
0
 10
195.0
 20
46.875
  0
VERTEX
  8
0
 10
195.0
 20
31.25
  0
SEQEND
  8
0
  0
POLYLINE
  8
0
 62
7
 70
0
 66
1
 10
0.0
 20
0.0
 30
0.0
  0
VERTEX
  8
0
 10
224.0
 20
31.25
  0
VERTEX
  8
0
 10
224.0
 20
46.875
  0
VERTEX
  8
0
 10
227.0
 20
46.875
  0
VERTEX
  8
0
 10
227.0
 20
31.25
  0
VERTEX
  8
0
 10
256.0
 20
31.25
  0
VERTEX
  8
0
 10
256.0
 20
46.875
  0
VERTEX
  8
0
 10
259.0
 20
46.875
  0
VERTEX
  8
0
 10
259.0
 20
62.5
  0
VERTEX
  8
0
 10
128.0
 20
62.5
  0
SEQEND
  8
0
  0
ENDBLK
  0
BLOCK
  8
0
  2
SKETCH006
 70
0
 10
0.0
 20
0.0
 30
0.0
  3
SKETCH006
  0
POLYLINE
  8
0
 62
7
 70
0
 66
1
 10
0.0
 20
0.0
 30
0.0
  0
VERTEX
  8
0
 10
160.0
 20
93.75
  0
VERTEX
  8
0
 10
160.0
 20
78.125
  0
VERTEX
  8
0
 10
163.0
 20
78.125
  0
VERTEX
  8
0
 10
163.0
 20
93.75
  0
SEQEND
  8
0
  0
POLYLINE
  8
0
 62
7
 70
0
 66
1
 10
0.0
 20
0.0
 30
0.0
  0
VERTEX
  8
0
 10
192.0
 20
93.75
  0
VERTEX
  8
0
 10
192.0
 20
78.125
  0
VERTEX
  8
0
 10
195.0
 20
78.125
  0
VERTEX
  8
0
 10
195.0
 20
93.75
  0
SEQEND
  8
0
  0
POLYLINE
  8
0
 62
7
 70
0
 66
1
 10
0.0
 20
0.0
 30
0.0
  0
VERTEX
  8
0
 10
224.0
 20
93.75
  0
VERTEX
  8
0
 10
224.0
 20
78.125
  0
VERTEX
  8
0
 10
227.0
 20
78.125
  0
VERTEX
  8
0
 10
227.0
 20
93.75
  0
VERTEX
  8
0
 10
256.0
 20
93.75
  0
VERTEX
  8
0
 10
256.0
 20
78.125
  0
VERTEX
  8
0
 10
259.0
 20
78.125
  0
VERTEX
  8
0
 10
259.0
 20
62.5
  0
SEQEND
  8
0
  0
ENDBLK
  0
BLOCK
  8
0
  2
SKETCH007
 70
0
 10
0.0
 20
0.0
 30
0.0
  3
SKETCH007
  0
POLYLINE
  8
0
 62
7
 70
0
 66
1
 10
0.0
 20
0.0
 30
0.0
  0
VERTEX
  8
0
 10
160.0
 20
125.0
  0
VERTEX
  8
0
 10
160.0
 20
109.375
  0
VERTEX
  8
0
 10
163.0
 20
109.375
  0
VERTEX
  8
0
 10
163.0
 20
125.0
  0
SEQEND
  8
0
  0
POLYLINE
  8
0
 62
7
 70
0
 66
1
 10
0.0
 20
0.0
 30
0.0
  0
VERTEX
  8
0
 10
192.0
 20
125.0
  0
VERTEX
  8
0
 10
192.0
 20
109.375
  0
VERTEX
  8
0
 10
195.0
 20
109.375
  0
VERTEX
  8
0
 10
195.0
 20
125.0
  0
SEQEND
  8
0
  0
POLYLINE
  8
0
 62
7
 70
0
 66
1
 10
0.0
 20
0.0
 30
0.0
  0
VERTEX
  8
0
 10
224.0
 20
125.0
  0
VERTEX
  8
0
 10
224.0
 20
109.375
  0
VERTEX
  8
0
 10
227.0
 20
109.375
  0
VERTEX
  8
0
 10
227.0
 20
125.0
  0
VERTEX
  8
0
 10
259.0
 20
125.0
  0
VERTEX
  8
0
 10
259.0
 20
109.375
  0
VERTEX
  8
0
 10
256.0
 20
109.375
  0
VERTEX
  8
0
 10
256.0
 20
93.75
  0
VERTEX
  8
0
 10
131.0
 20
93.75
  0
SEQEND
  8
0
  0
ENDBLK
  0
BLOCK
  8
0
  2
SKETCH009
 70
0
 10
0.0
 20
0.0
 30
0.0
  3
SKETCH009
  0
POLYLINE
  8
0
 62
7
 70
0
 66
1
 10
0.0
 20
0.0
 30
0.0
  0
VERTEX
  8
0
 10
32.0
 20
125.0
  0
VERTEX
  8
0
 10
32.0
 20
140.625
  0
VERTEX
  8
0
 10
35.0
 20
140.625
  0
VERTEX
  8
0
 10
35.0
 20
125.0
  0
SEQEND
  8
0
  0
POLYLINE
  8
0
 62
7
 70
0
 66
1
 10
0.0
 20
0.0
 30
0.0
  0
VERTEX
  8
0
 10
64.0
 20
125.0
  0
VERTEX
  8
0
 10
64.0
 20
140.625
  0
VERTEX
  8
0
 10
67.0
 20
140.625
  0
VERTEX
  8
0
 10
67.0
 20
125.0
  0
SEQEND
  8
0
  0
POLYLINE
  8
0
 62
7
 70
0
 66
1
 10
0.0
 20
0.0
 30
0.0
  0
VERTEX
  8
0
 10
96.0
 20
125.0
  0
VERTEX
  8
0
 10
96.0
 20
140.625
  0
VERTEX
  8
0
 10
99.0
 20
140.625
  0
VERTEX
  8
0
 10
99.0
 20
125.0
  0
SEQEND
  8
0
  0
POLYLINE
  8
0
 62
7
 70
0
 66
1
 10
0.0
 20
0.0
 30
0.0
  0
VERTEX
  8
0
 10
131.0
 20
156.25
  0
VERTEX
  8
0
 10
0.0
 20
156.25
  0
VERTEX
  8
0
 10
0.0
 20
140.625
  0
VERTEX
  8
0
 10
3.0
 20
140.625
  0
VERTEX
  8
0
 10
3.0
 20
125.0
  0
SEQEND
  8
0
  0
ENDBLK
  0
BLOCK
  8
0
  2
SKETCH012
 70
0
 10
0.0
 20
0.0
 30
0.0
  3
SKETCH012
  0
POLYLINE
  8
0
 62
7
 70
0
 66
1
 10
0.0
 20
0.0
 30
0.0
  0
VERTEX
  8
0
 10
160.0
 20
187.5
  0
VERTEX
  8
0
 10
160.0
 20
203.125
  0
VERTEX
  8
0
 10
163.0
 20
203.125
  0
VERTEX
  8
0
 10
163.0
 20
187.5
  0
SEQEND
  8
0
  0
POLYLINE
  8
0
 62
7
 70
0
 66
1
 10
0.0
 20
0.0
 30
0.0
  0
VERTEX
  8
0
 10
192.0
 20
187.5
  0
VERTEX
  8
0
 10
192.0
 20
203.125
  0
VERTEX
  8
0
 10
195.0
 20
203.125
  0
VERTEX
  8
0
 10
195.0
 20
187.5
  0
SEQEND
  8
0
  0
POLYLINE
  8
0
 62
7
 70
0
 66
1
 10
0.0
 20
0.0
 30
0.0
  0
VERTEX
  8
0
 10
224.0
 20
187.5
  0
VERTEX
  8
0
 10
224.0
 20
203.125
  0
VERTEX
  8
0
 10
227.0
 20
203.125
  0
VERTEX
  8
0
 10
227.0
 20
187.5
  0
SEQEND
  8
0
  0
POLYLINE
  8
0
 62
7
 70
0
 66
1
 10
0.0
 20
0.0
 30
0.0
  0
VERTEX
  8
0
 10
259.0
 20
187.5
  0
VERTEX
  8
0
 10
259.0
 20
203.125
  0
VERTEX
  8
0
 10
256.0
 20
203.125
  0
VERTEX
  8
0
 10
256.0
 20
218.75
  0
VERTEX
  8
0
 10
131.0
 20
218.75
  0
VERTEX
  8
0
 10
131.0
 20
203.125
  0
VERTEX
  8
0
 10
128.0
 20
203.125
  0
VERTEX
  8
0
 10
128.0
 20
187.5
  0
SEQEND
  8
0
  0
ENDBLK
  0
BLOCK
  8
0
  2
SKETCH013
 70
0
 10
0.0
 20
0.0
 30
0.0
  3
SKETCH013
  0
POLYLINE
  8
0
 62
7
 70
0
 66
1
 10
0.0
 20
0.0
 30
0.0
  0
VERTEX
  8
0
 10
32.0
 20
187.5
  0
VERTEX
  8
0
 10
32.0
 20
203.125
  0
VERTEX
  8
0
 10
35.0
 20
203.125
  0
VERTEX
  8
0
 10
35.0
 20
187.5
  0
SEQEND
  8
0
  0
POLYLINE
  8
0
 62
7
 70
0
 66
1
 10
0.0
 20
0.0
 30
0.0
  0
VERTEX
  8
0
 10
64.0
 20
187.5
  0
VERTEX
  8
0
 10
64.0
 20
203.125
  0
VERTEX
  8
0
 10
67.0
 20
203.125
  0
VERTEX
  8
0
 10
67.0
 20
187.5
  0
SEQEND
  8
0
  0
POLYLINE
  8
0
 62
7
 70
0
 66
1
 10
0.0
 20
0.0
 30
0.0
  0
VERTEX
  8
0
 10
96.0
 20
187.5
  0
VERTEX
  8
0
 10
96.0
 20
203.125
  0
VERTEX
  8
0
 10
99.0
 20
203.125
  0
VERTEX
  8
0
 10
99.0
 20
187.5
  0
SEQEND
  8
0
  0
POLYLINE
  8
0
 62
7
 70
0
 66
1
 10
0.0
 20
0.0
 30
0.0
  0
VERTEX
  8
0
 10
131.0
 20
218.75
  0
VERTEX
  8
0
 10
0.0
 20
218.75
  0
VERTEX
  8
0
 10
0.0
 20
203.125
  0
VERTEX
  8
0
 10
3.0
 20
203.125
  0
VERTEX
  8
0
 10
3.0
 20
187.5
  0
SEQEND
  8
0
  0
ENDBLK
  0
ENDSEC
  0
SECTION
  2
ENTITIES
  0
POLYLINE
  8
0
 62
7
 70
1
 66
1
 10
0.0
 20
0.0
 30
0.0
  0
VERTEX
  8
0
 10
0.0
 20
31.25
  0
VERTEX
  8
0
 10
32.0
 20
31.25
  0
VERTEX
  8
0
 10
32.0
 20
15.625
  0
VERTEX
  8
0
 10
35.0
 20
15.625
  0
VERTEX
  8
0
 10
35.0
 20
31.25
  0
VERTEX
  8
0
 10
64.0
 20
31.25
  0
VERTEX
  8
0
 10
64.0
 20
15.625
  0
VERTEX
  8
0
 10
67.0
 20
15.625
  0
VERTEX
  8
0
 10
67.0
 20
31.25
  0
VERTEX
  8
0
 10
96.0
 20
31.25
  0
VERTEX
  8
0
 10
96.0
 20
15.625
  0
VERTEX
  8
0
 10
99.0
 20
15.625
  0
VERTEX
  8
0
 10
99.0
 20
31.25
  0
VERTEX
  8
0
 10
131.0
 20
31.25
  0
VERTEX
  8
0
 10
131.0
 20
15.625
  0
VERTEX
  8
0
 10
128.0
 20
15.625
  0
VERTEX
  8
0
 10
128.0
 20
0.0
  0
VERTEX
  8
0
 10
3.0
 20
0.0
  0
VERTEX
  8
0
 10
3.0
 20
15.625
  0
VERTEX
  8
0
 10
0.0
 20
15.625
  0
SEQEND
  8
0
  0
INSERT
  2
SKETCH001
  8
0
 10
0.0
 20
0.0
 30
0.0
  0
POLYLINE
  8
0
 62
7
 70
0
 66
1
 10
0.0
 20
0.0
 30
0.0
  0
VERTEX
  8
0
 10
128.0
 20
62.5
  0
VERTEX
  8
0
 10
128.0
 20
78.125
  0
VERTEX
  8
0
 10
131.0
 20
78.125
  0
VERTEX
  8
0
 10
131.0
 20
93.75
  0
VERTEX
  8
0
 10
99.0
 20
93.75
  0
VERTEX
  8
0
 10
99.0
 20
78.125
  0
VERTEX
  8
0
 10
96.0
 20
78.125
  0
VERTEX
  8
0
 10
96.0
 20
93.75
  0
VERTEX
  8
0
 10
67.0
 20
93.75
  0
VERTEX
  8
0
 10
67.0
 20
78.125
  0
VERTEX
  8
0
 10
64.0
 20
78.125
  0
VERTEX
  8
0
 10
64.0
 20
93.75
  0
VERTEX
  8
0
 10
35.0
 20
93.75
  0
VERTEX
  8
0
 10
35.0
 20
78.125
  0
VERTEX
  8
0
 10
32.0
 20
78.125
  0
VERTEX
  8
0
 10
32.0
 20
93.75
  0
VERTEX
  8
0
 10
0.0
 20
93.75
  0
VERTEX
  8
0
 10
0.0
 20
78.125
  0
VERTEX
  8
0
 10
3.0
 20
78.125
  0
VERTEX
  8
0
 10
3.0
 20
62.5
  0
SEQEND
  8
0
  0
INSERT
  2
SKETCH003
  8
0
 10
0.0
 20
0.0
 30
0.0
  0
POLYLINE
  8
0
 62
7
 70
0
 66
1
 10
0.0
 20
0.0
 30
0.0
  0
VERTEX
  8
0
 10
131.0
 20
31.25
  0
VERTEX
  8
0
 10
160.0
 20
31.25
  0
VERTEX
  8
0
 10
160.0
 20
15.625
  0
VERTEX
  8
0
 10
163.0
 20
15.625
  0
VERTEX
  8
0
 10
163.0
 20
31.25
  0
VERTEX
  8
0
 10
192.0
 20
31.25
  0
VERTEX
  8
0
 10
192.0
 20
15.625
  0
VERTEX
  8
0
 10
195.0
 20
15.625
  0
VERTEX
  8
0
 10
195.0
 20
31.25
  0
VERTEX
  8
0
 10
224.0
 20
31.25
  0
VERTEX
  8
0
 10
224.0
 20
15.625
  0
VERTEX
  8
0
 10
227.0
 20
15.625
  0
VERTEX
  8
0
 10
227.0
 20
31.25
  0
VERTEX
  8
0
 10
256.0
 20
31.25
  0
VERTEX
  8
0
 10
256.0
 20
15.625
  0
VERTEX
  8
0
 10
259.0
 20
15.625
  0
VERTEX
  8
0
 10
259.0
 20
0.0
  0
VERTEX
  8
0
 10
128.0
 20
0.0
  0
SEQEND
  8
0
  0
INSERT
  2
SKETCH005
  8
0
 10
0.0
 20
0.0
 30
0.0
  0
INSERT
  2
SKETCH006
  8
0
 10
0.0
 20
0.0
 30
0.0
  0
INSERT
  2
SKETCH007
  8
0
 10
0.0
 20
0.0
 30
0.0
  0
POLYLINE
  8
0
 62
7
 70
1
 66
1
 10
0.0
 20
0.0
 30
0.0
  0
VERTEX
  8
0
 10
128.0
 20
125.0
  0
VERTEX
  8
0
 10
160.0
 20
125.0
  0
VERTEX
  8
0
 10
160.0
 20
140.625
  0
VERTEX
  8
0
 10
163.0
 20
140.625
  0
VERTEX
  8
0
 10
163.0
 20
125.0
  0
VERTEX
  8
0
 10
192.0
 20
125.0
  0
VERTEX
  8
0
 10
192.0
 20
140.625
  0
VERTEX
  8
0
 10
195.0
 20
140.625
  0
VERTEX
  8
0
 10
195.0
 20
125.0
  0
VERTEX
  8
0
 10
224.0
 20
125.0
  0
VERTEX
  8
0
 10
224.0
 20
140.625
  0
VERTEX
  8
0
 10
227.0
 20
140.625
  0
VERTEX
  8
0
 10
227.0
 20
125.0
  0
VERTEX
  8
0
 10
259.0
 20
125.0
  0
VERTEX
  8
0
 10
259.0
 20
140.625
  0
VERTEX
  8
0
 10
256.0
 20
140.625
  0
VERTEX
  8
0
 10
256.0
 20
156.25
  0
VERTEX
  8
0
 10
131.0
 20
156.25
  0
VERTEX
  8
0
 10
131.0
 20
140.625
  0
VERTEX
  8
0
 10
128.0
 20
140.625
  0
SEQEND
  8
0
  0
INSERT
  2
SKETCH009
  8
0
 10
0.0
 20
0.0
 30
0.0
  0
POLYLINE
  8
0
 62
7
 70
0
 66
1
 10
0.0
 20
0.0
 30
0.0
  0
VERTEX
  8
0
 10
131.0
 20
156.25
  0
VERTEX
  8
0
 10
131.0
 20
171.875
  0
VERTEX
  8
0
 10
128.0
 20
171.875
  0
VERTEX
  8
0
 10
128.0
 20
187.5
  0
VERTEX
  8
0
 10
99.0
 20
187.5
  0
VERTEX
  8
0
 10
99.0
 20
171.875
  0
VERTEX
  8
0
 10
96.0
 20
171.875
  0
VERTEX
  8
0
 10
96.0
 20
187.5
  0
VERTEX
  8
0
 10
67.0
 20
187.5
  0
VERTEX
  8
0
 10
67.0
 20
171.875
  0
VERTEX
  8
0
 10
64.0
 20
171.875
  0
VERTEX
  8
0
 10
64.0
 20
187.5
  0
VERTEX
  8
0
 10
35.0
 20
187.5
  0
VERTEX
  8
0
 10
35.0
 20
171.875
  0
VERTEX
  8
0
 10
32.0
 20
171.875
  0
VERTEX
  8
0
 10
32.0
 20
187.5
  0
VERTEX
  8
0
 10
3.0
 20
187.5
  0
VERTEX
  8
0
 10
3.0
 20
171.875
  0
VERTEX
  8
0
 10
0.0
 20
171.875
  0
VERTEX
  8
0
 10
0.0
 20
156.25
  0
SEQEND
  8
0
  0
POLYLINE
  8
0
 62
7
 70
0
 66
1
 10
0.0
 20
0.0
 30
0.0
  0
VERTEX
  8
0
 10
128.0
 20
187.5
  0
VERTEX
  8
0
 10
160.0
 20
187.5
  0
VERTEX
  8
0
 10
160.0
 20
171.875
  0
VERTEX
  8
0
 10
163.0
 20
171.875
  0
VERTEX
  8
0
 10
163.0
 20
187.5
  0
VERTEX
  8
0
 10
192.0
 20
187.5
  0
VERTEX
  8
0
 10
192.0
 20
171.875
  0
VERTEX
  8
0
 10
195.0
 20
171.875
  0
VERTEX
  8
0
 10
195.0
 20
187.5
  0
VERTEX
  8
0
 10
224.0
 20
187.5
  0
VERTEX
  8
0
 10
224.0
 20
171.875
  0
VERTEX
  8
0
 10
227.0
 20
171.875
  0
VERTEX
  8
0
 10
227.0
 20
187.5
  0
VERTEX
  8
0
 10
259.0
 20
187.5
  0
VERTEX
  8
0
 10
259.0
 20
171.875
  0
VERTEX
  8
0
 10
256.0
 20
171.875
  0
VERTEX
  8
0
 10
256.0
 20
156.25
  0
SEQEND
  8
0
  0
INSERT
  2
SKETCH012
  8
0
 10
0.0
 20
0.0
 30
0.0
  0
INSERT
  2
SKETCH013
  8
0
 10
0.0
 20
0.0
 30
0.0
  0
ENDSEC
  0
EOF
