0
SECTION
2
HEADER
9
$INSUNITS
70
4
9
$ACADVER
1
AC1014
9
$HANDSEED
5
FFFF
0
ENDSEC
0
SECTION
2
TABLES
0
TABLE
2
VPORT
5
8
100
AcDbSymbolTable
0
ENDTAB
0
TABLE
2
LTYPE
5
5
100
AcDbSymbolTable
0
LTYPE
5
14
100
AcDbSymbolTableRecord
100
AcDbLinetypeTableRecord
2
BYBLOCK
70
0
0
LTYPE
5
15
100
AcDbSymbolTableRecord
100
AcDbLinetypeTableRecord
2
BYLAYER
70
0
0
ENDTAB
0
TABLE
2
LAYER
5
2
100
AcDbSymbolTable
70
2
0
LAYER
5
50
100
AcDbSymbolTableRecord
100
AcDbLayerTableRecord
2
0
70
0
6
CONTINUOUS
0
ENDTAB
0
TABLE
2
STYLE
5
3
100
AcDbSymbolTable
70
1
0
STYLE
5
11
100
AcDbSymbolTableRecord
100
AcDbTextStyleTableRecord
2
STANDARD
70
0
0
ENDTAB
0
TABLE
2
VIEW
5
6
100
AcDbSymbolTable
70
0
0
ENDTAB
0
TABLE
2
UCS
5
7
100
AcDbSymbolTable
70
0
0
ENDTAB
0
TABLE
2
APPID
5
9
100
AcDbSymbolTable
70
2
0
APPID
5
12
100
AcDbSymbolTableRecord
100
AcDbRegAppTableRecord
2
ACAD
70
0
0
ENDTAB
0
TABLE
2
DIMSTYLE
5
A
100
AcDbSymbolTable
70
1
0
ENDTAB
0
TABLE
2
BLOCK_RECORD
5
1
100
AcDbSymbolTable
70
1
0
BLOCK_RECORD
5
1F
100
AcDbSymbolTableRecord
100
AcDbBlockTableRecord
2
*MODEL_SPACE
0
BLOCK_RECORD
5
1B
100
AcDbSymbolTableRecord
100
AcDbBlockTableRecord
2
*PAPER_SPACE
0
ENDTAB
0
ENDSEC
0
SECTION
2
BLOCKS
0
BLOCK
5
20
100
AcDbEntity
100
AcDbBlockBegin
2
*MODEL_SPACE
0
ENDBLK
5
21
100
AcDbEntity
100
AcDbBlockEnd
0
BLOCK
5
1C
100
AcDbEntity
100
AcDbBlockBegin
2
*PAPER_SPACE
0
ENDBLK
5
1D
100
AcDbEntity
100
AcDbBlockEnd
0
ENDSEC
0
SECTION
2
ENTITIES
0
LWPOLYLINE
5
100
100
AcDbEntity
8
0
100
AcDbPolyline
90
4
70
1
43
0.0
10
94.456249999999955
20
117.47499999999999
10
94.456249999999955
20
66.674999999999969
10
97.631249999999994
20
66.674999999999969
10
97.631249999999994
20
117.47499999999999
0
LWPOLYLINE
5
101
100
AcDbEntity
8
0
100
AcDbPolyline
90
4
70
1
43
0.0
10
94.456249999999955
20
219.07499999999999
10
94.456249999999955
20
168.27500000000001
10
97.631249999999994
20
168.27500000000001
10
97.631249999999994
20
219.07499999999999
0
LWPOLYLINE
5
102
100
AcDbEntity
8
0
100
AcDbPolyline
90
4
70
1
43
0.0
10
195.26250000000002
20
168.27500000000001
10
195.26250000000002
20
219.07499999999999
10
192.08749999999998
20
219.07499999999999
10
192.08749999999998
20
168.27500000000001
0
LWPOLYLINE
5
103
100
AcDbEntity
8
0
100
AcDbPolyline
90
4
70
1
43
0.0
10
195.26250000000002
20
66.674999999999969
10
195.26250000000002
20
117.47499999999999
10
192.08749999999998
20
117.47499999999999
10
192.08749999999998
20
66.674999999999969
0
LWPOLYLINE
5
104
100
AcDbEntity
8
0
100
AcDbPolyline
90
4
70
1
43
0.0
10
289.71875
20
117.47499999999999
10
289.71875
20
66.674999999999969
10
292.89375000000001
20
66.674999999999969
10
292.89375000000001
20
117.47499999999999
0
LWPOLYLINE
5
105
100
AcDbEntity
8
0
100
AcDbPolyline
90
4
70
1
43
0.0
10
289.71875
20
219.07499999999999
10
289.71875
20
168.27500000000001
10
292.89375000000001
20
168.27500000000001
10
292.89375000000001
20
219.07499999999999
0
LWPOLYLINE
5
106
100
AcDbEntity
8
0
100
AcDbPolyline
90
44
70
1
43
0.0
10
269.875
20
0
10
269.875
20
3.1749999999999901
10
219.07499999999999
20
3.1749999999999901
10
219.07499999999999
20
0
10
168.27500000000001
20
0
10
168.27500000000001
20
3.1749999999999901
10
117.47500000000002
20
3.1749999999999901
10
117.47500000000001
20
0
10
66.675000000000011
20
0
10
66.675000000000011
20
3.1749999999999901
10
3.1749999999999901
20
3.1749999999999901
10
3.1749999999999901
20
66.674999999999969
10
0
20
66.674999999999969
10
0
20
117.47499999999999
10
3.1749999999999901
20
117.47499999999999
10
3.1749999999999901
20
168.27500000000001
10
0
20
168.27500000000001
10
0
20
219.07499999999999
10
3.1749999999999901
20
219.07499999999999
10
3.1749999999999901
20
282.57499999999999
10
66.675000000000011
20
282.57499999999999
10
66.675000000000011
20
285.75
10
117.47500000000001
20
285.75
10
117.47500000000001
20
282.57499999999999
10
168.27500000000001
20
282.57499999999999
10
168.27500000000001
20
285.75
10
219.07499999999999
20
285.75
10
219.07499999999999
20
282.57499999999999
10
269.875
20
282.57499999999999
10
269.875
20
285.75
10
320.67499999999995
20
285.75
10
320.67499999999995
20
282.57499999999999
10
384.17499999999995
20
282.57499999999999
10
384.17499999999995
20
219.07499999999999
10
387.35000000000002
20
219.07499999999999
10
387.35000000000002
20
168.27500000000001
10
384.17499999999995
20
168.27500000000001
10
384.17499999999995
20
117.47499999999999
10
387.35000000000002
20
117.47499999999999
10
387.35000000000002
20
66.674999999999969
10
384.17499999999995
20
66.674999999999969
10
384.17499999999995
20
3.1749999999999901
10
320.67499999999995
20
3.1749999999999901
10
320.67499999999995
20
0
0
ENDSEC
0
SECTION
2
OBJECTS
0
DICTIONARY
5
C
100
AcDbDictionary
3
ACAD_GROUP
350
D
3
ACAD_MLINESTYLE
350
17
0
DICTIONARY
5
D
100
AcDbDictionary
0
DICTIONARY
5
1A
330
C
100
AcDbDictionary
0
DICTIONARY
5
17
100
AcDbDictionary
0
ENDSEC
0
EOF
