<?xml version="1.0" encoding="UTF-8" standalone="no"?>
<svg
   xmlns:dc="http://purl.org/dc/elements/1.1/"
   xmlns:cc="http://creativecommons.org/ns#"
   xmlns:rdf="http://www.w3.org/1999/02/22-rdf-syntax-ns#"
   xmlns:svg="http://www.w3.org/2000/svg"
   xmlns="http://www.w3.org/2000/svg"
   xmlns:sodipodi="http://sodipodi.sourceforge.net/DTD/sodipodi-0.dtd"
   xmlns:inkscape="http://www.inkscape.org/namespaces/inkscape"
   width="24in"
   height="17in"
   id="svg2"
   version="1.1"
   inkscape:version="0.91 r13725"
   sodipodi:docname="divider.svg">
  <metadata
     id="metadata26">
    <rdf:RDF>
      <cc:Work
         rdf:about="">
        <dc:format>image/svg+xml</dc:format>
        <dc:type
           rdf:resource="http://purl.org/dc/dcmitype/StillImage" />
        <dc:title></dc:title>
      </cc:Work>
    </rdf:RDF>
  </metadata>
  <sodipodi:namedview
     pagecolor="#ffffff"
     bordercolor="#666666"
     borderopacity="1"
     objecttolerance="10"
     gridtolerance="10"
     guidetolerance="10"
     inkscape:pageopacity="0"
     inkscape:pageshadow="2"
     inkscape:window-width="1536"
     inkscape:window-height="801"
     id="namedview24"
     showgrid="false"
     units="in"
     showborder="true"
     inkscape:zoom="0.31714785"
     inkscape:cx="811.54355"
     inkscape:cy="791.08142"
     inkscape:window-x="-8"
     inkscape:window-y="-8"
     inkscape:window-maximized="1"
     inkscape:current-layer="g20" />
  <desc
     id="desc4">C:\Users\ashar\Desktop\tray rack\drawer\divider.dxf - scale = 1.000000, origin = (0.000000, 0.000000), auto = False</desc>
  <defs
     id="defs6">
    <marker
       refY="0"
       refX="0"
       style="overflow:visible"
       id="DistanceX"
       orient="auto">
      <path
         style="stroke:#000000;stroke-width:0.5"
         d="M 3,-3 -3,3 M 0,-5 0,5"
         id="path9"
         inkscape:connector-curvature="0" />
    </marker>
    <pattern
       height="8"
       width="8"
       patternUnits="userSpaceOnUse"
       y="0"
       x="0"
       id="Hatch">
      <path
         linecap="square"
         stroke="#000000"
         stroke-width="0.25"
         d="M8 4 l-4,4"
         id="path12" />
      <path
         linecap="square"
         stroke="#000000"
         stroke-width="0.25"
         d="M6 2 l-4,4"
         id="path14" />
      <path
         linecap="square"
         stroke="#000000"
         stroke-width="0.25"
         d="M4 0 l-4,4"
         id="path16" />
    </pattern>
    <symbol
       id="*MODEL_SPACE" />
    <symbol
       id="*PAPER_SPACE" />
  </defs>
  <g
     inkscape:label="0"
     inkscape:groupmode="layer"
     id="g20"
     transform="translate(0,477.63783)">
    <path
       style="fill:none;stroke:#0000ff;stroke-opacity:1"
       d="m 1059.3162,203.50286 11.25,0 0,180 -11.25,0 0,146.25 -989.999982,0 0,-146.25 -11.25,0 0,-180 11.25,0 0,-135.000001 224.999992,0 0,-11.25 180,0 0,11.25 180,0 0,-11.25 180,0 0,11.25 224.99999,0 0,135.000001 z"
       id="path22"
       inkscape:connector-curvature="0" />
    <path
       style="fill:none;stroke:#0000ff;stroke-opacity:1"
       d="m 2078.6452,205.73241 11.25,0 0,180 -11.25,0 0,146.25 -990,0 0,-146.25 -11.25,0 0,-180 11.25,0 0,-134.99996 225,0 0,-11.25 180,0 0,11.25 180,0 0,-11.25 180,0 0,11.25 225,0 0,134.99996 z"
       id="path22-0"
       inkscape:connector-curvature="0" />
    <path
       inkscape:connector-curvature="0"
       style="fill:none;stroke:#0000ff;stroke-opacity:1"
       d="m 1061.4107,865.76169 0,146.25001 -225,0 0,-11.25 -180,0 0,11.25 -180,0 0,-11.25 -180,0 0,11.25 -225.000026,0 0,-146.25001 -11.25,0 0,-180 11.25,0 0,-146.25001 990.000026,0 0,146.25001 11.25,0 0,180 -11.25,0 z"
       id="path22-6" />
    <path
       inkscape:connector-curvature="0"
       style="fill:none;stroke:#0000ff;stroke-opacity:1"
       d="m 2087.4107,865.76169 0,146.25001 -225,0 0,-11.25 -180,0 0,11.25 -180,0 0,-11.25 -180,0 0,11.25 -225,0 0,-146.25001 -11.25,0 0,-180 11.25,0 0,-146.25001 990,0 0,146.25001 11.25,0 0,180 -11.25,0 z"
       id="path22-6-4" />
    <path
       style="fill:none;stroke:#0000ff;stroke-opacity:1"
       d="m 1055.3162,-96.49714 11.25,0 0,-180 -11.25,0 0,-146.25 -989.999982,0 0,146.25 -11.25,0 0,180 11.25,0 0,135 224.999992,0 0,11.25 180,0 0,-11.25 180,0 0,11.25 180,0 0,-11.25 224.99999,0 0,-135 z"
       id="path22-06"
       inkscape:connector-curvature="0" />
    <path
       inkscape:connector-curvature="0"
       style="fill:none;stroke:#0000ff;stroke-opacity:1"
       d="m 2079.4107,-90.23831 0,146.25001 -225,0 0,-11.25 -180,0 0,11.25 -180,0 0,-11.25 -180,0 0,11.25 -225,0 0,-146.25001 -11.25,0 0,-180 11.25,0 0,-146.25001 990,0 0,146.25001 11.25,0 0,180 -11.25,0 z"
       id="path22-6-4-1" />
  </g>
</svg>
