<?xml version="1.0" encoding="UTF-8"?>
<!DOCTYPE svg PUBLIC "-//W3C//DTD SVG 1.1//EN" "http://www.w3.org/Graphics/SVG/1.1/DTD/svg11.dtd">
<!-- Creator: CorelDRAW -->
<svg xmlns="http://www.w3.org/2000/svg" xml:space="preserve" width="600mm" height="450mm" style="shape-rendering:geometricPrecision; text-rendering:geometricPrecision; image-rendering:optimizeQuality; fill-rule:evenodd; clip-rule:evenodd"
viewBox="0 0 600 450"
 xmlns:xlink="http://www.w3.org/1999/xlink">
 <defs>
  <style type="text/css">
   <![CDATA[
    .str0 {stroke:red;stroke-width:0.0762}
    .fil0 {fill:none;fill-rule:nonzero}
   ]]>
  </style>
 </defs>
 <g id="Layer_x0020_1">
  <metadata id="CorelCorpID_0Corel-Layer"/>
  <g id="_121163008">
   <path id="_121332792" class="fil0 str0" d="M237.558 617.026c0.4396,0 0.7965,-0.3569 0.7965,-0.7965 0,-0.4403 -0.3569,-0.7972 -0.7965,-0.7972 -0.4403,0 -0.7973,0.3569 -0.7973,0.7972 0,0.4396 0.357,0.7965 0.7973,0.7965"/>
   <path id="_121332720" class="fil0 str0" d="M285.443 617.026c-0.4403,0 -0.7965,-0.3569 -0.7965,-0.7965 0,-0.4403 0.3562,-0.7972 0.7965,-0.7972 0.4396,0 0.7965,0.3569 0.7965,0.7972 0,0.4396 -0.3569,0.7965 -0.7965,0.7965"/>
   <line id="_121332648" class="fil0 str0" x1="256.498" y1="660.455" x2="256.498" y2= "660.454" />
   <polyline id="_121332576" class="fil0 str0" points="238.352,616.221 238.352,656.089 236.184,656.263 236.184,656.288 "/>
   <path id="_121332504" class="fil0 str0" d="M236.184 656.288c0,2.2731 0.9426,6.166 3.2157,6.166 2.2731,0 2.7009,-3.8426 2.7009,-6.1157"/>
   <polyline id="_121332432" class="fil0 str0" points="242.101,656.339 242.101,654.976 242.101,653.576 242.101,616.221 242.103,616.221 "/>
   <path id="_121332360" class="fil0 str0" d="M242.103 616.221c0.0042,-0.4362 0.3583,-0.789 0.7958,-0.789 0.4403,0 0.7965,0.3569 0.7965,0.7972 0,0.4396 -0.3562,0.7965 -0.7965,0.7965 -0.0006,0 -0.002,-0.0007 -0.0027,-0.0007"/>
   <polyline id="_121332288" class="fil0 str0" points="242.896,617.025 244.706,652.338 249.868,652.338 249.868,654.919 249.919,656.313 "/>
   <path id="_121332216" class="fil0 str0" d="M249.919 656.313c0,2.2731 0.8434,4.1155 3.1165,4.1155"/>
   <line id="_121332144" class="fil0 str0" x1="253.036" y1="660.429" x2="269.926" y2= "660.429" />
   <path id="_121332072" class="fil0 str0" d="M269.926 660.429c2.2734,0 3.1161,-1.8424 3.1161,-4.1155"/>
   <polyline id="_121332000" class="fil0 str0" points="273.042,656.313 273.094,654.919 273.094,652.338 278.292,652.338 280.102,617.026 "/>
   <path id="_121331928" class="fil0 str0" d="M280.102 617.026c-0.0007,0 -0.0014,0 -0.0021,0 -0.4403,0 -0.7965,-0.3569 -0.7965,-0.7965 0,-0.4403 0.3562,-0.7972 0.7965,-0.7972 0.4369,0 0.7917,0.3528 0.7958,0.789"/>
   <polyline id="_121331856" class="fil0 str0" points="280.896,616.221 280.896,616.221 280.896,637.532 280.896,654.976 280.896,656.339 "/>
   <path id="_121331784" class="fil0 str0" d="M280.896 656.339c0,2.2731 0.4279,6.1157 2.701,6.1157 2.2731,0 3.2163,-3.8929 3.2163,-6.166"/>
   <polyline id="_121331712" class="fil0 str0" points="286.814,656.288 286.814,656.263 284.646,656.089 284.646,616.221 "/>
   <path id="_121331640" class="fil0 str0" d="M285.446 287.468c-0.4396,0 -0.7965,0.3569 -0.7965,0.7965 0,0.4403 0.3569,0.7972 0.7965,0.7972 0.4402,0 0.7972,-0.3569 0.7972,-0.7972 0,-0.4396 -0.357,-0.7965 -0.7972,-0.7965"/>
   <path id="_121331568" class="fil0 str0" d="M237.561 287.468c0.4403,0 0.7965,0.3569 0.7965,0.7965 0,0.4403 -0.3562,0.7972 -0.7965,0.7972 -0.4396,0 -0.7965,-0.3569 -0.7965,-0.7972 0,-0.4396 0.3569,-0.7965 0.7965,-0.7965"/>
   <line id="_121331496" class="fil0 str0" x1="266.505" y1="244.039" x2="266.505" y2= "244.039" />
   <polyline id="_121331424" class="fil0 str0" points="284.651,288.272 284.651,248.405 286.819,248.231 286.819,248.205 "/>
   <path id="_121331352" class="fil0 str0" d="M286.819 248.205c0,-2.2731 -0.9426,-6.166 -3.2157,-6.166 -2.273,0 -2.7009,3.8426 -2.7009,6.1157"/>
   <polyline id="_121331280" class="fil0 str0" points="280.902,248.155 280.902,249.518 280.902,250.918 280.902,288.272 280.9,288.272 "/>
   <path id="_121331208" class="fil0 str0" d="M280.9 288.272c-0.0041,0.4361 -0.3583,0.7889 -0.7958,0.7889 -0.4403,0 -0.7965,-0.3569 -0.7965,-0.7972 0,-0.4396 0.3562,-0.7965 0.7965,-0.7965 0.0007,0 0.002,0.0007 0.0027,0.0007"/>
   <polyline id="_121331136" class="fil0 str0" points="280.107,287.468 278.297,252.155 273.135,252.155 273.135,249.574 273.084,248.18 "/>
   <path id="_121331064" class="fil0 str0" d="M273.084 248.18c0,-2.2731 -0.8434,-4.1155 -3.1165,-4.1155"/>
   <line id="_121330992" class="fil0 str0" x1="269.968" y1="244.065" x2="253.077" y2= "244.065" />
   <path id="_121330920" class="fil0 str0" d="M253.077 244.065c-2.2731,0 -3.1157,1.8424 -3.1157,4.1155"/>
   <polyline id="_121330848" class="fil0 str0" points="249.961,248.18 249.91,249.574 249.91,252.155 244.712,252.155 242.902,287.468 "/>
   <path id="_121330776" class="fil0 str0" d="M242.902 287.468c0.0007,0 0.0013,0 0.0021,0 0.4402,0 0.7965,0.3569 0.7965,0.7965 0,0.4403 -0.3563,0.7972 -0.7965,0.7972 -0.4369,0 -0.7917,-0.3528 -0.7959,-0.7889"/>
   <polyline id="_121330704" class="fil0 str0" points="242.108,288.272 242.107,288.272 242.107,266.962 242.107,249.518 242.107,248.155 "/>
   <path id="_121330632" class="fil0 str0" d="M242.107 248.155c0,-2.2731 -0.4279,-6.1157 -2.701,-6.1157 -2.2731,0 -3.2164,3.8929 -3.2164,6.166"/>
   <polyline id="_121330560" class="fil0 str0" points="236.19,248.205 236.19,248.231 238.357,248.405 238.357,288.272 "/>
   <path id="_121330488" class="fil0 str0" d="M156.749 428.303c0,0.4396 0.3569,0.7965 0.7968,0.7965 0.44,0 0.7969,-0.3569 0.7969,-0.7965 0,-0.4402 -0.3569,-0.7971 -0.7969,-0.7971 -0.4399,0 -0.7968,0.3569 -0.7968,0.7971"/>
   <path id="_121330416" class="fil0 str0" d="M156.749 476.188c0,-0.4403 0.3569,-0.7965 0.7968,-0.7965 0.44,0 0.7969,0.3562 0.7969,0.7965 0,0.4396 -0.3569,0.7965 -0.7969,0.7965 -0.4399,0 -0.7968,-0.3569 -0.7968,-0.7965"/>
   <polyline id="_121330344" class="fil0 str0" points="157.553,429.098 117.686,429.098 117.512,426.93 117.486,426.93 "/>
   <path id="_121330272" class="fil0 str0" d="M117.486 426.93c-2.273,0 -6.166,0.9426 -6.166,3.2157 0,2.273 3.8433,2.7009 6.1164,2.7009"/>
   <polyline id="_121330200" class="fil0 str0" points="117.437,432.847 118.8,432.847 120.2,432.847 157.553,432.847 157.553,432.849 "/>
   <path id="_121330128" class="fil0 str0" d="M157.553 432.849c0.4361,0.0041 0.7889,0.3583 0.7889,0.7958 0,0.4403 -0.3569,0.7965 -0.7969,0.7965 -0.4399,0 -0.7968,-0.3562 -0.7968,-0.7965 0,0 0.0007,-0.002 0.0007,-0.0027"/>
   <polyline id="_121330056" class="fil0 str0" points="156.749,433.642 121.437,435.452 121.437,440.614 118.856,440.614 117.462,440.665 "/>
   <path id="_121329984" class="fil0 str0" d="M117.462 440.665c-2.2731,0 -4.1162,0.8434 -4.1162,3.1165"/>
   <line id="_121329912" class="fil0 str0" x1="113.346" y1="443.782" x2="113.346" y2= "460.672" />
   <path id="_121329840" class="fil0 str0" d="M113.346 460.672c0,2.2731 1.8431,3.1157 4.1162,3.1157"/>
   <polyline id="_121329768" class="fil0 str0" points="117.462,463.788 118.856,463.84 121.437,463.84 121.437,469.038 156.749,470.848 156.749,470.845 "/>
   <path id="_121329696" class="fil0 str0" d="M156.749 470.845c0,-0.4402 0.3569,-0.7965 0.7968,-0.7965 0.44,0 0.7969,0.3563 0.7969,0.7965 0,0.4369 -0.3528,0.7918 -0.7889,0.7959"/>
   <polyline id="_121329624" class="fil0 str0" points="157.553,471.641 157.553,471.642 136.243,471.642 118.8,471.642 117.437,471.642 "/>
   <path id="_121329552" class="fil0 str0" d="M117.437 471.642c-2.2731,0 -6.1164,0.4279 -6.1164,2.701 0,2.2731 3.893,3.2164 6.166,3.2164"/>
   <polyline id="_121329480" class="fil0 str0" points="117.486,477.559 117.512,477.559 117.686,475.392 157.553,475.392 "/>
   <path id="_121329408" class="fil0 str0" d="M366.203 476.19c0,-0.4396 -0.3569,-0.7965 -0.7969,-0.7965 -0.4399,0 -0.7968,0.3569 -0.7968,0.7965 0,0.4403 0.3569,0.7972 0.7968,0.7972 0.44,0 0.7969,-0.3569 0.7969,-0.7972"/>
   <path id="_121329336" class="fil0 str0" d="M366.203 428.306c0,0.4403 -0.3569,0.7965 -0.7969,0.7965 -0.4399,0 -0.7968,-0.3562 -0.7968,-0.7965 0,-0.4396 0.3569,-0.7965 0.7968,-0.7965 0.44,0 0.7969,0.3569 0.7969,0.7965"/>
   <line id="_121329264" class="fil0 str0" x1="409.632" y1="457.25" x2="409.631" y2= "457.25" />
   <polyline id="_121329192" class="fil0 str0" points="365.399,475.396 405.266,475.396 405.44,477.563 405.466,477.563 "/>
   <path id="_121329120" class="fil0 str0" d="M405.466 477.563c2.273,0 6.1656,-0.9426 6.1656,-3.2156 0,-2.2731 -3.8426,-2.701 -6.1157,-2.701"/>
   <polyline id="_121329048" class="fil0 str0" points="405.516,471.647 404.153,471.647 402.753,471.647 365.399,471.647 365.399,471.645 "/>
   <path id="_121328976" class="fil0 str0" d="M365.399 471.645c-0.4361,-0.0041 -0.7889,-0.3583 -0.7889,-0.7958 0,-0.4403 0.3569,-0.7965 0.7968,-0.7965 0.44,0 0.7969,0.3562 0.7969,0.7965"/>
   <polyline id="_121328904" class="fil0 str0" points="366.203,470.849 366.203,470.852 401.515,469.042 401.515,463.88 404.096,463.88 405.49,463.829 "/>
   <path id="_121328832" class="fil0 str0" d="M405.49 463.829c2.2731,0 4.1159,-0.8434 4.1159,-3.1165"/>
   <line id="_121328760" class="fil0 str0" x1="409.606" y1="460.712" x2="409.606" y2= "443.822" />
   <path id="_121328688" class="fil0 str0" d="M409.606 443.822c0,-2.2731 -1.8428,-3.1157 -4.1159,-3.1157"/>
   <polyline id="_121328616" class="fil0 str0" points="405.49,440.706 404.096,440.654 401.515,440.654 401.515,435.456 366.203,433.646 366.203,433.648 "/>
   <path id="_121328544" class="fil0 str0" d="M366.203 433.648c0,0.4403 -0.3569,0.7965 -0.7969,0.7965 -0.4399,0 -0.7968,-0.3562 -0.7968,-0.7965 0,-0.4369 0.3528,-0.7917 0.7889,-0.7958"/>
   <polyline id="_121328472" class="fil0 str0" points="365.399,432.852 365.399,432.852 386.709,432.852 404.153,432.852 405.516,432.852 "/>
   <path id="_121328400" class="fil0 str0" d="M405.516 432.852c2.2731,0 6.1157,-0.4279 6.1157,-2.701 0,-2.2731 -3.8926,-3.2163 -6.1656,-3.2163"/>
   <polyline id="_117750272" class="fil0 str0" points="405.466,426.934 405.44,426.934 405.266,429.102 365.399,429.102 "/>
   <polyline id="_120123984" class="fil0 str0" points="284.646,652.338 290.314,652.338 290.314,654.919 290.365,656.313 "/>
   <path id="_120123096" class="fil0 str0" d="M290.365 656.313c0,2.2731 0.8434,4.1155 3.1165,4.1155"/>
   <line id="_120120840" class="fil0 str0" x1="293.481" y1="660.429" x2="293.874" y2= "660.429" />
   <path id="_120127320" class="fil0 str0" d="M293.874 660.429c2.2738,0 3.1164,-1.8424 3.1164,-4.1155"/>
   <polyline id="_120120288" class="fil0 str0" points="296.99,656.313 297.042,654.919 296.928,652.338 401.527,652.338 401.446,642.331 402.027,642.331 402.421,642.28 "/>
   <path id="_121014024" class="fil0 str0" d="M402.421 642.28c2.2731,0 3.1159,-0.8434 3.1159,-3.1165"/>
   <line id="_121013616" class="fil0 str0" x1="405.537" y1="639.164" x2="405.537" y2= "622.273" />
   <path id="_121019616" class="fil0 str0" d="M405.537 622.273c0,-2.2731 -0.8428,-3.1157 -3.1159,-3.1157"/>
   <polyline id="_121014240" class="fil0 str0" points="402.421,619.157 402.027,619.106 401.446,619.106 401.465,487.788 404.096,487.788 405.49,487.736 "/>
   <path id="_121016688" class="fil0 str0" d="M405.49 487.736c2.2731,0 4.1159,-0.8427 4.1159,-3.1158"/>
   <line id="_121161232" class="fil0 str0" x1="409.606" y1="484.62" x2="409.606" y2= "484.232" />
   <path id="_121161448" class="fil0 str0" d="M409.606 484.232c0,-2.2738 -1.8428,-3.1164 -4.1159,-3.1164"/>
   <polyline id="_121161760" class="fil0 str0" points="405.49,481.115 404.096,481.064 401.515,481.064 401.515,475.396 "/>
   <polyline id="_121161016" class="fil0 str0" points="121.437,475.392 121.437,481.06 118.856,481.06 117.462,481.111 "/>
   <path id="_121163536" class="fil0 str0" d="M117.462 481.111c-2.2731,0 -4.1162,0.8433 -4.1162,3.1164"/>
   <line id="_121162864" class="fil0 str0" x1="113.346" y1="484.227" x2="113.346" y2= "484.62" />
   <path id="_121163152" class="fil0 str0" d="M113.346 484.62c0,2.2738 1.8431,3.1165 4.1162,3.1165"/>
   <polyline id="_121160128" class="fil0 str0" points="117.462,487.736 118.856,487.788 121.437,487.788 121.437,619.106 120.856,619.106 120.462,619.157 "/>
   <path id="_121164232" class="fil0 str0" d="M120.462 619.157c-2.2731,0 -3.1164,0.8433 -3.1164,3.1164"/>
   <line id="_121163896" class="fil0 str0" x1="117.346" y1="622.273" x2="117.346" y2= "639.164" />
   <path id="_121161376" class="fil0 str0" d="M117.346 639.164c0,2.2731 0.8433,3.1158 3.1164,3.1158"/>
   <polyline id="_121161424" class="fil0 str0" points="120.462,642.279 120.856,642.331 121.437,642.331 121.481,652.338 225.96,652.338 225.96,654.919 226.012,656.313 "/>
   <path id="_121160176" class="fil0 str0" d="M226.012 656.313c0,2.2731 0.8426,4.1155 3.1157,4.1155"/>
   <line id="_121162768" class="fil0 str0" x1="229.127" y1="660.429" x2="229.516" y2= "660.429" />
   <path id="_121161328" class="fil0 str0" d="M229.516 660.429c2.2738,0 3.1165,-1.8424 3.1165,-4.1155"/>
   <polyline id="_121161976" class="fil0 str0" points="232.632,656.313 232.683,654.919 232.683,652.338 238.352,652.338 "/>
   <polyline id="_121162696" class="fil0 str0" points="238.357,252.155 232.69,252.155 232.69,249.574 232.639,248.18 "/>
   <path id="_121164304" class="fil0 str0" d="M232.639 248.18c0,-2.2731 -0.8433,-4.1155 -3.1164,-4.1155"/>
   <line id="_121161160" class="fil0 str0" x1="229.522" y1="244.065" x2="229.13" y2= "244.065" />
   <path id="_121160296" class="fil0 str0" d="M229.13 244.065c-2.2738,0 -3.1165,1.8424 -3.1165,4.1155"/>
   <polyline id="_121164040" class="fil0 str0" points="226.013,248.18 225.961,249.574 225.961,252.155 121.55,252.19 121.437,262.255 120.856,262.255 120.462,262.306 "/>
   <path id="_121164184" class="fil0 str0" d="M120.462 262.306c-2.2731,0 -3.1164,0.8434 -3.1164,3.1164"/>
   <line id="_121161832" class="fil0 str0" x1="117.346" y1="265.422" x2="117.346" y2= "282.313" />
   <path id="_121161592" class="fil0 str0" d="M117.346 282.313c0,2.273 0.8433,3.1157 3.1164,3.1157"/>
   <polyline id="_121161256" class="fil0 str0" points="120.462,285.429 120.856,285.481 121.437,285.481 121.437,416.706 118.856,416.706 117.462,416.758 "/>
   <path id="_121161880" class="fil0 str0" d="M117.462 416.758c-2.2731,0 -4.1162,0.8426 -4.1162,3.1157"/>
   <line id="_121163272" class="fil0 str0" x1="113.346" y1="419.873" x2="113.346" y2= "420.262" />
   <path id="_121163224" class="fil0 str0" d="M113.346 420.262c0,2.2738 1.8431,3.1164 4.1162,3.1164"/>
   <polyline id="_121163200" class="fil0 str0" points="117.462,423.378 118.856,423.429 121.437,423.429 121.437,429.098 "/>
   <polyline id="_121161712" class="fil0 str0" points="401.515,429.102 401.515,423.434 404.096,423.434 405.49,423.383 "/>
   <path id="_121162384" class="fil0 str0" d="M405.49 423.383c2.2731,0 4.1159,-0.8434 4.1159,-3.1165"/>
   <line id="_121163248" class="fil0 str0" x1="409.606" y1="420.267" x2="409.606" y2= "419.874" />
   <path id="_121160896" class="fil0 str0" d="M409.606 419.874c0,-2.2738 -1.8428,-3.1164 -4.1159,-3.1164"/>
   <polyline id="_121164016" class="fil0 str0" points="405.49,416.758 404.096,416.706 401.465,416.706 401.446,285.481 402.027,285.481 402.421,285.43 "/>
   <path id="_121163800" class="fil0 str0" d="M402.421 285.43c2.2731,0 3.1159,-0.8434 3.1159,-3.1164"/>
   <line id="_121160560" class="fil0 str0" x1="405.537" y1="282.313" x2="405.537" y2= "265.422" />
   <path id="_121162336" class="fil0 str0" d="M405.537 265.422c0,-2.273 -0.8428,-3.1157 -3.1159,-3.1157"/>
   <polyline id="_121160824" class="fil0 str0" points="402.421,262.307 402.027,262.255 401.446,262.255 401.568,252.155 297.043,252.155 297.043,249.574 296.992,248.18 "/>
   <path id="_121163968" class="fil0 str0" d="M296.992 248.18c0,-2.2731 -0.8426,-4.1155 -3.1157,-4.1155"/>
   <line id="_121162312" class="fil0 str0" x1="293.876" y1="244.065" x2="293.487" y2= "244.065" />
   <path id="_121163416" class="fil0 str0" d="M293.487 244.065c-2.2738,0 -3.1164,1.8424 -3.1164,4.1155"/>
   <polyline id="_121162480" class="fil0 str0" points="290.371,248.18 290.32,249.574 290.32,252.155 284.651,252.155 "/>
  </g>
  <g id="_121069632">
   <polygon id="_121160464" class="fil0 str0" points="576.26,257.02 576.26,254.12 629.455,254.12 629.455,257.02 "/>
   <polygon id="_121162168" class="fil0 str0" points="633.987,257.02 633.987,254.12 640.137,254.12 640.137,257.02 "/>
   <polygon id="_121162456" class="fil0 str0" points="571.887,257.02 571.887,254.12 565.737,254.12 565.737,257.02 "/>
   <polygon id="_121162096" class="fil0 str0" points="647.065,257.02 647.065,254.12 653.363,254.12 653.363,257.02 "/>
   <polygon id="_121162528" class="fil0 str0" points="552.471,257.02 552.471,254.12 558.774,254.12 558.774,257.02 "/>
   <g>
    <polygon id="_121163776" class="fil0 str0" points="563.744,468.499 560.844,468.499 560.844,445.7 563.744,445.7 "/>
    <polygon id="_121161472" class="fil0 str0" points="563.744,441.167 560.844,441.167 560.844,435.017 563.744,435.017 "/>
    <polygon id="_121161208" class="fil0 str0" points="563.744,473.031 560.844,473.031 560.844,479.182 563.744,479.182 "/>
    <polygon id="_121160920" class="fil0 str0" points="563.744,428.09 560.844,428.09 560.844,421.791 563.744,421.791 "/>
    <polygon id="_121068144" class="fil0 str0" points="563.744,492.447 560.844,492.447 560.844,486.145 563.744,486.145 "/>
   </g>
   <line id="_121062480" class="fil0 str0" x1="662.901" y1="269.006" x2="662.901" y2= "253.119" />
   <path id="_121069800" class="fil0 str0" d="M662.901 253.119c0,-3.3001 -2.6998,-6 -5.9999,-6"/>
   <line id="_121068528" class="fil0 str0" x1="656.901" y1="247.119" x2="544.635" y2= "247.119" />
   <path id="_121067568" class="fil0 str0" d="M544.635 247.119c-3.3001,0 -6,2.6999 -6,6"/>
   <polyline id="_121067736" class="fil0 str0" points="538.635,253.119 538.635,269.535 538.635,278.123 "/>
   <path id="_121062384" class="fil0 str0" d="M538.635 278.123c0,5.5001 1.8879,12.5174 4.1953,15.5942"/>
   <line id="_121064808" class="fil0 str0" x1="542.83" y1="293.717" x2="549.439" y2= "302.531" />
   <path id="_121062792" class="fil0 str0" d="M549.439 302.531c2.3075,3.0768 4.1954,10.0941 4.1954,15.5942"/>
   <line id="_121063632" class="fil0 str0" x1="553.635" y1="318.125" x2="553.635" y2= "596.113" />
   <path id="_121062864" class="fil0 str0" d="M553.635 596.113c0,5.5001 -1.8879,12.5174 -4.1954,15.5943"/>
   <line id="_121063440" class="fil0 str0" x1="549.439" y1="611.708" x2="542.83" y2= "620.522" />
   <path id="_121063800" class="fil0 str0" d="M542.83 620.522c-2.3074,3.0768 -4.1953,10.0941 -4.1953,15.5942"/>
   <polyline id="_121062840" class="fil0 str0" points="538.635,636.116 538.635,642.963 538.635,661.119 "/>
   <path id="_121068024" class="fil0 str0" d="M538.635 661.119c0,3.3 2.6999,6 6,6"/>
   <line id="_121066392" class="fil0 str0" x1="544.635" y1="667.119" x2="656.901" y2= "667.119" />
   <path id="_121063536" class="fil0 str0" d="M656.901 667.119c3.3001,0 5.9999,-2.7 5.9999,-6"/>
   <polyline id="_121064040" class="fil0 str0" points="662.901,661.119 662.901,645.607 662.901,636.116 "/>
   <path id="_121067280" class="fil0 str0" d="M662.901 636.116c0,-5.5001 1.888,-12.5174 4.1954,-15.5942"/>
   <line id="_121066872" class="fil0 str0" x1="667.096" y1="620.522" x2="673.706" y2= "611.708" />
   <path id="_121068864" class="fil0 str0" d="M673.706 611.708c2.3075,-3.0769 4.1955,-10.0942 4.1955,-15.5943"/>
   <line id="_121063272" class="fil0 str0" x1="677.901" y1="596.113" x2="677.901" y2= "318.125" />
   <path id="_121063176" class="fil0 str0" d="M677.901 318.125c0,-5.5001 -1.888,-12.5174 -4.1955,-15.5942"/>
   <line id="_121062576" class="fil0 str0" x1="673.706" y1="302.531" x2="667.096" y2= "293.717" />
   <path id="_121064664" class="fil0 str0" d="M667.096 293.717c-2.3074,-3.0768 -4.1954,-10.0941 -4.1954,-15.5942"/>
   <line id="_121069272" class="fil0 str0" x1="662.901" y1="278.123" x2="662.901" y2= "269.006" />
   <polygon id="_121064112" class="fil0 str0" points="563.744,646.999 560.844,646.999 560.844,624.199 563.744,624.199 "/>
   <polygon id="_121063944" class="fil0 str0" points="563.744,290.132 560.844,290.132 560.844,267.332 563.744,267.332 "/>
   <g>
    <polygon id="_121069320" class="fil0 str0" points="576.176,660.118 576.176,657.219 629.37,657.219 629.37,660.118 "/>
    <polygon id="_121067808" class="fil0 str0" points="633.903,660.118 633.903,657.219 640.053,657.219 640.053,660.118 "/>
    <polygon id="_121068432" class="fil0 str0" points="571.802,660.118 571.802,657.219 565.652,657.219 565.652,660.118 "/>
    <polygon id="_121070256" class="fil0 str0" points="646.98,660.118 646.98,657.219 653.279,657.219 653.279,660.118 "/>
    <polygon id="_121069344" class="fil0 str0" points="552.387,660.118 552.387,657.219 558.689,657.219 558.689,660.118 "/>
   </g>
  </g>
  <g id="_121066032">
   <polygon id="_121066272" class="fil0 str0" points="449.475,257.02 449.475,254.12 502.67,254.12 502.67,257.02 "/>
   <polygon id="_121062456" class="fil0 str0" points="507.202,257.02 507.202,254.12 513.352,254.12 513.352,257.02 "/>
   <polygon id="_121069200" class="fil0 str0" points="445.102,257.02 445.102,254.12 438.952,254.12 438.952,257.02 "/>
   <polygon id="_121070232" class="fil0 str0" points="520.28,257.02 520.28,254.12 526.578,254.12 526.578,257.02 "/>
   <polygon id="_121064016" class="fil0 str0" points="425.687,257.02 425.687,254.12 431.989,254.12 431.989,257.02 "/>
   <g>
    <polygon id="_121068768" class="fil0 str0" points="436.959,468.499 434.059,468.499 434.059,445.7 436.959,445.7 "/>
    <polygon id="_121066896" class="fil0 str0" points="436.959,441.167 434.059,441.167 434.059,435.017 436.959,435.017 "/>
    <polygon id="_121069776" class="fil0 str0" points="436.959,473.031 434.059,473.031 434.059,479.182 436.959,479.182 "/>
    <polygon id="_121062696" class="fil0 str0" points="436.959,428.09 434.059,428.09 434.059,421.791 436.959,421.791 "/>
    <polygon id="_121066560" class="fil0 str0" points="436.959,492.447 434.059,492.447 434.059,486.145 436.959,486.145 "/>
   </g>
   <line id="_121064424" class="fil0 str0" x1="536.116" y1="269.006" x2="536.116" y2= "253.119" />
   <path id="_121067616" class="fil0 str0" d="M536.116 253.119c0,-3.3001 -2.6998,-6 -5.9999,-6"/>
   <line id="_121067640" class="fil0 str0" x1="530.116" y1="247.119" x2="417.85" y2= "247.119" />
   <path id="_121065984" class="fil0 str0" d="M417.85 247.119c-3.3001,0 -6,2.6999 -6,6"/>
   <polyline id="_121066296" class="fil0 str0" points="411.85,253.119 411.85,269.535 411.85,278.123 "/>
   <path id="_121069560" class="fil0 str0" d="M411.85 278.123c0,5.5001 1.8879,12.5174 4.1953,15.5942"/>
   <line id="_121067400" class="fil0 str0" x1="416.045" y1="293.717" x2="422.654" y2= "302.531" />
   <path id="_121065864" class="fil0 str0" d="M422.654 302.531c2.3075,3.0768 4.1954,10.0941 4.1954,15.5942"/>
   <line id="_121063968" class="fil0 str0" x1="426.85" y1="318.125" x2="426.85" y2= "596.113" />
   <path id="_121064856" class="fil0 str0" d="M426.85 596.113c0,5.5001 -1.8879,12.5174 -4.1954,15.5943"/>
   <line id="_121066056" class="fil0 str0" x1="422.654" y1="611.708" x2="416.045" y2= "620.522" />
   <path id="_121069392" class="fil0 str0" d="M416.045 620.522c-2.3074,3.0768 -4.1953,10.0941 -4.1953,15.5942"/>
   <polyline id="_121066800" class="fil0 str0" points="411.85,636.116 411.85,642.963 411.85,661.119 "/>
   <path id="_121067520" class="fil0 str0" d="M411.85 661.119c0,3.3 2.6999,6 6,6"/>
   <line id="_121063248" class="fil0 str0" x1="417.85" y1="667.119" x2="530.116" y2= "667.119" />
   <path id="_121069920" class="fil0 str0" d="M530.116 667.119c3.3001,0 5.9999,-2.7 5.9999,-6"/>
   <polyline id="_121067760" class="fil0 str0" points="536.116,661.119 536.116,645.607 536.116,636.116 "/>
   <path id="_121062312" class="fil0 str0" d="M536.116 636.116c0,-5.5001 1.888,-12.5174 4.1954,-15.5942"/>
   <line id="_121062432" class="fil0 str0" x1="540.311" y1="620.522" x2="546.92" y2= "611.708" />
   <path id="_121064256" class="fil0 str0" d="M546.92 611.708c2.3075,-3.0769 4.1955,-10.0942 4.1955,-15.5943"/>
   <line id="_121070088" class="fil0 str0" x1="551.116" y1="596.113" x2="551.116" y2= "318.125" />
   <path id="_121063896" class="fil0 str0" d="M551.116 318.125c0,-5.5001 -1.888,-12.5174 -4.1955,-15.5942"/>
   <line id="_121067184" class="fil0 str0" x1="546.92" y1="302.531" x2="540.311" y2= "293.717" />
   <path id="_121068264" class="fil0 str0" d="M540.311 293.717c-2.3074,-3.0768 -4.1954,-10.0941 -4.1954,-15.5942"/>
   <line id="_121069488" class="fil0 str0" x1="536.116" y1="278.123" x2="536.116" y2= "269.006" />
   <polygon id="_121063872" class="fil0 str0" points="436.959,646.999 434.059,646.999 434.059,624.199 436.959,624.199 "/>
   <polygon id="_121069608" class="fil0 str0" points="436.959,290.132 434.059,290.132 434.059,267.332 436.959,267.332 "/>
   <g>
    <polygon id="_121066008" class="fil0 str0" points="449.391,660.118 449.391,657.219 502.586,657.219 502.586,660.118 "/>
    <polygon id="_121062552" class="fil0 str0" points="507.118,660.118 507.118,657.219 513.268,657.219 513.268,660.118 "/>
    <polygon id="_121068408" class="fil0 str0" points="445.017,660.118 445.017,657.219 438.867,657.219 438.867,660.118 "/>
    <polygon id="_121062360" class="fil0 str0" points="520.195,660.118 520.195,657.219 526.494,657.219 526.494,660.118 "/>
    <polygon id="_121070304" class="fil0 str0" points="425.602,660.118 425.602,657.219 431.904,657.219 431.904,660.118 "/>
   </g>
  </g>
  <g id="_122430064">
   <path id="_122435704" class="fil0 str0" d="M158.265 33.9908c-5.5229,0 -10.0001,4.4773 -10.0001,10.0001"/>
   <line id="_122435632" class="fil0 str0" x1="148.265" y1="43.9909" x2="148.265" y2= "123.991" />
   <path id="_122435560" class="fil0 str0" d="M148.265 123.991c0,5.5229 4.4772,10.0001 10.0001,10.0001"/>
   <line id="_122435488" class="fil0 str0" x1="158.265" y1="133.991" x2="160.92" y2= "133.991" />
   <path id="_122435416" class="fil0 str0" d="M160.92 133.991c5.5228,0 10.0001,-4.4772 10.0001,-10.0001"/>
   <line id="_122435344" class="fil0 str0" x1="170.921" y1="123.991" x2="170.921" y2= "43.9909" />
   <path id="_122435272" class="fil0 str0" d="M170.921 43.9909c0,-5.5228 -4.4773,-10.0001 -10.0001,-10.0001"/>
   <line id="_122435200" class="fil0 str0" x1="160.92" y1="33.9908" x2="158.265" y2= "33.9908" />
   <polygon id="_122435128" class="fil0 str0" points="241.706,72.6107 244.606,72.6107 244.606,95.411 241.706,95.411 "/>
   <polygon id="_122435056" class="fil0 str0" points="241.706,99.9427 244.606,99.9427 244.606,106.093 241.706,106.093 "/>
   <polygon id="_122434984" class="fil0 str0" points="241.706,68.0783 244.606,68.0783 244.606,61.9281 241.706,61.9281 "/>
   <polygon id="_122434912" class="fil0 str0" points="241.706,113.021 244.606,113.021 244.606,119.319 241.706,119.319 "/>
   <polygon id="_122434840" class="fil0 str0" points="241.706,48.6631 244.606,48.6631 244.606,54.9656 241.706,54.9656 "/>
   <path id="_122434768" class="fil0 str0" d="M163.537 -20.823c0.4399,0 0.7967,0.357 0.7967,0.7969 0,0.4399 -0.3568,0.7968 -0.7967,0.7968 -0.44,0 -0.7967,-0.3569 -0.7967,-0.7968 0,-0.4399 0.3567,-0.7969 0.7967,-0.7969"/>
   <path id="_122434696" class="fil0 str0" d="M241.423 -20.823c-0.4399,0 -0.7967,0.357 -0.7967,0.7969 0,0.4399 0.3568,0.7968 0.7967,0.7968 0.44,0 0.7967,-0.3569 0.7967,-0.7968 0,-0.4399 -0.3567,-0.7969 -0.7967,-0.7969"/>
   <line id="_122434624" class="fil0 str0" x1="182.478" y1="-64.2515" x2="182.478" y2= "-64.2512" />
   <polyline id="_122434552" class="fil0 str0" points="164.332,-20.0182 164.332,-59.8855 162.164,-60.0598 162.164,-60.0853 "/>
   <path id="_122434480" class="fil0 str0" d="M162.164 -60.0853c0,-2.2731 0.9427,-6.1661 3.2159,-6.1661 2.2733,0 2.701,3.843 2.701,6.1161"/>
   <polyline id="_122434408" class="fil0 str0" points="168.081,-60.1353 168.081,-58.7724 168.081,-57.3723 168.081,-20.0182 168.083,-20.0182 "/>
   <path id="_122434336" class="fil0 str0" d="M168.083 -20.0182c0.004,0.4361 0.3583,0.7889 0.7957,0.7889 0.4399,0 0.7967,-0.3569 0.7967,-0.7968 0,-0.4399 -0.3568,-0.7969 -0.7967,-0.7969 -0.001,0 -0.0019,0.0007 -0.0031,0.0007"/>
   <polyline id="_122434264" class="fil0 str0" points="168.876,-20.8223 170.686,-56.1348 175.848,-56.1348 175.848,-58.7159 175.9,-60.1098 "/>
   <path id="_122434192" class="fil0 str0" d="M175.9 -60.1098c0,-2.2731 0.8428,-4.1159 3.1161,-4.1159"/>
   <line id="_122434120" class="fil0 str0" x1="179.016" y1="-64.2257" x2="225.907" y2= "-64.2257" />
   <path id="_122434048" class="fil0 str0" d="M225.907 -64.2257c2.2733,0 3.1161,1.8428 3.1161,4.1159"/>
   <polyline id="_122433976" class="fil0 str0" points="229.023,-60.1098 229.074,-58.7159 229.074,-56.1348 234.272,-56.1348 236.082,-20.8226 "/>
   <path id="_122433904" class="fil0 str0" d="M236.082 -20.8226c-0.0005,0 -0.0012,-0.0004 -0.0019,-0.0004 -0.44,0 -0.7967,0.357 -0.7967,0.7969 0,0.4399 0.3567,0.7968 0.7967,0.7968 0.4372,0 0.7915,-0.3528 0.7958,-0.7889"/>
   <polyline id="_122433832" class="fil0 str0" points="236.876,-20.0182 236.877,-20.0182 236.877,-41.3289 236.877,-58.7724 236.877,-60.1353 "/>
   <path id="_122433760" class="fil0 str0" d="M236.877 -60.1353c0,-2.2731 0.4277,-6.1161 2.7009,-6.1161 2.2733,0 3.216,3.893 3.216,6.1661"/>
   <polyline id="_122433688" class="fil0 str0" points="242.794,-60.0853 242.794,-60.0598 240.626,-59.8855 240.626,-20.0182 "/>
   <path id="_122433616" class="fil0 str0" d="M163.537 188.805c0.4399,0 0.7967,-0.3569 0.7967,-0.7968 0,-0.44 -0.3568,-0.7969 -0.7967,-0.7969 -0.44,0 -0.7967,0.3569 -0.7967,0.7969 0,0.4399 0.3567,0.7968 0.7967,0.7968"/>
   <path id="_122433544" class="fil0 str0" d="M241.423 188.805c-0.4399,0 -0.7967,-0.3569 -0.7967,-0.7968 0,-0.44 0.3568,-0.7969 0.7967,-0.7969 0.44,0 0.7967,0.3569 0.7967,0.7969 0,0.4399 -0.3567,0.7968 -0.7967,0.7968"/>
   <line id="_122433472" class="fil0 str0" x1="182.478" y1="232.233" x2="182.478" y2= "232.233" />
   <polyline id="_122433400" class="fil0 str0" points="164.332,188 164.332,227.867 162.164,228.042 162.164,228.067 "/>
   <path id="_122433328" class="fil0 str0" d="M162.164 228.067c0,2.273 0.9427,6.166 3.2159,6.166 2.2733,0 2.701,-3.843 2.701,-6.1161"/>
   <polyline id="_122433256" class="fil0 str0" points="168.081,228.117 168.081,226.754 168.081,225.354 168.081,188 168.083,188 "/>
   <path id="_122433184" class="fil0 str0" d="M168.083 188c0.004,-0.4361 0.3583,-0.7889 0.7957,-0.7889 0.4399,0 0.7967,0.3569 0.7967,0.7969 0,0.4399 -0.3568,0.7968 -0.7967,0.7968 -0.001,0 -0.0019,-0.0007 -0.0031,-0.0007"/>
   <polyline id="_122433112" class="fil0 str0" points="168.876,188.804 170.686,224.117 175.848,224.117 175.848,226.698 175.9,228.092 "/>
   <path id="_122433040" class="fil0 str0" d="M175.9 228.092c0,2.2731 0.8428,4.1159 3.1161,4.1159"/>
   <line id="_122432968" class="fil0 str0" x1="179.016" y1="232.208" x2="225.907" y2= "232.208" />
   <path id="_122432896" class="fil0 str0" d="M225.907 232.208c2.2733,0 3.1161,-1.8428 3.1161,-4.1159"/>
   <polyline id="_122432824" class="fil0 str0" points="229.023,228.092 229.074,226.698 229.074,224.117 234.272,224.117 236.082,188.804 "/>
   <path id="_122432752" class="fil0 str0" d="M236.082 188.804c-0.0005,0 -0.0012,0.0003 -0.0019,0.0003 -0.44,0 -0.7967,-0.3569 -0.7967,-0.7968 0,-0.44 0.3567,-0.7969 0.7967,-0.7969 0.4372,0 0.7915,0.3528 0.7958,0.7889"/>
   <polyline id="_122432680" class="fil0 str0" points="236.876,188 236.877,188 236.877,209.311 236.877,226.754 236.877,228.117 "/>
   <path id="_122432608" class="fil0 str0" d="M236.877 228.117c0,2.2731 0.4277,6.1161 2.7009,6.1161 2.2733,0 3.216,-3.893 3.216,-6.166"/>
   <polyline id="_122432536" class="fil0 str0" points="242.794,228.067 242.794,228.042 240.626,227.867 240.626,188 "/>
   <polyline id="_122432464" class="fil0 str0" points="164.332,224.117 158.664,224.117 158.664,226.698 158.612,228.092 "/>
   <path id="_122432392" class="fil0 str0" d="M158.612 228.092c0,2.2731 -0.8428,4.1159 -3.1161,4.1159"/>
   <line id="_122432320" class="fil0 str0" x1="155.496" y1="232.208" x2="155.108" y2= "232.208" />
   <path id="_122432248" class="fil0 str0" d="M155.108 232.208c-2.2733,0 -3.1161,-1.8428 -3.1161,-4.1159"/>
   <polyline id="_122432176" class="fil0 str0" points="151.992,228.092 151.94,226.698 151.94,224.117 147.614,224.117 142.613,223.991 142.549,223.991 142.549,192.988 "/>
   <path id="_122432104" class="fil0 str0" d="M142.549 192.988c0,-5.5001 -1.888,-12.5174 -4.1954,-15.5942"/>
   <line id="_122432032" class="fil0 str0" x1="138.354" y1="177.393" x2="131.745" y2= "168.579" />
   <path id="_122431960" class="fil0 str0" d="M131.745 168.579c-2.3075,-3.0768 -4.1955,-10.0941 -4.1955,-15.5942"/>
   <line id="_122431888" class="fil0 str0" x1="127.549" y1="152.985" x2="127.549" y2= "14.9967" />
   <path id="_122431816" class="fil0 str0" d="M127.549 14.9967c0,-5.5001 1.888,-12.5174 4.1955,-15.5942"/>
   <line id="_122431744" class="fil0 str0" x1="131.745" y1="-0.5975" x2="138.354" y2= "-9.4114" />
   <path id="_122431672" class="fil0 str0" d="M138.354 -9.4114c2.3074,-3.0769 4.1954,-10.0942 4.1954,-15.5943"/>
   <polyline id="_122431600" class="fil0 str0" points="142.549,-25.0057 142.549,-56.0091 142.613,-56.0091 147.614,-56.1348 151.94,-56.1348 151.94,-58.7159 151.992,-60.1098 "/>
   <path id="_122431528" class="fil0 str0" d="M151.992 -60.1098c0,-2.2731 0.8428,-4.1159 3.1161,-4.1159"/>
   <line id="_122431456" class="fil0 str0" x1="155.108" y1="-64.2257" x2="155.496" y2= "-64.2257" />
   <path id="_122431384" class="fil0 str0" d="M155.496 -64.2257c2.2733,0 3.1161,1.8428 3.1161,4.1159"/>
   <polyline id="_122431312" class="fil0 str0" points="158.612,-60.1098 158.664,-58.7159 158.664,-56.1348 164.332,-56.1348 "/>
   <polyline id="_122431240" class="fil0 str0" points="240.626,224.117 246.294,224.117 246.294,226.698 246.345,228.092 "/>
   <path id="_122431168" class="fil0 str0" d="M246.345 228.092c0,2.2731 0.8429,4.1159 3.1161,4.1159"/>
   <line id="_122431096" class="fil0 str0" x1="249.461" y1="232.208" x2="249.855" y2= "232.208" />
   <path id="_122431024" class="fil0 str0" d="M249.855 232.208c2.2733,0 3.1163,-1.8428 3.1163,-4.1159"/>
   <polyline id="_122430952" class="fil0 str0" points="252.971,228.092 253.022,226.698 253.022,224.117 256.815,224.117 266.816,223.991 266.816,192.988 "/>
   <path id="_122430880" class="fil0 str0" d="M266.816 192.988c0,-5.5001 -1.8879,-12.5174 -4.1953,-15.5942"/>
   <line id="_122430808" class="fil0 str0" x1="262.62" y1="177.393" x2="256.011" y2= "168.579" />
   <path id="_122430736" class="fil0 str0" d="M256.011 168.579c-2.3075,-3.0768 -4.1954,-10.0941 -4.1954,-15.5942"/>
   <line id="_122430664" class="fil0 str0" x1="251.815" y1="152.985" x2="251.815" y2= "14.9967" />
   <path id="_122430592" class="fil0 str0" d="M251.815 14.9967c0,-5.5001 1.8879,-12.5174 4.1954,-15.5942"/>
   <line id="_122430520" class="fil0 str0" x1="256.011" y1="-0.5975" x2="262.62" y2= "-9.4114" />
   <path id="_122430448" class="fil0 str0" d="M262.62 -9.4114c2.3074,-3.0769 4.1953,-10.0942 4.1953,-15.5943"/>
   <polyline id="_122430376" class="fil0 str0" points="266.816,-25.0057 266.816,-56.0091 266.816,-56.1348 253.022,-56.1348 253.022,-58.7159 252.971,-60.1098 "/>
   <path id="_122430304" class="fil0 str0" d="M252.971 -60.1098c0,-2.2731 -0.843,-4.1159 -3.1163,-4.1159"/>
   <line id="_122430232" class="fil0 str0" x1="249.855" y1="-64.2257" x2="249.461" y2= "-64.2257" />
   <path id="_122430160" class="fil0 str0" d="M249.461 -64.2257c-2.2732,0 -3.1161,1.8428 -3.1161,4.1159"/>
   <polyline id="_122430088" class="fil0 str0" points="246.345,-60.1098 246.294,-58.7159 246.294,-56.1348 240.626,-56.1348 "/>
  </g>
  <g id="_121338960">
   <path id="_121344600" class="fil0 str0" d="M286.865 33.9908c-5.5229,0 -10.0001,4.4773 -10.0001,10.0001"/>
   <line id="_121344528" class="fil0 str0" x1="276.865" y1="43.9909" x2="276.865" y2= "123.991" />
   <path id="_121344456" class="fil0 str0" d="M276.865 123.991c0,5.5229 4.4772,10.0001 10.0001,10.0001"/>
   <line id="_121344384" class="fil0 str0" x1="286.865" y1="133.991" x2="289.521" y2= "133.991" />
   <path id="_121344312" class="fil0 str0" d="M289.521 133.991c5.5228,0 10.0001,-4.4772 10.0001,-10.0001"/>
   <line id="_121344240" class="fil0 str0" x1="299.521" y1="123.991" x2="299.521" y2= "43.9909" />
   <path id="_121344168" class="fil0 str0" d="M299.521 43.9909c0,-5.5228 -4.4773,-10.0001 -10.0001,-10.0001"/>
   <line id="_121344096" class="fil0 str0" x1="289.521" y1="33.9908" x2="286.865" y2= "33.9908" />
   <polygon id="_121344024" class="fil0 str0" points="370.307,72.6107 373.207,72.6107 373.207,95.411 370.307,95.411 "/>
   <polygon id="_121343952" class="fil0 str0" points="370.307,99.9427 373.207,99.9427 373.207,106.093 370.307,106.093 "/>
   <polygon id="_121343880" class="fil0 str0" points="370.307,68.0783 373.207,68.0783 373.207,61.9281 370.307,61.9281 "/>
   <polygon id="_121343808" class="fil0 str0" points="370.307,113.021 373.207,113.021 373.207,119.319 370.307,119.319 "/>
   <polygon id="_121343736" class="fil0 str0" points="370.307,48.6631 373.207,48.6631 373.207,54.9656 370.307,54.9656 "/>
   <path id="_121343664" class="fil0 str0" d="M292.138 -20.823c0.4399,0 0.7966,0.357 0.7966,0.7969 0,0.4399 -0.3567,0.7968 -0.7966,0.7968 -0.44,0 -0.7967,-0.3569 -0.7967,-0.7968 0,-0.4399 0.3567,-0.7969 0.7967,-0.7969"/>
   <path id="_121343592" class="fil0 str0" d="M370.023 -20.823c-0.4399,0 -0.7967,0.357 -0.7967,0.7969 0,0.4399 0.3568,0.7968 0.7967,0.7968 0.44,0 0.7967,-0.3569 0.7967,-0.7968 0,-0.4399 -0.3567,-0.7969 -0.7967,-0.7969"/>
   <line id="_121343520" class="fil0 str0" x1="311.079" y1="-64.2515" x2="311.079" y2= "-64.2512" />
   <polyline id="_121343448" class="fil0 str0" points="292.933,-20.0182 292.933,-59.8855 290.765,-60.0598 290.765,-60.0853 "/>
   <path id="_121343376" class="fil0 str0" d="M290.765 -60.0853c0,-2.2731 0.9428,-6.1661 3.216,-6.1661 2.2733,0 2.701,3.843 2.701,6.1161"/>
   <polyline id="_121343304" class="fil0 str0" points="296.682,-60.1353 296.682,-58.7724 296.682,-57.3723 296.682,-20.0182 296.684,-20.0182 "/>
   <path id="_121343232" class="fil0 str0" d="M296.684 -20.0182c0.004,0.4361 0.3583,0.7889 0.7957,0.7889 0.4399,0 0.7967,-0.3569 0.7967,-0.7968 0,-0.4399 -0.3568,-0.7969 -0.7967,-0.7969 -0.001,0 -0.0019,0.0007 -0.0031,0.0007"/>
   <polyline id="_121343160" class="fil0 str0" points="297.477,-20.8223 299.287,-56.1348 304.449,-56.1348 304.449,-58.7159 304.5,-60.1098 "/>
   <path id="_121343088" class="fil0 str0" d="M304.5 -60.1098c0,-2.2731 0.8428,-4.1159 3.1161,-4.1159"/>
   <line id="_121343016" class="fil0 str0" x1="307.617" y1="-64.2257" x2="354.507" y2= "-64.2257" />
   <path id="_121342944" class="fil0 str0" d="M354.507 -64.2257c2.2733,0 3.1161,1.8428 3.1161,4.1159"/>
   <polyline id="_121342872" class="fil0 str0" points="357.623,-60.1098 357.675,-58.7159 357.675,-56.1348 362.873,-56.1348 364.683,-20.8226 "/>
   <path id="_121342800" class="fil0 str0" d="M364.683 -20.8226c-0.0005,0 -0.0012,-0.0004 -0.0019,-0.0004 -0.44,0 -0.7967,0.357 -0.7967,0.7969 0,0.4399 0.3567,0.7968 0.7967,0.7968 0.4372,0 0.7915,-0.3528 0.7958,-0.7889"/>
   <polyline id="_121342728" class="fil0 str0" points="365.477,-20.0182 365.478,-20.0182 365.478,-41.3289 365.478,-58.7724 365.478,-60.1353 "/>
   <path id="_121342656" class="fil0 str0" d="M365.478 -60.1353c0,-2.2731 0.4277,-6.1161 2.7009,-6.1161 2.2733,0 3.216,3.893 3.216,6.1661"/>
   <polyline id="_121342584" class="fil0 str0" points="371.394,-60.0853 371.394,-60.0598 369.227,-59.8855 369.227,-20.0182 "/>
   <path id="_121342512" class="fil0 str0" d="M292.138 188.805c0.4399,0 0.7966,-0.3569 0.7966,-0.7968 0,-0.44 -0.3567,-0.7969 -0.7966,-0.7969 -0.44,0 -0.7967,0.3569 -0.7967,0.7969 0,0.4399 0.3567,0.7968 0.7967,0.7968"/>
   <path id="_121342440" class="fil0 str0" d="M370.023 188.805c-0.4399,0 -0.7967,-0.3569 -0.7967,-0.7968 0,-0.44 0.3568,-0.7969 0.7967,-0.7969 0.44,0 0.7967,0.3569 0.7967,0.7969 0,0.4399 -0.3567,0.7968 -0.7967,0.7968"/>
   <line id="_121342368" class="fil0 str0" x1="311.079" y1="232.233" x2="311.079" y2= "232.233" />
   <polyline id="_121342296" class="fil0 str0" points="292.933,188 292.933,227.867 290.765,228.042 290.765,228.067 "/>
   <path id="_121342224" class="fil0 str0" d="M290.765 228.067c0,2.273 0.9428,6.166 3.216,6.166 2.2733,0 2.701,-3.843 2.701,-6.1161"/>
   <polyline id="_121342152" class="fil0 str0" points="296.682,228.117 296.682,226.754 296.682,225.354 296.682,188 296.684,188 "/>
   <path id="_121342080" class="fil0 str0" d="M296.684 188c0.004,-0.4361 0.3583,-0.7889 0.7957,-0.7889 0.4399,0 0.7967,0.3569 0.7967,0.7969 0,0.4399 -0.3568,0.7968 -0.7967,0.7968 -0.001,0 -0.0019,-0.0007 -0.0031,-0.0007"/>
   <polyline id="_121342008" class="fil0 str0" points="297.477,188.804 299.287,224.117 304.449,224.117 304.449,226.698 304.5,228.092 "/>
   <path id="_121341936" class="fil0 str0" d="M304.5 228.092c0,2.2731 0.8428,4.1159 3.1161,4.1159"/>
   <line id="_121341864" class="fil0 str0" x1="307.617" y1="232.208" x2="354.507" y2= "232.208" />
   <path id="_121341792" class="fil0 str0" d="M354.507 232.208c2.2733,0 3.1161,-1.8428 3.1161,-4.1159"/>
   <polyline id="_121341720" class="fil0 str0" points="357.623,228.092 357.675,226.698 357.675,224.117 362.873,224.117 364.683,188.804 "/>
   <path id="_121341648" class="fil0 str0" d="M364.683 188.804c-0.0005,0 -0.0012,0.0003 -0.0019,0.0003 -0.44,0 -0.7967,-0.3569 -0.7967,-0.7968 0,-0.44 0.3567,-0.7969 0.7967,-0.7969 0.4372,0 0.7915,0.3528 0.7958,0.7889"/>
   <polyline id="_121341576" class="fil0 str0" points="365.477,188 365.478,188 365.478,209.311 365.478,226.754 365.478,228.117 "/>
   <path id="_121341504" class="fil0 str0" d="M365.478 228.117c0,2.2731 0.4277,6.1161 2.7009,6.1161 2.2733,0 3.216,-3.893 3.216,-6.166"/>
   <polyline id="_121341432" class="fil0 str0" points="371.394,228.067 371.394,228.042 369.227,227.867 369.227,188 "/>
   <polyline id="_121341360" class="fil0 str0" points="292.933,224.117 287.265,224.117 287.265,226.698 287.213,228.092 "/>
   <path id="_121341288" class="fil0 str0" d="M287.213 228.092c0,2.2731 -0.8428,4.1159 -3.1161,4.1159"/>
   <line id="_121341216" class="fil0 str0" x1="284.097" y1="232.208" x2="283.709" y2= "232.208" />
   <path id="_121341144" class="fil0 str0" d="M283.709 232.208c-2.2733,0 -3.1161,-1.8428 -3.1161,-4.1159"/>
   <polyline id="_121341072" class="fil0 str0" points="280.592,228.092 280.541,226.698 280.541,224.117 276.214,224.117 271.214,223.991 271.15,223.991 271.15,192.988 "/>
   <path id="_121341000" class="fil0 str0" d="M271.15 192.988c0,-5.5001 -1.8881,-12.5174 -4.1954,-15.5942"/>
   <line id="_121340928" class="fil0 str0" x1="266.955" y1="177.393" x2="260.345" y2= "168.579" />
   <path id="_121340856" class="fil0 str0" d="M260.345 168.579c-2.3075,-3.0768 -4.1955,-10.0941 -4.1955,-15.5942"/>
   <line id="_121340784" class="fil0 str0" x1="256.15" y1="152.985" x2="256.15" y2= "14.9967" />
   <path id="_121340712" class="fil0 str0" d="M256.15 14.9967c0,-5.5001 1.888,-12.5174 4.1955,-15.5942"/>
   <line id="_121340640" class="fil0 str0" x1="260.345" y1="-0.5975" x2="266.955" y2= "-9.4114" />
   <path id="_121340568" class="fil0 str0" d="M266.955 -9.4114c2.3073,-3.0769 4.1954,-10.0942 4.1954,-15.5943"/>
   <polyline id="_121340496" class="fil0 str0" points="271.15,-25.0057 271.15,-56.0091 271.214,-56.0091 276.214,-56.1348 280.541,-56.1348 280.541,-58.7159 280.592,-60.1098 "/>
   <path id="_121340424" class="fil0 str0" d="M280.592 -60.1098c0,-2.2731 0.8428,-4.1159 3.1161,-4.1159"/>
   <line id="_121340352" class="fil0 str0" x1="283.709" y1="-64.2257" x2="284.097" y2= "-64.2257" />
   <path id="_121340280" class="fil0 str0" d="M284.097 -64.2257c2.2733,0 3.1161,1.8428 3.1161,4.1159"/>
   <polyline id="_121340208" class="fil0 str0" points="287.213,-60.1098 287.265,-58.7159 287.265,-56.1348 292.933,-56.1348 "/>
   <polyline id="_121340136" class="fil0 str0" points="369.227,224.117 374.895,224.117 374.895,226.698 374.946,228.092 "/>
   <path id="_121340064" class="fil0 str0" d="M374.946 228.092c0,2.2731 0.8429,4.1159 3.1161,4.1159"/>
   <line id="_121339992" class="fil0 str0" x1="378.062" y1="232.208" x2="378.455" y2= "232.208" />
   <path id="_121339920" class="fil0 str0" d="M378.455 232.208c2.2733,0 3.1163,-1.8428 3.1163,-4.1159"/>
   <polyline id="_121339848" class="fil0 str0" points="381.572,228.092 381.623,226.698 381.623,224.117 385.416,224.117 395.416,223.991 395.416,192.988 "/>
   <path id="_121339776" class="fil0 str0" d="M395.416 192.988c0,-5.5001 -1.8879,-12.5174 -4.1953,-15.5942"/>
   <line id="_121339704" class="fil0 str0" x1="391.221" y1="177.393" x2="384.612" y2= "168.579" />
   <path id="_121339632" class="fil0 str0" d="M384.612 168.579c-2.3075,-3.0768 -4.1954,-10.0941 -4.1954,-15.5942"/>
   <line id="_121339560" class="fil0 str0" x1="380.416" y1="152.985" x2="380.416" y2= "14.9967" />
   <path id="_121339488" class="fil0 str0" d="M380.416 14.9967c0,-5.5001 1.8879,-12.5174 4.1954,-15.5942"/>
   <line id="_121339416" class="fil0 str0" x1="384.612" y1="-0.5975" x2="391.221" y2= "-9.4114" />
   <path id="_121339344" class="fil0 str0" d="M391.221 -9.4114c2.3074,-3.0769 4.1953,-10.0942 4.1953,-15.5943"/>
   <polyline id="_121339272" class="fil0 str0" points="395.416,-25.0057 395.416,-56.0091 395.416,-56.1348 381.623,-56.1348 381.623,-58.7159 381.572,-60.1098 "/>
   <path id="_121339200" class="fil0 str0" d="M381.572 -60.1098c0,-2.2731 -0.843,-4.1159 -3.1163,-4.1159"/>
   <line id="_121339128" class="fil0 str0" x1="378.455" y1="-64.2257" x2="378.062" y2= "-64.2257" />
   <path id="_121339056" class="fil0 str0" d="M378.062 -64.2257c-2.2732,0 -3.1161,1.8428 -3.1161,4.1159"/>
   <polyline id="_121338984" class="fil0 str0" points="374.946,-60.1098 374.895,-58.7159 374.895,-56.1348 369.227,-56.1348 "/>
  </g>
 </g>
</svg>
