 0
SECTION
 2
ENTITIES
  0
POLYLINE
 8
Group#3
 66
     1
70
    8
 10
0.0
 20
 0.0
 30
0.0
  0
VERTEX
  8
MY3DLAYER
10
54.3852612829922
20
2101.04350178768
30
-4.17561747776298e-12
 70
     32
  0
VERTEX
  8
MY3DLAYER
10
54.3852612829922
20
2081.04350178768
30
-3.26914754806583e-12
 70
     32
  0
VERTEX
  8
MY3DLAYER
10
61.3852612829922
20
2081.04350178768
30
-3.03596815853678e-12
 70
     32
  0
VERTEX
  8
MY3DLAYER
10
61.3852612829922
20
2056.04350178768
30
-2.87294921641182e-12
 70
     32
  0
VERTEX
  8
MY3DLAYER
10
54.3852612829922
20
2056.04350178768
30
-3.91827895291467e-12
 70
     32
  0
VERTEX
  8
MY3DLAYER
10
54.3852612829922
20
1955.54350178768
30
-2.58254129266321e-12
 70
     32
  0
VERTEX
  8
MY3DLAYER
10
61.3852612829922
20
1955.54350178768
30
-2.23656324383224e-12
 70
     32
  0
VERTEX
  8
MY3DLAYER
10
61.3852612829922
20
1930.54350178768
30
-2.07354430170728e-12
 70
     32
  0
VERTEX
  8
MY3DLAYER
10
54.3852612829922
20
1930.54350178768
30
-2.23904449565519e-12
 70
     32
  0
VERTEX
  8
MY3DLAYER
10
54.3852612829922
20
1910.54350178768
30
-1.89656786246762e-12
 70
     32
  0
VERTEX
  8
MY3DLAYER
10
61.3852612829922
20
1910.54350178768
30
-1.93410525526317e-12
 70
     32
  0
VERTEX
  8
MY3DLAYER
10
61.3852612829922
20
1885.54350178768
30
-1.77108631313821e-12
 70
     32
  0
VERTEX
  8
MY3DLAYER
10
54.3852612829921
20
1885.54350178768
30
-1.91402677522573e-12
 70
     32
  0
VERTEX
  8
MY3DLAYER
10
54.3852612829921
20
1870.54350178768
30
-1.82072735632284e-12
 70
     32
  0
VERTEX
  8
MY3DLAYER
10
69.3852612829908
20
1870.54350178768
30
-1.51442636613532e-12
 70
     32
  0
VERTEX
  8
MY3DLAYER
10
69.3852612829909
20
1877.54350178768
30
-1.4301276144145e-12
 70
     32
  0
VERTEX
  8
MY3DLAYER
10
94.3852612829908
20
1877.54350178768
30
-9.19625964101925e-13
 70
     32
  0
VERTEX
  8
MY3DLAYER
10
94.3852612829908
20
1870.54350178768
30
-1.00392471582274e-12
 70
     32
  0
VERTEX
  8
MY3DLAYER
10
114.385261282991
20
1870.54350178768
30
-5.95523395572691e-13
 70
     32
  0
VERTEX
  8
MY3DLAYER
10
114.385261282991
20
1877.54350178768
30
-5.11224643851871e-13
 70
     32
  0
VERTEX
  8
MY3DLAYER
10
139.385261282991
20
1877.54350178768
30
-7.22993539297628e-16
 70
     32
  0
VERTEX
  8
MY3DLAYER
10
139.385261282991
20
1870.54350178768
30
-8.50217452601188e-14
 70
     32
  0
VERTEX
  8
MY3DLAYER
10
154.385261282991
20
1870.54350178768
30
2.21279244927427e-13
 70
     32
  0
VERTEX
  8
MY3DLAYER
10
154.38526128299
20
2311.54350178768
30
-5.65752639941093e-12
 70
     32
  0
VERTEX
  8
MY3DLAYER
10
139.385261282992
20
2311.54350178768
30
1.70648144293183e-12
 70
     32
  0
VERTEX
  8
MY3DLAYER
10
139.385261282992
20
2304.54350178768
30
1.62218269121101e-12
 70
     32
  0
VERTEX
  8
MY3DLAYER
10
114.385261282992
20
2304.54350178768
30
-4.90059921188769e-13
 70
     32
  0
VERTEX
  8
MY3DLAYER
10
114.385261282992
20
2311.54350178768
30
1.19597979261926e-12
 70
     32
  0
VERTEX
  8
MY3DLAYER
10
94.3852612829916
20
2311.54350178768
30
7.87578472369205e-13
 70
     32
  0
VERTEX
  8
MY3DLAYER
10
94.3852612829916
20
2304.54350178768
30
7.03279720648384e-13
 70
     32
  0
VERTEX
  8
MY3DLAYER
10
69.3852612829916
20
2304.54350178768
30
1.9277807033581e-13
 70
     32
  0
VERTEX
  8
MY3DLAYER
10
69.3852612829916
20
2311.54350178768
30
2.7707682205663e-13
 70
     32
  0
VERTEX
  8
MY3DLAYER
10
54.3852612829916
20
2311.54350178768
30
1.58952955898516e-14
 70
     32
  0
VERTEX
  8
MY3DLAYER
10
54.3852612829916
20
2296.54350178768
30
-9.38428722506996e-14
 70
     32
  0
VERTEX
  8
MY3DLAYER
10
61.3852612829917
20
2296.54350178768
30
2.65378579764385e-14
 70
     32
  0
VERTEX
  8
MY3DLAYER
10
61.3852612829917
20
2271.54350178768
30
1.89556800101393e-13
 70
     32
  0
VERTEX
  8
MY3DLAYER
10
54.3852612829916
20
2271.54350178768
30
4.661633801387e-14
 70
     32
  0
VERTEX
  8
MY3DLAYER
10
54.3852612829916
20
2251.54350178768
30
2.31174848178754e-13
 70
     32
  0
VERTEX
  8
MY3DLAYER
10
61.3852612829916
20
2251.54350178768
30
3.51555578405892e-13
 70
     32
  0
VERTEX
  8
MY3DLAYER
10
61.3852612829916
20
2226.54350178768
30
8.07851034715829e-13
 70
     32
  0
VERTEX
  8
MY3DLAYER
10
54.3852612829916
20
2226.54350178768
30
5.06992449605625e-13
 70
     32
  0
VERTEX
  8
MY3DLAYER
10
54.3852612829922
20
2126.04350178768
30
-4.67703239779368e-12
 70
     32
  0
VERTEX
  8
MY3DLAYER
10
61.3852612829922
20
2126.04350178768
30
-3.31586641524547e-12
 70
     32
  0
VERTEX
  8
MY3DLAYER
10
61.3852612829922
20
2101.04350178768
30
-3.15284747312051e-12
 70
     32
  0
VERTEX
  8
MY3DLAYER
10
54.3852612829922
20
2101.04350178768
30
-4.17561747776298e-12
 70
     32
  0
SEQEND
  0
POLYLINE
 8
Group#30
 66
     1
70
    8
 10
0.0
 20
 0.0
 30
0.0
  0
VERTEX
  8
MY3DLAYER
10
624.284655406447
20
1893.58935734304
30
-0.266827298977868
 70
     32
  0
VERTEX
  8
MY3DLAYER
10
624.802405153628
20
1893.19207827346
30
-0.27108446126327
 70
     32
  0
VERTEX
  8
MY3DLAYER
10
625.405337613463
20
1892.942343134
30
-0.275373082004396
 70
     32
  0
VERTEX
  8
MY3DLAYER
10
626.052363935208
20
1892.85717096173
30
-0.279400898785
 70
     32
  0
VERTEX
  8
MY3DLAYER
10
626.699390344298
20
1892.94236609943
30
-0.282893422547818
 70
     32
  0
VERTEX
  8
MY3DLAYER
10
627.302323060214
20
1893.19212263925
30
-0.285612643570163
 70
     32
  0
VERTEX
  8
MY3DLAYER
10
627.82007321476
20
1893.58942008575
30
-0.287373251432863
 70
     32
  0
VERTEX
  8
MY3DLAYER
10
628.217356990528
20
1894.10718327451
30
-0.288055263619851
 70
     32
  0
VERTEX
  8
MY3DLAYER
10
628.467100154739
20
1894.71012749987
30
-0.287612202127484
 70
     32
  0
VERTEX
  8
MY3DLAYER
10
628.552283123475
20
1895.35716310928
30
-0.286074260864336
 70
     32
  0
VERTEX
  8
MY3DLAYER
10
628.467100818186
20
1896.00419569523
30
-0.283546247986
 70
     32
  0
VERTEX
  8
MY3DLAYER
10
628.217358272208
20
1896.60713105627
30
-0.280200443392204
 70
     32
  0
VERTEX
  8
MY3DLAYER
10
627.820075027331
20
1897.12488014393
30
-0.276264858137019
 70
     32
  0
VERTEX
  8
MY3DLAYER
10
627.30232528015
20
1897.52215921352
30
-0.272007695851617
 70
     32
  0
VERTEX
  8
MY3DLAYER
10
626.699392820315
20
1897.77189435298
30
-0.26771907511049
 70
     32
  0
VERTEX
  8
MY3DLAYER
10
626.05236649857
20
1897.85706652525
30
-0.263691258329886
 70
     32
  0
VERTEX
  8
MY3DLAYER
10
625.40534008948
20
1897.77187138755
30
-0.260198734567068
 70
     32
  0
VERTEX
  8
MY3DLAYER
10
624.802407373564
20
1897.52211484773
30
-0.257479513544724
 70
     32
  0
VERTEX
  8
MY3DLAYER
10
624.284657219017
20
1897.12481740123
30
-0.255718905682024
 70
     32
  0
VERTEX
  8
MY3DLAYER
10
623.88737344325
20
1896.60705421247
30
-0.255036893495036
 70
     32
  0
VERTEX
  8
MY3DLAYER
10
623.637630279038
20
1896.00410998711
30
-0.255479954987402
 70
     32
  0
VERTEX
  8
MY3DLAYER
10
623.552447310303
20
1895.3570743777
30
-0.25701789625055
 70
     32
  0
VERTEX
  8
MY3DLAYER
10
623.637629615591
20
1894.71004179174
30
-0.259545909128887
 70
     32
  0
VERTEX
  8
MY3DLAYER
10
623.887372161569
20
1894.10710643071
30
-0.262891713722683
 70
     32
  0
VERTEX
  8
MY3DLAYER
10
624.284655406447
20
1893.58935734304
30
-0.266827298977868
 70
     32
  0
SEQEND
  0
POLYLINE
 8
Group#30
 66
     1
70
    8
 10
0.0
 20
 0.0
 30
0.0
  0
VERTEX
  8
MY3DLAYER
10
540.049720577655
20
1882.39346890998
30
1.07511688360684e-11
 70
     32
  0
VERTEX
  8
MY3DLAYER
10
540.049720577655
20
1897.59346890998
30
1.06713587321612e-11
 70
     32
  0
VERTEX
  8
MY3DLAYER
10
547.049720577655
20
1897.59346890998
30
1.07380860115512e-11
 70
     32
  0
VERTEX
  8
MY3DLAYER
10
547.049720577655
20
1943.97681320255
30
9.76333012984077e-12
 70
     32
  0
VERTEX
  8
MY3DLAYER
10
540.049720577655
20
1943.97681320255
30
8.97469143091846e-12
 70
     32
  0
VERTEX
  8
MY3DLAYER
10
540.049720577655
20
1968.97681320255
30
9.62945336483819e-12
 70
     32
  0
VERTEX
  8
MY3DLAYER
10
547.049720577655
20
1968.97681320255
30
7.89140209539758e-12
 70
     32
  0
VERTEX
  8
MY3DLAYER
10
547.049720577655
20
1983.97681320255
30
7.63453897817038e-12
 70
     32
  0
VERTEX
  8
MY3DLAYER
10
540.049720577655
20
1983.97681320255
30
9.46282917505252e-12
 70
     32
  0
VERTEX
  8
MY3DLAYER
10
540.049720577655
20
2008.97681320255
30
1.02078300364138e-11
 70
     32
  0
VERTEX
  8
MY3DLAYER
10
547.049720577655
20
2008.97681320255
30
9.28192911394697e-12
 70
     32
  0
VERTEX
  8
MY3DLAYER
10
547.049720577655
20
2023.97681320255
30
9.1153049241613e-12
 70
     32
  0
VERTEX
  8
MY3DLAYER
10
555.049720577652
20
2023.97681320255
30
6.93559148599729e-12
 70
     32
  0
VERTEX
  8
MY3DLAYER
10
555.049720577652
20
2030.97681320255
30
6.99619988617433e-12
 70
     32
  0
VERTEX
  8
MY3DLAYER
10
580.049720577652
20
2030.97681320255
30
7.4149894531647e-12
 70
     32
  0
VERTEX
  8
MY3DLAYER
10
580.049720577652
20
2023.97681320255
30
7.4446199804292e-12
 70
     32
  0
VERTEX
  8
MY3DLAYER
10
600.049720577652
20
2023.97681320255
30
7.36455256779044e-12
 70
     32
  0
VERTEX
  8
MY3DLAYER
10
600.049720577652
20
2030.97681320255
30
7.33492204052595e-12
 70
     32
  0
VERTEX
  8
MY3DLAYER
10
625.049720577652
20
2030.97681320255
30
7.57323375263325e-12
 70
     32
  0
VERTEX
  8
MY3DLAYER
10
625.049720577652
20
2023.97681320255
30
7.60286427989775e-12
 70
     32
  0
VERTEX
  8
MY3DLAYER
10
640.049720577652
20
2023.97681320255
30
7.74585130716213e-12
 70
     32
  0
VERTEX
  8
MY3DLAYER
10
640.049720577653
20
1755.81012461742
30
1.22477544841521e-11
 70
     32
  0
VERTEX
  8
MY3DLAYER
10
625.049720577653
20
1755.81012461742
30
1.21047674568877e-11
 70
     32
  0
VERTEX
  8
MY3DLAYER
10
625.049720577653
20
1748.81012461742
30
1.21343979841522e-11
 70
     32
  0
VERTEX
  8
MY3DLAYER
10
600.049720577653
20
1748.81012461742
30
1.18960862720449e-11
 70
     32
  0
VERTEX
  8
MY3DLAYER
10
600.049720577653
20
1755.81012461742
30
1.18664557447804e-11
 70
     32
  0
VERTEX
  8
MY3DLAYER
10
580.049720577653
20
1755.81012461742
30
1.19465231574192e-11
 70
     32
  0
VERTEX
  8
MY3DLAYER
10
580.049720577653
20
1748.81012461742
30
1.19761536846837e-11
 70
     32
  0
VERTEX
  8
MY3DLAYER
10
555.049720577653
20
1748.81012461742
30
1.14671251902518e-11
 70
     32
  0
VERTEX
  8
MY3DLAYER
10
555.049720577653
20
1755.81012461742
30
1.15277335904288e-11
 70
     32
  0
VERTEX
  8
MY3DLAYER
10
547.049720577654
20
1755.81012461742
30
1.1361234915113e-11
 70
     32
  0
VERTEX
  8
MY3DLAYER
10
547.049720577654
20
1770.81012461742
30
1.12848496527688e-11
 70
     32
  0
VERTEX
  8
MY3DLAYER
10
540.049720577655
20
1770.81012461742
30
1.10376445184957e-11
 70
     32
  0
VERTEX
  8
MY3DLAYER
10
540.049720577654
20
1795.81012461742
30
1.11509728877663e-11
 70
     32
  0
VERTEX
  8
MY3DLAYER
10
547.049720577654
20
1795.81012461742
30
1.10372223122732e-11
 70
     32
  0
VERTEX
  8
MY3DLAYER
10
547.049720577654
20
1810.81012461742
30
1.09608370499291e-11
 70
     32
  0
VERTEX
  8
MY3DLAYER
10
540.049720577655
20
1810.81012461742
30
1.05331540607729e-11
 70
     32
  0
VERTEX
  8
MY3DLAYER
10
540.049720577654
20
1835.81012461742
30
1.06464824300435e-11
 70
     32
  0
VERTEX
  8
MY3DLAYER
10
547.049720577655
20
1835.81012461742
30
1.07132097094335e-11
 70
     32
  0
VERTEX
  8
MY3DLAYER
10
547.049720577655
20
1882.39346890998
30
1.08178961154584e-11
 70
     32
  0
VERTEX
  8
MY3DLAYER
10
540.049720577655
20
1882.39346890998
30
1.07511688360684e-11
 70
     32
  0
SEQEND
  0
POLYLINE
 8
Group#30
 66
     1
70
    8
 10
0.0
 20
 0.0
 30
0.0
  0
VERTEX
  8
MY3DLAYER
10
623.845874897127
20
2019.01538879523
30
-0.255083736324578
 70
     32
  0
VERTEX
  8
MY3DLAYER
10
623.621270037708
20
2018.40482768398
30
-0.255696821796098
 70
     32
  0
VERTEX
  8
MY3DLAYER
10
623.562340297175
20
2017.75694111356
30
-0.257390007923978
 70
     32
  0
VERTEX
  8
MY3DLAYER
10
623.673101639961
20
2017.11588148308
30
-0.26004790687165
 70
     32
  0
VERTEX
  8
MY3DLAYER
10
623.946005863595
20
2016.52533594694
30
-0.26348938721824
 70
     32
  0
VERTEX
  8
MY3DLAYER
10
624.362454996232
20
2016.02554920751
30
-0.267479917765371
 70
     32
  0
VERTEX
  8
MY3DLAYER
10
624.894068717699
20
2015.65058090515
30
-0.271747550450965
 70
     32
  0
VERTEX
  8
MY3DLAYER
10
625.50461843141
20
2015.42598450999
30
-0.276001453160123
 70
     32
  0
VERTEX
  8
MY3DLAYER
10
626.152496183357
20
2015.3670658952
30
-0.279951729453113
 70
     32
  0
VERTEX
  8
MY3DLAYER
10
626.793550175413
20
2015.47784026702
30
-0.283329174528633
 70
     32
  0
VERTEX
  8
MY3DLAYER
10
627.384093637412
20
2015.75075853507
30
-0.285903621086437
 70
     32
  0
VERTEX
  8
MY3DLAYER
10
627.883882008337
20
2016.1672217704
30
-0.287499624847924
 70
     32
  0
VERTEX
  8
MY3DLAYER
10
628.25885553665
20
2016.69884869175
30
-0.288008420794324
 70
     32
  0
VERTEX
  8
MY3DLAYER
10
628.483460396069
20
2017.309409803
30
-0.287395335322803
 70
     32
  0
VERTEX
  8
MY3DLAYER
10
628.542390136602
20
2017.95729637341
30
-0.285702149194923
 70
     32
  0
VERTEX
  8
MY3DLAYER
10
628.431628793816
20
2018.5983560039
30
-0.283044250247252
 70
     32
  0
VERTEX
  8
MY3DLAYER
10
628.158724570182
20
2019.18890154004
30
-0.279602769900662
 70
     32
  0
VERTEX
  8
MY3DLAYER
10
627.742275437545
20
2019.68868827947
30
-0.275612239353531
 70
     32
  0
VERTEX
  8
MY3DLAYER
10
627.210661716078
20
2020.06365658183
30
-0.271344606667937
 70
     32
  0
VERTEX
  8
MY3DLAYER
10
626.600112002367
20
2020.28825297699
30
-0.267090703958779
 70
     32
  0
VERTEX
  8
MY3DLAYER
10
625.95223425042
20
2020.34717159177
30
-0.263140427665789
 70
     32
  0
VERTEX
  8
MY3DLAYER
10
625.311180258364
20
2020.23639721995
30
-0.259762982590269
 70
     32
  0
VERTEX
  8
MY3DLAYER
10
624.720636796365
20
2019.96347895191
30
-0.257188536032465
 70
     32
  0
VERTEX
  8
MY3DLAYER
10
624.22084842544
20
2019.54701571658
30
-0.255592532270978
 70
     32
  0
VERTEX
  8
MY3DLAYER
10
623.845874897127
20
2019.01538879523
30
-0.255083736324578
 70
     32
  0
SEQEND
  0
POLYLINE
 8
Group#30
 66
     1
70
    8
 10
0.0
 20
 0.0
 30
0.0
  0
VERTEX
  8
MY3DLAYER
10
628.440071962168
20
1762.69766252779
30
-0.283095496780148
 70
     32
  0
VERTEX
  8
MY3DLAYER
10
628.16705956713
20
1763.29041697571
30
-0.279646447399874
 70
     32
  0
VERTEX
  8
MY3DLAYER
10
627.749934246821
20
1763.7923093525
30
-0.275645371269267
 70
     32
  0
VERTEX
  8
MY3DLAYER
10
627.217122402488
20
1764.16913652207
30
-0.271364935114578
 70
     32
  0
VERTEX
  8
MY3DLAYER
10
626.604934280808
20
1764.39521833557
30
-0.267096843586055
 70
     32
  0
VERTEX
  8
MY3DLAYER
10
625.955089490586
20
1764.45514769101
30
-0.263131960067918
 70
     32
  0
VERTEX
  8
MY3DLAYER
10
625.311873880355
20
1764.34484050187
30
-0.259740484819744
 70
     32
  0
VERTEX
  8
MY3DLAYER
10
624.71912153099
20
1764.07181402079
30
-0.257153541275014
 70
     32
  0
VERTEX
  8
MY3DLAYER
10
624.21722753553
20
1763.65467455127
30
-0.255547425361066
 70
     32
  0
VERTEX
  8
MY3DLAYER
10
623.840395140345
20
1763.12184945878
30
-0.255031591223203
 70
     32
  0
VERTEX
  8
MY3DLAYER
10
623.614304850424
20
1762.50964989286
30
-0.255641192105636
 70
     32
  0
VERTEX
  8
MY3DLAYER
10
623.554364345392
20
1761.85979624221
30
-0.257334684715505
 70
     32
  0
VERTEX
  8
MY3DLAYER
10
623.664658471611
20
1761.21657495919
30
-0.25999666033017
 70
     32
  0
VERTEX
  8
MY3DLAYER
10
623.937670866649
20
1760.62382051126
30
-0.263445709710444
 70
     32
  0
VERTEX
  8
MY3DLAYER
10
624.354796186958
20
1760.12192813448
30
-0.267446785841051
 70
     32
  0
VERTEX
  8
MY3DLAYER
10
624.887608031291
20
1759.74510096491
30
-0.27172722199574
 70
     32
  0
VERTEX
  8
MY3DLAYER
10
625.499796152971
20
1759.51901915141
30
-0.275995313524264
 70
     32
  0
VERTEX
  8
MY3DLAYER
10
626.149640943193
20
1759.45908979597
30
-0.2799601970424
 70
     32
  0
VERTEX
  8
MY3DLAYER
10
626.792856553423
20
1759.56939698511
30
-0.283351672290574
 70
     32
  0
VERTEX
  8
MY3DLAYER
10
627.385608902788
20
1759.84242346618
30
-0.285938615835304
 70
     32
  0
VERTEX
  8
MY3DLAYER
10
627.887502898249
20
1760.25956293571
30
-0.287544731749252
 70
     32
  0
VERTEX
  8
MY3DLAYER
10
628.264335293434
20
1760.79238802819
30
-0.288060565887115
 70
     32
  0
VERTEX
  8
MY3DLAYER
10
628.490425583355
20
1761.40458759412
30
-0.287450965004682
 70
     32
  0
VERTEX
  8
MY3DLAYER
10
628.550366088387
20
1762.05444124477
30
-0.285757472394813
 70
     32
  0
VERTEX
  8
MY3DLAYER
10
628.440071962168
20
1762.69766252779
30
-0.283095496780148
 70
     32
  0
SEQEND
  0
POLYLINE
 8
Group#30
 66
     1
70
    8
 10
0.0
 20
 0.0
 30
0.0
  0
VERTEX
  8
MY3DLAYER
10
628.303385177712
20
1885.52222060439
30
-0.281281378461658
 70
     32
  0
VERTEX
  8
MY3DLAYER
10
627.951028818329
20
1886.0685369044
30
-0.277517128591413
 70
     32
  0
VERTEX
  8
MY3DLAYER
10
627.469281672198
20
1886.50503771974
30
-0.27334596152897
 70
     32
  0
VERTEX
  8
MY3DLAYER
10
626.890974011203
20
1886.80197624119
30
-0.269052135416497
 70
     32
  0
VERTEX
  8
MY3DLAYER
10
626.255516546741
20
1886.93911659924
30
-0.264928267407585
 70
     32
  0
VERTEX
  8
MY3DLAYER
10
625.606214654874
20
1886.90711290511
30
-0.261255392292137
 70
     32
  0
VERTEX
  8
MY3DLAYER
10
624.98731718651
20
1886.70814615767
30
-0.258283810439436
 70
     32
  0
VERTEX
  8
MY3DLAYER
10
624.44100098134
20
1886.35577561196
30
-0.256216030242036
 70
     32
  0
VERTEX
  8
MY3DLAYER
10
624.004496585918
20
1885.87401473834
30
-0.255192967503274
 70
     32
  0
VERTEX
  8
MY3DLAYER
10
623.707551053434
20
1885.2956947442
30
-0.255284342257981
 70
     32
  0
VERTEX
  8
MY3DLAYER
10
623.5704007312
20
1884.66022718143
30
-0.256483927467723
 70
     32
  0
VERTEX
  8
MY3DLAYER
10
623.602392187026
20
1884.01091811426
30
-0.258709973382796
 70
     32
  0
VERTEX
  8
MY3DLAYER
10
623.801345256066
20
1883.39201688259
30
-0.261810778652855
 70
     32
  0
VERTEX
  8
MY3DLAYER
10
624.153701615449
20
1882.84570058258
30
-0.2655750285231
 70
     32
  0
VERTEX
  8
MY3DLAYER
10
624.63544876158
20
1882.40919976724
30
-0.269746195585544
 70
     32
  0
VERTEX
  8
MY3DLAYER
10
625.213756422575
20
1882.11226124579
30
-0.274040021698017
 70
     32
  0
VERTEX
  8
MY3DLAYER
10
625.849213887036
20
1881.97512088774
30
-0.278163889706928
 70
     32
  0
VERTEX
  8
MY3DLAYER
10
626.498515778904
20
1882.00712458187
30
-0.281836764822376
 70
     32
  0
VERTEX
  8
MY3DLAYER
10
627.117413247268
20
1882.20609132931
30
-0.284808346675078
 70
     32
  0
VERTEX
  8
MY3DLAYER
10
627.663729452437
20
1882.55846187502
30
-0.286876126872477
 70
     32
  0
VERTEX
  8
MY3DLAYER
10
628.100233847859
20
1883.04022274864
30
-0.28789918961124
 70
     32
  0
VERTEX
  8
MY3DLAYER
10
628.397179380344
20
1883.61854274278
30
-0.287807814856532
 70
     32
  0
VERTEX
  8
MY3DLAYER
10
628.534329702577
20
1884.25401030555
30
-0.286608229646791
 70
     32
  0
VERTEX
  8
MY3DLAYER
10
628.502338246751
20
1884.90331937272
30
-0.284382183731717
 70
     32
  0
VERTEX
  8
MY3DLAYER
10
628.303385177712
20
1885.52222060439
30
-0.281281378461658
 70
     32
  0
SEQEND
  0
POLYLINE
 8
Group#3
 66
     1
70
    8
 10
0.0
 20
 0.0
 30
0.0
  0
VERTEX
  8
MY3DLAYER
10
255.474838251915
20
2101.04350178768
30
-1.71585813167619e-12
 70
     32
  0
VERTEX
  8
MY3DLAYER
10
255.474838251915
20
2081.04350178768
30
-2.0727331861605e-12
 70
     32
  0
VERTEX
  8
MY3DLAYER
10
248.474838251915
20
2081.04350178768
30
-2.30435826345508e-12
 70
     32
  0
VERTEX
  8
MY3DLAYER
10
248.474838251915
20
2056.04350178768
30
-1.78038361156399e-12
 70
     32
  0
VERTEX
  8
MY3DLAYER
10
255.474838251915
20
2056.04350178768
30
-7.36608187295619e-13
 70
     32
  0
VERTEX
  8
MY3DLAYER
10
255.474838251915
20
1955.54350178768
30
6.89368400397373e-13
 70
     32
  0
VERTEX
  8
MY3DLAYER
10
248.474838251915
20
1955.54350178768
30
3.4494466380088e-13
 70
     32
  0
VERTEX
  8
MY3DLAYER
10
248.474838251915
20
1930.54350178768
30
8.68919315691965e-13
 70
     32
  0
VERTEX
  8
MY3DLAYER
10
255.474838251915
20
1930.54350178768
30
1.03286519740539e-12
 70
     32
  0
VERTEX
  8
MY3DLAYER
10
255.474838251915
20
1910.54350178768
30
1.23998343943066e-12
 70
     32
  0
VERTEX
  8
MY3DLAYER
10
248.474838251915
20
1910.54350178768
30
1.27907514446068e-12
 70
     32
  0
VERTEX
  8
MY3DLAYER
10
248.474838251915
20
1885.54350178768
30
1.80304979635176e-12
 70
     32
  0
VERTEX
  8
MY3DLAYER
10
255.474838251915
20
1885.54350178768
30
1.94443594620481e-12
 70
     32
  0
VERTEX
  8
MY3DLAYER
10
255.474838251915
20
1870.54350178768
30
2.26333268371154e-12
 70
     32
  0
VERTEX
  8
MY3DLAYER
10
240.474838251917
20
1870.54350178768
30
1.9603623625979e-12
 70
     32
  0
VERTEX
  8
MY3DLAYER
10
240.474838251917
20
1877.54350178768
30
1.68370540455259e-12
 70
     32
  0
VERTEX
  8
MY3DLAYER
10
215.474838251917
20
1877.54350178768
30
1.17875486936314e-12
 70
     32
  0
VERTEX
  8
MY3DLAYER
10
215.474838251917
20
1870.54350178768
30
1.45541182740846e-12
 70
     32
  0
VERTEX
  8
MY3DLAYER
10
195.474838251917
20
1870.54350178768
30
1.0514513992569e-12
 70
     32
  0
VERTEX
  8
MY3DLAYER
10
195.474838251917
20
1877.54350178768
30
7.74794441211585e-13
 70
     32
  0
VERTEX
  8
MY3DLAYER
10
170.474838251917
20
1877.54350178768
30
2.69843906022137e-13
 70
     32
  0
VERTEX
  8
MY3DLAYER
10
170.474838251917
20
1870.54350178768
30
5.46500864067451e-13
 70
     32
  0
VERTEX
  8
MY3DLAYER
10
155.474838251917
20
1870.54350178768
30
2.43530542953781e-13
 70
     32
  0
VERTEX
  8
MY3DLAYER
10
155.474838251917
20
2311.54350178768
30
-5.99623081115067e-12
 70
     32
  0
VERTEX
  8
MY3DLAYER
10
170.474838251916
20
2311.54350178768
30
-1.33635693225673e-11
 70
     32
  0
VERTEX
  8
MY3DLAYER
10
170.474838251916
20
2304.54350178768
30
-1.3086912364522e-11
 70
     32
  0
VERTEX
  8
MY3DLAYER
10
195.474838251916
20
2304.54350178768
30
-1.09802208672453e-11
 70
     32
  0
VERTEX
  8
MY3DLAYER
10
195.474838251916
20
2311.54350178768
30
-1.28586187873779e-11
 70
     32
  0
VERTEX
  8
MY3DLAYER
10
215.474838251916
20
2311.54350178768
30
-1.24546583592263e-11
 70
     32
  0
VERTEX
  8
MY3DLAYER
10
215.474838251916
20
2304.54350178768
30
-1.2178001401181e-11
 70
     32
  0
VERTEX
  8
MY3DLAYER
10
240.474838251916
20
2304.54350178768
30
-1.16730508659916e-11
 70
     32
  0
VERTEX
  8
MY3DLAYER
10
240.474838251916
20
2311.54350178768
30
-1.19497078240369e-11
 70
     32
  0
VERTEX
  8
MY3DLAYER
10
255.474838251916
20
2311.54350178768
30
-1.1691856966644e-11
 70
     32
  0
VERTEX
  8
MY3DLAYER
10
255.474838251916
20
2296.54350178768
30
-1.11699226423938e-11
 70
     32
  0
VERTEX
  8
MY3DLAYER
10
248.474838251916
20
2296.54350178768
30
-1.12887490603864e-11
 70
     32
  0
VERTEX
  8
MY3DLAYER
10
248.474838251916
20
2271.54350178768
30
-1.07647744084954e-11
 70
     32
  0
VERTEX
  8
MY3DLAYER
10
255.474838251916
20
2271.54350178768
30
-1.06233882586423e-11
 70
     32
  0
VERTEX
  8
MY3DLAYER
10
255.474838251916
20
2251.54350178768
30
-1.02583518935944e-11
 70
     32
  0
VERTEX
  8
MY3DLAYER
10
248.474838251916
20
2251.54350178768
30
-1.0377178311587e-11
 70
     32
  0
VERTEX
  8
MY3DLAYER
10
248.474838251916
20
2226.54350178768
30
-1.01464801738809e-11
 70
     32
  0
VERTEX
  8
MY3DLAYER
10
255.474838251916
20
2226.54350178768
30
-9.8471759010052e-12
 70
     32
  0
VERTEX
  8
MY3DLAYER
10
255.474838251915
20
2126.04350178768
30
-1.90143680566152e-12
 70
     32
  0
VERTEX
  8
MY3DLAYER
10
248.474838251915
20
2126.04350178768
30
-3.26104847597526e-12
 70
     32
  0
VERTEX
  8
MY3DLAYER
10
248.474838251915
20
2101.04350178768
30
-2.73707382408418e-12
 70
     32
  0
VERTEX
  8
MY3DLAYER
10
255.474838251915
20
2101.04350178768
30
-1.71585813167619e-12
 70
     32
  0
SEQEND
  0
POLYLINE
 8
Group#30
 66
     1
70
    8
 10
0.0
 20
 0.0
 30
0.0
  0
VERTEX
  8
MY3DLAYER
10
624.284655406447
20
2170.26426906206
30
0.266827298994995
 70
     32
  0
VERTEX
  8
MY3DLAYER
10
624.802405153628
20
2170.66154813164
30
0.271084461280409
 70
     32
  0
VERTEX
  8
MY3DLAYER
10
625.405337613463
20
2170.9112832711
30
0.275373082021546
 70
     32
  0
VERTEX
  8
MY3DLAYER
10
626.052363935208
20
2170.99645544337
30
0.279400898802157
 70
     32
  0
VERTEX
  8
MY3DLAYER
10
626.699390344298
20
2170.91126030567
30
0.28289342256498
 70
     32
  0
VERTEX
  8
MY3DLAYER
10
627.302323060214
20
2170.66150376585
30
0.285612643587326
 70
     32
  0
VERTEX
  8
MY3DLAYER
10
627.82007321476
20
2170.26420631935
30
0.287373251450023
 70
     32
  0
VERTEX
  8
MY3DLAYER
10
628.217356990528
20
2169.74644313059
30
0.288055263637006
 70
     32
  0
VERTEX
  8
MY3DLAYER
10
628.467100154739
20
2169.14349890523
30
0.287612202144631
 70
     32
  0
VERTEX
  8
MY3DLAYER
10
628.552283123475
20
2168.49646329582
30
0.286074260881472
 70
     32
  0
VERTEX
  8
MY3DLAYER
10
628.467100818186
20
2167.84943070987
30
0.283546248003123
 70
     32
  0
VERTEX
  8
MY3DLAYER
10
628.217358272208
20
2167.24649534883
30
0.280200443409314
 70
     32
  0
VERTEX
  8
MY3DLAYER
10
627.820075027331
20
2166.72874626117
30
0.276264858154116
 70
     32
  0
VERTEX
  8
MY3DLAYER
10
627.30232528015
20
2166.33146719158
30
0.272007695868702
 70
     32
  0
VERTEX
  8
MY3DLAYER
10
626.699392820315
20
2166.08173205213
30
0.267719075127565
 70
     32
  0
VERTEX
  8
MY3DLAYER
10
626.05236649857
20
2165.99655987985
30
0.263691258346954
 70
     32
  0
VERTEX
  8
MY3DLAYER
10
625.40534008948
20
2166.08175501755
30
0.260198734584131
 70
     32
  0
VERTEX
  8
MY3DLAYER
10
624.802407373564
20
2166.33151155737
30
0.257479513561785
 70
     32
  0
VERTEX
  8
MY3DLAYER
10
624.284657219017
20
2166.72880900387
30
0.255718905699088
 70
     32
  0
VERTEX
  8
MY3DLAYER
10
623.88737344325
20
2167.24657219264
30
0.255036893512104
 70
     32
  0
VERTEX
  8
MY3DLAYER
10
623.637630279038
20
2167.849516418
30
0.25547995500448
 70
     32
  0
VERTEX
  8
MY3DLAYER
10
623.552447310303
20
2168.4965520274
30
0.257017896267639
 70
     32
  0
VERTEX
  8
MY3DLAYER
10
623.637629615592
20
2169.14358461336
30
0.259545909145988
 70
     32
  0
VERTEX
  8
MY3DLAYER
10
623.887372161569
20
2169.74651997439
30
0.262891713739797
 70
     32
  0
VERTEX
  8
MY3DLAYER
10
624.284655406447
20
2170.26426906206
30
0.266827298994995
 70
     32
  0
SEQEND
  0
POLYLINE
 8
Group#30
 66
     1
70
    8
 10
0.0
 20
 0.0
 30
0.0
  0
VERTEX
  8
MY3DLAYER
10
540.049720577655
20
2181.46015749512
30
5.77459942315389e-12
 70
     32
  0
VERTEX
  8
MY3DLAYER
10
540.049720577655
20
2166.26015749512
30
5.58062125629138e-12
 70
     32
  0
VERTEX
  8
MY3DLAYER
10
547.049720577655
20
2166.26015749512
30
5.58062125629138e-12
 70
     32
  0
VERTEX
  8
MY3DLAYER
10
547.049720577655
20
2119.87681320255
30
5.71990242574027e-12
 70
     32
  0
VERTEX
  8
MY3DLAYER
10
540.049720577655
20
2119.87681320255
30
6.44181384527253e-12
 70
     32
  0
VERTEX
  8
MY3DLAYER
10
540.049720577655
20
2094.87681320255
30
5.33674225548163e-12
 70
     32
  0
VERTEX
  8
MY3DLAYER
10
547.049720577655
20
2094.87681320255
30
7.14152080431229e-12
 70
     32
  0
VERTEX
  8
MY3DLAYER
10
547.049720577655
20
2079.87681320255
30
7.12819812801679e-12
 70
     32
  0
VERTEX
  8
MY3DLAYER
10
540.049720577655
20
2079.87681320255
30
5.2331806517446e-12
 70
     32
  0
VERTEX
  8
MY3DLAYER
10
540.049720577655
20
2054.87681320255
30
4.03787013451217e-12
 70
     32
  0
VERTEX
  8
MY3DLAYER
10
547.049720577655
20
2054.87681320255
30
5.03049833636903e-12
 70
     32
  0
VERTEX
  8
MY3DLAYER
10
547.049720577655
20
2039.87681320255
30
4.926936732632e-12
 70
     32
  0
VERTEX
  8
MY3DLAYER
10
555.049720577652
20
2039.87681320255
30
7.18290991867031e-12
 70
     32
  0
VERTEX
  8
MY3DLAYER
10
555.049720577652
20
2032.87681320255
30
6.99621481484935e-12
 70
     32
  0
VERTEX
  8
MY3DLAYER
10
580.049720577652
20
2032.87681320255
30
6.81573695996628e-12
 70
     32
  0
VERTEX
  8
MY3DLAYER
10
580.049720577652
20
2039.87681320255
30
6.91219313634571e-12
 70
     32
  0
VERTEX
  8
MY3DLAYER
10
600.049720577652
20
2039.87681320255
30
7.18290991867031e-12
 70
     32
  0
VERTEX
  8
MY3DLAYER
10
600.049720577652
20
2032.87681320255
30
7.08645374229088e-12
 70
     32
  0
VERTEX
  8
MY3DLAYER
10
625.049720577652
20
2032.87681320255
30
7.08645374229088e-12
 70
     32
  0
VERTEX
  8
MY3DLAYER
10
625.049720577652
20
2039.87681320255
30
7.18290991867031e-12
 70
     32
  0
VERTEX
  8
MY3DLAYER
10
640.049720577652
20
2039.87681320255
30
7.18290991867031e-12
 70
     32
  0
VERTEX
  8
MY3DLAYER
10
640.049720577653
20
2308.04350178768
30
7.51132871179561e-12
 70
     32
  0
VERTEX
  8
MY3DLAYER
10
625.049720577653
20
2308.04350178768
30
7.51132871179561e-12
 70
     32
  0
VERTEX
  8
MY3DLAYER
10
625.049720577653
20
2315.04350178768
30
7.60778488817504e-12
 70
     32
  0
VERTEX
  8
MY3DLAYER
10
600.049720577653
20
2315.04350178768
30
7.60778488817504e-12
 70
     32
  0
VERTEX
  8
MY3DLAYER
10
600.049720577653
20
2308.04350178768
30
7.51132871179561e-12
 70
     32
  0
VERTEX
  8
MY3DLAYER
10
580.049720577653
20
2308.04350178768
30
7.24061192947101e-12
 70
     32
  0
VERTEX
  8
MY3DLAYER
10
580.049720577653
20
2315.04350178768
30
7.33706810585044e-12
 70
     32
  0
VERTEX
  8
MY3DLAYER
10
555.049720577653
20
2315.04350178768
30
7.60778488817504e-12
 70
     32
  0
VERTEX
  8
MY3DLAYER
10
555.049720577653
20
2308.04350178768
30
7.42108978435407e-12
 70
     32
  0
VERTEX
  8
MY3DLAYER
10
547.049720577654
20
2308.04350178768
30
7.51132871179561e-12
 70
     32
  0
VERTEX
  8
MY3DLAYER
10
547.049720577654
20
2293.04350178768
30
7.31752818061704e-12
 70
     32
  0
VERTEX
  8
MY3DLAYER
10
540.049720577655
20
2293.04350178768
30
7.4980060355001e-12
 70
     32
  0
VERTEX
  8
MY3DLAYER
10
540.049720577654
20
2268.04350178768
30
6.9343680103584e-12
 70
     32
  0
VERTEX
  8
MY3DLAYER
10
547.049720577654
20
2268.04350178768
30
7.11484586524147e-12
 70
     32
  0
VERTEX
  8
MY3DLAYER
10
547.049720577654
20
2253.04350178768
30
6.9210453340629e-12
 70
     32
  0
VERTEX
  8
MY3DLAYER
10
540.049720577655
20
2253.04350178768
30
7.28200104382903e-12
 70
     32
  0
VERTEX
  8
MY3DLAYER
10
540.049720577654
20
2228.04350178768
30
6.71836301868733e-12
 70
     32
  0
VERTEX
  8
MY3DLAYER
10
547.049720577655
20
2228.04350178768
30
6.71836301868733e-12
 70
     32
  0
VERTEX
  8
MY3DLAYER
10
547.049720577655
20
2181.46015749512
30
5.77459942315389e-12
 70
     32
  0
VERTEX
  8
MY3DLAYER
10
540.049720577655
20
2181.46015749512
30
5.77459942315389e-12
 70
     32
  0
SEQEND
  0
POLYLINE
 8
Group#30
 66
     1
70
    8
 10
0.0
 20
 0.0
 30
0.0
  0
VERTEX
  8
MY3DLAYER
10
623.845874897127
20
2044.83823760988
30
0.255083736339442
 70
     32
  0
VERTEX
  8
MY3DLAYER
10
623.621270037708
20
2045.44879872112
30
0.255696821810971
 70
     32
  0
VERTEX
  8
MY3DLAYER
10
623.562340297175
20
2046.09668529154
30
0.257390007938862
 70
     32
  0
VERTEX
  8
MY3DLAYER
10
623.673101639961
20
2046.73774492202
30
0.260047906886546
 70
     32
  0
VERTEX
  8
MY3DLAYER
10
623.946005863595
20
2047.32829045816
30
0.263489387233149
 70
     32
  0
VERTEX
  8
MY3DLAYER
10
624.362454996232
20
2047.82807719759
30
0.267479917780293
 70
     32
  0
VERTEX
  8
MY3DLAYER
10
624.894068717699
20
2048.20304549995
30
0.271747550465899
 70
     32
  0
VERTEX
  8
MY3DLAYER
10
625.50461843141
20
2048.42764189511
30
0.276001453175067
 70
     32
  0
VERTEX
  8
MY3DLAYER
10
626.152496183357
20
2048.4865605099
30
0.279951729468064
 70
     32
  0
VERTEX
  8
MY3DLAYER
10
626.793550175413
20
2048.37578613808
30
0.283329174543588
 70
     32
  0
VERTEX
  8
MY3DLAYER
10
627.384093637412
20
2048.10286787003
30
0.285903621101393
 70
     32
  0
VERTEX
  8
MY3DLAYER
10
627.883882008337
20
2047.6864046347
30
0.287499624862877
 70
     32
  0
VERTEX
  8
MY3DLAYER
10
628.25885553665
20
2047.15477771335
30
0.288008420809271
 70
     32
  0
VERTEX
  8
MY3DLAYER
10
628.483460396069
20
2046.5442166021
30
0.287395335337742
 70
     32
  0
VERTEX
  8
MY3DLAYER
10
628.542390136602
20
2045.89633003169
30
0.285702149209851
 70
     32
  0
VERTEX
  8
MY3DLAYER
10
628.431628793816
20
2045.2552704012
30
0.283044250262167
 70
     32
  0
VERTEX
  8
MY3DLAYER
10
628.158724570182
20
2044.66472486506
30
0.279602769915564
 70
     32
  0
VERTEX
  8
MY3DLAYER
10
627.742275437545
20
2044.16493812563
30
0.27561223936842
 70
     32
  0
VERTEX
  8
MY3DLAYER
10
627.210661716078
20
2043.78996982327
30
0.271344606682814
 70
     32
  0
VERTEX
  8
MY3DLAYER
10
626.600112002367
20
2043.56537342811
30
0.267090703973646
 70
     32
  0
VERTEX
  8
MY3DLAYER
10
625.95223425042
20
2043.50645481333
30
0.263140427680649
 70
     32
  0
VERTEX
  8
MY3DLAYER
10
625.311180258364
20
2043.61722918515
30
0.259762982605124
 70
     32
  0
VERTEX
  8
MY3DLAYER
10
624.720636796365
20
2043.89014745319
30
0.25718853604732
 70
     32
  0
VERTEX
  8
MY3DLAYER
10
624.22084842544
20
2044.30661068852
30
0.255592532285835
 70
     32
  0
VERTEX
  8
MY3DLAYER
10
623.845874897127
20
2044.83823760988
30
0.255083736339442
 70
     32
  0
SEQEND
  0
POLYLINE
 8
Group#30
 66
     1
70
    8
 10
0.0
 20
 0.0
 30
0.0
  0
VERTEX
  8
MY3DLAYER
10
628.440071962168
20
2301.15596387731
30
0.283095496799672
 70
     32
  0
VERTEX
  8
MY3DLAYER
10
628.16705956713
20
2300.56320942939
30
0.279646447419385
 70
     32
  0
VERTEX
  8
MY3DLAYER
10
627.749934246821
20
2300.0613170526
30
0.275645371288765
 70
     32
  0
VERTEX
  8
MY3DLAYER
10
627.217122402488
20
2299.68448988303
30
0.271364935134064
 70
     32
  0
VERTEX
  8
MY3DLAYER
10
626.604934280808
20
2299.45840806954
30
0.267096843605531
 70
     32
  0
VERTEX
  8
MY3DLAYER
10
625.955089490586
20
2299.39847871409
30
0.263131960087387
 70
     32
  0
VERTEX
  8
MY3DLAYER
10
625.311873880355
20
2299.50878590323
30
0.259740484839209
 70
     32
  0
VERTEX
  8
MY3DLAYER
10
624.71912153099
20
2299.78181238431
30
0.257153541294478
 70
     32
  0
VERTEX
  8
MY3DLAYER
10
624.21722753553
20
2300.19895185383
30
0.255547425380532
 70
     32
  0
VERTEX
  8
MY3DLAYER
10
623.840395140345
20
2300.73177694632
30
0.255031591242676
 70
     32
  0
VERTEX
  8
MY3DLAYER
10
623.614304850424
20
2301.34397651224
30
0.255641192125118
 70
     32
  0
VERTEX
  8
MY3DLAYER
10
623.554364345392
20
2301.99383016289
30
0.257334684734998
 70
     32
  0
VERTEX
  8
MY3DLAYER
10
623.664658471611
20
2302.63705144591
30
0.259996660349676
 70
     32
  0
VERTEX
  8
MY3DLAYER
10
623.937670866649
20
2303.22980589384
30
0.263445709729963
 70
     32
  0
VERTEX
  8
MY3DLAYER
10
624.354796186958
20
2303.73169827062
30
0.267446785860583
 70
     32
  0
VERTEX
  8
MY3DLAYER
10
624.887608031291
20
2304.10852544019
30
0.271727222015284
 70
     32
  0
VERTEX
  8
MY3DLAYER
10
625.499796152971
20
2304.33460725369
30
0.275995313543817
 70
     32
  0
VERTEX
  8
MY3DLAYER
10
626.149640943193
20
2304.39453660913
30
0.279960197061961
 70
     32
  0
VERTEX
  8
MY3DLAYER
10
626.792856553423
20
2304.28422941999
30
0.283351672310139
 70
     32
  0
VERTEX
  8
MY3DLAYER
10
627.385608902788
20
2304.01120293892
30
0.28593861585487
 70
     32
  0
VERTEX
  8
MY3DLAYER
10
627.887502898249
20
2303.59406346939
30
0.287544731768815
 70
     32
  0
VERTEX
  8
MY3DLAYER
10
628.264335293434
20
2303.06123837691
30
0.288060565906672
 70
     32
  0
VERTEX
  8
MY3DLAYER
10
628.490425583355
20
2302.44903881099
30
0.28745096502423
 70
     32
  0
VERTEX
  8
MY3DLAYER
10
628.550366088387
20
2301.79918516034
30
0.28575747241435
 70
     32
  0
VERTEX
  8
MY3DLAYER
10
628.440071962168
20
2301.15596387731
30
0.283095496799672
 70
     32
  0
SEQEND
  0
POLYLINE
 8
Group#30
 66
     1
70
    8
 10
0.0
 20
 0.0
 30
0.0
  0
VERTEX
  8
MY3DLAYER
10
628.303385177712
20
2178.33140580071
30
0.281281378478969
 70
     32
  0
VERTEX
  8
MY3DLAYER
10
627.951028818329
20
2177.7850895007
30
0.27751712860871
 70
     32
  0
VERTEX
  8
MY3DLAYER
10
627.469281672198
20
2177.34858868537
30
0.273345961546255
 70
     32
  0
VERTEX
  8
MY3DLAYER
10
626.890974011203
20
2177.05165016391
30
0.269052135433771
 70
     32
  0
VERTEX
  8
MY3DLAYER
10
626.255516546741
20
2176.91450980587
30
0.264928267424851
 70
     32
  0
VERTEX
  8
MY3DLAYER
10
625.606214654874
20
2176.94651349999
30
0.261255392309397
 70
     32
  0
VERTEX
  8
MY3DLAYER
10
624.98731718651
20
2177.14548024743
30
0.258283810456694
 70
     32
  0
VERTEX
  8
MY3DLAYER
10
624.44100098134
20
2177.49785079314
30
0.256216030259295
 70
     32
  0
VERTEX
  8
MY3DLAYER
10
624.004496585918
20
2177.97961166676
30
0.255192967520537
 70
     32
  0
VERTEX
  8
MY3DLAYER
10
623.707551053434
20
2178.5579316609
30
0.255284342275252
 70
     32
  0
VERTEX
  8
MY3DLAYER
10
623.5704007312
20
2179.19339922368
30
0.256483927485004
 70
     32
  0
VERTEX
  8
MY3DLAYER
10
623.602392187026
20
2179.84270829084
30
0.258709973400089
 70
     32
  0
VERTEX
  8
MY3DLAYER
10
623.801345256066
20
2180.46160952251
30
0.261810778670161
 70
     32
  0
VERTEX
  8
MY3DLAYER
10
624.153701615449
20
2181.00792582252
30
0.26557502854042
 70
     32
  0
VERTEX
  8
MY3DLAYER
10
624.63544876158
20
2181.44442663786
30
0.269746195602875
 70
     32
  0
VERTEX
  8
MY3DLAYER
10
625.213756422575
20
2181.74136515931
30
0.274040021715359
 70
     32
  0
VERTEX
  8
MY3DLAYER
10
625.849213887036
20
2181.87850551736
30
0.27816388972428
 70
     32
  0
VERTEX
  8
MY3DLAYER
10
626.498515778904
20
2181.84650182323
30
0.281836764839733
 70
     32
  0
VERTEX
  8
MY3DLAYER
10
627.117413247268
20
2181.6475350758
30
0.284808346692437
 70
     32
  0
VERTEX
  8
MY3DLAYER
10
627.663729452437
20
2181.29516453008
30
0.286876126889835
 70
     32
  0
VERTEX
  8
MY3DLAYER
10
628.100233847859
20
2180.81340365646
30
0.287899189628593
 70
     32
  0
VERTEX
  8
MY3DLAYER
10
628.397179380344
20
2180.23508366232
30
0.287807814873878
 70
     32
  0
VERTEX
  8
MY3DLAYER
10
628.534329702577
20
2179.59961609955
30
0.286608229664126
 70
     32
  0
VERTEX
  8
MY3DLAYER
10
628.502338246751
20
2178.95030703238
30
0.284382183749041
 70
     32
  0
VERTEX
  8
MY3DLAYER
10
628.303385177712
20
2178.33140580071
30
0.281281378478969
 70
     32
  0
SEQEND
  0
POLYLINE
 8
Group#17
 66
     1
70
    8
 10
0.0
 20
 0.0
 30
0.0
  0
VERTEX
  8
MY3DLAYER
10
255.983031992521
20
2296.54350178769
30
5.86895328207104e-13
 70
     32
  0
VERTEX
  8
MY3DLAYER
10
255.983031992521
20
2271.54350178769
30
5.69436415448989e-13
 70
     32
  0
VERTEX
  8
MY3DLAYER
10
262.983031992521
20
2271.54350178769
30
7.16262658122698e-13
 70
     32
  0
VERTEX
  8
MY3DLAYER
10
262.983031992521
20
2251.54350178769
30
7.02295527916204e-13
 70
     32
  0
VERTEX
  8
MY3DLAYER
10
255.983031992521
20
2251.54350178769
30
5.55469285242494e-13
 70
     32
  0
VERTEX
  8
MY3DLAYER
10
255.983031992521
20
2226.54350178769
30
5.38010372484377e-13
 70
     32
  0
VERTEX
  8
MY3DLAYER
10
262.983031992521
20
2226.54350178769
30
6.84836615158086e-13
 70
     32
  0
VERTEX
  8
MY3DLAYER
10
262.983031992526
20
2126.04350178769
30
1.24632427796132e-12
 70
     32
  0
VERTEX
  8
MY3DLAYER
10
255.983031992526
20
2126.04350178769
30
1.09949803528761e-12
 70
     32
  0
VERTEX
  8
MY3DLAYER
10
255.983031992525
20
2101.04350178769
30
1.08203912252948e-12
 70
     32
  0
VERTEX
  8
MY3DLAYER
10
262.983031992525
20
2101.04350178769
30
1.22886536520319e-12
 70
     32
  0
VERTEX
  8
MY3DLAYER
10
262.983031992524
20
2081.04350178769
30
1.21489823499668e-12
 70
     32
  0
VERTEX
  8
MY3DLAYER
10
255.983031992524
20
2081.04350178769
30
1.06807199232298e-12
 70
     32
  0
VERTEX
  8
MY3DLAYER
10
255.983031992525
20
2056.04350178769
30
1.05061307956488e-12
 70
     32
  0
VERTEX
  8
MY3DLAYER
10
262.983031992525
20
2056.04350178769
30
1.19743932223859e-12
 70
     32
  0
VERTEX
  8
MY3DLAYER
10
262.983031992523
20
1955.54350178769
30
1.12725449295095e-12
 70
     32
  0
VERTEX
  8
MY3DLAYER
10
255.983031992523
20
1955.54350178769
30
9.80428250277238e-13
 70
     32
  0
VERTEX
  8
MY3DLAYER
10
255.983031992523
20
1930.54350178769
30
9.62969337519119e-13
 70
     32
  0
VERTEX
  8
MY3DLAYER
10
262.983031992523
20
1930.54350178769
30
1.10979558019283e-12
 70
     32
  0
VERTEX
  8
MY3DLAYER
10
262.983031992523
20
1910.54350178769
30
1.09582844998633e-12
 70
     32
  0
VERTEX
  8
MY3DLAYER
10
255.983031992523
20
1910.54350178769
30
9.49002207312623e-13
 70
     32
  0
VERTEX
  8
MY3DLAYER
10
255.983031992523
20
1885.54350178769
30
9.3154329455451e-13
 70
     32
  0
VERTEX
  8
MY3DLAYER
10
262.983031992523
20
1885.54350178769
30
1.07836953722822e-12
 70
     32
  0
VERTEX
  8
MY3DLAYER
10
262.983031992522
20
1870.54350178769
30
1.06789418957335e-12
 70
     32
  0
VERTEX
  8
MY3DLAYER
10
277.983031992522
20
1870.54350178769
30
3.18730040127624e-12
 70
     32
  0
VERTEX
  8
MY3DLAYER
10
277.983031992523
20
1877.54350178769
30
3.10194996940698e-12
 70
     32
  0
VERTEX
  8
MY3DLAYER
10
302.983031992523
20
1877.54350178769
30
3.53609048008584e-12
 70
     32
  0
VERTEX
  8
MY3DLAYER
10
302.983031992522
20
1870.54350178769
30
3.6214409119551e-12
 70
     32
  0
VERTEX
  8
MY3DLAYER
10
317.983031992522
20
1870.54350178769
30
3.8458296473858e-12
 70
     32
  0
VERTEX
  8
MY3DLAYER
10
317.983031992523
20
1877.54350178769
30
3.85071814295807e-12
 70
     32
  0
VERTEX
  8
MY3DLAYER
10
342.983031992523
20
1877.54350178769
30
4.37509758107846e-12
 70
     32
  0
VERTEX
  8
MY3DLAYER
10
342.983031992522
20
1870.54350178769
30
4.37020908550619e-12
 70
     32
  0
VERTEX
  8
MY3DLAYER
10
389.366376285089
20
1870.54350178769
30
5.16263011135436e-12
 70
     32
  0
VERTEX
  8
MY3DLAYER
10
389.366376285089
20
1877.54350178769
30
5.0772796794851e-12
 70
     32
  0
VERTEX
  8
MY3DLAYER
10
404.566376285089
20
1877.54350178769
30
5.30586345042076e-12
 70
     32
  0
VERTEX
  8
MY3DLAYER
10
404.566376285089
20
1870.54350178769
30
5.39121388229002e-12
 70
     32
  0
VERTEX
  8
MY3DLAYER
10
451.149720577656
20
1870.54350178769
30
6.27806887108469e-12
 70
     32
  0
VERTEX
  8
MY3DLAYER
10
451.149720577656
20
1877.54350178769
30
6.19271843921543e-12
 70
     32
  0
VERTEX
  8
MY3DLAYER
10
476.149720577656
20
1877.54350178769
30
7.16829251454348e-12
 70
     32
  0
VERTEX
  8
MY3DLAYER
10
476.149720577656
20
1870.54350178769
30
7.16340401897121e-12
 70
     32
  0
VERTEX
  8
MY3DLAYER
10
491.149720577656
20
1870.54350178769
30
6.93659811719425e-12
 70
     32
  0
VERTEX
  8
MY3DLAYER
10
491.149720577656
20
1877.54350178769
30
6.85124768532499e-12
 70
     32
  0
VERTEX
  8
MY3DLAYER
10
516.149720577656
20
1877.54350178769
30
8.00729961553611e-12
 70
     32
  0
VERTEX
  8
MY3DLAYER
10
516.149720577656
20
1870.54350178769
30
8.00241111996384e-12
 70
     32
  0
VERTEX
  8
MY3DLAYER
10
531.149720577656
20
1870.54350178769
30
7.68536629074534e-12
 70
     32
  0
VERTEX
  8
MY3DLAYER
10
531.149720577656
20
1885.54350178769
30
7.69584163840021e-12
 70
     32
  0
VERTEX
  8
MY3DLAYER
10
538.149720577656
20
1885.54350178769
30
7.84266788107392e-12
 70
     32
  0
VERTEX
  8
MY3DLAYER
10
538.149720577656
20
1910.54350178769
30
7.86012679383203e-12
 70
     32
  0
VERTEX
  8
MY3DLAYER
10
531.149720577656
20
1910.54350178769
30
7.71330055115832e-12
 70
     32
  0
VERTEX
  8
MY3DLAYER
10
531.149720577656
20
1930.54350178769
30
7.72726768136482e-12
 70
     32
  0
VERTEX
  8
MY3DLAYER
10
538.149720577657
20
1930.54350178769
30
7.87409392403853e-12
 70
     32
  0
VERTEX
  8
MY3DLAYER
10
538.149720577657
20
1955.54350178769
30
7.89155283679665e-12
 70
     32
  0
VERTEX
  8
MY3DLAYER
10
531.149720577657
20
1955.54350178769
30
7.74472659412294e-12
 70
     32
  0
VERTEX
  8
MY3DLAYER
10
531.149720577658
20
2056.04350178769
30
7.81491142341058e-12
 70
     32
  0
VERTEX
  8
MY3DLAYER
10
538.149720577658
20
2056.04350178769
30
7.96173766608429e-12
 70
     32
  0
VERTEX
  8
MY3DLAYER
10
538.149720577658
20
2081.04350178769
30
7.97919657884239e-12
 70
     32
  0
VERTEX
  8
MY3DLAYER
10
531.149720577658
20
2081.04350178769
30
7.83237033616868e-12
 70
     32
  0
VERTEX
  8
MY3DLAYER
10
531.149720577659
20
2101.04350178769
30
7.84633746637518e-12
 70
     32
  0
VERTEX
  8
MY3DLAYER
10
538.149720577659
20
2101.04350178769
30
7.99316370904889e-12
 70
     32
  0
VERTEX
  8
MY3DLAYER
10
538.149720577659
20
2126.04350178769
30
8.01062262180702e-12
 70
     32
  0
VERTEX
  8
MY3DLAYER
10
531.149720577659
20
2126.04350178769
30
7.86379637913331e-12
 70
     32
  0
VERTEX
  8
MY3DLAYER
10
531.149720577654
20
2226.54350178768
30
7.30230871633008e-12
 70
     32
  0
VERTEX
  8
MY3DLAYER
10
538.149720577654
20
2226.54350178768
30
7.44913495900379e-12
 70
     32
  0
VERTEX
  8
MY3DLAYER
10
538.149720577654
20
2251.54350178768
30
7.4665938717619e-12
 70
     32
  0
VERTEX
  8
MY3DLAYER
10
531.149720577654
20
2251.54350178768
30
7.31976762908819e-12
 70
     32
  0
VERTEX
  8
MY3DLAYER
10
531.149720577655
20
2271.54350178768
30
7.33373475929469e-12
 70
     32
  0
VERTEX
  8
MY3DLAYER
10
538.149720577655
20
2271.54350178768
30
7.4805610019684e-12
 70
     32
  0
VERTEX
  8
MY3DLAYER
10
538.149720577655
20
2296.54350178768
30
7.49801991472651e-12
 70
     32
  0
VERTEX
  8
MY3DLAYER
10
531.149720577655
20
2296.54350178768
30
7.3511936720528e-12
 70
     32
  0
VERTEX
  8
MY3DLAYER
10
531.149720577655
20
2311.54350178768
30
7.36166901970767e-12
 70
     32
  0
VERTEX
  8
MY3DLAYER
10
516.149720577662
20
2311.54350178768
30
7.76895277636785e-12
 70
     32
  0
VERTEX
  8
MY3DLAYER
10
516.149720577662
20
2304.54350178768
30
7.85430320823711e-12
 70
     32
  0
VERTEX
  8
MY3DLAYER
10
491.149720577662
20
2304.54350178768
30
6.78849020546753e-12
 70
     32
  0
VERTEX
  8
MY3DLAYER
10
491.149720577662
20
2311.54350178768
30
6.70313977359827e-12
 70
     32
  0
VERTEX
  8
MY3DLAYER
10
476.149720577662
20
2311.54350178768
30
6.92994567537523e-12
 70
     32
  0
VERTEX
  8
MY3DLAYER
10
476.149720577662
20
2304.54350178768
30
7.01529610724449e-12
 70
     32
  0
VERTEX
  8
MY3DLAYER
10
451.149720577662
20
2304.54350178768
30
6.03972203191643e-12
 70
     32
  0
VERTEX
  8
MY3DLAYER
10
451.149720577662
20
2311.54350178768
30
5.95437160004717e-12
 70
     32
  0
VERTEX
  8
MY3DLAYER
10
404.566376285095
20
2311.54350178768
30
5.15775553869404e-12
 70
     32
  0
VERTEX
  8
MY3DLAYER
10
404.566376285095
20
2304.54350178768
30
5.2431059705633e-12
 70
     32
  0
VERTEX
  8
MY3DLAYER
10
389.366376285095
20
2304.54350178768
30
4.9242832721861e-12
 70
     32
  0
VERTEX
  8
MY3DLAYER
10
389.366376285096
20
2311.54350178768
30
4.83893284031684e-12
 70
     32
  0
VERTEX
  8
MY3DLAYER
10
342.983031992529
20
2311.54350178768
30
4.13675074191021e-12
 70
     32
  0
VERTEX
  8
MY3DLAYER
10
342.983031992529
20
2304.54350178768
30
4.22210117377947e-12
 70
     32
  0
VERTEX
  8
MY3DLAYER
10
317.983031992529
20
2304.54350178768
30
3.69772173565908e-12
 70
     32
  0
VERTEX
  8
MY3DLAYER
10
317.983031992529
20
2311.54350178768
30
3.61237130378982e-12
 70
     32
  0
VERTEX
  8
MY3DLAYER
10
302.983031992529
20
2311.54350178768
30
3.29774364091758e-12
 70
     32
  0
VERTEX
  8
MY3DLAYER
10
302.983031992529
20
2304.54350178768
30
3.47333300022838e-12
 70
     32
  0
VERTEX
  8
MY3DLAYER
10
277.983031992529
20
2304.54350178768
30
2.94895356210798e-12
 70
     32
  0
VERTEX
  8
MY3DLAYER
10
277.983031992529
20
2311.54350178768
30
2.86360313023873e-12
 70
     32
  0
VERTEX
  8
MY3DLAYER
10
262.983031992521
20
2311.54350178769
30
7.44196918535677e-13
 70
     32
  0
VERTEX
  8
MY3DLAYER
10
262.983031992521
20
2296.54350178769
30
7.33721570880813e-13
 70
     32
  0
VERTEX
  8
MY3DLAYER
10
255.983031992521
20
2296.54350178769
30
5.86895328207104e-13
 70
     32
  0
SEQEND
 0
ENDSEC
 0
EOF
