<?xml version="1.0" encoding="UTF-8" standalone="no"?>
<!-- Created with Inkscape (http://www.inkscape.org/) -->

<svg
   xmlns:dc="http://purl.org/dc/elements/1.1/"
   xmlns:cc="http://creativecommons.org/ns#"
   xmlns:rdf="http://www.w3.org/1999/02/22-rdf-syntax-ns#"
   xmlns:svg="http://www.w3.org/2000/svg"
   xmlns="http://www.w3.org/2000/svg"
   xmlns:sodipodi="http://sodipodi.sourceforge.net/DTD/sodipodi-0.dtd"
   xmlns:inkscape="http://www.inkscape.org/namespaces/inkscape"
   width="24in"
   height="5in"
   viewBox="0 0 2160 450.00001"
   id="svg4994"
   version="1.1"
   inkscape:version="0.91 r13725"
   sodipodi:docname="support.svg">
  <defs
     id="defs4996" />
  <sodipodi:namedview
     id="base"
     pagecolor="#ffffff"
     bordercolor="#666666"
     borderopacity="1.0"
     inkscape:pageopacity="0.0"
     inkscape:pageshadow="2"
     inkscape:zoom="0.35"
     inkscape:cx="817.85719"
     inkscape:cy="588.57143"
     inkscape:document-units="px"
     inkscape:current-layer="layer1"
     showgrid="false"
     units="in"
     inkscape:window-width="1536"
     inkscape:window-height="801"
     inkscape:window-x="-8"
     inkscape:window-y="-8"
     inkscape:window-maximized="1" />
  <metadata
     id="metadata4999">
    <rdf:RDF>
      <cc:Work
         rdf:about="">
        <dc:format>image/svg+xml</dc:format>
        <dc:type
           rdf:resource="http://purl.org/dc/dcmitype/StillImage" />
        <dc:title />
      </cc:Work>
    </rdf:RDF>
  </metadata>
  <g
     inkscape:label="Layer 1"
     inkscape:groupmode="layer"
     id="layer1"
     transform="translate(0,-602.36215)">
    <g
       transform="translate(33.270069,1534.1552)"
       id="g4392"
       style="stroke:#0000ff;stroke-opacity:1">
      <path
         id="path22-6-9"
         d="m 32.729972,-701.90023 989.999928,0 0,179.99997 -134.99998,0 0,22.5 -270,0 0,-22.5 -179.99996,0 0,22.5 -269.99999,0 0,-22.5 -134.999998,0 0,-179.99997 z"
         style="fill:none;stroke:#0000ff;stroke-opacity:1"
         inkscape:connector-curvature="0" />
      <path
         id="path22-6-9-2"
         d="m 1030.73,-701.9002 989.9999,0 0,180 -135,0 0,22.5 -270,0 0,-22.5 -179.9999,0 0,22.5 -270,0 0,-22.5 -135,0 0,-180 z"
         style="fill:none;stroke:#0000ff;stroke-opacity:1"
         inkscape:connector-curvature="0" />
      <path
         id="path22-6-9-22"
         d="m 32.729972,-909.9002 989.999928,0 0,180 -134.99998,0 0,22.5 -270,0 0,-22.5 -179.99996,0 0,22.5 -269.99999,0 0,-22.5 -134.999998,0 0,-180 z"
         style="fill:none;stroke:#0000ff;stroke-opacity:1"
         inkscape:connector-curvature="0" />
      <path
         id="path22-6-9-2-7"
         d="m 1030.73,-909.9002 989.9999,0 0,180 -135,0 0,22.5 -270,0 0,-22.5 -179.9999,0 0,22.5 -270,0 0,-22.5 -135,0 0,-180 z"
         style="fill:none;stroke:#0000ff;stroke-opacity:1"
         inkscape:connector-curvature="0" />
    </g>
  </g>
</svg>
