<?xml version="1.0" encoding="UTF-8" standalone="no"?>
<svg
   xmlns:dc="http://purl.org/dc/elements/1.1/"
   xmlns:cc="http://creativecommons.org/ns#"
   xmlns:rdf="http://www.w3.org/1999/02/22-rdf-syntax-ns#"
   xmlns:svg="http://www.w3.org/2000/svg"
   xmlns="http://www.w3.org/2000/svg"
   xmlns:sodipodi="http://sodipodi.sourceforge.net/DTD/sodipodi-0.dtd"
   xmlns:inkscape="http://www.inkscape.org/namespaces/inkscape"
   width="24in"
   height="17in"
   id="svg2"
   version="1.1"
   inkscape:version="0.91 r13725"
   sodipodi:docname="back.svg">
  <metadata
     id="metadata26">
    <rdf:RDF>
      <cc:Work
         rdf:about="">
        <dc:format>image/svg+xml</dc:format>
        <dc:type
           rdf:resource="http://purl.org/dc/dcmitype/StillImage" />
        <dc:title />
      </cc:Work>
    </rdf:RDF>
  </metadata>
  <sodipodi:namedview
     pagecolor="#ffffff"
     bordercolor="#666666"
     borderopacity="1"
     objecttolerance="10"
     gridtolerance="10"
     guidetolerance="10"
     inkscape:pageopacity="0"
     inkscape:pageshadow="2"
     inkscape:window-width="1536"
     inkscape:window-height="801"
     id="namedview24"
     showgrid="false"
     units="in"
     inkscape:zoom="0.22425739"
     inkscape:cx="366.60294"
     inkscape:cy="1171.0293"
     inkscape:window-x="-8"
     inkscape:window-y="-8"
     inkscape:window-maximized="1"
     inkscape:current-layer="g20" />
  <desc
     id="desc4">C:\Users\ashar\Desktop\tray rack\back.dxf - scale = 1.000000, origin = (0.000000, 0.000000), auto = False</desc>
  <defs
     id="defs6">
    <marker
       refY="0"
       refX="0"
       style="overflow:visible"
       id="DistanceX"
       orient="auto">
      <path
         style="stroke:#000000;stroke-width:0.5"
         d="M 3,-3 -3,3 M 0,-5 0,5"
         id="path9"
         inkscape:connector-curvature="0" />
    </marker>
    <pattern
       height="8"
       width="8"
       patternUnits="userSpaceOnUse"
       y="0"
       x="0"
       id="Hatch">
      <path
         linecap="square"
         stroke="#000000"
         stroke-width="0.25"
         d="M8 4 l-4,4"
         id="path12" />
      <path
         linecap="square"
         stroke="#000000"
         stroke-width="0.25"
         d="M6 2 l-4,4"
         id="path14" />
      <path
         linecap="square"
         stroke="#000000"
         stroke-width="0.25"
         d="M4 0 l-4,4"
         id="path16" />
    </pattern>
    <symbol
       id="*MODEL_SPACE" />
    <symbol
       id="*PAPER_SPACE" />
  </defs>
  <g
     inkscape:label="0"
     inkscape:groupmode="layer"
     id="g20"
     transform="translate(0,477.6378)">
    <path
       style="fill:none;stroke:#0000ff;stroke-opacity:1"
       d="m 19.299026,986.4549 0,-1395 67.5,0 0,-22.5 67.500004,0 0,1440 -67.500004,0 0,-22.5 -67.5,0 z"
       id="path22"
       inkscape:connector-curvature="0" />
    <path
       style="fill:none;stroke:#0000ff;stroke-opacity:1"
       d="m 165.29903,986.4549 0,-1395.00002 67.5,0 0,-22.5 67.5,0 0,1440.00002 -67.5,0 0,-22.5 -67.5,0 z"
       id="path22-4"
       inkscape:connector-curvature="0" />
    <path
       style="fill:none;stroke:#0000ff;stroke-opacity:1"
       d="m 311.29903,986.4549 0,-1395.00002 67.5,0 0,-22.5 67.5,0 0,1440.00002 -67.5,0 0,-22.5 -67.5,0 z"
       id="path22-4-9"
       inkscape:connector-curvature="0" />
    <path
       style="fill:none;stroke:#0000ff;stroke-opacity:1"
       d="m 455.29903,986.4549 0,-1395.00002 67.5,0 0,-22.5 67.5,0 0,1440.00002 -67.5,0 0,-22.5 -67.5,0 z"
       id="path22-4-9-6"
       inkscape:connector-curvature="0" />
    <g
       transform="matrix(0,-1,1,0,1093.4048,1021.0049)"
       id="g4164"
       style="stroke:#0000ff;stroke-opacity:1">
      <path
         inkscape:connector-curvature="0"
         id="path22-1"
         d="m 731.25,647.36221 -22.5,0 0,270 22.5,0 0,-270 z"
         style="fill:none;stroke:#0000ff;stroke-opacity:1" />
      <path
         inkscape:connector-curvature="0"
         id="path24"
         d="m 731.25,197.3622 -22.5,0 0,270.00001 22.5,0 0,-270.00001 z"
         style="fill:none;stroke:#0000ff;stroke-opacity:1" />
      <path
         inkscape:connector-curvature="0"
         id="path26"
         d="m 1440,467.36221 -22.5,0 0,180 22.5,0 0,270 -22.5,0 0,134.99999 -1395,0 0,-134.99999 -22.5,0 0,-270 22.5,0 0,-180 -22.5,0 0,-270.00001 22.5,0 0,-134.999995 1395,0 0,134.999995 22.5,0 0,270.00001 z"
         style="fill:none;stroke:#0000ff;stroke-opacity:1" />
    </g>
    <g
       id="g4296"
       transform="matrix(0,-1,1,0,637.08889,1559.9402)"
       style="stroke:#0000ff;stroke-opacity:1">
      <path
         id="path22-2"
         d="m 1843.3211,483.20837 0,22.5 -270,0 0,-22.5 -180,0 0,22.5 -270,0 0,-22.5 -112.5,0 0,-495.000012 112.5,0 0,-22.5 270,0 0,22.5 180,0 0,-22.5 270,0 0,22.5 135,0 0,495.000012 -135,0 z"
         style="fill:none;stroke:#0000ff;stroke-opacity:1"
         inkscape:connector-curvature="0" />
    </g>
  </g>
</svg>
