<?xml version="1.0" encoding="UTF-8" standalone="no"?>
<!-- Created with Inkscape (http://www.inkscape.org/) -->

<svg
   xmlns:dc="http://purl.org/dc/elements/1.1/"
   xmlns:cc="http://creativecommons.org/ns#"
   xmlns:rdf="http://www.w3.org/1999/02/22-rdf-syntax-ns#"
   xmlns:svg="http://www.w3.org/2000/svg"
   xmlns="http://www.w3.org/2000/svg"
   xmlns:sodipodi="http://sodipodi.sourceforge.net/DTD/sodipodi-0.dtd"
   xmlns:inkscape="http://www.inkscape.org/namespaces/inkscape"
   width="24in"
   height="12in"
   viewBox="0 0 2160 1080"
   id="svg4410"
   version="1.1"
   inkscape:version="0.91 r13725"
   sodipodi:docname="sidex2.svg">
  <defs
     id="defs4412" />
  <sodipodi:namedview
     id="base"
     pagecolor="#ffffff"
     bordercolor="#666666"
     borderopacity="1.0"
     inkscape:pageopacity="0.0"
     inkscape:pageshadow="2"
     inkscape:zoom="0.35"
     inkscape:cx="849.28572"
     inkscape:cy="551.42857"
     inkscape:document-units="px"
     inkscape:current-layer="layer1"
     showgrid="false"
     units="in"
     inkscape:window-width="1536"
     inkscape:window-height="801"
     inkscape:window-x="-8"
     inkscape:window-y="-8"
     inkscape:window-maximized="1" />
  <metadata
     id="metadata4415">
    <rdf:RDF>
      <cc:Work
         rdf:about="">
        <dc:format>image/svg+xml</dc:format>
        <dc:type
           rdf:resource="http://purl.org/dc/dcmitype/StillImage" />
        <dc:title></dc:title>
      </cc:Work>
    </rdf:RDF>
  </metadata>
  <g
     inkscape:label="Layer 1"
     inkscape:groupmode="layer"
     id="layer1"
     transform="translate(0,27.637855)">
    <g
       transform="matrix(0,-1,1,0,1076.7449,17.362144)"
       id="g4172"
       style="stroke:#0000ff;stroke-opacity:1">
      <path
         inkscape:connector-curvature="0"
         id="path22-8"
         d="m -855,-522.63779 0,22.5 270,0 0,-22.5 -270,0 z"
         style="fill:none;stroke:#0000ff;stroke-opacity:1" />
      <path
         inkscape:connector-curvature="0"
         id="path24-33"
         d="m -405,-522.63779 0,22.5 270,0 0,-22.5 -270,0 z"
         style="fill:none;stroke:#0000ff;stroke-opacity:1" />
      <path
         inkscape:connector-curvature="0"
         id="path26-50"
         d="m -855,17.362205 270,0 0,-22.5 -270,0 0,22.5 z"
         style="fill:none;stroke:#0000ff;stroke-opacity:1" />
      <path
         inkscape:connector-curvature="0"
         id="path28"
         d="m -405,17.362205 270,0 0,-22.5 -270,0 0,22.5 z"
         style="fill:none;stroke:#0000ff;stroke-opacity:1" />
      <path
         inkscape:connector-curvature="0"
         id="path30"
         d="m -135,512.36221 -270,0 0,22.5 270,0 0,-22.5 z"
         style="fill:none;stroke:#0000ff;stroke-opacity:1" />
      <path
         inkscape:connector-curvature="0"
         id="path32"
         d="m -585,512.36221 -270,0 0,22.5 270,0 0,-22.5 z"
         style="fill:none;stroke:#0000ff;stroke-opacity:1" />
      <path
         inkscape:connector-curvature="0"
         id="path34"
         d="m -22.5,-522.63779 22.5,0 0,449.999995 -22.5,0 0,67.5 22.5,0 0,450.000005 -22.5,0 0,67.5 22.5,0 0,450 -22.5,0 0,67.49999 22.5,0 0,22.5 -135,0 0,-22.5 -270,0 0,22.5 -180,0 0,-22.5 -270,0 0,22.5 -135,0 0,-2092.5 135,0 0,22.5 270,0 0,-22.5 180,0 0,22.5 270,0 0,-22.5 135,0 0,450.00001 -22.5,0 0,67.5 z"
         style="fill:none;stroke:#0000ff;stroke-opacity:1" />
    </g>
  </g>
</svg>
