 0
SECTION
 2
ENTITIES
  0
POLYLINE
 8
Group#29
 66
     1
70
    8
 10
0.0
 20
 0.0
 30
0.0
  0
VERTEX
  8
MY3DLAYER
10
50.3852612830013
20
2777.99218460734
30
1.64791791323893e-12
 70
     32
  0
VERTEX
  8
MY3DLAYER
10
50.3852612830013
20
2742.99218460734
30
1.64791791323893e-12
 70
     32
  0
VERTEX
  8
MY3DLAYER
10
579.385261282996
20
2742.99218460734
30
1.64791791323893e-12
 70
     32
  0
VERTEX
  8
MY3DLAYER
10
579.385261282996
20
2777.99218460734
30
1.66275798685334e-11
 70
     32
  0
VERTEX
  8
MY3DLAYER
10
50.3852612830013
20
2777.99218460734
30
1.64791791323893e-12
 70
     32
  0
SEQEND
  0
POLYLINE
 8
Group#1
 66
     1
70
    8
 10
0.0
 20
 0.0
 30
0.0
  0
VERTEX
  8
MY3DLAYER
10
245.776614121678
20
2740.99218460734
30
-6.06856787044308e-12
 70
     32
  0
VERTEX
  8
MY3DLAYER
10
183.768605575569
20
2740.99218460734
30
-3.61237706414386e-12
 70
     32
  0
VERTEX
  8
MY3DLAYER
10
183.768605575569
20
2733.99218460734
30
-3.57994744959456e-12
 70
     32
  0
VERTEX
  8
MY3DLAYER
10
137.385261283002
20
2733.99218460734
30
-1.42690304016924e-12
 70
     32
  0
VERTEX
  8
MY3DLAYER
10
137.385261283002
20
2740.99218460734
30
-7.37421235186275e-13
 70
     32
  0
VERTEX
  8
MY3DLAYER
10
112.385261283002
20
2740.99218460734
30
-1.11811671033024e-12
 70
     32
  0
VERTEX
  8
MY3DLAYER
10
112.385261283002
20
2733.99218460734
30
7.19091453049714e-13
 70
     32
  0
VERTEX
  8
MY3DLAYER
10
97.3852612830016
20
2733.99218460734
30
1.71735958787167e-12
 70
     32
  0
VERTEX
  8
MY3DLAYER
10
97.3852612830017
20
2740.99218460734
30
-2.10087502949818e-13
 70
     32
  0
VERTEX
  8
MY3DLAYER
10
72.3852612830018
20
2740.99218460734
30
-6.81021905535317e-13
 70
     32
  0
VERTEX
  8
MY3DLAYER
10
72.3852612830016
20
2733.99218460734
30
3.44035910870843e-13
 70
     32
  0
VERTEX
  8
MY3DLAYER
10
57.3852612830016
20
2733.99218460734
30
8.91109408485136e-13
 70
     32
  0
VERTEX
  8
MY3DLAYER
10
57.3852612830014
20
2725.99218460735
30
3.18374215879658e-12
 70
     32
  0
VERTEX
  8
MY3DLAYER
10
50.3852612830014
20
2725.99218460735
30
3.66172647758845e-12
 70
     32
  0
VERTEX
  8
MY3DLAYER
10
50.385261283001
20
2708.99218460735
30
2.65640842656012e-12
 70
     32
  0
VERTEX
  8
MY3DLAYER
10
57.385261283001
20
2708.99218460735
30
2.17842410776825e-12
 70
     32
  0
VERTEX
  8
MY3DLAYER
10
57.3852612830003
20
2645.99218460734
30
3.00749425363733e-12
 70
     32
  0
VERTEX
  8
MY3DLAYER
10
50.3852612830003
20
2645.99218460734
30
3.2147617901046e-12
 70
     32
  0
VERTEX
  8
MY3DLAYER
10
50.3852612829998
20
2628.99218460734
30
2.7494673204842e-12
 70
     32
  0
VERTEX
  8
MY3DLAYER
10
57.3852612829998
20
2628.99218460734
30
2.54219978401693e-12
 70
     32
  0
VERTEX
  8
MY3DLAYER
10
57.3852612829997
20
2620.99218460734
30
2.48862042084852e-12
 70
     32
  0
VERTEX
  8
MY3DLAYER
10
372.359958414242
20
2620.99218460733
30
-1.08145714605712e-11
 70
     32
  0
VERTEX
  8
MY3DLAYER
10
372.359958414242
20
2628.99218460733
30
-1.07609920974028e-11
 70
     32
  0
VERTEX
  8
MY3DLAYER
10
379.359958414242
20
2628.99218460733
30
-1.096825963387e-11
 70
     32
  0
VERTEX
  8
MY3DLAYER
10
379.359958414242
20
2645.99218460733
30
-1.05029651642496e-11
 70
     32
  0
VERTEX
  8
MY3DLAYER
10
372.359958414242
20
2645.99218460733
30
-9.93474191801624e-12
 70
     32
  0
VERTEX
  8
MY3DLAYER
10
372.359958414244
20
2708.99218460734
30
-1.07638120638853e-11
 70
     32
  0
VERTEX
  8
MY3DLAYER
10
379.359958414244
20
2708.99218460734
30
-1.09710796003526e-11
 70
     32
  0
VERTEX
  8
MY3DLAYER
10
379.359958414245
20
2725.99218460734
30
-9.96576154932427e-12
 70
     32
  0
VERTEX
  8
MY3DLAYER
10
372.359958414245
20
2725.99218460734
30
-9.84873294029853e-12
 70
     32
  0
VERTEX
  8
MY3DLAYER
10
372.359958414244
20
2733.99218460734
30
-9.79515357713012e-12
 70
     32
  0
VERTEX
  8
MY3DLAYER
10
357.359958414244
20
2733.99218460734
30
-9.33690902371609e-12
 70
     32
  0
VERTEX
  8
MY3DLAYER
10
357.359958414245
20
2740.99218460734
30
-9.18886078338232e-12
 70
     32
  0
VERTEX
  8
MY3DLAYER
10
332.359958414245
20
2740.99218460734
30
-8.66716698411096e-12
 70
     32
  0
VERTEX
  8
MY3DLAYER
10
332.359958414245
20
2733.99218460734
30
-8.4542595146786e-12
 70
     32
  0
VERTEX
  8
MY3DLAYER
10
317.359958414245
20
2733.99218460734
30
-7.99742494450584e-12
 70
     32
  0
VERTEX
  8
MY3DLAYER
10
317.359958414246
20
2740.99218460734
30
-7.66889884928901e-12
 70
     32
  0
VERTEX
  8
MY3DLAYER
10
292.359958414245
20
2740.99218460734
30
-7.14720505001765e-12
 70
     32
  0
VERTEX
  8
MY3DLAYER
10
292.359958414245
20
2733.99218460734
30
-7.11477543546835e-12
 70
     32
  0
VERTEX
  8
MY3DLAYER
10
245.776614121678
20
2733.99218460734
30
-6.03613825589377e-12
 70
     32
  0
VERTEX
  8
MY3DLAYER
10
245.776614121678
20
2740.99218460734
30
-6.06856787044308e-12
 70
     32
  0
SEQEND
  0
POLYLINE
 8
Group#1
 66
     1
70
    8
 10
0.0
 20
 0.0
 30
0.0
  0
VERTEX
  8
MY3DLAYER
10
362.359958414245
20
2694.99218460734
30
-1.14476539359032e-11
 70
     32
  0
VERTEX
  8
MY3DLAYER
10
238.359958414245
20
2694.99218460734
30
-7.52790052516161e-12
 70
     32
  0
VERTEX
  8
MY3DLAYER
10
238.359958414246
20
2729.99218460734
30
-8.49937897839936e-12
 70
     32
  0
VERTEX
  8
MY3DLAYER
10
362.359958414245
20
2729.99218460734
30
-1.11557874049595e-11
 70
     32
  0
VERTEX
  8
MY3DLAYER
10
362.359958414245
20
2694.99218460734
30
-1.14476539359032e-11
 70
     32
  0
SEQEND
  0
POLYLINE
 8
Group#1
 66
     1
70
    8
 10
0.0
 20
 0.0
 30
0.0
  0
VERTEX
  8
MY3DLAYER
10
67.3852612830032
20
2729.99218460735
30
-1.95141680592315e-12
 70
     32
  0
VERTEX
  8
MY3DLAYER
10
191.385261283002
20
2729.99218460735
30
-4.51758630504173e-12
 70
     32
  0
VERTEX
  8
MY3DLAYER
10
191.385261283002
20
2694.99218460735
30
-4.89969176342697e-12
 70
     32
  0
VERTEX
  8
MY3DLAYER
10
67.3852612830024
20
2694.99218460735
30
-8.89699425243862e-13
 70
     32
  0
VERTEX
  8
MY3DLAYER
10
67.3852612830032
20
2729.99218460735
30
-1.95141680592315e-12
 70
     32
  0
SEQEND
  0
LINE
 8
Group#1
10
65.9950085903464
20
2674.68940900164
30
-0.285163836358674
11
65.8842342185267
21
2674.04835500958
31
-0.281786391283143
  0
LINE
 8
Group#1
10
65.8842342185267
20
2674.04835500958
30
-0.281786391283143
11
65.6113159504796
21
2673.45781154758
31
-0.279211944725324
  0
LINE
 8
Group#1
10
65.6113159504796
20
2673.45781154758
30
-0.279211944725324
11
65.1948527151536
21
2672.95802317666
31
-0.277615940963819
  0
LINE
 8
Group#1
10
64.8367385386097
20
2676.8958993214
30
-0.301626178593549
11
65.018331806398
21
2676.74458606537
31
-0.300176253205078
  0
LINE
 8
Group#1
10
65.1948527151536
20
2672.95802317666
30
-0.277615940963819
11
64.663225793798
21
2672.58304964834
31
-0.2771071450174
  0
LINE
 8
Group#1
10
64.663225793798
20
2672.58304964834
30
-0.2771071450174
11
64.0526646825486
21
2672.35844478893
31
-0.277720230488903
  0
LINE
 8
Group#1
10
64.0526646825486
20
2672.35844478893
30
-0.277720230488903
11
63.3772387316885
21
2672.30427326216
31
-0.279527597711348
  0
LINE
 8
Group#1
10
61.2984179037185
20
2673.63124346892
30
-0.293770959143717
11
61.2058844663571
21
2673.88278919675
31
-0.295523561805037
  0
LINE
 8
Group#1
10
61.0738215085606
20
2674.24179318263
30
-0.298024861852878
11
61.0443622011685
21
2674.5657320586
31
-0.299999999999376
  0
LINE
 8
Group#1
10
61.0149028937765
20
2674.88967093457
30
-0.301975138145875
11
61.1256772655961
21
2675.53072492663
31
-0.305352583221406
  0
LINE
 8
Group#1
10
61.1256772655961
20
2675.53072492663
30
-0.305352583221406
11
61.3985955336432
21
2676.12126838863
31
-0.307927029779227
  0
LINE
 8
Group#1
10
61.3985955336432
20
2676.12126838863
30
-0.307927029779227
11
61.8150587689693
21
2676.62105675956
31
-0.30952303354073
  0
LINE
 8
Group#1
10
61.8150587689693
20
2676.62105675956
30
-0.30952303354073
11
62.3466856903247
21
2676.99603028787
31
-0.31003182948715
  0
LINE
 8
Group#1
10
62.3466856903247
20
2676.99603028787
30
-0.31003182948715
11
62.9572468015742
21
2677.22063514729
31
-0.309418744015648
  0
LINE
 8
Group#1
10
62.9572468015742
20
2677.22063514729
30
-0.309418744015648
11
63.6051333719862
21
2677.27956488782
31
-0.307725557887785
  0
LINE
 8
Group#1
10
63.6051333719862
20
2677.27956488782
30
-0.307725557887785
11
64.24619300247
21
2677.16880354503
31
-0.305067658939768
  0
LINE
 8
Group#1
10
235.107731640193
20
2674.74629783466
30
-0.275635994715916
11
235.022536502497
21
2674.09927142557
31
-0.272143470953087
  0
LINE
 8
Group#1
10
231.357771545653
20
2672.58130349766
30
-0.274836450108947
11
230.840022457989
21
2672.97858674254
31
-0.278772035363765
  0
LINE
 8
Group#1
10
230.840022457989
20
2672.97858674254
30
-0.278772035363765
11
230.442743388402
21
2673.49633648972
31
-0.283029197649525
  0
LINE
 8
Group#1
10
230.442743388402
20
2673.49633648972
30
-0.283029197649525
11
230.193008248949
21
2674.09926894955
31
-0.287317818390653
  0
LINE
 8
Group#1
10
230.193008248949
20
2674.09926894955
30
-0.287317818390653
11
230.107836076677
21
2674.7462952713
31
-0.291345635171264
  0
LINE
 8
Group#1
10
230.107836076677
20
2674.7462952713
30
-0.291345635171264
11
230.193031214373
21
2675.39332168039
31
-0.294838158934093
  0
LINE
 8
Group#1
10
230.193031214373
20
2675.39332168039
30
-0.294838158934093
11
230.442787754194
21
2675.9962543963
31
-0.297557379956453
  0
LINE
 8
Group#1
10
230.442787754194
20
2675.9962543963
30
-0.297557379956453
11
230.840085200694
21
2676.51400455085
31
-0.299317987818809
  0
LINE
 8
Group#1
10
230.840085200694
20
2676.51400455085
30
-0.299317987818809
11
231.357848389459
21
2676.91128832662
31
-0.300000000006177
  0
LINE
 8
Group#1
10
231.357848389459
20
2676.91128832662
30
-0.300000000006177
11
231.960792614819
21
2677.16103149083
31
-0.299556938513829
  0
LINE
 8
Group#1
10
231.960792614819
20
2677.16103149083
30
-0.299556938513829
11
232.607828224227
21
2677.24621445957
31
-0.298018997250699
  0
LINE
 8
Group#1
10
232.607828224227
20
2677.24621445957
30
-0.298018997250699
11
233.25486081018
21
2677.16103215428
31
-0.295490984372377
  0
LINE
 8
Group#1
10
233.25486081018
20
2677.16103215428
30
-0.295490984372377
11
233.857796171217
21
2676.9112896083
31
-0.292145179778594
  0
LINE
 8
Group#1
10
233.857796171217
20
2676.9112896083
30
-0.292145179778594
11
234.375545258881
21
2676.51400636342
31
-0.288209594523416
  0
LINE
 8
Group#1
10
234.375545258881
20
2676.51400636342
30
-0.288209594523416
11
234.772824328468
21
2675.99625661624
31
-0.283952432238016
  0
LINE
 8
Group#1
10
234.772824328468
20
2675.99625661624
30
-0.283952432238016
11
235.022559467921
21
2675.39332415641
31
-0.279663811496527
  0
LINE
 8
Group#1
10
235.022559467921
20
2675.39332415641
30
-0.279663811496527
11
235.107731640193
21
2674.74629783466
31
-0.275635994715916
  0
LINE
 8
Group#1
10
235.022536502497
20
2674.09927142557
30
-0.272143470953087
11
234.772779962676
21
2673.49633870965
31
-0.269424249931088
  0
LINE
 8
Group#1
10
234.772779962676
20
2673.49633870965
30
-0.269424249931088
11
234.375482516176
21
2672.97858855511
31
-0.267663642068372
  0
LINE
 8
Group#1
10
234.375482516176
20
2672.97858855511
30
-0.267663642068372
11
233.857719327411
21
2672.58130477934
31
-0.266981629881364
  0
LINE
 8
Group#1
10
233.857719327411
20
2672.58130477934
30
-0.266981629881364
11
233.254775102051
21
2672.33156161513
31
-0.267424691373712
  0
LINE
 8
Group#1
10
233.254775102051
20
2672.33156161513
30
-0.267424691373712
11
232.607739492643
21
2672.24637864639
31
-0.268962632636842
  0
LINE
 8
Group#1
10
232.607739492643
20
2672.24637864639
30
-0.268962632636842
11
231.96070690669
21
2672.33156095168
31
-0.271490645515164
  0
LINE
 8
Group#1
10
231.96070690669
20
2672.33156095168
30
-0.271490645515164
11
231.357771545653
21
2672.58130349766
31
-0.274836450108947
  0
POLYLINE
 8
Group#1
 66
     1
70
    8
 10
0.0
 20
 0.0
 30
0.0
  0
VERTEX
  8
MY3DLAYER
10
195.839853881164
20
2672.53852000728
30
-0.283834187353396
 70
     32
  0
VERTEX
  8
MY3DLAYER
10
195.293537581154
20
2672.89087636666
30
-0.287598437223633
 70
     32
  0
VERTEX
  8
MY3DLAYER
10
194.857036765815
20
2673.37262351279
30
-0.291769604286071
 70
     32
  0
VERTEX
  8
MY3DLAYER
10
194.560098244361
20
2673.95093117379
30
-0.296063430398547
 70
     32
  0
VERTEX
  8
MY3DLAYER
10
194.422957886315
20
2674.58638863825
30
-0.300187298407462
 70
     32
  0
VERTEX
  8
MY3DLAYER
10
194.454961580443
20
2675.23569053012
30
-0.30386017352292
 70
     32
  0
VERTEX
  8
MY3DLAYER
10
194.653928327878
20
2675.85458799848
30
-0.306831755375635
 70
     32
  0
VERTEX
  8
MY3DLAYER
10
195.006298873591
20
2676.40090420365
30
-0.308899535572691
 70
     32
  0
VERTEX
  8
MY3DLAYER
10
195.488059747212
20
2676.83740859907
30
-0.309922598311832
 70
     32
  0
VERTEX
  8
MY3DLAYER
10
196.06637974135
20
2677.13435413156
30
-0.309831223557144
 70
     32
  0
VERTEX
  8
MY3DLAYER
10
196.701847304125
20
2677.27150445379
30
-0.308631638347421
 70
     32
  0
VERTEX
  8
MY3DLAYER
10
197.351156371292
20
2677.23951299797
30
-0.306405592432363
 70
     32
  0
VERTEX
  8
MY3DLAYER
10
197.970057602959
20
2677.04055992893
30
-0.303304787162317
 70
     32
  0
VERTEX
  8
MY3DLAYER
10
198.516373902969
20
2676.68820356954
30
-0.299540537292082
 70
     32
  0
VERTEX
  8
MY3DLAYER
10
198.952874718308
20
2676.20645642341
30
-0.295369370229642
 70
     32
  0
VERTEX
  8
MY3DLAYER
10
199.249813239762
20
2675.62814876242
30
-0.291075544116807
 70
     32
  0
VERTEX
  8
MY3DLAYER
10
199.386953597808
20
2674.99269129796
30
-0.286951676108251
 70
     32
  0
VERTEX
  8
MY3DLAYER
10
199.35494990368
20
2674.34338940609
30
-0.283278800992793
 70
     32
  0
VERTEX
  8
MY3DLAYER
10
199.155983156245
20
2673.72449193772
30
-0.280307219139717
 70
     32
  0
VERTEX
  8
MY3DLAYER
10
198.803612610531
20
2673.17817573255
30
-0.278239438942661
 70
     32
  0
VERTEX
  8
MY3DLAYER
10
198.321851736911
20
2672.74167133713
30
-0.277216376203881
 70
     32
  0
VERTEX
  8
MY3DLAYER
10
197.743531742773
20
2672.44472580465
30
-0.27730775095857
 70
     32
  0
VERTEX
  8
MY3DLAYER
10
197.108064179998
20
2672.30757548241
30
-0.278507336167932
 70
     32
  0
VERTEX
  8
MY3DLAYER
10
196.458755112831
20
2672.33956693824
30
-0.280733382083352
 70
     32
  0
VERTEX
  8
MY3DLAYER
10
195.839853881164
20
2672.53852000728
30
-0.283834187353396
 70
     32
  0
SEQEND
  0
POLYLINE
 8
Group#1
 66
     1
70
    8
 10
0.0
 20
 0.0
 30
0.0
  0
VERTEX
  8
MY3DLAYER
10
187.772717142507
20
2676.55724977855
30
-0.298288266837039
 70
     32
  0
VERTEX
  8
MY3DLAYER
10
188.169996212095
20
2676.03950003136
30
-0.29403110455164
 70
     32
  0
VERTEX
  8
MY3DLAYER
10
188.419731351548
20
2675.43656757153
30
-0.289742483810511
 70
     32
  0
VERTEX
  8
MY3DLAYER
10
188.504903523819
20
2674.78954124978
30
-0.285714667029901
 70
     32
  0
VERTEX
  8
MY3DLAYER
10
188.419708386124
20
2674.14251484069
30
-0.28222214326707
 70
     32
  0
VERTEX
  8
MY3DLAYER
10
188.169951846302
20
2673.53958212478
30
-0.279502922244712
 70
     32
  0
VERTEX
  8
MY3DLAYER
10
187.772654399802
20
2673.02183197023
30
-0.277742314381995
 70
     32
  0
VERTEX
  8
MY3DLAYER
10
187.254891211037
20
2672.62454819446
30
-0.277060302194987
 70
     32
  0
VERTEX
  8
MY3DLAYER
10
186.651946985678
20
2672.37480503025
30
-0.277503363687335
 70
     32
  0
VERTEX
  8
MY3DLAYER
10
186.004911376269
20
2672.28962206152
30
-0.279041304950465
 70
     32
  0
VERTEX
  8
MY3DLAYER
10
185.357878790316
20
2672.37480436681
30
-0.281569317828787
 70
     32
  0
VERTEX
  8
MY3DLAYER
10
184.754943429279
20
2672.62454691278
30
-0.284915122422571
 70
     32
  0
VERTEX
  8
MY3DLAYER
10
184.237194341616
20
2673.02183015766
30
-0.288850707677748
 70
     32
  0
VERTEX
  8
MY3DLAYER
10
183.839915272028
20
2673.53957990484
30
-0.293107869963148
 70
     32
  0
VERTEX
  8
MY3DLAYER
10
183.590180132575
20
2674.14251236468
30
-0.297396490704276
 70
     32
  0
VERTEX
  8
MY3DLAYER
10
183.505007960303
20
2674.78953868642
30
-0.301424307484887
 70
     32
  0
VERTEX
  8
MY3DLAYER
10
183.590203097999
20
2675.43656509551
30
-0.304916831247717
 70
     32
  0
VERTEX
  8
MY3DLAYER
10
183.839959637821
20
2676.03949781143
30
-0.307636052270076
 70
     32
  0
VERTEX
  8
MY3DLAYER
10
184.237257084321
20
2676.55724796598
30
-0.309396660132792
 70
     32
  0
VERTEX
  8
MY3DLAYER
10
184.755020273086
20
2676.95453174174
30
-0.310078672319801
 70
     32
  0
VERTEX
  8
MY3DLAYER
10
185.357964498445
20
2677.20427490595
30
-0.309635610827452
 70
     32
  0
VERTEX
  8
MY3DLAYER
10
186.005000107854
20
2677.28945787469
30
-0.308097669564323
 70
     32
  0
VERTEX
  8
MY3DLAYER
10
186.652032693807
20
2677.2042755694
30
-0.305569656685639
 70
     32
  0
VERTEX
  8
MY3DLAYER
10
187.254968054844
20
2676.95453302342
30
-0.302223852092217
 70
     32
  0
VERTEX
  8
MY3DLAYER
10
187.772717142507
20
2676.55724977855
30
-0.298288266837039
 70
     32
  0
SEQEND
  0
LINE
 8
Group#1
10
65.9408662706037
20
2675.28476591097
30
-0.288793879646449
11
65.9950085903464
21
2674.68940900164
31
-0.285163836358674
  0
LINE
 8
Group#1
10
62.6900828396437
20
2672.44430505872
30
-0.282500436774024
11
62.173172945513
21
2672.68318061481
31
-0.285512795911
  0
LINE
 8
Group#1
10
61.4784410806684
20
2673.35196693314
30
-0.291582305877985
11
61.4330521789895
21
2673.44036485955
31
-0.292238643931713
  0
LINE
 8
Group#1
10
64.24619300247
20
2677.16880354503
30
-0.305067658939768
11
64.6497419979565
21
2676.9823145809
31
-0.302715925073849
  0
LINE
 8
Group#1
10
61.1815025592144
20
2673.93027459414
30
-0.295876131990459
11
61.1716888863533
21
2673.97574750789
31
-0.296171233243953
  0
LINE
 8
Group#1
10
61.0443622011685
20
2674.5657320586
30
-0.299999999999376
11
61.0149028937765
21
2674.88967093457
31
-0.301975138145875
  0
LINE
 8
Group#1
10
64.6497419979565
20
2676.9823145809
30
-0.302715925073849
11
65.018331806398
21
2676.74458606537
31
-0.300176253205078
  0
LINE
 8
Group#1
10
65.6113159504796
20
2673.45781154758
30
-0.279211944725324
11
65.425016925385
21
2673.15751915291
31
-0.278052140534575
  0
LINE
 8
Group#1
10
61.2058844663571
20
2673.88278919675
30
-0.295523561805037
11
61.1815025592144
21
2673.93027459414
31
-0.295876131990459
  0
LINE
 8
Group#1
10
61.4330521789895
20
2673.44036485955
30
-0.292238643931713
11
61.2058844663571
21
2673.88278919675
31
-0.295523561805037
  0
LINE
 8
Group#1
10
64.663225793798
20
2672.58304964834
30
-0.2771071450174
11
64.364936057626
21
2672.424069225
31
-0.277120452550483
  0
LINE
 8
Group#1
10
65.8842342185267
20
2674.04835500958
30
-0.281786391283143
11
65.7773874710982
21
2673.70383535807
31
-0.280119920731992
  0
LINE
 8
Group#1
10
61.6733862060833
20
2673.09962974745
30
-0.289503326458124
11
61.5550012746043
21
2673.26747074519
31
-0.290850702756048
  0
LINE
 8
Group#1
10
61.8109017421255
20
2672.98504442297
30
-0.2884053382484
11
61.6733862060833
21
2673.09962974745
31
-0.289503326458124
  0
LINE
 8
Group#1
10
65.7114935804043
20
2675.9478364673
30
-0.293368015360833
11
65.7494654667131
21
2675.84461252954
31
-0.292648819890366
  0
LINE
 8
Group#1
10
65.6562452556945
20
2676.02616513486
30
-0.29399681399476
11
65.7114935804043
21
2675.9478364673
31
-0.293368015360833
  0
LINE
 8
Group#1
10
65.3365252780396
20
2676.47945018876
30
-0.297635648046425
11
65.43602166933
21
2676.33838854032
31
-0.296503248190434
  0
LINE
 8
Group#1
10
65.2209506064015
20
2676.57575320755
30
-0.298558450156265
11
65.3365252780396
21
2676.47945018876
31
-0.297635648046425
  0
LINE
 8
Group#1
10
65.1948527151536
20
2672.95802317666
30
-0.277615940963819
11
64.9432560517642
21
2672.72101475748
31
-0.277029077795795
  0
LINE
 8
Group#1
10
65.9950085903464
20
2674.68940900164
30
-0.285163836358674
11
65.9763542185336
21
2674.32273282644
31
-0.283091502584707
  0
LINE
 8
Group#1
10
63.3772387316885
20
2672.30427326216
30
-0.279527597711348
11
62.6900828396437
21
2672.44430505872
31
-0.282500436774024
  0
LINE
 8
Group#1
10
62.173172945513
20
2672.68318061481
30
-0.285512795911
11
62.0643571435138
21
2672.7738517807
31
-0.286381632051367
  0
LINE
 8
Group#1
10
61.1716888863533
20
2673.97574750789
30
-0.296171233243953
11
61.0443622011685
21
2674.5657320586
31
-0.299999999999376
  0
LINE
 8
Group#1
10
65.7494654667131
20
2675.84461252954
30
-0.292648819890366
11
65.9408662706037
21
2675.28476591097
31
-0.288793879646449
  0
LINE
 8
Group#1
10
64.0526646825486
20
2672.35844478893
30
-0.277720230488903
11
63.7294684948516
21
2672.28691890277
31
-0.278320037760206
  0
LINE
 8
Group#1
10
61.4330521789895
20
2673.44036485955
30
-0.292238643931713
11
61.2984179037185
21
2673.63124346892
31
-0.293770959143717
  0
LINE
 8
Group#1
10
64.6497419979565
20
2676.9823145809
30
-0.302715925073849
11
64.8367385386097
21
2676.8958993214
31
-0.301626178593549
  0
LINE
 8
Group#1
10
61.1716888863533
20
2673.97574750789
30
-0.296171233243953
11
61.0738215085606
21
2674.24179318263
31
-0.298024861852878
  0
LINE
 8
Group#1
10
65.018331806398
20
2676.74458606537
30
-0.300176253205078
11
65.1377782178225
21
2676.66754698989
31
-0.299353238883994
  0
LINE
 8
Group#1
10
63.3772387316885
20
2672.30427326216
30
-0.279527597711348
11
63.0801594276843
21
2672.31891035859
31
-0.280546083675264
  0
LINE
 8
Group#1
10
61.5550012746043
20
2673.26747074519
30
-0.290850702756048
11
61.4784410806684
21
2673.35196693314
31
-0.291582305877985
  0
LINE
 8
Group#1
10
65.7494654667131
20
2675.84461252954
30
-0.292648819890366
11
65.8712175546154
21
2675.60749218277
31
-0.290888245709082
  0
LINE
 8
Group#1
10
65.43602166933
20
2676.33838854032
30
-0.296503248190434
11
65.5742790331615
21
2676.18579984376
31
-0.295182071821556
  0
LINE
 8
Group#1
10
62.6900828396437
20
2672.44430505872
30
-0.282500436774024
11
62.4612581960179
21
2672.51786342763
31
-0.28364688894531
  0
LINE
 8
Group#1
10
62.0643571435138
20
2672.7738517807
30
-0.286381632051367
11
61.9149418960073
21
2672.87021978701
31
-0.287411138815545
  0
LINE
 8
Group#1
10
65.9408662706037
20
2675.28476591097
30
-0.288793879646449
11
66.0083579126614
21
2674.97203471831
31
-0.286764377700164
  0
LINE
 8
Group#1
10
244.460648811031
20
2676.71869743249
30
0.00736274723395338
11
244.647645351684
21
2676.632282173
31
0.00845249371425074
  0
LINE
 8
Group#1
10
241.243958992064
20
2673.17674771114
30
0.0178400283760891
11
241.109324716793
21
2673.36762632051
31
0.0163077131640851
  0
LINE
 8
Group#1
10
244.829238619473
20
2676.48096891697
30
0.00990241910272228
11
244.948685030897
21
2676.40392984149
31
0.0107254334238068
  0
LINE
 8
Group#1
10
245.805915403421
20
2674.42579185323
30
0.0249148359491264
11
245.787261031608
21
2674.05911567804
31
0.0269871697230953
  0
LINE
 8
Group#1
10
245.751773083679
20
2675.02114876257
30
0.0212847926613534
11
245.805915403421
21
2674.42579185323
31
0.0249148359491264
  0
LINE
 8
Group#1
10
245.560372279788
20
2675.58099538113
30
0.0174298524177955
11
245.751773083679
21
2675.02114876257
31
0.0212847926613534
  0
LINE
 8
Group#1
10
240.982595699428
20
2673.71213035949
30
0.0139074390638488
11
240.884728321635
21
2673.97817603422
31
0.012053810454923
  0
LINE
 8
Group#1
10
243.188145544764
20
2672.04065611375
30
0.030551074596453
11
242.500989652719
21
2672.18068791031
31
0.0275782355337783
  0
LINE
 8
Group#1
10
245.147432091114
20
2676.21583304036
30
0.012443024261376
11
245.246928482405
21
2676.07477139191
31
0.013575424117367
  0
LINE
 8
Group#1
10
241.484293019158
20
2672.83601259905
30
0.0205753458496764
11
241.365908087679
21
2673.00385359678
31
0.0192279695521135
  0
LINE
 8
Group#1
10
245.522400393479
20
2675.68421931889
30
0.0167106569469687
11
245.560372279788
21
2675.58099538113
31
0.0174298524177955
  0
LINE
 8
Group#1
10
245.422222763554
20
2673.19419439918
30
0.0308667275824786
11
245.23592373846
21
2672.8939020045
31
0.0320265317732261
  0
LINE
 8
Group#1
10
244.474132606873
20
2672.31943249994
30
0.0329715272903998
11
244.175842870701
21
2672.16045207659
31
0.0329582197573181
  0
LINE
 8
Group#1
10
241.016791279432
20
2673.61917204835
30
0.0145551105027633
11
240.992409372289
21
2673.66665744574
31
0.0142025403173417
  0
LINE
 8
Group#1
10
244.460648811031
20
2676.71869743249
30
0.00736274723395338
11
244.829238619473
21
2676.48096891697
31
0.00990241910272228
  0
LINE
 8
Group#1
10
241.984079758588
20
2672.41956346641
30
0.0245658763968002
11
241.875263956589
21
2672.5102346323
31
0.0236970402560743
  0
LINE
 8
Group#1
10
240.855269014243
20
2674.3021149102
30
0.0100786723084245
11
240.825809706851
21
2674.62605378617
31
0.00810353416192595
  0
LINE
 8
Group#1
10
240.982595699428
20
2673.71213035949
30
0.0139074390638488
11
240.855269014243
21
2674.3021149102
31
0.0100786723084245
  0
LINE
 8
Group#1
10
241.243958992064
20
2673.17674771114
30
0.0178400283760891
11
241.016791279432
21
2673.61917204835
31
0.0145551105027633
  0
LINE
 8
Group#1
10
240.992409372289
20
2673.66665744574
30
0.0142025403173417
11
240.982595699428
21
2673.71213035949
31
0.0139074390638488
  0
LINE
 8
Group#1
10
242.500989652719
20
2672.18068791031
30
0.0275782355337783
11
241.984079758588
21
2672.41956346641
31
0.0245658763968002
  0
LINE
 8
Group#1
10
243.188145544764
20
2672.04065611375
30
0.030551074596453
11
242.891066240759
21
2672.05529321019
31
0.0295325886325368
  0
LINE
 8
Group#1
10
241.365908087679
20
2673.00385359678
30
0.0192279695521135
11
241.289347893743
21
2673.08834978474
31
0.0184963664298157
  0
LINE
 8
Group#1
10
242.500989652719
20
2672.18068791031
30
0.0275782355337783
11
242.272165009093
21
2672.25424627923
31
0.0264317833624923
  0
LINE
 8
Group#1
10
245.467152068769
20
2675.76254798646
30
0.0160818583130406
11
245.522400393479
21
2675.68421931889
31
0.0167106569469687
  0
LINE
 8
Group#1
10
245.560372279788
20
2675.58099538113
30
0.0174298524177955
11
245.68212436769
21
2675.34387503436
31
0.0191904265990813
  0
LINE
 8
Group#1
10
245.246928482405
20
2676.07477139191
30
0.013575424117367
11
245.385185846236
21
2675.92218269536
31
0.0148966004862464
  0
LINE
 8
Group#1
10
245.005759528229
20
2672.69440602825
30
0.0324627313439815
11
244.754162864839
21
2672.45739760908
31
0.0330495945120072
  0
LINE
 8
Group#1
10
244.057099815545
20
2676.90518639663
30
0.00501101336767333
11
244.460648811031
21
2676.71869743249
31
0.00736274723395338
  0
LINE
 8
Group#1
10
241.6218085552
20
2672.72142727457
30
0.021673334059401
11
241.484293019158
21
2672.83601259905
31
0.0205753458496764
  0
LINE
 8
Group#1
10
245.751773083679
20
2675.02114876257
30
0.0212847926613534
11
245.819264725736
21
2674.7084175699
31
0.0233142946076377
  0
LINE
 8
Group#1
10
243.863571495624
20
2672.09482764052
30
0.0323584418188992
11
243.540375307927
21
2672.02330175436
31
0.0317586345477741
  0
LINE
 8
Group#1
10
245.695141031602
20
2673.78473786118
30
0.0282922810246581
11
245.588294284173
21
2673.44021820967
31
0.0299587515761713
  0
LINE
 8
Group#1
10
241.875263956589
20
2672.5102346323
30
0.0236970402560743
11
241.725848709082
21
2672.60660263861
31
0.0226675334922553
  0
LINE
 8
Group#1
10
245.031857419476
20
2676.31213605915
30
0.0115202221515358
11
245.147432091114
21
2676.21583304036
31
0.012443024261376
  0
LINE
 8
Group#1
10
241.289347893743
20
2673.08834978474
30
0.0184963664298157
11
241.243958992064
21
2673.17674771114
31
0.0178400283760891
  0
LINE
 8
Group#1
10
365.815906920928
20
2677.02584072629
30
0.00198100274384002
11
366.462939506881
21
2676.940658421
31
0.00450901562180084
  0
LINE
 8
Group#1
10
366.462939506881
20
2676.940658421
30
0.00450901562180084
11
367.065874867918
21
2676.69091587502
31
0.00785482021558377
  0
LINE
 8
Group#1
10
367.065874867918
20
2676.69091587502
30
0.00785482021558377
11
367.583623955582
21
2676.29363263014
31
0.0117904054707632
  0
LINE
 8
Group#1
10
367.583623955582
20
2676.29363263014
30
0.0117904054707632
11
367.980903025169
21
2675.77588288296
31
0.0160475677565227
  0
LINE
 8
Group#1
10
367.980903025169
20
2675.77588288296
30
0.0160475677565227
11
368.230638164622
21
2675.17295042313
31
0.0203361884972897
  0
LINE
 8
Group#1
10
368.230638164622
20
2675.17295042313
30
0.0203361884972897
11
368.315810336894
21
2674.52592410138
31
0.0243640052778997
  0
LINE
 8
Group#1
10
368.315810336894
20
2674.52592410138
30
0.0243640052778997
11
368.230615199198
21
2673.87889769229
31
0.0278565290407297
  0
LINE
 8
Group#1
10
368.230615199198
20
2673.87889769229
30
0.0278565290407297
11
367.980858659376
21
2673.27596497637
31
0.0305757500631802
  0
LINE
 8
Group#1
10
367.980858659376
20
2673.27596497637
30
0.0305757500631802
11
367.583561212876
21
2672.75821482183
31
0.0323363579258073
  0
LINE
 8
Group#1
10
245.805915403421
20
2674.42579185323
30
0.0249148359491264
11
245.695141031602
21
2673.78473786118
31
0.0282922810246581
  0
LINE
 8
Group#1
10
245.695141031602
20
2673.78473786118
30
0.0282922810246581
11
245.422222763554
21
2673.19419439918
31
0.0308667275824786
  0
LINE
 8
Group#1
10
245.422222763554
20
2673.19419439918
30
0.0308667275824786
11
245.005759528229
21
2672.69440602825
31
0.0324627313439815
  0
LINE
 8
Group#1
10
367.583561212876
20
2672.75821482183
30
0.0323363579258073
11
367.065798024111
21
2672.36093104606
31
0.0330183701128135
  0
LINE
 8
Group#1
10
367.065798024111
20
2672.36093104606
30
0.0330183701128135
11
366.462853798752
21
2672.11118788185
31
0.0325753086204654
  0
LINE
 8
Group#1
10
366.462853798752
20
2672.11118788185
30
0.0325753086204654
11
365.815818189344
21
2672.02600491311
31
0.0310373673576964
  0
LINE
 8
Group#1
10
365.815818189344
20
2672.02600491311
30
0.0310373673576964
11
365.16878560339
21
2672.1111872184
31
0.0285093544790137
  0
LINE
 8
Group#1
10
365.16878560339
20
2672.1111872184
30
0.0285093544790137
11
364.565850242353
21
2672.36092976438
31
0.0251635498852307
  0
LINE
 8
Group#1
10
364.565850242353
20
2672.36092976438
30
0.0251635498852307
11
364.04810115469
21
2672.75821300926
31
0.0212279646300527
  0
LINE
 8
Group#1
10
364.04810115469
20
2672.75821300926
30
0.0212279646300527
11
363.650822085102
21
2673.27596275644
31
0.0169708023450137
  0
LINE
 8
Group#1
10
363.650822085102
20
2673.27596275644
30
0.0169708023450137
11
363.401086945649
21
2673.87889521627
31
0.0126821816035248
  0
LINE
 8
Group#1
10
363.401086945649
20
2673.87889521627
30
0.0126821816035248
11
363.315914773378
21
2674.52592153802
31
0.00865436482291335
  0
LINE
 8
Group#1
10
363.315914773378
20
2674.52592153802
30
0.00865436482291335
11
363.401109911073
21
2675.17294794711
31
0.00516184106008477
  0
LINE
 8
Group#1
10
363.401109911073
20
2675.17294794711
30
0.00516184106008477
11
363.650866450895
21
2675.77588066302
31
0.00244262003808551
  0
LINE
 8
Group#1
10
363.650866450895
20
2675.77588066302
30
0.00244262003808551
11
364.048163897395
21
2676.29363081757
31
0.000682012175008639
  0
LINE
 8
Group#1
10
364.048163897395
20
2676.29363081757
30
0.000682012175008639
11
364.56592708616
21
2676.69091459334
31
-1.19989573832413e-11
  0
LINE
 8
Group#1
10
364.56592708616
20
2676.69091459334
30
-1.19989573832413e-11
11
365.168871311519
21
2676.94065775755
31
0.000443061480349105
  0
LINE
 8
Group#1
10
365.168871311519
20
2676.94065775755
30
0.000443061480349105
11
365.815906920928
21
2677.02584072629
31
0.00198100274384002
  0
LINE
 8
Group#1
10
244.647645351684
20
2676.632282173
30
0.00845249371425074
11
244.829238619473
21
2676.48096891697
31
0.00990241910272228
  0
LINE
 8
Group#1
10
245.005759528229
20
2672.69440602825
30
0.0324627313439815
11
244.474132606873
21
2672.31943249994
31
0.0329715272903998
  0
LINE
 8
Group#1
10
244.474132606873
20
2672.31943249994
30
0.0329715272903998
11
243.863571495624
21
2672.09482764052
31
0.0323584418188992
  0
LINE
 8
Group#1
10
243.863571495624
20
2672.09482764052
30
0.0323584418188992
11
243.188145544764
21
2672.04065611375
31
0.030551074596453
  0
LINE
 8
Group#1
10
241.109324716793
20
2673.36762632051
30
0.0163077131640851
11
241.016791279432
21
2673.61917204835
31
0.0145551105027633
  0
LINE
 8
Group#1
10
240.884728321635
20
2673.97817603422
30
0.012053810454923
11
240.855269014243
21
2674.3021149102
31
0.0100786723084245
  0
LINE
 8
Group#1
10
240.825809706851
20
2674.62605378617
30
0.00810353416192595
11
240.936584078671
21
2675.26710777823
31
0.00472608908639433
  0
LINE
 8
Group#1
10
240.936584078671
20
2675.26710777823
30
0.00472608908639433
11
241.209502346718
21
2675.85765124023
31
0.00215164252857519
  0
LINE
 8
Group#1
10
241.209502346718
20
2675.85765124023
30
0.00215164252857519
11
241.625965582044
21
2676.35743961115
31
0.000555638767069433
  0
LINE
 8
Group#1
10
241.625965582044
20
2676.35743961115
30
0.000555638767069433
11
242.157592503399
21
2676.73241313946
31
4.6842820651205e-05
  0
LINE
 8
Group#1
10
242.157592503399
20
2676.73241313946
30
4.6842820651205e-05
11
242.768153614649
21
2676.95701799888
31
0.000659928292153178
  0
LINE
 8
Group#1
10
242.768153614649
20
2676.95701799888
30
0.000659928292153178
11
243.416040185061
21
2677.01594773942
31
0.00235311442037649
  0
LINE
 8
Group#1
10
243.416040185061
20
2677.01594773942
30
0.00235311442037649
11
244.057099815545
21
2676.90518639663
31
0.00501101336767333
  0
LINE
 8
Group#1
10
101.64394081735
20
2674.07861484592
30
-0.27195617254536
11
101.394184277529
21
2673.47568213001
31
-0.269236951523001
  0
LINE
 8
Group#1
10
100.479123642264
20
2672.56064819969
30
-0.266794331473276
11
99.8761794169046
21
2672.31090503548
31
-0.267237392965626
  0
LINE
 8
Group#1
10
101.394228643321
20
2675.97560003659
30
-0.28376513382993
11
101.643963782774
21
2675.37266757676
31
-0.2794765130888
  0
LINE
 8
Group#1
10
99.2291438074961
20
2672.22572206674
30
-0.268775334228756
11
98.5821112215431
21
2672.31090437203
31
-0.271303347107078
  0
LINE
 8
Group#1
10
96.8144355292262
20
2675.37266510074
30
-0.294650860526007
11
97.0641920690474
21
2675.97559781666
31
-0.297370081548365
  0
LINE
 8
Group#1
10
98.582196929672
20
2677.14037491118
30
-0.299369640105742
11
99.2292325390804
21
2677.22555787992
31
-0.297831698842612
  0
LINE
 8
Group#1
10
100.47920048607
20
2676.89063302865
30
-0.291957881370506
11
100.996949573734
21
2676.49334978377
31
-0.28802229611533
  0
LINE
 8
Group#1
10
97.0641920690474
20
2675.97559781666
30
-0.297370081548365
11
97.4614895155475
21
2676.4933479712
31
-0.299130689411083
  0
LINE
 8
Group#1
10
100.996949573734
20
2676.49334978377
30
-0.28802229611533
11
101.394228643321
21
2675.97560003659
31
-0.28376513382993
  0
LINE
 8
Group#1
10
101.394184277529
20
2673.47568213001
30
-0.269236951523001
11
100.996886831029
21
2672.95793197546
31
-0.267476343660285
  0
LINE
 8
Group#1
10
99.8762651250335
20
2677.14037557463
30
-0.295303685964291
11
100.47920048607
21
2676.89063302865
31
-0.291957881370506
  0
LINE
 8
Group#1
10
101.729135955046
20
2674.72564125501
30
-0.27544869630819
11
101.64394081735
21
2674.07861484592
31
-0.27195617254536
  0
LINE
 8
Group#1
10
100.996886831029
20
2672.95793197546
30
-0.267476343660285
11
100.479123642264
21
2672.56064819969
31
-0.266794331473276
  0
LINE
 8
Group#1
10
97.4614267728425
20
2672.95793016289
30
-0.278584736956039
11
97.0641477032553
21
2673.47567991007
31
-0.282841899241437
  0
LINE
 8
Group#1
10
98.5821112215431
20
2672.31090437203
30
-0.271303347107078
11
97.9791758605061
21
2672.56064691801
31
-0.27464915170077
  0
LINE
 8
Group#1
10
101.643963782774
20
2675.37266757676
30
-0.2794765130888
11
101.729135955046
21
2674.72564125501
31
-0.27544869630819
  0
LINE
 8
Group#1
10
99.2292325390804
20
2677.22555787992
30
-0.297831698842612
11
99.8762651250335
21
2677.14037557463
31
-0.295303685964291
  0
LINE
 8
Group#1
10
99.8761794169046
20
2672.31090503548
30
-0.267237392965626
11
99.2291438074961
21
2672.22572206674
31
-0.268775334228756
  0
LINE
 8
Group#1
10
97.9791758605061
20
2672.56064691801
30
-0.27464915170077
11
97.4614267728425
21
2672.95793016289
31
-0.278584736956039
  0
LINE
 8
Group#1
10
97.4614895155475
20
2676.4933479712
30
-0.299130689411083
11
97.9792527043123
21
2676.89063174697
31
-0.299812701597729
  0
LINE
 8
Group#1
10
96.8144125638022
20
2674.0786123699
30
-0.287130519982567
11
96.7292403915303
21
2674.72563869165
31
-0.291158336763177
  0
LINE
 8
Group#1
10
96.7292403915303
20
2674.72563869165
30
-0.291158336763177
11
96.8144355292262
21
2675.37266510074
31
-0.294650860526007
  0
LINE
 8
Group#1
10
97.9792527043123
20
2676.89063174697
30
-0.299812701597729
11
98.582196929672
21
2677.14037491118
31
-0.299369640105742
  0
LINE
 8
Group#1
10
97.0641477032553
20
2673.47567991007
30
-0.282841899241437
11
96.8144125638022
21
2674.0786123699
31
-0.287130519982567
  0
LINE
 8
Group#1
10
278.865394206808
20
2677.12143363625
30
0.000443061484649554
11
279.512429816216
21
2677.20661660499
31
0.00198100274778092
  0
LINE
 8
Group#1
10
280.159462402169
20
2677.1214342997
30
0.00450901562610129
11
280.762397763206
21
2676.87169175372
31
0.00785482021988563
  0
LINE
 8
Group#1
10
292.460304426671
20
2676.12361515371
30
0.0147093020824592
11
292.757242948125
21
2675.54530749271
31
0.0190031281949331
  0
LINE
 8
Group#1
10
288.067527952724
20
2673.86808990409
30
0.0140152419135559
11
287.930387594678
21
2674.50354736855
31
0.00989137390463863
  0
LINE
 8
Group#1
10
280.159376694041
20
2672.29196376055
30
0.0325753086247672
11
279.512341084632
21
2672.20678079181
31
0.0310373673616373
  0
LINE
 8
Group#1
10
287.962391288806
20
2675.15284926041
30
0.00621849878918098
11
288.161358036241
21
2675.77174672878
31
0.00324691693646594
  0
LINE
 8
Group#1
10
278.262373137642
20
2672.54170564308
30
0.0251635498895312
11
277.744624049978
21
2672.93898888796
31
0.0212279646343531
  0
LINE
 8
Group#1
10
280.7623209194
20
2672.54170692476
30
0.0330183701171153
11
280.159376694041
21
2672.29196376055
31
0.0325753086247672
  0
LINE
 8
Group#1
10
292.311042318894
20
2673.09533446285
30
0.0318392333694403
11
291.829281445274
21
2672.65883006743
31
0.03286229610822
  0
LINE
 8
Group#1
10
288.800967289517
20
2672.80803509696
30
0.022480235088468
11
288.364466474178
21
2673.28978224309
31
0.0183090680260299
  0
LINE
 8
Group#1
10
277.097632806362
20
2675.35372382581
30
0.00516184106438522
11
277.347389346183
21
2675.95665654173
31
0.00244262004238737
  0
LINE
 8
Group#1
10
277.097609840938
20
2674.05967109497
30
0.0126821816078253
11
277.012437668666
21
2674.70669741672
31
0.00865436482721521
  0
LINE
 8
Group#1
10
288.161358036241
20
2675.77174672878
30
0.00324691693646594
11
288.513728581954
21
2676.31806293395
31
0.00117913673905016
  0
LINE
 8
Group#1
10
277.744686792683
20
2676.47440669627
30
0.000682012179309088
11
278.262449981448
21
2676.87169047204
31
-7.69850849735576e-12
  0
LINE
 8
Group#1
10
281.280084108165
20
2672.93899070053
30
0.0323363579301063
11
280.7623209194
21
2672.54170692476
31
0.0330183701171153
  0
LINE
 8
Group#1
10
292.757242948125
20
2675.54530749271
30
0.0190031281949331
11
292.894383306171
21
2674.90985002825
31
0.0231269962038504
  0
LINE
 8
Group#1
10
278.865308498679
20
2672.2919630971
30
0.0285093544833155
11
278.262373137642
21
2672.54170564308
31
0.0251635498895312
  0
LINE
 8
Group#1
10
281.92716105991
20
2675.35372630183
30
0.0203361885015915
11
282.012333232182
21
2674.70669998008
31
0.0243640052822016
  0
LINE
 8
Group#1
10
291.477487311321
20
2676.95771865922
30
0.006773885149784
11
292.023803611332
21
2676.60536229984
31
0.0105381350203819
  0
LINE
 8
Group#1
10
292.862379612043
20
2674.26054813639
30
0.0267998713193081
11
292.663412864608
21
2673.64165066802
31
0.0297714531720231
  0
LINE
 8
Group#1
10
287.930387594678
20
2674.50354736855
30
0.00989137390463863
11
287.962391288806
21
2675.15284926041
31
0.00621849878918098
  0
LINE
 8
Group#1
10
289.347283589527
20
2672.45567873758
30
0.026244484958705
11
288.800967289517
21
2672.80803509696
31
0.022480235088468
  0
LINE
 8
Group#1
10
278.262449981448
20
2676.87169047204
30
-7.69850849735576e-12
11
278.865394206808
21
2677.12143363625
31
0.000443061484649554
  0
LINE
 8
Group#1
10
279.512341084632
20
2672.20678079181
30
0.0310373673616373
11
278.865308498679
21
2672.2919630971
31
0.0285093544833155
  0
LINE
 8
Group#1
10
282.012333232182
20
2674.70669998008
30
0.0243640052822016
11
281.927138094486
21
2674.05967357099
31
0.0278565290450316
  0
LINE
 8
Group#1
10
292.023803611332
20
2676.60536229984
30
0.0105381350203819
11
292.460304426671
21
2676.12361515371
31
0.0147093020824592
  0
LINE
 8
Group#1
10
281.927138094486
20
2674.05967357099
30
0.0278565290450316
11
281.677381554665
21
2673.45674085508
31
0.0305757500673904
  0
LINE
 8
Group#1
10
281.677381554665
20
2673.45674085508
30
0.0305757500673904
11
281.280084108165
21
2672.93899070053
31
0.0323363579301063
  0
LINE
 8
Group#1
10
292.663412864608
20
2673.64165066802
30
0.0297714531720231
11
292.311042318894
21
2673.09533446285
31
0.0318392333694403
  0
LINE
 8
Group#1
10
277.012437668666
20
2674.70669741672
30
0.00865436482721521
11
277.097632806362
21
2675.35372382581
31
0.00516184106438522
  0
LINE
 8
Group#1
10
280.762397763206
20
2676.87169175372
30
0.00785482021988563
11
281.28014685087
21
2676.47440850884
31
0.0117904054750623
  0
LINE
 8
Group#1
10
291.829281445274
20
2672.65883006743
30
0.03286229610822
11
291.250961451135
21
2672.36188453494
31
0.0327709213535323
  0
LINE
 8
Group#1
10
289.573809449713
20
2677.05151286185
30
0.000247448754956747
11
290.209277012487
21
2677.18866318409
31
0.00144703396468128
  0
LINE
 8
Group#1
10
281.677425920457
20
2675.95665876166
30
0.0160475677604622
11
281.92716105991
21
2675.35372630183
31
0.0203361885015915
  0
LINE
 8
Group#1
10
289.966184821194
20
2672.25672566854
30
0.029345290228751
11
289.347283589527
21
2672.45567873758
31
0.026244484958705
  0
LINE
 8
Group#1
10
288.513728581954
20
2676.31806293395
30
0.00117913673905016
11
288.995489455575
21
2676.75456732937
31
0.000156074000269057
  0
LINE
 8
Group#1
10
277.347344980391
20
2673.45673863514
30
0.0169708023489546
11
277.097609840938
21
2674.05967109497
31
0.0126821816078253
  0
LINE
 8
Group#1
10
291.250961451135
20
2672.36188453494
30
0.0327709213535323
11
290.615493888361
21
2672.22473421271
31
0.0315713361438092
  0
LINE
 8
Group#1
10
288.364466474178
20
2673.28978224309
30
0.0183090680260299
11
288.067527952724
21
2673.86808990409
31
0.0140152419135559
  0
LINE
 8
Group#1
10
290.615493888361
20
2672.22473421271
30
0.0315713361438092
11
289.966184821194
21
2672.25672566854
31
0.029345290228751
  0
LINE
 8
Group#1
10
292.894383306171
20
2674.90985002825
30
0.0231269962038504
11
292.862379612043
21
2674.26054813639
31
0.0267998713193081
  0
LINE
 8
Group#1
10
277.347389346183
20
2675.95665654173
30
0.00244262004238737
11
277.744686792683
21
2676.47440669627
31
0.000682012179309088
  0
LINE
 8
Group#1
10
277.744624049978
20
2672.93898888796
30
0.0212279646343531
11
277.347344980391
21
2673.45673863514
31
0.0169708023489546
  0
LINE
 8
Group#1
10
288.995489455575
20
2676.75456732937
30
0.000156074000269057
11
289.573809449713
21
2677.05151286185
31
0.000247448754956747
  0
LINE
 8
Group#1
10
281.28014685087
20
2676.47440850884
30
0.0117904054750623
11
281.677425920457
21
2675.95665876166
31
0.0160475677604622
  0
LINE
 8
Group#1
10
279.512429816216
20
2677.20661660499
30
0.00198100274778092
11
280.159462402169
21
2677.1214342997
31
0.00450901562610129
  0
LINE
 8
Group#1
10
290.858586079655
20
2677.15667172826
30
0.00367307987973807
11
291.477487311321
21
2676.95771865922
31
0.006773885149784
  0
LINE
 8
Group#1
10
290.209277012487
20
2677.18866318409
30
0.00144703396468128
11
290.858586079655
21
2677.15667172826
31
0.00367307987973807
  0
LINE
 8
Group#1
10
321.210387199118
20
2673.0188583212
30
0.0236820507042554
11
320.692624010353
21
2672.62157454544
31
0.024364062891263
  0
LINE
 8
Group#1
10
321.857441185439
20
2674.13954119167
30
0.0192022218191807
11
321.607684645618
21
2673.53660847575
31
0.0219214428416298
  0
LINE
 8
Group#1
10
317.027912931891
20
2674.13953871565
30
0.00402787438197438
11
316.942740759619
21
2674.78656503739
31
5.76013629238759e-08
  0
LINE
 8
Group#1
10
317.027935897315
20
2675.43359144648
30
-0.00349246616146707
11
317.277692437136
21
2676.0365241624
31
-0.00621168718346492
  0
LINE
 8
Group#1
10
320.089679784994
20
2672.37183138122
30
0.023921001398915
11
319.442644175585
21
2672.28664841249
31
0.022383060136146
  0
LINE
 8
Group#1
10
317.674989883636
20
2676.55427431695
30
-0.00797229504654179
11
318.192753072401
21
2676.95155809271
31
-0.00865430723355079
  0
LINE
 8
Group#1
10
318.795697297761
20
2677.20130125693
30
-0.00821124574120132
11
319.442732907169
21
2677.28648422566
31
-0.00667330447771182
  0
LINE
 8
Group#1
10
321.857464150863
20
2675.4335939225
30
0.0116818812757393
11
321.942636323135
21
2674.78656760076
31
0.0157096980563493
  0
LINE
 8
Group#1
10
320.089765493122
20
2677.20130192037
30
-0.00414529159974959
11
320.692700854159
21
2676.95155937439
31
-0.000799487005966659
  0
LINE
 8
Group#1
10
318.795611589632
20
2672.37183071778
30
0.0198550472574632
11
318.192676228595
21
2672.62157326376
31
0.0165092426636789
  0
LINE
 8
Group#1
10
317.674927140931
20
2673.01885650863
30
0.0125736574085022
11
317.277648071344
21
2673.53660625581
31
0.00831649512346467
  0
LINE
 8
Group#1
10
321.210449941823
20
2676.55427612952
30
0.00313609824921139
11
321.60772901141
21
2676.03652638234
31
0.00739326053497088
  0
LINE
 8
Group#1
10
318.192753072401
20
2676.95155809271
30
-0.00865430723355079
11
318.795697297761
21
2677.20130125693
31
-0.00821124574120132
  0
LINE
 8
Group#1
10
317.277692437136
20
2676.0365241624
30
-0.00621168718346492
11
317.674989883636
21
2676.55427431695
31
-0.00797229504654179
  0
LINE
 8
Group#1
10
316.942740759619
20
2674.78656503739
30
5.76013629238759e-08
11
317.027935897315
21
2675.43359144648
31
-0.00349246616146707
  0
LINE
 8
Group#1
10
317.277648071344
20
2673.53660625581
30
0.00831649512346467
11
317.027912931891
21
2674.13953871565
31
0.00402787438197438
  0
LINE
 8
Group#1
10
318.192676228595
20
2672.62157326376
30
0.0165092426636789
11
317.674927140931
21
2673.01885650863
31
0.0125736574085022
  0
LINE
 8
Group#1
10
319.442644175585
20
2672.28664841249
30
0.022383060136146
11
318.795611589632
21
2672.37183071778
31
0.0198550472574632
  0
LINE
 8
Group#1
10
320.692624010353
20
2672.62157454544
30
0.024364062891263
11
320.089679784994
21
2672.37183138122
31
0.023921001398915
  0
LINE
 8
Group#1
10
321.607684645618
20
2673.53660847575
30
0.0219214428416298
11
321.210387199118
21
2673.0188583212
31
0.0236820507042554
  0
LINE
 8
Group#1
10
321.942636323135
20
2674.78656760076
30
0.0157096980563493
11
321.857441185439
21
2674.13954119167
31
0.0192022218191807
  0
LINE
 8
Group#1
10
321.60772901141
20
2676.03652638234
30
0.00739326053497088
11
321.857464150863
21
2675.4335939225
31
0.0116818812757393
  0
LINE
 8
Group#1
10
320.692700854159
20
2676.95155937439
30
-0.000799487005966659
11
321.210449941823
21
2676.55427612952
31
0.00313609824921139
  0
LINE
 8
Group#1
10
319.442732907169
20
2677.28648422566
30
-0.00667330447771182
11
320.089765493122
21
2677.20130192037
31
-0.00414529159974959
  0
LINE
 8
Group#1
10
331.608164993452
20
2676.58015944632
30
0.0103820610099145
11
332.044665808791
21
2676.09841230019
31
0.0145532280727136
  0
LINE
 8
Group#1
10
332.044665808791
20
2676.09841230019
30
0.0145532280727136
11
332.341604330246
21
2675.5201046392
31
0.0188470541848266
  0
LINE
 8
Group#1
10
332.341604330246
20
2675.5201046392
30
0.0188470541848266
11
332.478744688291
21
2674.88464717473
31
0.0229709221937439
  0
LINE
 8
Group#1
10
332.478744688291
20
2674.88464717473
30
0.0229709221937439
11
332.446740994164
21
2674.23534528287
31
0.0266437973092015
  0
LINE
 8
Group#1
10
332.446740994164
20
2674.23534528287
30
0.0266437973092015
11
332.247774246728
21
2673.6164478145
31
0.0296153791619166
  0
LINE
 8
Group#1
10
332.247774246728
20
2673.6164478145
30
0.0296153791619166
11
331.895403701015
21
2673.07013160933
31
0.0316831593593338
  0
LINE
 8
Group#1
10
331.895403701015
20
2673.07013160933
30
0.0316831593593338
11
331.413642827394
21
2672.63362721391
31
0.0327062220981135
  0
LINE
 8
Group#1
10
331.413642827394
20
2672.63362721391
30
0.0327062220981135
11
330.835322833256
21
2672.33668168143
31
0.0326148473434258
  0
LINE
 8
Group#1
10
330.835322833256
20
2672.33668168143
30
0.0326148473434258
11
330.199855270482
21
2672.19953135919
31
0.0314152621337027
  0
LINE
 8
Group#1
10
330.199855270482
20
2672.19953135919
30
0.0314152621337027
11
329.550546203315
21
2672.23152281502
31
0.0291892162186459
  0
LINE
 8
Group#1
10
329.550546203315
20
2672.23152281502
30
0.0291892162186459
11
328.931644971648
21
2672.43047588406
31
0.0260884109485985
  0
LINE
 8
Group#1
10
328.931644971648
20
2672.43047588406
30
0.0260884109485985
11
328.385328671638
21
2672.78283224344
31
0.0223241610783629
  0
LINE
 8
Group#1
10
328.385328671638
20
2672.78283224344
30
0.0223241610783629
11
327.948827856298
21
2673.26457938957
31
0.0181529940159234
  0
LINE
 8
Group#1
10
327.948827856298
20
2673.26457938957
30
0.0181529940159234
11
327.651889334844
21
2673.84288705057
31
0.0138591679034508
  0
LINE
 8
Group#1
10
327.651889334844
20
2673.84288705057
30
0.0138591679034508
11
327.514748976799
21
2674.47834451503
31
0.00973529989453212
  0
LINE
 8
Group#1
10
327.514748976799
20
2674.47834451503
30
0.00973529989453212
11
327.546752670926
21
2675.1276464069
31
0.00606242477907447
  0
LINE
 8
Group#1
10
327.546752670926
20
2675.1276464069
30
0.00606242477907447
11
327.745719418362
21
2675.74654387526
31
0.00309084292635943
  0
LINE
 8
Group#1
10
327.745719418362
20
2675.74654387526
30
0.00309084292635943
11
328.098089964075
21
2676.29286008043
31
0.00102306272894365
  0
LINE
 8
Group#1
10
328.098089964075
20
2676.29286008043
30
0.00102306272894365
11
328.579850837696
21
2676.72936447585
31
-9.83745307436834e-12
  0
LINE
 8
Group#1
10
328.579850837696
20
2676.72936447585
30
-9.83745307436834e-12
11
329.158170831834
21
2677.02631000834
31
9.13747448502367e-05
  0
LINE
 8
Group#1
10
329.158170831834
20
2677.02631000834
30
9.13747448502367e-05
11
329.793638394608
21
2677.16346033057
31
0.00129095995457477
  0
LINE
 8
Group#1
10
329.793638394608
20
2677.16346033057
30
0.00129095995457477
11
330.442947461775
21
2677.13146887474
31
0.00351700586963297
  0
LINE
 8
Group#1
10
330.442947461775
20
2677.13146887474
30
0.00351700586963297
11
331.061848693442
21
2676.9325158057
31
0.0066178111396789
  0
LINE
 8
Group#1
10
331.061848693442
20
2676.9325158057
30
0.0066178111396789
11
331.608164993452
21
2676.58015944632
31
0.0103820610099145
  0
LINE
 8
Group#1
10
149.916657993346
20
2672.21847263412
30
-0.268397439456689
11
149.267348926179
21
2672.25046408995
31
-0.270623485371747
  0
LINE
 8
Group#1
10
147.263555393791
20
2675.14658768183
30
-0.293750276811317
11
147.462522141226
21
2675.76548515019
31
-0.296721858664032
  0
LINE
 8
Group#1
10
147.231551699663
20
2674.49728578996
30
-0.29007740169586
11
147.263555393791
21
2675.14658768183
31
-0.293750276811317
  0
LINE
 8
Group#1
10
140.409426733217
20
2672.64051582037
30
-0.275448638699129
11
139.806482507858
21
2672.39077265615
31
-0.275891700191477
  0
LINE
 8
Group#1
10
147.368692057709
20
2673.8618283255
30
-0.285953533686942
11
147.231551699663
21
2674.49728578996
31
-0.29007740169586
  0
LINE
 8
Group#1
10
147.665630579163
20
2673.2835206645
30
-0.281659707574468
11
147.368692057709
21
2673.8618283255
31
-0.285953533686942
  0
LINE
 8
Group#1
10
137.909478951459
20
2672.64051453869
30
-0.283303458926713
11
137.391729863795
21
2673.03779778356
31
-0.28723904418189
  0
LINE
 8
Group#1
10
147.462522141226
20
2675.76548515019
30
-0.296721858664032
11
147.814892686939
21
2676.31180135536
31
-0.298789638861448
  0
LINE
 8
Group#1
10
139.806482507858
20
2672.39077265615
30
-0.275891700191477
11
139.159446898449
21
2672.30558968742
31
-0.277429641454608
  0
LINE
 8
Group#1
10
150.15975018464
20
2677.15041014967
30
-0.29629569572076
11
150.778651416306
21
2676.95145708064
31
-0.293194890450353
  0
LINE
 8
Group#1
10
148.102131394502
20
2672.80177351837
30
-0.277488540512029
11
147.665630579163
21
2673.2835206645
31
-0.281659707574468
  0
LINE
 8
Group#1
10
150.55212555612
20
2672.35562295636
30
-0.267197854246966
11
149.916657993346
21
2672.21847263412
31
-0.268397439456689
  0
LINE
 8
Group#1
10
136.659543482483
20
2674.80550631232
30
-0.299812643989029
11
136.744738620179
21
2675.45253272141
31
-0.303305167751859
  0
LINE
 8
Group#1
10
152.163543717028
20
2674.2542865578
30
-0.27316890428119
11
151.964576969592
21
2673.63538908943
31
-0.270197322428475
  0
LINE
 8
Group#1
10
136.744715654755
20
2674.15847999058
30
-0.295784827208419
11
136.659543482483
21
2674.80550631232
31
-0.299812643989029
  0
LINE
 8
Group#1
10
137.3917926065
20
2676.57321559188
30
-0.307784996636934
11
137.909555795265
21
2676.97049936764
31
-0.308467008823943
  0
LINE
 8
Group#1
10
149.510441117473
20
2677.1824016055
30
-0.298521741635817
11
150.15975018464
21
2677.15041014967
31
-0.29629569572076
  0
LINE
 8
Group#1
10
141.574243908304
20
2674.1584824666
30
-0.280610479771214
11
141.324487368482
21
2673.55554975068
31
-0.277891258748854
  0
LINE
 8
Group#1
10
136.744738620179
20
2675.45253272141
30
-0.303305167751859
11
136.99449516
21
2676.05546543733
31
-0.306024388774218
  0
LINE
 8
Group#1
10
152.05840705311
20
2675.53904591413
30
-0.280965647405565
11
152.195547411156
21
2674.90358844966
31
-0.276841779396648
  0
LINE
 8
Group#1
10
148.648447694512
20
2672.44941715899
30
-0.273724290641793
11
148.102131394502
21
2672.80177351837
31
-0.277488540512029
  0
LINE
 8
Group#1
10
138.512414312496
20
2672.39077199271
30
-0.279957654332929
11
137.909478951459
21
2672.64051453869
31
-0.283303458926713
  0
LINE
 8
Group#1
10
137.391729863795
20
2673.03779778356
30
-0.28723904418189
11
136.994450794208
21
2673.55554753074
31
-0.291496206467289
  0
LINE
 8
Group#1
10
139.806568215987
20
2677.2202431953
30
-0.303957993190141
11
140.409503577023
21
2676.97050064932
31
-0.300612188596358
  0
LINE
 8
Group#1
10
138.512500020625
20
2677.22024253186
30
-0.308023947331593
11
139.159535630034
21
2677.30542550059
31
-0.306486006068465
  0
LINE
 8
Group#1
10
141.574266873728
20
2675.45253519743
30
-0.288130820314654
11
141.659439046
21
2674.80550887569
31
-0.284103003534042
  0
LINE
 8
Group#1
10
150.778651416306
20
2676.95145708064
30
-0.293194890450353
11
151.324967716317
21
2676.59910072125
31
-0.289430640580477
  0
LINE
 8
Group#1
10
140.927189921982
20
2673.03779959613
30
-0.276130650886136
11
140.409426733217
21
2672.64051582037
31
-0.275448638699129
  0
LINE
 8
Group#1
10
149.267348926179
20
2672.25046408995
30
-0.270623485371747
11
148.648447694512
21
2672.44941715899
31
-0.273724290641793
  0
LINE
 8
Group#1
10
141.659439046
20
2674.80550887569
30
-0.284103003534042
11
141.574243908304
21
2674.1584824666
31
-0.280610479771214
  0
LINE
 8
Group#1
10
152.195547411156
20
2674.90358844966
30
-0.276841779396648
11
152.163543717028
21
2674.2542865578
31
-0.27316890428119
  0
LINE
 8
Group#1
10
136.994450794208
20
2673.55554753074
30
-0.291496206467289
11
136.744715654755
21
2674.15847999058
31
-0.295784827208419
  0
LINE
 8
Group#1
10
151.761468531656
20
2676.11735357512
30
-0.285259473518039
11
152.05840705311
21
2675.53904591413
31
-0.280965647405565
  0
LINE
 8
Group#1
10
151.612206423879
20
2673.08907288426
30
-0.268129542231058
11
151.130445550259
21
2672.65256848884
31
-0.267106479492278
  0
LINE
 8
Group#1
10
141.324487368482
20
2673.55554975068
30
-0.277891258748854
11
140.927189921982
21
2673.03779959613
31
-0.276130650886136
  0
LINE
 8
Group#1
10
151.324967716317
20
2676.59910072125
30
-0.289430640580477
11
151.761468531656
21
2676.11735357512
31
-0.285259473518039
  0
LINE
 8
Group#1
10
147.814892686939
20
2676.31180135536
30
-0.298789638861448
11
148.29665356056
21
2676.74830575078
31
-0.299812701600229
  0
LINE
 8
Group#1
10
136.99449516
20
2676.05546543733
30
-0.306024388774218
11
137.3917926065
21
2676.57321559188
31
-0.307784996636934
  0
LINE
 8
Group#1
10
137.909555795265
20
2676.97049936764
30
-0.308467008823943
11
138.512500020625
21
2677.22024253186
31
-0.308023947331593
  0
LINE
 8
Group#1
10
151.964576969592
20
2673.63538908943
30
-0.270197322428475
11
151.612206423879
21
2673.08907288426
31
-0.268129542231058
  0
LINE
 8
Group#1
10
148.874973554698
20
2677.04525128327
30
-0.299721326845542
11
149.510441117473
21
2677.1824016055
31
-0.298521741635817
  0
LINE
 8
Group#1
10
140.927252664687
20
2676.57321740445
30
-0.29667660334118
11
141.324531734275
21
2676.05546765727
31
-0.292419441055782
  0
LINE
 8
Group#1
10
139.159535630034
20
2677.30542550059
30
-0.306486006068465
11
139.806568215987
21
2677.2202431953
31
-0.303957993190141
  0
LINE
 8
Group#1
10
140.409503577023
20
2676.97050064932
30
-0.300612188596358
11
140.927252664687
21
2676.57321740445
31
-0.29667660334118
  0
LINE
 8
Group#1
10
141.324531734275
20
2676.05546765727
30
-0.292419441055782
11
141.574266873728
21
2675.45253519743
31
-0.288130820314654
  0
LINE
 8
Group#1
10
139.159446898449
20
2672.30558968742
30
-0.277429641454608
11
138.512414312496
21
2672.39077199271
31
-0.279957654332929
  0
LINE
 8
Group#1
10
151.130445550259
20
2672.65256848884
30
-0.267106479492278
11
150.55212555612
21
2672.35562295636
31
-0.267197854246966
  0
LINE
 8
Group#1
10
148.29665356056
20
2676.74830575078
30
-0.299812701600229
11
148.874973554698
21
2677.04525128327
31
-0.299721326845542
  0
LINE
 8
Group#1
10
110.332296611225
20
2672.24367548764
30
-0.268241365446583
11
109.682987544058
21
2672.27566694347
31
-0.270467411361641
  0
LINE
 8
Group#1
10
112.177107149535
20
2676.14255642864
30
-0.285103399507933
11
112.474045670989
21
2675.56424876764
31
-0.280809573395459
  0
LINE
 8
Group#1
10
107.67919401167
20
2675.17179053535
30
-0.293594202801211
11
107.878160759105
21
2675.79068800371
31
-0.296565784653926
  0
LINE
 8
Group#1
10
109.290612172577
20
2677.07045413679
30
-0.299565252835435
11
109.926079735352
21
2677.20760445902
31
-0.29836566762571
  0
LINE
 8
Group#1
10
107.784330675588
20
2673.88703117902
30
-0.285797459676837
11
107.647190317542
21
2674.52248864348
31
-0.289921327685753
  0
LINE
 8
Group#1
10
108.517770012381
20
2672.82697637189
30
-0.277332466501563
11
108.081269197042
21
2673.30872351802
31
-0.281503633564363
  0
LINE
 8
Group#1
10
112.380215587472
20
2673.66059194295
30
-0.270041248418369
11
112.027845041758
21
2673.11427573778
31
-0.267973468220953
  0
LINE
 8
Group#1
10
109.926079735352
20
2677.20760445902
30
-0.29836566762571
11
110.575388802519
21
2677.17561300319
31
-0.296139621710293
  0
LINE
 8
Group#1
10
108.712292178439
20
2676.7735086043
30
-0.299656627590124
11
109.290612172577
21
2677.07045413679
31
-0.299565252835435
  0
LINE
 8
Group#1
10
111.194290034185
20
2676.97665993415
30
-0.293038816440608
11
111.740606334196
21
2676.62430357477
31
-0.289274566570371
  0
LINE
 8
Group#1
10
112.579182334907
20
2674.27948941132
30
-0.273012830271084
11
112.380215587472
21
2673.66059194295
31
-0.270041248418369
  0
LINE
 8
Group#1
10
108.230531304818
20
2676.33700420888
30
-0.298633564851343
11
108.712292178439
21
2676.7735086043
31
-0.299656627590124
  0
LINE
 8
Group#1
10
112.474045670989
20
2675.56424876764
30
-0.280809573395459
11
112.611186029035
21
2674.92879130318
31
-0.276685705386541
  0
LINE
 8
Group#1
10
110.575388802519
20
2677.17561300319
30
-0.296139621710293
11
111.194290034185
21
2676.97665993415
31
-0.293038816440608
  0
LINE
 8
Group#1
10
112.027845041758
20
2673.11427573778
30
-0.267973468220953
11
111.546084168138
21
2672.67777134236
31
-0.266950405482172
  0
LINE
 8
Group#1
10
108.081269197042
20
2673.30872351802
30
-0.281503633564363
11
107.784330675588
21
2673.88703117902
31
-0.285797459676837
  0
LINE
 8
Group#1
10
109.682987544058
20
2672.27566694347
30
-0.270467411361641
11
109.064086312391
21
2672.47462001251
31
-0.273568216631687
  0
LINE
 8
Group#1
10
112.611186029035
20
2674.92879130318
30
-0.276685705386541
11
112.579182334907
21
2674.27948941132
31
-0.273012830271084
  0
LINE
 8
Group#1
10
111.740606334196
20
2676.62430357477
30
-0.289274566570371
11
112.177107149535
21
2676.14255642864
31
-0.285103399507933
  0
LINE
 8
Group#1
10
111.546084168138
20
2672.67777134236
30
-0.266950405482172
11
110.967764174
21
2672.38082580988
31
-0.267041780236861
  0
LINE
 8
Group#1
10
110.967764174
20
2672.38082580988
30
-0.267041780236861
11
110.332296611225
21
2672.24367548764
31
-0.268241365446583
  0
LINE
 8
Group#1
10
107.647190317542
20
2674.52248864348
30
-0.289921327685753
11
107.67919401167
21
2675.17179053535
31
-0.293594202801211
  0
LINE
 8
Group#1
10
107.878160759105
20
2675.79068800371
30
-0.296565784653926
11
108.230531304818
21
2676.33700420888
31
-0.298633564851343
  0
LINE
 8
Group#1
10
109.064086312391
20
2672.47462001251
30
-0.273568216631687
11
108.517770012381
21
2672.82697637189
31
-0.277332466501563
  0
POLYLINE
 8
Group#25
 66
     1
70
    8
 10
0.0
 20
 0.0
 30
0.0
  0
VERTEX
  8
MY3DLAYER
10
183.968605575562
20
2498.99218460734
30
6.44503339586322e-12
 70
     32
  0
VERTEX
  8
MY3DLAYER
10
245.976614121671
20
2498.99218460734
30
8.94634366588321e-12
 70
     32
  0
VERTEX
  8
MY3DLAYER
10
245.976614121672
20
2505.99218460734
30
9.01825281118818e-12
 70
     32
  0
VERTEX
  8
MY3DLAYER
10
292.359958414239
20
2505.99218460734
30
1.11712972206135e-11
 70
     32
  0
VERTEX
  8
MY3DLAYER
10
292.359958414239
20
2498.99218460734
30
1.18212994948408e-11
 70
     32
  0
VERTEX
  8
MY3DLAYER
10
317.359958414239
20
2498.99218460733
30
1.1801559729463e-11
 70
     32
  0
VERTEX
  8
MY3DLAYER
10
317.359958414239
20
2505.99218460734
30
1.37233668873193e-11
 70
     32
  0
VERTEX
  8
MY3DLAYER
10
332.359958414239
20
2505.99218460733
30
1.43155598486544e-11
 70
     32
  0
VERTEX
  8
MY3DLAYER
10
332.359958414239
20
2498.99218460733
30
1.23035137633565e-11
 70
     32
  0
VERTEX
  8
MY3DLAYER
10
357.359958414239
20
2498.99218460733
30
1.22386545342579e-11
 70
     32
  0
VERTEX
  8
MY3DLAYER
10
357.359958414239
20
2505.99218460733
30
1.33257516132801e-11
 70
     32
  0
VERTEX
  8
MY3DLAYER
10
372.359958414239
20
2505.99218460733
30
1.3850265379034e-11
 70
     32
  0
VERTEX
  8
MY3DLAYER
10
372.359958414239
20
2513.99218460733
30
1.61880175930662e-11
 70
     32
  0
VERTEX
  8
MY3DLAYER
10
379.359958414239
20
2513.99218460733
30
1.63050462020919e-11
 70
     32
  0
VERTEX
  8
MY3DLAYER
10
379.35995841424
20
2530.99218460733
30
1.54858459389118e-11
 70
     32
  0
VERTEX
  8
MY3DLAYER
10
372.359958414239
20
2530.99218460733
30
1.52785784024445e-11
 70
     32
  0
VERTEX
  8
MY3DLAYER
10
372.359958414241
20
2593.99218460733
30
1.64404045932542e-11
 70
     32
  0
VERTEX
  8
MY3DLAYER
10
379.359958414241
20
2593.99218460733
30
1.66476721297215e-11
 70
     32
  0
VERTEX
  8
MY3DLAYER
10
379.359958414241
20
2610.99218460733
30
1.60075397381831e-11
 70
     32
  0
VERTEX
  8
MY3DLAYER
10
372.359958414241
20
2610.99218460733
30
1.58002722017159e-11
 70
     32
  0
VERTEX
  8
MY3DLAYER
10
372.359958414242
20
2618.99218460733
30
1.57466928385475e-11
 70
     32
  0
VERTEX
  8
MY3DLAYER
10
57.3852612829996
20
2618.99218460734
30
2.48862042084852e-12
 70
     32
  0
VERTEX
  8
MY3DLAYER
10
57.3852612829995
20
2610.99218460734
30
2.51964005215655e-12
 70
     32
  0
VERTEX
  8
MY3DLAYER
10
50.3852612829995
20
2610.99218460734
30
2.28981278382889e-12
 70
     32
  0
VERTEX
  8
MY3DLAYER
10
50.3852612829989
20
2593.99218460734
30
2.92994517536727e-12
 70
     32
  0
VERTEX
  8
MY3DLAYER
10
57.3852612829989
20
2593.99218460734
30
3.13721271183454e-12
 70
     32
  0
VERTEX
  8
MY3DLAYER
10
57.3852612829962
20
2530.99218460734
30
1.9753865210248e-12
 70
     32
  0
VERTEX
  8
MY3DLAYER
10
50.3852612829964
20
2530.99218460734
30
1.76811898455753e-12
 70
     32
  0
VERTEX
  8
MY3DLAYER
10
50.3852612829959
20
2513.99218460734
30
2.67755817517923e-12
 70
     32
  0
VERTEX
  8
MY3DLAYER
10
57.3852612829957
20
2513.99218460734
30
2.79458678420497e-12
 70
     32
  0
VERTEX
  8
MY3DLAYER
10
57.3852612829956
20
2505.99218460734
30
2.84816614737338e-12
 70
     32
  0
VERTEX
  8
MY3DLAYER
10
72.3852612829956
20
2505.99218460734
30
3.26129123706664e-12
 70
     32
  0
VERTEX
  8
MY3DLAYER
10
72.3852612829953
20
2498.99218460734
30
3.32474048292397e-12
 70
     32
  0
VERTEX
  8
MY3DLAYER
10
97.385261282995
20
2498.99218460734
30
3.8915537459161e-12
 70
     32
  0
VERTEX
  8
MY3DLAYER
10
97.3852612829952
20
2505.99218460734
30
4.1890602098249e-12
 70
     32
  0
VERTEX
  8
MY3DLAYER
10
112.385261282995
20
2505.99218460734
30
4.60077531627689e-12
 70
     32
  0
VERTEX
  8
MY3DLAYER
10
112.385261282995
20
2498.99218460734
30
4.84470241701729e-12
 70
     32
  0
VERTEX
  8
MY3DLAYER
10
137.385261282996
20
2498.99218460734
30
5.41151568000942e-12
 70
     32
  0
VERTEX
  8
MY3DLAYER
10
137.385261282996
20
2505.99218460734
30
5.48342482531439e-12
 70
     32
  0
VERTEX
  8
MY3DLAYER
10
183.968605575562
20
2505.99218460734
30
6.56206200488896e-12
 70
     32
  0
VERTEX
  8
MY3DLAYER
10
183.968605575562
20
2498.99218460734
30
6.44503339586322e-12
 70
     32
  0
SEQEND
  0
POLYLINE
 8
Group#25
 66
     1
70
    8
 10
0.0
 20
 0.0
 30
0.0
  0
VERTEX
  8
MY3DLAYER
10
67.3852612829954
20
2544.99218460734
30
1.75401915214479e-12
 70
     32
  0
VERTEX
  8
MY3DLAYER
10
191.385261282995
20
2544.99218460733
30
5.65121283102599e-12
 70
     32
  0
VERTEX
  8
MY3DLAYER
10
191.385261282994
20
2509.99218460733
30
4.14394074610414e-12
 70
     32
  0
VERTEX
  8
MY3DLAYER
10
67.3852612829958
20
2509.99218460734
30
1.5100920514044e-12
 70
     32
  0
VERTEX
  8
MY3DLAYER
10
67.3852612829954
20
2544.99218460734
30
1.75401915214479e-12
 70
     32
  0
SEQEND
  0
POLYLINE
 8
Group#25
 66
     1
70
    8
 10
0.0
 20
 0.0
 30
0.0
  0
VERTEX
  8
MY3DLAYER
10
362.359958414237
20
2509.99218460733
30
1.07144626504407e-11
 70
     32
  0
VERTEX
  8
MY3DLAYER
10
238.359958414238
20
2509.99218460733
30
8.080613955741e-12
 70
     32
  0
VERTEX
  8
MY3DLAYER
10
238.359958414238
20
2544.99218460733
30
8.27942159276063e-12
 70
     32
  0
VERTEX
  8
MY3DLAYER
10
362.359958414238
20
2544.99218460733
30
1.22217347353626e-11
 70
     32
  0
VERTEX
  8
MY3DLAYER
10
362.359958414237
20
2509.99218460733
30
1.07144626504407e-11
 70
     32
  0
SEQEND
  0
LINE
 8
Group#25
10
363.750211106894
20
2565.29496021304
30
-0.285163836345697
11
363.860985478714
21
2565.93601420509
31
-0.281786391270206
  0
LINE
 8
Group#25
10
363.860985478714
20
2565.93601420509
30
-0.281786391270206
11
364.133903746761
21
2566.52655766709
31
-0.279211944712362
  0
LINE
 8
Group#25
10
364.133903746761
20
2566.52655766709
30
-0.279211944712362
11
364.550366982087
21
2567.02634603802
31
-0.277615940950876
  0
LINE
 8
Group#25
10
364.908481158631
20
2563.08846989328
30
-0.301626178580674
11
364.726887890843
21
2563.23978314931
31
-0.300176253192157
  0
LINE
 8
Group#25
10
364.550366982087
20
2567.02634603802
30
-0.277615940950876
11
365.081993903443
21
2567.40131956633
31
-0.277107145004456
  0
LINE
 8
Group#25
10
365.081993903443
20
2567.40131956633
30
-0.277107145004456
11
365.692555014692
21
2567.62592442575
31
-0.277720230475956
  0
LINE
 8
Group#25
10
365.692555014692
20
2567.62592442575
30
-0.277720230475956
11
366.367980965552
21
2567.68009595252
31
-0.279527597698356
  0
LINE
 8
Group#25
10
368.446801793522
20
2566.35312574576
30
-0.293770959130732
11
368.539335230884
21
2566.10158001792
31
-0.295523561792099
  0
LINE
 8
Group#25
10
368.67139818868
20
2565.74257603205
30
-0.298024861839943
11
368.700857496072
21
2565.41863715607
31
-0.299999999986442
  0
LINE
 8
Group#25
10
368.730316803464
20
2565.0946982801
30
-0.301975138132942
11
368.619542431645
21
2564.45364428805
31
-0.305352583208523
  0
LINE
 8
Group#25
10
368.619542431645
20
2564.45364428805
30
-0.305352583208523
11
368.346624163598
21
2563.86310082605
31
-0.307927029766302
  0
LINE
 8
Group#25
10
368.346624163598
20
2563.86310082605
30
-0.307927029766302
11
367.930160928271
21
2563.36331245512
31
-0.309523033527809
  0
LINE
 8
Group#25
10
367.930160928271
20
2563.36331245512
30
-0.309523033527809
11
367.398534006916
21
2562.98833892681
31
-0.31003182947423
  0
LINE
 8
Group#25
10
367.398534006916
20
2562.98833892681
30
-0.31003182947423
11
366.787972895666
21
2562.76373406739
31
-0.309418744002729
  0
LINE
 8
Group#25
10
366.787972895666
20
2562.76373406739
30
-0.309418744002729
11
366.140086325255
21
2562.70480432686
31
-0.307725557874912
  0
LINE
 8
Group#25
10
366.140086325255
20
2562.70480432686
30
-0.307725557874912
11
365.499026694771
21
2562.81556566964
31
-0.305067658927256
  0
LINE
 8
Group#25
10
194.637488057048
20
2565.23807138002
30
-0.275635994703344
11
194.722683194744
21
2565.88509778911
31
-0.272143470940513
  0
LINE
 8
Group#25
10
198.387448151588
20
2567.40306571702
30
-0.274836450096003
11
198.905197239252
21
2567.00578247214
31
-0.278772035351184
  0
LINE
 8
Group#25
10
198.905197239252
20
2567.00578247214
30
-0.278772035351184
11
199.302476308839
21
2566.48803272496
31
-0.283029197636585
  0
LINE
 8
Group#25
10
199.302476308839
20
2566.48803272496
30
-0.283029197636585
11
199.552211448292
21
2565.88510026512
31
-0.287317818377718
  0
LINE
 8
Group#25
10
199.552211448292
20
2565.88510026512
30
-0.287317818377718
11
199.637383620564
21
2565.23807394338
31
-0.291345635158287
  0
LINE
 8
Group#25
10
199.637383620564
20
2565.23807394338
30
-0.291345635158287
11
199.552188482868
21
2564.59104753429
31
-0.29483815892121
  0
LINE
 8
Group#25
10
199.552188482868
20
2564.59104753429
30
-0.29483815892121
11
199.302431943047
21
2563.98811481837
31
-0.297557379943573
  0
LINE
 8
Group#25
10
199.302431943047
20
2563.98811481837
30
-0.297557379943573
11
198.905134496547
21
2563.47036466383
31
-0.299317987806293
  0
LINE
 8
Group#25
10
198.905134496547
20
2563.47036466383
30
-0.299317987806293
11
198.387371307782
21
2563.07308088806
31
-0.299999999993302
  0
LINE
 8
Group#25
10
198.387371307782
20
2563.07308088806
30
-0.299999999993302
11
197.784427082422
21
2562.82333772385
31
-0.299556938500955
  0
LINE
 8
Group#25
10
197.784427082422
20
2562.82333772385
30
-0.299556938500955
11
197.137391473014
21
2562.73815475511
31
-0.298018997237782
  0
LINE
 8
Group#25
10
197.137391473014
20
2562.73815475511
30
-0.298018997237782
11
196.490358887061
21
2562.8233370604
31
-0.295490984359459
  0
LINE
 8
Group#25
10
196.490358887061
20
2562.8233370604
30
-0.295490984359459
11
195.887423526024
21
2563.07307960638
31
-0.292145179765674
  0
LINE
 8
Group#25
10
195.887423526024
20
2563.07307960638
30
-0.292145179765674
11
195.36967443836
21
2563.47036285126
31
-0.288209594510493
  0
LINE
 8
Group#25
10
195.36967443836
20
2563.47036285126
30
-0.288209594510493
11
194.972395368773
21
2563.98811259844
31
-0.283952432225091
  0
LINE
 8
Group#25
10
194.972395368773
20
2563.98811259844
30
-0.283952432225091
11
194.72266022932
21
2564.59104505827
31
-0.279663811484005
  0
LINE
 8
Group#25
10
194.72266022932
20
2564.59104505827
30
-0.279663811484005
11
194.637488057048
21
2565.23807138002
31
-0.275635994703344
  0
LINE
 8
Group#25
10
194.722683194744
20
2565.88509778911
30
-0.272143470940513
11
194.972439734565
21
2566.48803050502
31
-0.269424249918103
  0
LINE
 8
Group#25
10
194.972439734565
20
2566.48803050502
30
-0.269424249918103
11
195.369737181065
21
2567.00578065957
31
-0.26766364205543
  0
LINE
 8
Group#25
10
195.369737181065
20
2567.00578065957
30
-0.26766364205543
11
195.88750036983
21
2567.40306443534
31
-0.266981629868421
  0
LINE
 8
Group#25
10
195.88750036983
20
2567.40306443534
30
-0.266981629868421
11
196.49044459519
21
2567.65280759955
31
-0.267424691360743
  0
LINE
 8
Group#25
10
196.49044459519
20
2567.65280759955
30
-0.267424691360743
11
197.137480204598
21
2567.73799056828
31
-0.268962632623851
  0
LINE
 8
Group#25
10
197.137480204598
20
2567.73799056828
30
-0.268962632623851
11
197.784512790551
21
2567.652808263
31
-0.271490645502218
  0
LINE
 8
Group#25
10
197.784512790551
20
2567.652808263
30
-0.271490645502218
11
198.387448151588
21
2567.40306571702
31
-0.274836450096003
  0
POLYLINE
 8
Group#25
 66
     1
70
    8
 10
0.0
 20
 0.0
 30
0.0
  0
VERTEX
  8
MY3DLAYER
10
233.905365816076
20
2567.4458492074
30
-0.283834187340451
 70
     32
  0
VERTEX
  8
MY3DLAYER
10
234.451682116087
20
2567.09349284801
30
-0.287598437210668
 70
     32
  0
VERTEX
  8
MY3DLAYER
10
234.888182931426
20
2566.61174570188
30
-0.29176960427313
 70
     32
  0
VERTEX
  8
MY3DLAYER
10
235.18512145288
20
2566.03343804089
30
-0.29606343038561
 70
     32
  0
VERTEX
  8
MY3DLAYER
10
235.322261810926
20
2565.39798057643
30
-0.300187298394529
 70
     32
  0
VERTEX
  8
MY3DLAYER
10
235.290258116798
20
2564.74867868456
30
-0.303860173510036
 70
     32
  0
VERTEX
  8
MY3DLAYER
10
235.091291369363
20
2564.1297812162
30
-0.306831755362709
 70
     32
  0
VERTEX
  8
MY3DLAYER
10
234.738920823649
20
2563.58346501103
30
-0.308899535560174
 70
     32
  0
VERTEX
  8
MY3DLAYER
10
234.257159950029
20
2563.1469606156
30
-0.309922598298958
 70
     32
  0
VERTEX
  8
MY3DLAYER
10
233.67883995589
20
2562.85001508312
30
-0.309831223544271
 70
     32
  0
VERTEX
  8
MY3DLAYER
10
233.043372393116
20
2562.71286476089
30
-0.308631638334548
 70
     32
  0
VERTEX
  8
MY3DLAYER
10
232.394063325949
20
2562.74485621671
30
-0.306405592419445
 70
     32
  0
VERTEX
  8
MY3DLAYER
10
231.775162094282
20
2562.94380928575
30
-0.303304787149397
 70
     32
  0
VERTEX
  8
MY3DLAYER
10
231.228845794272
20
2563.29616564513
30
-0.299540537279159
 70
     32
  0
VERTEX
  8
MY3DLAYER
10
230.792344978933
20
2563.77791279126
30
-0.295369370216718
 70
     32
  0
VERTEX
  8
MY3DLAYER
10
230.495406457479
20
2564.35622045226
30
-0.291075544104286
 70
     32
  0
VERTEX
  8
MY3DLAYER
10
230.358266099433
20
2564.99167791672
30
-0.286951676095275
 70
     32
  0
VERTEX
  8
MY3DLAYER
10
230.390269793561
20
2565.64097980859
30
-0.283278800979859
 70
     32
  0
VERTEX
  8
MY3DLAYER
10
230.589236540996
20
2566.25987727695
30
-0.28030721912714
 70
     32
  0
VERTEX
  8
MY3DLAYER
10
230.941607086709
20
2566.80619348212
30
-0.27823943892972
 70
     32
  0
VERTEX
  8
MY3DLAYER
10
231.42336796033
20
2567.24269787755
30
-0.277216376190938
 70
     32
  0
VERTEX
  8
MY3DLAYER
10
232.001687954468
20
2567.53964341003
30
-0.277307750945625
 70
     32
  0
VERTEX
  8
MY3DLAYER
10
232.637155517243
20
2567.67679373226
30
-0.278507336155347
 70
     32
  0
VERTEX
  8
MY3DLAYER
10
233.28646458441
20
2567.64480227644
30
-0.280733382070405
 70
     32
  0
VERTEX
  8
MY3DLAYER
10
233.905365816076
20
2567.4458492074
30
-0.283834187340451
 70
     32
  0
SEQEND
  0
POLYLINE
 8
Group#25
 66
     1
70
    8
 10
0.0
 20
 0.0
 30
0.0
  0
VERTEX
  8
MY3DLAYER
10
241.972502554733
20
2563.42711943613
30
-0.298288266824163
 70
     32
  0
VERTEX
  8
MY3DLAYER
10
241.575223485146
20
2563.94486918331
30
-0.29403110453876
 70
     32
  0
VERTEX
  8
MY3DLAYER
10
241.325488345693
20
2564.54780164315
30
-0.289742483797581
 70
     32
  0
VERTEX
  8
MY3DLAYER
10
241.240316173421
20
2565.19482796489
30
-0.285714667016923
 70
     32
  0
VERTEX
  8
MY3DLAYER
10
241.325511311117
20
2565.84185437398
30
-0.282222143254089
 70
     32
  0
VERTEX
  8
MY3DLAYER
10
241.575267850938
20
2566.4447870899
30
-0.279502922231773
 70
     32
  0
VERTEX
  8
MY3DLAYER
10
241.972565297438
20
2566.96253724445
30
-0.277742314369053
 70
     32
  0
VERTEX
  8
MY3DLAYER
10
242.490328486203
20
2567.35982102021
30
-0.277060302181997
 70
     32
  0
VERTEX
  8
MY3DLAYER
10
243.093272711563
20
2567.60956418442
30
-0.277503363674389
 70
     32
  0
VERTEX
  8
MY3DLAYER
10
243.740308320971
20
2567.69474715316
30
-0.27904130493752
 70
     32
  0
VERTEX
  8
MY3DLAYER
10
244.387340906924
20
2567.60956484787
30
-0.281569317815841
 70
     32
  0
VERTEX
  8
MY3DLAYER
10
244.990276267961
20
2567.35982230189
30
-0.284915122409626
 70
     32
  0
VERTEX
  8
MY3DLAYER
10
245.508025355625
20
2566.96253905702
30
-0.288850707664806
 70
     32
  0
VERTEX
  8
MY3DLAYER
10
245.905304425212
20
2566.44478930983
30
-0.293107869950209
 70
     32
  0
VERTEX
  8
MY3DLAYER
10
246.155039564665
20
2565.84185685
30
-0.297396490691296
 70
     32
  0
VERTEX
  8
MY3DLAYER
10
246.240211736937
20
2565.19483052825
30
-0.301424307471955
 70
     32
  0
VERTEX
  8
MY3DLAYER
10
246.155016599241
20
2564.54780411917
30
-0.304916831234788
 70
     32
  0
VERTEX
  8
MY3DLAYER
10
245.90526005942
20
2563.94487140325
30
-0.307636052257196
 70
     32
  0
VERTEX
  8
MY3DLAYER
10
245.50796261292
20
2563.4271212487
30
-0.309396660119871
 70
     32
  0
VERTEX
  8
MY3DLAYER
10
244.990199424155
20
2563.02983747294
30
-0.31007867230688
 70
     32
  0
VERTEX
  8
MY3DLAYER
10
244.387255198796
20
2562.78009430872
30
-0.309635610814556
 70
     32
  0
VERTEX
  8
MY3DLAYER
10
243.740219589387
20
2562.69491133999
30
-0.30809766955145
 70
     32
  0
VERTEX
  8
MY3DLAYER
10
243.093187003434
20
2562.78009364528
30
-0.305569656673127
 70
     32
  0
VERTEX
  8
MY3DLAYER
10
242.490251642397
20
2563.02983619125
30
-0.302223852079296
 70
     32
  0
VERTEX
  8
MY3DLAYER
10
241.972502554733
20
2563.42711943613
30
-0.298288266824163
 70
     32
  0
SEQEND
  0
LINE
 8
Group#25
10
363.804353426637
20
2564.6996033037
30
-0.288793879633564
11
363.750211106894
21
2565.29496021304
31
-0.285163836345697
  0
LINE
 8
Group#25
10
367.055136857597
20
2567.54006415596
30
-0.282500436761079
11
367.572046751727
21
2567.30118859986
31
-0.285512795898057
  0
LINE
 8
Group#25
10
368.266778616572
20
2566.63240228153
30
-0.291582305865044
11
368.312167518251
21
2566.54400435513
31
-0.292238643918774
  0
LINE
 8
Group#25
10
365.499026694771
20
2562.81556566964
30
-0.305067658927256
11
365.095477699284
21
2563.00205463378
31
-0.302715925060974
  0
LINE
 8
Group#25
10
368.563717138026
20
2566.05409462054
30
-0.295876131977522
11
368.573530810887
21
2566.00862170678
31
-0.296171233231017
  0
LINE
 8
Group#25
10
368.700857496072
20
2565.41863715607
30
-0.299999999986442
11
368.730316803464
21
2565.0946982801
31
-0.301975138132942
  0
LINE
 8
Group#25
10
365.095477699284
20
2563.00205463378
30
-0.302715925060974
11
364.726887890843
21
2563.23978314931
31
-0.300176253192157
  0
LINE
 8
Group#25
10
364.133903746761
20
2566.52655766709
30
-0.279211944712362
11
364.320202771856
21
2566.82685006177
31
-0.278052140521634
  0
LINE
 8
Group#25
10
368.539335230884
20
2566.10158001792
30
-0.295523561792099
11
368.563717138026
21
2566.05409462054
31
-0.295876131977522
  0
LINE
 8
Group#25
10
368.312167518251
20
2566.54400435513
30
-0.292238643918774
11
368.539335230884
21
2566.10158001792
31
-0.295523561792099
  0
LINE
 8
Group#25
10
365.081993903443
20
2567.40131956633
30
-0.277107145004456
11
365.380283639615
21
2567.56029998968
31
-0.277120452537538
  0
LINE
 8
Group#25
10
363.860985478714
20
2565.93601420509
30
-0.281786391270206
11
363.967832226143
21
2566.2805338566
31
-0.280119920719054
  0
LINE
 8
Group#25
10
368.071833491157
20
2566.88473946723
30
-0.289503326445184
11
368.190218422636
21
2566.71689846949
31
-0.290850702743107
  0
LINE
 8
Group#25
10
367.934317955115
20
2566.99932479171
30
-0.288405338235412
11
368.071833491157
21
2566.88473946723
31
-0.289503326445184
  0
LINE
 8
Group#25
10
364.033726116836
20
2564.03653274738
30
-0.293368015347953
11
363.995754230528
21
2564.13975668514
31
-0.292648819877485
  0
LINE
 8
Group#25
10
364.088974441546
20
2563.95820407981
30
-0.29399681398188
11
364.033726116836
21
2564.03653274738
31
-0.293368015347953
  0
LINE
 8
Group#25
10
364.408694419201
20
2563.50491902591
30
-0.297635648033547
11
364.309198027911
21
2563.64598067436
31
-0.296503248177555
  0
LINE
 8
Group#25
10
364.524269090839
20
2563.40861600712
30
-0.298558450143389
11
364.408694419201
21
2563.50491902591
31
-0.297635648033547
  0
LINE
 8
Group#25
10
364.550366982087
20
2567.02634603802
30
-0.277615940950876
11
364.801963645476
21
2567.26335445719
31
-0.277029077782806
  0
LINE
 8
Group#25
10
363.750211106894
20
2565.29496021304
30
-0.285163836345697
11
363.768865478707
21
2565.66163638824
31
-0.283091502571726
  0
LINE
 8
Group#25
10
366.367980965552
20
2567.68009595252
30
-0.279527597698356
11
367.055136857597
21
2567.54006415596
31
-0.282500436761079
  0
LINE
 8
Group#25
10
367.572046751727
20
2567.30118859986
30
-0.285512795898057
11
367.680862553727
21
2567.21051743397
31
-0.286381632038784
  0
LINE
 8
Group#25
10
368.573530810887
20
2566.00862170678
30
-0.296171233231017
11
368.700857496072
21
2565.41863715607
31
-0.299999999986442
  0
LINE
 8
Group#25
10
363.995754230528
20
2564.13975668514
30
-0.292648819877485
11
363.804353426637
21
2564.6996033037
31
-0.288793879633564
  0
LINE
 8
Group#25
10
365.692555014692
20
2567.62592442575
30
-0.277720230475956
11
366.015751202389
21
2567.69745031191
31
-0.278320037747261
  0
LINE
 8
Group#25
10
368.312167518251
20
2566.54400435513
30
-0.292238643918774
11
368.446801793522
21
2566.35312574576
31
-0.293770959130732
  0
LINE
 8
Group#25
10
365.095477699284
20
2563.00205463378
30
-0.302715925060974
11
364.908481158631
21
2563.08846989328
31
-0.301626178580674
  0
LINE
 8
Group#25
10
368.573530810887
20
2566.00862170678
30
-0.296171233231017
11
368.67139818868
21
2565.74257603205
31
-0.298024861839943
  0
LINE
 8
Group#25
10
364.726887890843
20
2563.23978314931
30
-0.300176253192157
11
364.607441479418
21
2563.31682222478
31
-0.299353238871094
  0
LINE
 8
Group#25
10
366.367980965552
20
2567.68009595252
30
-0.279527597698356
11
366.665060269556
21
2567.66545885609
31
-0.280546083662317
  0
LINE
 8
Group#25
10
368.190218422636
20
2566.71689846949
30
-0.290850702743107
11
368.266778616572
21
2566.63240228153
31
-0.291582305865044
  0
LINE
 8
Group#25
10
363.995754230528
20
2564.13975668514
30
-0.292648819877485
11
363.874002142625
21
2564.37687703191
31
-0.2908882456962
  0
LINE
 8
Group#25
10
364.309198027911
20
2563.64598067436
30
-0.296503248177555
11
364.170940664079
21
2563.79856937091
31
-0.295182071808632
  0
LINE
 8
Group#25
10
367.055136857597
20
2567.54006415596
30
-0.282500436761079
11
367.283961501223
21
2567.46650578705
31
-0.283646888932365
  0
LINE
 8
Group#25
10
367.680862553727
20
2567.21051743397
30
-0.286381632038784
11
367.830277801233
21
2567.11414942766
31
-0.287411138802603
  0
LINE
 8
Group#25
10
363.804353426637
20
2564.6996033037
30
-0.288793879633564
11
363.736861784579
21
2565.01233449637
31
-0.286764377687188
  0
LINE
 8
Group#25
10
185.284570886209
20
2563.26567178219
30
0.00736274724682935
11
185.097574345556
21
2563.35208704168
31
0.00845249372712812
  0
LINE
 8
Group#25
10
188.501260705176
20
2566.80762150354
30
0.01784002838903
11
188.635894980447
21
2566.61674289416
31
0.0163077131770711
  0
LINE
 8
Group#25
10
184.915981077768
20
2563.50340029771
30
0.00990241911564478
11
184.796534666343
21
2563.58043937319
31
0.0107254334366856
  0
LINE
 8
Group#25
10
183.939304293819
20
2565.55857736144
30
0.0249148359621053
11
183.957958665632
21
2565.92525353664
31
0.026987169736077
  0
LINE
 8
Group#25
10
183.993446613562
20
2564.96322045211
30
0.0212847926742843
11
183.939304293819
21
2565.55857736144
31
0.0249148359621053
  0
LINE
 8
Group#25
10
184.184847417453
20
2564.40337383355
30
0.0174298524303176
11
183.993446613562
21
2564.96322045211
31
0.0212847926742843
  0
LINE
 8
Group#25
10
188.762623997812
20
2566.27223885519
30
0.0139074390767868
11
188.860491375605
21
2566.00619318045
31
0.0120538104678596
  0
LINE
 8
Group#25
10
186.557074152477
20
2567.94371310092
30
0.0305510746094459
11
187.244230044522
21
2567.80368130437
31
0.0275782355467248
  0
LINE
 8
Group#25
10
184.597787606126
20
2563.76853617432
30
0.0124430242742548
11
184.498291214836
21
2563.90959782276
31
0.0135754241302472
  0
LINE
 8
Group#25
10
188.260926678082
20
2567.14835661563
30
0.0205753458626186
11
188.379311609562
21
2566.98051561789
31
0.0192279695646948
  0
LINE
 8
Group#25
10
184.222819303761
20
2564.30014989579
30
0.0167106569598503
11
184.184847417453
21
2564.40337383355
31
0.0174298524303176
  0
LINE
 8
Group#25
10
184.322996933686
20
2566.7901748155
30
0.0308667275954194
11
184.509295958781
21
2567.09046721018
31
0.0320265317861684
  0
LINE
 8
Group#25
10
185.271087090368
20
2567.66493671474
30
0.0329715273033462
11
185.56937682654
21
2567.82391713808
31
0.0329582197702646
  0
LINE
 8
Group#25
10
188.728428417809
20
2566.36519716633
30
0.0145551105157027
11
188.752810324951
21
2566.31771176894
31
0.0142025403302797
  0
LINE
 8
Group#25
10
185.284570886209
20
2563.26567178219
30
0.00736274724682935
11
184.915981077768
21
2563.50340029771
31
0.00990241911564478
  0
LINE
 8
Group#25
10
187.761139938653
20
2567.56480574827
30
0.0245658764097453
11
187.869955740652
21
2567.47413458238
31
0.0236970402690193
  0
LINE
 8
Group#25
10
188.889950682997
20
2565.68225430448
30
0.0100786723213597
11
188.919409990389
21
2565.35831542851
31
0.00810353417485832
  0
LINE
 8
Group#25
10
188.762623997812
20
2566.27223885519
30
0.0139074390767868
11
188.889950682997
21
2565.68225430448
31
0.0100786723213597
  0
LINE
 8
Group#25
10
188.501260705176
20
2566.80762150354
30
0.01784002838903
11
188.728428417809
21
2566.36519716633
31
0.0145551105157027
  0
LINE
 8
Group#25
10
188.752810324951
20
2566.31771176894
30
0.0142025403302797
11
188.762623997812
21
2566.27223885519
31
0.0139074390767868
  0
LINE
 8
Group#25
10
187.244230044522
20
2567.80368130437
30
0.0275782355467248
11
187.761139938653
21
2567.56480574827
31
0.0245658764097453
  0
LINE
 8
Group#25
10
186.557074152477
20
2567.94371310092
30
0.0305510746094459
11
186.854153456481
21
2567.92907600449
31
0.0295325886454847
  0
LINE
 8
Group#25
10
188.379311609562
20
2566.98051561789
30
0.0192279695646948
11
188.455871803497
21
2566.89601942994
31
0.018496366442758
  0
LINE
 8
Group#25
10
187.244230044522
20
2567.80368130437
30
0.0275782355467248
11
187.473054688148
21
2567.73012293545
31
0.0264317833754388
  0
LINE
 8
Group#25
10
184.278067628471
20
2564.22182122822
30
0.0160818583259222
11
184.222819303761
21
2564.30014989579
31
0.0167106569598503
  0
LINE
 8
Group#25
10
184.184847417453
20
2564.40337383355
30
0.0174298524303176
11
184.06309532955
21
2564.64049418031
31
0.0191904266116034
  0
LINE
 8
Group#25
10
184.498291214836
20
2563.90959782276
30
0.0135754241302472
11
184.360033851004
21
2564.06218651932
31
0.0148966004991717
  0
LINE
 8
Group#25
10
184.739460169012
20
2567.28996318642
30
0.0324627313569252
11
184.991056832401
21
2567.5269716056
31
0.0330495945249974
  0
LINE
 8
Group#25
10
185.688119881696
20
2563.07918281805
30
0.00501101338054789
11
185.284570886209
21
2563.26567178219
31
0.00736274724682935
  0
LINE
 8
Group#25
10
188.12341114204
20
2567.26294194011
30
0.0216733340723898
11
188.260926678082
21
2567.14835661563
31
0.0205753458626186
  0
LINE
 8
Group#25
10
183.993446613562
20
2564.96322045211
30
0.0212847926742843
11
183.925954971504
21
2565.27595164478
31
0.0233142946206151
  0
LINE
 8
Group#25
10
185.881648201617
20
2567.88954157416
30
0.0323584418318471
11
186.204844389314
21
2567.96106746032
31
0.0317586345605415
  0
LINE
 8
Group#25
10
184.050078665639
20
2566.1996313535
30
0.0282922810375961
11
184.156925413068
21
2566.54415100501
31
0.0299587515887498
  0
LINE
 8
Group#25
10
187.869955740652
20
2567.47413458238
30
0.0236970402690193
11
188.019370988158
21
2567.37776657607
31
0.0226675335051989
  0
LINE
 8
Group#25
10
184.713362277764
20
2563.67223315553
30
0.0115202221644132
11
184.597787606126
21
2563.76853617432
31
0.0124430242742548
  0
LINE
 8
Group#25
10
188.455871803497
20
2566.89601942994
30
0.018496366442758
11
188.501260705176
21
2566.80762150354
31
0.01784002838903
  0
LINE
 8
Group#25
10
63.9293127763128
20
2562.95852848839
30
0.00198100275635362
11
63.2822801903597
21
2563.04371079368
31
0.00450901563467539
  0
LINE
 8
Group#25
10
63.2822801903597
20
2563.04371079368
30
0.00450901563467539
11
62.6793448293229
21
2563.29345333966
31
0.00785482022846115
  0
LINE
 8
Group#25
10
62.6793448293229
20
2563.29345333966
30
0.00785482022846115
11
62.1615957416591
21
2563.69073658454
31
0.0117904054836406
  0
LINE
 8
Group#25
10
62.1615957416591
20
2563.69073658454
30
0.0117904054836406
11
61.764316672072
21
2564.20848633172
31
0.0160475677690434
  0
LINE
 8
Group#25
10
61.764316672072
20
2564.20848633172
30
0.0160475677690434
11
61.5145815326189
21
2564.81141879155
31
0.0203361885102192
  0
LINE
 8
Group#25
10
61.5145815326189
20
2564.81141879155
30
0.0203361885102192
11
61.4294093603471
21
2565.4584451133
31
0.0243640052908335
  0
LINE
 8
Group#25
10
61.4294093603471
20
2565.4584451133
30
0.0243640052908335
11
61.5146044980429
21
2566.10547152239
31
0.0278565290537129
  0
LINE
 8
Group#25
10
61.5146044980429
20
2566.10547152239
30
0.0278565290537129
11
61.7643610378641
21
2566.7084042383
31
0.0305757500760308
  0
LINE
 8
Group#25
10
61.7643610378641
20
2566.7084042383
30
0.0305757500760308
11
62.1616584843642
21
2567.22615439285
31
0.0323363579387509
  0
LINE
 8
Group#25
10
183.939304293819
20
2565.55857736144
30
0.0249148359621053
11
184.050078665639
21
2566.1996313535
31
0.0282922810375961
  0
LINE
 8
Group#25
10
184.050078665639
20
2566.1996313535
30
0.0282922810375961
11
184.322996933686
21
2566.7901748155
31
0.0308667275954194
  0
LINE
 8
Group#25
10
184.322996933686
20
2566.7901748155
30
0.0308667275954194
11
184.739460169012
21
2567.28996318642
31
0.0324627313569252
  0
LINE
 8
Group#25
10
62.1616584843642
20
2567.22615439285
30
0.0323363579387509
11
62.6794216731291
21
2567.62343816862
31
0.0330183701257599
  0
LINE
 8
Group#25
10
62.6794216731291
20
2567.62343816862
30
0.0330183701257599
11
63.2823658984888
21
2567.87318133283
31
0.0325753086334133
  0
LINE
 8
Group#25
10
63.2823658984888
20
2567.87318133283
30
0.0325753086334133
11
63.9294015078972
21
2567.95836430157
31
0.0310373673702833
  0
LINE
 8
Group#25
10
63.9294015078972
20
2567.95836430157
30
0.0310373673702833
11
64.5764340938503
21
2567.87318199628
31
0.0285093544919615
  0
LINE
 8
Group#25
10
64.5764340938503
20
2567.87318199628
30
0.0285093544919615
11
65.1793694548871
21
2567.6234394503
31
0.0251635498982223
  0
LINE
 8
Group#25
10
65.1793694548871
20
2567.6234394503
30
0.0251635498982223
11
65.6971185425509
21
2567.22615620542
31
0.0212279646429963
  0
LINE
 8
Group#25
10
65.6971185425509
20
2567.22615620542
30
0.0212279646429963
11
66.0943976121382
21
2566.70840645824
31
0.0169708023575936
  0
LINE
 8
Group#25
10
66.0943976121382
20
2566.70840645824
30
0.0169708023575936
11
66.3441327515912
21
2566.1054739984
31
0.0126821816165079
  0
LINE
 8
Group#25
10
66.3441327515912
20
2566.1054739984
30
0.0126821816165079
11
66.4293049238631
21
2565.45844767666
31
0.00865436483584713
  0
LINE
 8
Group#25
10
66.4293049238631
20
2565.45844767666
30
0.00865436483584713
11
66.3441097861672
21
2564.81142126757
31
0.00516184107301432
  0
LINE
 8
Group#25
10
66.3441097861672
20
2564.81142126757
30
0.00516184107301432
11
66.0943532463459
21
2564.20848855165
31
0.00244262005060616
  0
LINE
 8
Group#25
10
66.0943532463459
20
2564.20848855165
30
0.00244262005060616
11
65.6970557998459
21
2563.69073839711
31
0.000682012187931136
  0
LINE
 8
Group#25
10
65.6970557998459
20
2563.69073839711
30
0.000682012187931136
11
65.1792926110809
21
2563.29345462134
31
9.23539023034436e-13
  0
LINE
 8
Group#25
10
65.1792926110809
20
2563.29345462134
30
9.23539023034436e-13
11
64.5763483857214
21
2563.04371145713
31
0.000443061493223662
  0
LINE
 8
Group#25
10
64.5763483857214
20
2563.04371145713
30
0.000443061493223662
11
63.9293127763128
21
2562.95852848839
31
0.00198100275635362
  0
LINE
 8
Group#25
10
185.097574345556
20
2563.35208704168
30
0.00845249372712812
11
184.915981077768
21
2563.50340029771
31
0.00990241911564478
  0
LINE
 8
Group#25
10
184.739460169012
20
2567.28996318642
30
0.0324627313569252
11
185.271087090368
21
2567.66493671474
31
0.0329715273033462
  0
LINE
 8
Group#25
10
185.271087090368
20
2567.66493671474
30
0.0329715273033462
11
185.881648201617
21
2567.88954157416
31
0.0323584418318471
  0
LINE
 8
Group#25
10
185.881648201617
20
2567.88954157416
30
0.0323584418318471
11
186.557074152477
21
2567.94371310092
31
0.0305510746094459
  0
LINE
 8
Group#25
10
188.635894980447
20
2566.61674289416
30
0.0163077131770711
11
188.728428417809
21
2566.36519716633
31
0.0145551105157027
  0
LINE
 8
Group#25
10
188.860491375605
20
2566.00619318045
30
0.0120538104678596
11
188.889950682997
21
2565.68225430448
31
0.0100786723213597
  0
LINE
 8
Group#25
10
188.919409990389
20
2565.35831542851
30
0.00810353417485832
11
188.80863561857
21
2564.71726143645
31
0.00472608909927875
  0
LINE
 8
Group#25
10
188.80863561857
20
2564.71726143645
30
0.00472608909927875
11
188.535717350523
21
2564.12671797445
31
0.00215164254150192
  0
LINE
 8
Group#25
10
188.535717350523
20
2564.12671797445
30
0.00215164254150192
11
188.119254115197
21
2563.62692960353
31
0.000555638779993339
  0
LINE
 8
Group#25
10
188.119254115197
20
2563.62692960353
30
0.000555638779993339
11
187.587627193841
21
2563.25195607521
31
4.68428335722915e-05
  0
LINE
 8
Group#25
10
187.587627193841
20
2563.25195607521
30
4.68428335722915e-05
11
186.977066082592
21
2563.02735121579
31
0.000659928305074264
  0
LINE
 8
Group#25
10
186.977066082592
20
2563.02735121579
30
0.000659928305074264
11
186.32917951218
21
2562.96842147526
31
0.00235311443289009
  0
LINE
 8
Group#25
10
186.32917951218
20
2562.96842147526
30
0.00235311443289009
11
185.688119881696
21
2563.07918281805
31
0.00501101338054789
  0
LINE
 8
Group#25
10
328.10127887989
20
2565.90575436875
30
-0.271956172532425
11
328.351035419711
21
2566.50868708467
31
-0.269236951510017
  0
LINE
 8
Group#25
10
329.266096054976
20
2567.42372101498
30
-0.266794331460333
11
329.869040280336
21
2567.6734641792
31
-0.26723739295268
  0
LINE
 8
Group#25
10
328.350991053919
20
2564.00876917809
30
-0.283765133817004
11
328.101255914466
21
2564.61170163792
31
-0.279476513075917
  0
LINE
 8
Group#25
10
330.516075889745
20
2567.75864714793
30
-0.268775334215764
11
331.163108475698
21
2567.67346484264
31
-0.271303347094131
  0
LINE
 8
Group#25
10
332.930784168015
20
2564.61170411394
30
-0.294650860513124
11
332.681027628193
21
2564.00877139802
31
-0.297370081535485
  0
LINE
 8
Group#25
10
331.163022767569
20
2562.8439943035
30
-0.299369640092869
11
330.51598715816
21
2562.75881133476
31
-0.297831698829694
  0
LINE
 8
Group#25
10
329.26601921117
20
2563.09373618603
30
-0.291957881357632
11
328.748270123506
21
2563.4910194309
31
-0.28802229610243
  0
LINE
 8
Group#25
10
332.681027628193
20
2564.00877139802
30
-0.297370081535485
11
332.283730181693
21
2563.49102124347
31
-0.299130689398205
  0
LINE
 8
Group#25
10
328.748270123506
20
2563.4910194309
30
-0.28802229610243
11
328.350991053919
21
2564.00876917809
31
-0.283765133817004
  0
LINE
 8
Group#25
10
328.351035419711
20
2566.50868708467
30
-0.269236951510017
11
328.748332866211
21
2567.02643723922
31
-0.267476343647342
  0
LINE
 8
Group#25
10
329.868954572207
20
2562.84399364005
30
-0.295303685951372
11
329.26601921117
21
2563.09373618603
31
-0.291957881357632
  0
LINE
 8
Group#25
10
328.016083742194
20
2565.25872795967
30
-0.275448696295258
11
328.10127887989
21
2565.90575436875
31
-0.271956172532425
  0
LINE
 8
Group#25
10
328.748332866211
20
2567.02643723922
30
-0.267476343647342
11
329.266096054976
21
2567.42372101498
31
-0.266794331460333
  0
LINE
 8
Group#25
10
332.283792924398
20
2567.02643905179
30
-0.278584736943095
11
332.681071993985
21
2566.50868930461
31
-0.282841899228498
  0
LINE
 8
Group#25
10
331.163108475698
20
2567.67346484264
30
-0.271303347094131
11
331.766043836734
21
2567.42372229667
31
-0.274649151687917
  0
LINE
 8
Group#25
10
328.101255914466
20
2564.61170163792
30
-0.279476513075917
11
328.016083742194
21
2565.25872795967
31
-0.275448696295258
  0
LINE
 8
Group#25
10
330.51598715816
20
2562.75881133476
30
-0.297831698829694
11
329.868954572207
21
2562.84399364005
31
-0.295303685951372
  0
LINE
 8
Group#25
10
329.869040280336
20
2567.6734641792
30
-0.26723739295268
11
330.516075889745
21
2567.75864714793
31
-0.268775334215764
  0
LINE
 8
Group#25
10
331.766043836734
20
2567.42372229667
30
-0.274649151687917
11
332.283792924398
21
2567.02643905179
31
-0.278584736943095
  0
LINE
 8
Group#25
10
332.283730181693
20
2563.49102124347
30
-0.299130689398205
11
331.765966992928
21
2563.09373746771
31
-0.299812701585216
  0
LINE
 8
Group#25
10
332.930807133438
20
2565.90575684477
30
-0.287130519969631
11
333.01597930571
21
2565.25873052303
31
-0.291158336750199
  0
LINE
 8
Group#25
10
333.01597930571
20
2565.25873052303
30
-0.291158336750199
11
332.930784168015
21
2564.61170411394
31
-0.294650860513124
  0
LINE
 8
Group#25
10
331.765966992928
20
2563.09373746771
30
-0.299812701585216
11
331.163022767569
21
2562.8439943035
31
-0.299369640092869
  0
LINE
 8
Group#25
10
332.681071993985
20
2566.50868930461
30
-0.282841899228498
11
332.930807133438
21
2565.90575684477
31
-0.287130519969631
  0
LINE
 8
Group#25
10
150.879825490433
20
2562.86293557843
30
0.000443061497522701
11
150.232789881024
21
2562.77775260969
31
0.00198100276065407
  0
LINE
 8
Group#25
10
149.585757295071
20
2562.86293491498
30
0.00450901563901955
11
148.982821934034
21
2563.11267746096
31
0.0078548202328053
  0
LINE
 8
Group#25
10
137.28491527057
20
2563.86075406097
30
0.0147093020953393
11
136.987976749116
21
2564.43906172196
31
0.0190031282078613
  0
LINE
 8
Group#25
10
141.677691744517
20
2566.11627931059
30
0.014015241926539
11
141.814832102563
21
2565.48082184613
31
0.00989137391757241
  0
LINE
 8
Group#25
10
149.5858430032
20
2567.69240545413
30
0.0325753086377574
11
150.232878612608
21
2567.77758842286
31
0.0310373673745838
  0
LINE
 8
Group#25
10
141.782828408435
20
2564.83151995426
30
0.00621849880206682
11
141.583861661
21
2564.2126224859
31
0.00324691694934754
  0
LINE
 8
Group#25
10
151.482846559598
20
2567.4426635716
30
0.0251635499024762
11
152.000595647262
21
2567.04538032672
31
0.0212279646472968
  0
LINE
 8
Group#25
10
148.98289877784
20
2567.44266228992
30
0.0330183701300604
11
149.5858430032
21
2567.69240545413
31
0.0325753086377574
  0
LINE
 8
Group#25
10
137.434177378346
20
2566.88903475183
30
0.0318392333824051
11
137.915938251967
21
2567.32553914725
31
0.032862296121165
  0
LINE
 8
Group#25
10
140.944252407724
20
2567.17633411772
30
0.0224802351014117
11
141.380753223063
21
2566.69458697159
31
0.0183090680389707
  0
LINE
 8
Group#25
10
152.647586890879
20
2564.63064538887
30
0.0051618410772908
11
152.397830351057
21
2564.02771267295
31
0.00244262005490661
  0
LINE
 8
Group#25
10
152.647609856303
20
2565.9246981197
30
0.0126821816207619
11
152.732782028575
21
2565.27767179796
31
0.0086543648401927
  0
LINE
 8
Group#25
10
141.583861661
20
2564.2126224859
30
0.00324691694934754
11
141.231491115287
21
2563.66630628073
31
0.00117913675197265
  0
LINE
 8
Group#25
10
152.000532904557
20
2563.50996251841
30
0.000682012192186465
11
151.482769715792
21
2563.11267874264
31
5.17604847871667e-12
  0
LINE
 8
Group#25
10
148.465135589076
20
2567.04537851415
30
0.03233635794305
11
148.98289877784
21
2567.44266228992
31
0.0330183701300604
  0
LINE
 8
Group#25
10
136.987976749116
20
2564.43906172196
30
0.0190031282078613
11
136.85083639107
21
2565.07451918643
31
0.0231269962168265
  0
LINE
 8
Group#25
10
150.879911198562
20
2567.69240611758
30
0.0285093544962606
11
151.482846559598
21
2567.4426635716
31
0.0251635499024762
  0
LINE
 8
Group#25
10
147.81805863733
20
2564.63064291285
30
0.0203361885144746
11
147.732886465058
21
2565.2776692346
31
0.024364005295134
  0
LINE
 8
Group#25
10
138.267732385919
20
2563.02665055545
30
0.00677388516265996
11
137.721416085909
21
2563.37900691484
31
0.010538135032897
  0
LINE
 8
Group#25
10
136.882840085198
20
2565.72382107829
30
0.0267998713322884
11
137.081806832633
21
2566.34271854666
31
0.0297714531849625
  0
LINE
 8
Group#25
10
141.814832102563
20
2565.48082184613
30
0.00989137391757241
11
141.782828408435
21
2564.83151995426
31
0.00621849880206682
  0
LINE
 8
Group#25
10
140.397936107713
20
2567.5286904771
30
0.0262444849716501
11
140.944252407724
21
2567.17633411772
31
0.0224802351014117
  0
LINE
 8
Group#25
10
151.482769715792
20
2563.11267874264
30
5.17604847871667e-12
11
150.879825490433
21
2562.86293557843
31
0.000443061497522701
  0
LINE
 8
Group#25
10
150.232878612608
20
2567.77758842286
30
0.0310373673745838
11
150.879911198562
21
2567.69240611758
31
0.0285093544962606
  0
LINE
 8
Group#25
10
147.732886465058
20
2565.2776692346
30
0.024364005295134
11
147.818081602754
21
2565.92469564369
31
0.0278565290579682
  0
LINE
 8
Group#25
10
137.721416085909
20
2563.37900691484
30
0.010538135032897
11
137.28491527057
21
2563.86075406097
31
0.0147093020953393
  0
LINE
 8
Group#25
10
147.818081602754
20
2565.92469564369
30
0.0278565290579682
11
148.067838142576
21
2566.5276283596
31
0.0305757500803749
  0
LINE
 8
Group#25
10
148.067838142576
20
2566.5276283596
30
0.0305757500803749
11
148.465135589076
21
2567.04537851415
31
0.03233635794305
  0
LINE
 8
Group#25
10
137.081806832633
20
2566.34271854666
30
0.0297714531849625
11
137.434177378346
21
2566.88903475183
31
0.0318392333824051
  0
LINE
 8
Group#25
10
152.732782028575
20
2565.27767179796
30
0.0086543648401927
11
152.647586890879
21
2564.63064538887
31
0.0051618410772908
  0
LINE
 8
Group#25
10
148.982821934034
20
2563.11267746096
30
0.0078548202328053
11
148.465072846371
21
2563.50996070584
31
0.0117904054879848
  0
LINE
 8
Group#25
10
137.915938251967
20
2567.32553914725
30
0.032862296121165
11
138.494258246105
21
2567.62248467973
31
0.0327709213665013
  0
LINE
 8
Group#25
10
140.171410247527
20
2562.93285635282
30
0.000247448767876424
11
139.535942684753
21
2562.79570603059
31
0.00144703397759954
  0
LINE
 8
Group#25
10
148.067793776783
20
2564.02771045302
30
0.0160475677733875
11
147.81805863733
21
2564.63064291285
31
0.0203361885144746
  0
LINE
 8
Group#25
10
139.779034876047
20
2567.72764354614
30
0.0293452902416974
11
140.397936107713
21
2567.5286904771
31
0.0262444849716501
  0
LINE
 8
Group#25
10
141.231491115287
20
2563.66630628073
30
0.00117913675197265
11
140.749730241666
21
2563.22980188531
31
0.000156074013145024
  0
LINE
 8
Group#25
10
152.39787471685
20
2566.52763057954
30
0.016970802361894
11
152.647609856303
21
2565.9246981197
31
0.0126821816207619
  0
LINE
 8
Group#25
10
138.494258246105
20
2567.62248467973
30
0.0327709213665013
11
139.12972580888
21
2567.75963500197
31
0.0315713361568008
  0
LINE
 8
Group#25
10
141.380753223063
20
2566.69458697159
30
0.0183090680389707
11
141.677691744517
21
2566.11627931059
31
0.014015241926539
  0
LINE
 8
Group#25
10
139.12972580888
20
2567.75963500197
30
0.0315713361568008
11
139.779034876047
21
2567.72764354614
31
0.0293452902416974
  0
LINE
 8
Group#25
10
136.85083639107
20
2565.07451918643
30
0.0231269962168265
11
136.882840085198
21
2565.72382107829
31
0.0267998713322884
  0
LINE
 8
Group#25
10
152.397830351057
20
2564.02771267295
30
0.00244262005490661
11
152.000532904557
21
2563.50996251841
31
0.000682012192186465
  0
LINE
 8
Group#25
10
152.000595647262
20
2567.04538032672
30
0.0212279646472968
11
152.39787471685
21
2566.52763057954
31
0.016970802361894
  0
LINE
 8
Group#25
10
140.749730241666
20
2563.22980188531
30
0.000156074013145024
11
140.171410247527
21
2562.93285635282
31
0.000247448767876424
  0
LINE
 8
Group#25
10
148.465072846371
20
2563.50996070584
30
0.0117904054879848
11
148.067793776783
21
2564.02771045302
31
0.0160475677733875
  0
LINE
 8
Group#25
10
150.232789881024
20
2562.77775260969
30
0.00198100276065407
11
149.585757295071
21
2562.86293491498
31
0.00450901563901955
  0
LINE
 8
Group#25
10
138.886633617586
20
2562.82769748642
30
0.00367307989261122
11
138.267732385919
21
2563.02665055545
31
0.00677388516265996
  0
LINE
 8
Group#25
10
139.535942684753
20
2562.79570603059
30
0.00144703397759954
11
138.886633617586
21
2562.82769748642
31
0.00367307989261122
  0
LINE
 8
Group#25
10
108.534832498123
20
2566.96551089348
30
0.0236820507172428
11
109.052595686887
21
2567.36279466924
31
0.0243640629042532
  0
LINE
 8
Group#25
10
107.887778511801
20
2565.84482802301
30
0.0192022218321385
11
108.137535051623
21
2566.44776073893
31
0.0219214428544775
  0
LINE
 8
Group#25
10
112.71730676535
20
2565.84483049903
30
0.00402787439495469
11
112.802478937622
21
2565.19780417728
31
5.76142952901648e-08
  0
LINE
 8
Group#25
10
112.717283799926
20
2564.5507777682
30
-0.00349246614853752
11
112.467527260104
21
2563.94784505228
31
-0.00621168717094568
  0
LINE
 8
Group#25
10
109.655539912247
20
2567.61253783345
30
0.0239210014118614
11
110.302575521655
21
2567.69772080219
31
0.0223830601487301
  0
LINE
 8
Group#25
10
112.070229813604
20
2563.43009489773
30
-0.00797229503361929
11
111.552466624839
21
2563.03281112197
31
-0.00865430722062971
  0
LINE
 8
Group#25
10
110.94952239948
20
2562.78306795775
30
-0.00821124572832818
11
110.302486790071
21
2562.69788498902
31
-0.00667330446519963
  0
LINE
 8
Group#25
10
107.887755546377
20
2564.55077529218
30
0.0116818812886688
11
107.802583374106
21
2565.19780161392
31
0.0157096980692817
  0
LINE
 8
Group#25
10
109.655454204118
20
2562.78306729431
30
-0.00414529158687644
11
109.052518843081
21
2563.03280984028
31
-0.000799486993045573
  0
LINE
 8
Group#25
10
110.949608107609
20
2567.6125384969
30
0.0198550472704097
11
111.552543468645
21
2567.36279595092
31
0.0165092426766239
  0
LINE
 8
Group#25
10
112.070292556309
20
2566.96551270605
30
0.0125736574214445
11
112.467571625897
21
2566.44776295886
31
0.00831649513604172
  0
LINE
 8
Group#25
10
108.534769755418
20
2563.43009308516
30
0.00313609826213389
11
108.13749068583
21
2563.94784283234
31
0.00739326054749012
  0
LINE
 8
Group#25
10
111.552466624839
20
2563.03281112197
30
-0.00865430722062971
11
110.94952239948
21
2562.78306795775
31
-0.00821124572832818
  0
LINE
 8
Group#25
10
112.467527260104
20
2563.94784505228
30
-0.00621168717094568
11
112.070229813604
21
2563.43009489773
31
-0.00797229503361929
  0
LINE
 8
Group#25
10
112.802478937622
20
2565.19780417728
30
5.76142952901648e-08
11
112.717283799926
21
2564.5507777682
31
-0.00349246614853752
  0
LINE
 8
Group#25
10
112.467571625897
20
2566.44776295886
30
0.00831649513604172
11
112.71730676535
21
2565.84483049903
31
0.00402787439495469
  0
LINE
 8
Group#25
10
111.552543468645
20
2567.36279595092
30
0.0165092426766239
11
112.070292556309
21
2566.96551270605
31
0.0125736574214445
  0
LINE
 8
Group#25
10
110.302575521655
20
2567.69772080219
30
0.0223830601487301
11
110.949608107609
21
2567.6125384969
31
0.0198550472704097
  0
LINE
 8
Group#25
10
109.052595686887
20
2567.36279466924
30
0.0243640629042532
11
109.655539912247
21
2567.61253783345
31
0.0239210014118614
  0
LINE
 8
Group#25
10
108.137535051623
20
2566.44776073893
30
0.0219214428544775
11
108.534832498123
21
2566.96551089348
31
0.0236820507172428
  0
LINE
 8
Group#25
10
107.802583374106
20
2565.19780161392
30
0.0157096980692817
11
107.887778511801
21
2565.84482802301
31
0.0192022218321385
  0
LINE
 8
Group#25
10
108.13749068583
20
2563.94784283234
30
0.00739326054749012
11
107.887755546377
21
2564.55077529218
31
0.0116818812886688
  0
LINE
 8
Group#25
10
109.052518843081
20
2563.03280984028
30
-0.000799486993045573
11
108.534769755418
21
2563.43009308516
31
0.00313609826213389
  0
LINE
 8
Group#25
10
110.302486790071
20
2562.69788498902
30
-0.00667330446519963
11
109.655454204118
21
2562.78306729431
31
-0.00414529158687644
  0
LINE
 8
Group#25
10
98.1370547037881
20
2563.40420976836
30
0.0103820610227904
11
97.7005538884492
21
2563.88595691449
31
0.0145532280852328
  0
LINE
 8
Group#25
10
97.7005538884492
20
2563.88595691449
30
0.0145532280852328
11
97.4036153669952
21
2564.46426457548
31
0.0188470541977548
  0
LINE
 8
Group#25
10
97.4036153669952
20
2564.46426457548
30
0.0188470541977548
11
97.2664750089493
21
2565.09972203994
31
0.0229709222066763
  0
LINE
 8
Group#25
10
97.2664750089493
20
2565.09972203994
30
0.0229709222066763
11
97.2984787030772
21
2565.74902393181
31
0.0266437973221367
  0
LINE
 8
Group#25
10
97.2984787030772
20
2565.74902393181
30
0.0266437973221367
11
97.4974454505125
21
2566.36792140018
31
0.029615379174856
  0
LINE
 8
Group#25
10
97.4974454505125
20
2566.36792140018
30
0.029615379174856
11
97.8498159962257
21
2566.91423760535
31
0.031683159372276
  0
LINE
 8
Group#25
10
97.8498159962257
20
2566.91423760535
30
0.031683159372276
11
98.3315768698462
21
2567.35074200077
31
0.0327062221110585
  0
LINE
 8
Group#25
10
98.3315768698462
20
2567.35074200077
30
0.0327062221110585
11
98.9098968639845
21
2567.64768753325
31
0.0326148473563722
  0
LINE
 8
Group#25
10
98.9098968639845
20
2567.64768753325
30
0.0326148473563722
11
99.545364426759
21
2567.78483785548
31
0.0314152621466942
  0
LINE
 8
Group#25
10
99.545364426759
20
2567.78483785548
30
0.0314152621466942
11
100.194673493926
21
2567.75284639966
31
0.0291892162315923
  0
LINE
 8
Group#25
10
100.194673493926
20
2567.75284639966
30
0.0291892162315923
11
100.813574725593
21
2567.55389333062
31
0.0260884109615436
  0
LINE
 8
Group#25
10
100.813574725593
20
2567.55389333062
30
0.0260884109615436
11
101.359891025603
21
2567.20153697124
31
0.0223241610913066
  0
LINE
 8
Group#25
10
101.359891025603
20
2567.20153697124
30
0.0223241610913066
11
101.796391840942
21
2566.71978982511
31
0.0181529940288642
  0
LINE
 8
Group#25
10
101.796391840942
20
2566.71978982511
30
0.0181529940288642
11
102.093330362396
21
2566.14148216411
31
0.0138591679164325
  0
LINE
 8
Group#25
10
102.093330362396
20
2566.14148216411
30
0.0138591679164325
11
102.230470720442
21
2565.50602469965
31
0.00973529990746731
  0
LINE
 8
Group#25
10
102.230470720442
20
2565.50602469965
30
0.00973529990746731
11
102.198467026314
21
2564.85672280778
31
0.00606242479200543
  0
LINE
 8
Group#25
10
102.198467026314
20
2564.85672280778
30
0.00606242479200543
11
101.999500278879
21
2564.23782533942
31
0.00309084293924103
  0
LINE
 8
Group#25
10
101.999500278879
20
2564.23782533942
30
0.00309084293924103
11
101.647129733166
21
2563.69150913425
31
0.00102306274186614
  0
LINE
 8
Group#25
10
101.647129733166
20
2563.69150913425
30
0.00102306274186614
11
101.165368859545
21
2563.25500473883
31
3.08363334866613e-12
  0
LINE
 8
Group#25
10
101.165368859545
20
2563.25500473883
30
3.08363334866613e-12
11
100.587048865407
21
2562.95805920634
31
9.13747577699131e-05
  0
LINE
 8
Group#25
10
100.587048865407
20
2562.95805920634
30
9.13747577699131e-05
11
99.9515813026325
21
2562.82090888411
31
0.00129095996749303
  0
LINE
 8
Group#25
10
99.9515813026325
20
2562.82090888411
30
0.00129095996749303
11
99.3022722354653
21
2562.85290033993
31
0.00351700588250612
  0
LINE
 8
Group#25
10
99.3022722354653
20
2562.85290033993
30
0.00351700588250612
11
98.6833710037986
21
2563.05185340897
31
0.00661781115255345
  0
LINE
 8
Group#25
10
98.6833710037986
20
2563.05185340897
30
0.00661781115255345
11
98.1370547037881
21
2563.40420976836
31
0.0103820610227904
  0
LINE
 8
Group#25
10
279.828561703895
20
2567.76589658055
30
-0.268397439443698
11
280.477870771062
21
2567.73390512473
31
-0.270623485358801
  0
LINE
 8
Group#25
10
282.48166430345
20
2564.83778153285
30
-0.293750276798386
11
282.282697556015
21
2564.21888406449
31
-0.296721858651151
  0
LINE
 8
Group#25
10
282.513667997578
20
2565.48708342472
30
-0.290077401682881
11
282.48166430345
21
2564.83778153285
31
-0.293750276798386
  0
LINE
 8
Group#25
10
289.335792964023
20
2567.34385339431
30
-0.275448638686139
11
289.938737189383
21
2567.59359655852
31
-0.275891700178485
  0
LINE
 8
Group#25
10
282.376527639532
20
2566.12254088918
30
-0.285953533674004
11
282.513667997578
21
2565.48708342472
31
-0.290077401682881
  0
LINE
 8
Group#25
10
282.079589118078
20
2566.70084855017
30
-0.281659707561528
11
282.376527639532
21
2566.12254088918
31
-0.285953533674004
  0
LINE
 8
Group#25
10
291.835740745781
20
2567.34385467599
30
-0.283303458913768
11
292.353489833445
21
2566.94657143111
31
-0.287239044168947
  0
LINE
 8
Group#25
10
282.282697556015
20
2564.21888406449
30
-0.296721858651151
11
281.930327010302
21
2563.67256785932
31
-0.298789638848526
  0
LINE
 8
Group#25
10
289.938737189383
20
2567.59359655852
30
-0.275891700178485
11
290.585772798791
21
2567.67877952726
31
-0.277429641441662
  0
LINE
 8
Group#25
10
279.585469512601
20
2562.833959065
30
-0.296295695707887
11
278.966568280934
21
2563.03291213404
31
-0.293194890437838
  0
LINE
 8
Group#25
10
281.643088302739
20
2567.18259569631
30
-0.277488540499085
11
282.079589118078
21
2566.70084855017
31
-0.281659707561528
  0
LINE
 8
Group#25
10
279.19309414112
20
2567.62874625832
30
-0.26719785423402
11
279.828561703895
21
2567.76589658055
31
-0.268397439443698
  0
LINE
 8
Group#25
10
293.085676214757
20
2565.17886290235
30
-0.299812643976051
11
293.000481077061
21
2564.53183649326
31
-0.303305167738931
  0
LINE
 8
Group#25
10
277.581675980213
20
2565.73008265688
30
-0.273168904268255
11
277.780642727648
21
2566.34898012524
31
-0.270197322415491
  0
LINE
 8
Group#25
10
293.000504042485
20
2565.8258892241
30
-0.295784827195437
11
293.085676214757
21
2565.17886290235
31
-0.299812643976051
  0
LINE
 8
Group#25
10
292.35342709074
20
2563.4111536228
30
-0.307784996624058
11
291.835663901975
21
2563.01386984703
31
-0.308467008811045
  0
LINE
 8
Group#25
10
280.234778579768
20
2562.80196760918
30
-0.298521741622921
11
279.585469512601
21
2562.833959065
31
-0.296295695707887
  0
LINE
 8
Group#25
10
288.170975788937
20
2565.82588674808
30
-0.280610479758277
11
288.420732328758
21
2566.428819464
31
-0.277891258735914
  0
LINE
 8
Group#25
10
293.000481077061
20
2564.53183649326
30
-0.303305167738931
11
292.75072453724
21
2563.92890377735
31
-0.306024388761337
  0
LINE
 8
Group#25
10
277.686812644131
20
2564.44532330055
30
-0.280965647392637
11
277.549672286085
21
2565.08078076501
31
-0.276841779383717
  0
LINE
 8
Group#25
10
281.096772002728
20
2567.53495205569
30
-0.273724290628848
11
281.643088302739
21
2567.18259569631
31
-0.277488540499085
  0
LINE
 8
Group#25
10
291.232805384744
20
2567.59359722197
30
-0.279957654319982
11
291.835740745781
21
2567.34385467599
31
-0.283303458913768
  0
LINE
 8
Group#25
10
292.353489833445
20
2566.94657143111
30
-0.287239044168947
11
292.750768903033
21
2566.42882168393
31
-0.29149620645435
  0
LINE
 8
Group#25
10
289.938651481254
20
2562.76412601938
30
-0.303957993177223
11
289.335716120217
21
2563.01386856535
31
-0.300612188583439
  0
LINE
 8
Group#25
10
291.232719676616
20
2562.76412668282
30
-0.30802394731872
11
290.585684067207
21
2562.67894371409
31
-0.306486006055591
  0
LINE
 8
Group#25
10
288.170952823513
20
2564.53183401725
30
-0.288130820301771
11
288.085780651241
21
2565.17886033899
31
-0.28410300352111
  0
LINE
 8
Group#25
10
278.966568280934
20
2563.03291213404
30
-0.293194890437838
11
278.420251980924
21
2563.38526849342
31
-0.289430640567601
  0
LINE
 8
Group#25
10
288.818029775258
20
2566.94656961854
30
-0.276130650873149
11
289.335792964023
21
2567.34385339431
31
-0.275448638686139
  0
LINE
 8
Group#25
10
280.477870771062
20
2567.73390512473
30
-0.270623485358801
11
281.096772002728
21
2567.53495205569
31
-0.273724290628848
  0
LINE
 8
Group#25
10
288.085780651241
20
2565.17886033899
30
-0.28410300352111
11
288.170975788937
21
2565.82588674808
31
-0.280610479758277
  0
LINE
 8
Group#25
10
277.549672286085
20
2565.08078076501
30
-0.276841779383717
11
277.581675980213
21
2565.73008265688
31
-0.273168904268255
  0
LINE
 8
Group#25
10
292.750768903033
20
2566.42882168393
30
-0.29149620645435
11
293.000504042485
21
2565.8258892241
31
-0.295784827195437
  0
LINE
 8
Group#25
10
277.983751165585
20
2563.86701563956
30
-0.285259473505159
11
277.686812644131
21
2564.44532330055
31
-0.280965647392637
  0
LINE
 8
Group#25
10
278.133013273361
20
2566.89529633041
30
-0.268129542218116
11
278.614774146982
21
2567.33180072584
31
-0.267106479479333
  0
LINE
 8
Group#25
10
288.420732328758
20
2566.428819464
30
-0.277891258735914
11
288.818029775258
21
2566.94656961854
31
-0.276130650873149
  0
LINE
 8
Group#25
10
278.420251980924
20
2563.38526849342
30
-0.289430640567601
11
277.983751165585
21
2563.86701563956
31
-0.285259473505159
  0
LINE
 8
Group#25
10
281.930327010302
20
2563.67256785932
30
-0.298789638848526
11
281.448566136681
21
2563.23606346389
31
-0.299812701587308
  0
LINE
 8
Group#25
10
292.75072453724
20
2563.92890377735
30
-0.306024388761337
11
292.35342709074
21
2563.4111536228
31
-0.307784996624058
  0
LINE
 8
Group#25
10
291.835663901975
20
2563.01386984703
30
-0.308467008811045
11
291.232719676616
21
2562.76412668282
31
-0.30802394731872
  0
LINE
 8
Group#25
10
277.780642727648
20
2566.34898012524
30
-0.270197322415491
11
278.133013273361
21
2566.89529633041
31
-0.268129542218116
  0
LINE
 8
Group#25
10
280.870246142542
20
2562.93911793141
30
-0.299721326832622
11
280.234778579768
21
2562.80196760918
31
-0.298521741622921
  0
LINE
 8
Group#25
10
288.817967032553
20
2563.41115181023
30
-0.296676603328259
11
288.420687962966
21
2563.92890155741
31
-0.292419441042902
  0
LINE
 8
Group#25
10
290.585684067207
20
2562.67894371409
30
-0.306486006055591
11
289.938651481254
21
2562.76412601938
31
-0.303957993177223
  0
LINE
 8
Group#25
10
289.335716120217
20
2563.01386856535
30
-0.300612188583439
11
288.817967032553
21
2563.41115181023
31
-0.296676603328259
  0
LINE
 8
Group#25
10
288.420687962966
20
2563.92890155741
30
-0.292419441042902
11
288.170952823513
21
2564.53183401725
31
-0.288130820301771
  0
LINE
 8
Group#25
10
290.585772798791
20
2567.67877952726
30
-0.277429641441662
11
291.232805384744
21
2567.59359722197
31
-0.279957654319982
  0
LINE
 8
Group#25
10
278.614774146982
20
2567.33180072584
30
-0.267106479479333
11
279.19309414112
21
2567.62874625832
31
-0.26719785423402
  0
LINE
 8
Group#25
10
281.448566136681
20
2563.23606346389
30
-0.299812701587308
11
280.870246142542
21
2562.93911793141
31
-0.299721326832622
  0
LINE
 8
Group#25
10
319.412923086016
20
2567.74069372704
30
-0.268241365433591
11
320.062232153183
21
2567.70870227121
31
-0.270467411348696
  0
LINE
 8
Group#25
10
317.568112547706
20
2563.84181278604
30
-0.285103399495054
11
317.271174026252
21
2564.42012044703
31
-0.280809573382531
  0
LINE
 8
Group#25
10
322.066025685571
20
2564.81257867933
30
-0.29359420278828
11
321.867058938136
21
2564.19368121097
31
-0.296565784641044
  0
LINE
 8
Group#25
10
320.454607524663
20
2562.91391507789
30
-0.299565252822515
11
319.819139961889
21
2562.77676475566
31
-0.298365667612792
  0
LINE
 8
Group#25
10
321.960889021653
20
2566.09733803566
30
-0.285797459663877
11
322.098029379699
21
2565.4618805712
31
-0.289921327672774
  0
LINE
 8
Group#25
10
321.22744968486
20
2567.15739284279
30
-0.277332466488982
11
321.663950500199
21
2566.67564569666
31
-0.281503633551422
  0
LINE
 8
Group#25
10
317.365004109769
20
2566.32377727173
30
-0.270041248405386
11
317.717374655482
21
2566.8700934769
31
-0.267973468208012
  0
LINE
 8
Group#25
10
319.819139961889
20
2562.77676475566
30
-0.298365667612792
11
319.169830894722
21
2562.80875621148
31
-0.296139621697781
  0
LINE
 8
Group#25
10
321.032927518802
20
2563.21086061038
30
-0.299656627577203
11
320.454607524663
21
2562.91391507789
31
-0.299565252822515
  0
LINE
 8
Group#25
10
318.550929663055
20
2563.00770928052
30
-0.293038816427733
11
318.004613363045
21
2563.36006563991
31
-0.289274566557495
  0
LINE
 8
Group#25
10
317.166037362334
20
2565.70487980336
30
-0.273012830258149
11
317.365004109769
21
2566.32377727173
31
-0.270041248405386
  0
LINE
 8
Group#25
10
321.514688392422
20
2563.6473650058
30
-0.298633564838419
11
321.032927518802
21
2563.21086061038
31
-0.299656627577203
  0
LINE
 8
Group#25
10
317.271174026252
20
2564.42012044703
30
-0.280809573382531
11
317.134033668206
21
2565.05557791149
31
-0.27668570537361
  0
LINE
 8
Group#25
10
319.169830894722
20
2562.80875621148
30
-0.296139621697781
11
318.550929663055
21
2563.00770928052
31
-0.293038816427733
  0
LINE
 8
Group#25
10
317.717374655482
20
2566.8700934769
30
-0.267973468208012
11
318.199135529103
21
2567.30659787232
31
-0.266950405469227
  0
LINE
 8
Group#25
10
321.663950500199
20
2566.67564569666
30
-0.281503633551422
11
321.960889021653
21
2566.09733803566
31
-0.285797459663877
  0
LINE
 8
Group#25
10
320.062232153183
20
2567.70870227121
30
-0.270467411348696
11
320.681133384849
21
2567.50974920217
31
-0.273568216618742
  0
LINE
 8
Group#25
10
317.134033668206
20
2565.05557791149
30
-0.27668570537361
11
317.166037362334
21
2565.70487980336
31
-0.273012830258149
  0
LINE
 8
Group#25
10
318.004613363045
20
2563.36006563991
30
-0.289274566557495
11
317.568112547706
21
2563.84181278604
31
-0.285103399495054
  0
LINE
 8
Group#25
10
318.199135529103
20
2567.30659787232
30
-0.266950405469227
11
318.777455523241
21
2567.6035434048
31
-0.267041780223914
  0
LINE
 8
Group#25
10
318.777455523241
20
2567.6035434048
30
-0.267041780223914
11
319.412923086016
21
2567.74069372704
31
-0.268241365433591
  0
LINE
 8
Group#25
10
322.098029379699
20
2565.4618805712
30
-0.289921327672774
11
322.066025685571
21
2564.81257867933
31
-0.29359420278828
  0
LINE
 8
Group#25
10
321.867058938136
20
2564.19368121097
30
-0.296565784641044
11
321.514688392422
21
2563.6473650058
31
-0.298633564838419
  0
LINE
 8
Group#25
10
320.681133384849
20
2567.50974920217
30
-0.273568216618742
11
321.22744968486
21
2567.15739284279
31
-0.277332466488982
  0
POLYLINE
 8
Group#17
 66
     1
70
    8
 10
0.0
 20
 0.0
 30
0.0
  0
VERTEX
  8
MY3DLAYER
10
65.3852612829916
20
3352.84350178768
30
7.20529846377882e-14
 70
     32
  0
VERTEX
  8
MY3DLAYER
10
90.3852612829914
20
3352.84350178769
30
9.91146708630441e-14
 70
     32
  0
VERTEX
  8
MY3DLAYER
10
90.3852612829916
20
3345.84350178769
30
-7.69111896912758e-14
 70
     32
  0
VERTEX
  8
MY3DLAYER
10
110.385261282992
20
3345.84350178769
30
-5.5261840711069e-14
 70
     32
  0
VERTEX
  8
MY3DLAYER
10
110.385261282991
20
3352.84350178769
30
1.20764019843248e-13
 70
     32
  0
VERTEX
  8
MY3DLAYER
10
135.385261282991
20
3352.84350178769
30
1.47825706068507e-13
 70
     32
  0
VERTEX
  8
MY3DLAYER
10
135.385261282992
20
3345.84350178769
30
-2.82001544858092e-14
 70
     32
  0
VERTEX
  8
MY3DLAYER
10
235.885261282988
20
3345.84350178768
30
-5.51084667951165e-13
 70
     32
  0
VERTEX
  8
MY3DLAYER
10
235.885261282988
20
3352.84350178769
30
-3.75058807396845e-13
 70
     32
  0
VERTEX
  8
MY3DLAYER
10
260.885261282988
20
3352.84350178769
30
-3.47997121171582e-13
 70
     32
  0
VERTEX
  8
MY3DLAYER
10
260.885261282988
20
3345.84350178769
30
-5.24022981725899e-13
 70
     32
  0
VERTEX
  8
MY3DLAYER
10
383.185261282989
20
3345.84350178769
30
-9.33070777361228e-13
 70
     32
  0
VERTEX
  8
MY3DLAYER
10
383.185261282989
20
3352.84350178769
30
-7.57044916806911e-13
 70
     32
  0
VERTEX
  8
MY3DLAYER
10
408.185261282989
20
3352.84350178769
30
-7.29983230581676e-13
 70
     32
  0
VERTEX
  8
MY3DLAYER
10
408.185261282989
20
3345.84350178769
30
-9.06009091135994e-13
 70
     32
  0
VERTEX
  8
MY3DLAYER
10
508.685261282988
20
3345.84350178769
30
-7.97221112510452e-13
 70
     32
  0
VERTEX
  8
MY3DLAYER
10
508.685261282988
20
3352.84350178769
30
-6.21195251956132e-13
 70
     32
  0
VERTEX
  8
MY3DLAYER
10
533.685261282988
20
3352.84350178769
30
-5.94133565730872e-13
 70
     32
  0
VERTEX
  8
MY3DLAYER
10
533.685261282988
20
3345.84350178769
30
-7.70159426285191e-13
 70
     32
  0
VERTEX
  8
MY3DLAYER
10
553.685261282988
20
3345.84350178769
30
-7.48510077304982e-13
 70
     32
  0
VERTEX
  8
MY3DLAYER
10
553.685261282988
20
3352.84350178769
30
-5.72484216750662e-13
 70
     32
  0
VERTEX
  8
MY3DLAYER
10
578.685261282988
20
3352.84350178769
30
-5.45422530525411e-13
 70
     32
  0
VERTEX
  8
MY3DLAYER
10
578.685261282988
20
3345.84350178769
30
-7.21448391079731e-13
 70
     32
  0
VERTEX
  8
MY3DLAYER
10
593.685261282988
20
3345.8435017877
30
-7.05211379344578e-13
 70
     32
  0
VERTEX
  8
MY3DLAYER
10
593.685261282992
20
3330.8435017877
30
-2.88718820079162e-12
 70
     32
  0
VERTEX
  8
MY3DLAYER
10
586.685261282992
20
3330.8435017877
30
-2.80452654549317e-12
 70
     32
  0
VERTEX
  8
MY3DLAYER
10
586.685261282992
20
3305.8435017877
30
-3.34295140574563e-12
 70
     32
  0
VERTEX
  8
MY3DLAYER
10
593.685261282992
20
3305.8435017877
30
-3.42561306104409e-12
 70
     32
  0
VERTEX
  8
MY3DLAYER
10
593.685261282993
20
3290.8435017877
30
-3.71257240621895e-12
 70
     32
  0
VERTEX
  8
MY3DLAYER
10
586.685261282993
20
3290.8435017877
30
-3.72014967836202e-12
 70
     32
  0
VERTEX
  8
MY3DLAYER
10
586.685261282993
20
3265.84350178769
30
-4.34881346605602e-12
 70
     32
  0
VERTEX
  8
MY3DLAYER
10
593.685261282993
20
3265.8435017877
30
-4.34123619391295e-12
 70
     32
  0
VERTEX
  8
MY3DLAYER
10
593.685261282995
20
3219.46015749513
30
-5.32713949538507e-12
 70
     32
  0
VERTEX
  8
MY3DLAYER
10
586.685261282995
20
3219.46015749513
30
-5.24447784008661e-12
 70
     32
  0
VERTEX
  8
MY3DLAYER
10
586.685261282999
20
3157.57552889992
30
-5.35684000153001e-12
 70
     32
  0
VERTEX
  8
MY3DLAYER
10
593.685261282999
20
3157.57552889992
30
-5.43950165682847e-12
 70
     32
  0
VERTEX
  8
MY3DLAYER
10
593.685261283
20
3110.99218460736
30
-6.52067319604367e-12
 70
     32
  0
VERTEX
  8
MY3DLAYER
10
586.685261283
20
3110.99218460736
30
-6.43801154074522e-12
 70
     32
  0
VERTEX
  8
MY3DLAYER
10
586.685261283001
20
3085.99218460736
30
-7.51786996564687e-12
 70
     32
  0
VERTEX
  8
MY3DLAYER
10
593.685261283001
20
3085.99218460736
30
-7.5102926935038e-12
 70
     32
  0
VERTEX
  8
MY3DLAYER
10
593.685261283002
20
3070.99218460736
30
-7.34605740147101e-12
 70
     32
  0
VERTEX
  8
MY3DLAYER
10
586.685261283002
20
3070.99218460736
30
-7.26339574617255e-12
 70
     32
  0
VERTEX
  8
MY3DLAYER
10
586.685261283002
20
3045.99218460736
30
-8.52373202595726e-12
 70
     32
  0
VERTEX
  8
MY3DLAYER
10
593.685261283002
20
3045.99218460736
30
-8.51615475381419e-12
 70
     32
  0
VERTEX
  8
MY3DLAYER
10
593.685261283003
20
3030.99218460736
30
-8.26168053433986e-12
 70
     32
  0
VERTEX
  8
MY3DLAYER
10
578.685261283003
20
3030.99218460735
30
-8.27791754607502e-12
 70
     32
  0
VERTEX
  8
MY3DLAYER
10
578.685261283003
20
3023.99218460736
30
-8.45394340662934e-12
 70
     32
  0
VERTEX
  8
MY3DLAYER
10
553.685261283003
20
3023.99218460735
30
-8.48100509285459e-12
 70
     32
  0
VERTEX
  8
MY3DLAYER
10
553.685261283003
20
3030.99218460735
30
-8.30497923230027e-12
 70
     32
  0
VERTEX
  8
MY3DLAYER
10
533.685261283003
20
3030.99218460735
30
-8.32662858128048e-12
 70
     32
  0
VERTEX
  8
MY3DLAYER
10
533.685261283003
20
3023.99218460735
30
-8.5026544418348e-12
 70
     32
  0
VERTEX
  8
MY3DLAYER
10
508.685261283003
20
3023.99218460735
30
-8.52971612806006e-12
 70
     32
  0
VERTEX
  8
MY3DLAYER
10
508.685261283003
20
3030.99218460735
30
-8.35369026750574e-12
 70
     32
  0
VERTEX
  8
MY3DLAYER
10
408.185261283004
20
3030.99218460735
30
-8.46247824613128e-12
 70
     32
  0
VERTEX
  8
MY3DLAYER
10
408.185261283004
20
3023.99218460735
30
-8.6385041066856e-12
 70
     32
  0
VERTEX
  8
MY3DLAYER
10
383.185261283004
20
3023.99218460735
30
-8.66556579291083e-12
 70
     32
  0
VERTEX
  8
MY3DLAYER
10
383.185261283004
20
3030.99218460735
30
-8.48953993235651e-12
 70
     32
  0
VERTEX
  8
MY3DLAYER
10
260.885261283002
20
3030.99218460735
30
-8.08049213672119e-12
 70
     32
  0
VERTEX
  8
MY3DLAYER
10
260.885261283002
20
3023.99218460735
30
-8.25651799727551e-12
 70
     32
  0
VERTEX
  8
MY3DLAYER
10
235.885261283003
20
3023.99218460735
30
-8.28357968350077e-12
 70
     32
  0
VERTEX
  8
MY3DLAYER
10
235.885261283002
20
3030.99218460735
30
-8.10755382294645e-12
 70
     32
  0
VERTEX
  8
MY3DLAYER
10
135.385261283006
20
3030.99218460735
30
-7.5846693094811e-12
 70
     32
  0
VERTEX
  8
MY3DLAYER
10
135.385261283006
20
3023.99218460735
30
-7.76069517003541e-12
 70
     32
  0
VERTEX
  8
MY3DLAYER
10
110.385261283006
20
3023.99218460735
30
-7.78775685626067e-12
 70
     32
  0
VERTEX
  8
MY3DLAYER
10
110.385261283006
20
3030.99218460735
30
-7.61173099570635e-12
 70
     32
  0
VERTEX
  8
MY3DLAYER
10
90.3852612830061
20
3030.99218460735
30
-7.63338034468656e-12
 70
     32
  0
VERTEX
  8
MY3DLAYER
10
90.3852612830063
20
3023.99218460735
30
-7.80940620524088e-12
 70
     32
  0
VERTEX
  8
MY3DLAYER
10
65.3852612830064
20
3023.99218460735
30
-7.83646789146613e-12
 70
     32
  0
VERTEX
  8
MY3DLAYER
10
65.3852612830063
20
3030.99218460735
30
-7.66044203091181e-12
 70
     32
  0
VERTEX
  8
MY3DLAYER
10
50.3852612830061
20
3030.99218460735
30
-7.67667904264696e-12
 70
     32
  0
VERTEX
  8
MY3DLAYER
10
50.3852612830085
20
3045.99218460734
30
-8.02139218956301e-12
 70
     32
  0
VERTEX
  8
MY3DLAYER
10
57.3852612830085
20
3045.99218460734
30
-8.10405384486147e-12
 70
     32
  0
VERTEX
  8
MY3DLAYER
10
57.385261283008
20
3070.99218460734
30
-6.93395649251829e-12
 70
     32
  0
VERTEX
  8
MY3DLAYER
10
50.385261283008
20
3070.99218460734
30
-6.85129483721983e-12
 70
     32
  0
VERTEX
  8
MY3DLAYER
10
50.385261283007
20
3085.99218460734
30
-7.01553012925262e-12
 70
     32
  0
VERTEX
  8
MY3DLAYER
10
57.385261283007
20
3085.99218460734
30
-7.09819178455108e-12
 70
     32
  0
VERTEX
  8
MY3DLAYER
10
57.3852612830065
20
3110.99218460734
30
-6.01833335964943e-12
 70
     32
  0
VERTEX
  8
MY3DLAYER
10
50.3852612830064
20
3110.99218460734
30
-5.93567170435097e-12
 70
     32
  0
VERTEX
  8
MY3DLAYER
10
50.3852612830053
20
3157.5755288999
30
-4.94473909257729e-12
 70
     32
  0
VERTEX
  8
MY3DLAYER
10
57.3852612830054
20
3157.5755288999
30
-5.02740074787575e-12
 70
     32
  0
VERTEX
  8
MY3DLAYER
10
57.3852612830018
20
3219.46015749511
30
-4.82479965899082e-12
 70
     32
  0
VERTEX
  8
MY3DLAYER
10
50.3852612830017
20
3219.46015749511
30
-4.74213800369236e-12
 70
     32
  0
VERTEX
  8
MY3DLAYER
10
50.3852612829989
20
3265.84350178768
30
-3.84647362966177e-12
 70
     32
  0
VERTEX
  8
MY3DLAYER
10
57.3852612829989
20
3265.84350178768
30
-3.92913528496023e-12
 70
     32
  0
VERTEX
  8
MY3DLAYER
10
57.385261282999
20
3290.84350178768
30
-3.30047149726624e-12
 70
     32
  0
VERTEX
  8
MY3DLAYER
10
50.3852612829989
20
3290.84350178768
30
-3.21780984196778e-12
 70
     32
  0
VERTEX
  8
MY3DLAYER
10
50.3852612829985
20
3305.84350178768
30
-2.84061156935138e-12
 70
     32
  0
VERTEX
  8
MY3DLAYER
10
57.3852612829985
20
3305.84350178768
30
-3.01351215209137e-12
 70
     32
  0
VERTEX
  8
MY3DLAYER
10
57.3852612829985
20
3330.84350178768
30
-2.38484836439738e-12
 70
     32
  0
VERTEX
  8
MY3DLAYER
10
50.3852612829985
20
3330.84350178768
30
-2.30218670909892e-12
 70
     32
  0
VERTEX
  8
MY3DLAYER
10
50.3852612829917
20
3345.84350178768
30
-1.20209887651678e-13
 70
     32
  0
VERTEX
  8
MY3DLAYER
10
65.3852612829917
20
3345.84350178768
30
-1.03972875916529e-13
 70
     32
  0
VERTEX
  8
MY3DLAYER
10
65.3852612829916
20
3352.84350178768
30
7.20529846377882e-14
 70
     32
  0
SEQEND
  0
POLYLINE
 8
Group#4
 66
     1
70
    8
 10
0.0
 20
 0.0
 30
0.0
  0
VERTEX
  8
MY3DLAYER
10
382.885261283001
20
2779.99218460734
30
1.18884468182191e-11
 70
     32
  0
VERTEX
  8
MY3DLAYER
10
260.885261283
20
2779.99218460734
30
8.32364185100745e-12
 70
     32
  0
VERTEX
  8
MY3DLAYER
10
260.885261283
20
2786.99218460734
30
7.99446855168061e-12
 70
     32
  0
VERTEX
  8
MY3DLAYER
10
235.885261283
20
2786.99218460734
30
7.1907490599019e-12
 70
     32
  0
VERTEX
  8
MY3DLAYER
10
235.885261283
20
2779.99218460734
30
8.33207270620252e-12
 70
     32
  0
VERTEX
  8
MY3DLAYER
10
135.385261283001
20
2779.99218460734
30
4.53396869028208e-12
 70
     32
  0
VERTEX
  8
MY3DLAYER
10
135.385261283001
20
2786.99218460734
30
4.09199673165333e-12
 70
     32
  0
VERTEX
  8
MY3DLAYER
10
110.385261283001
20
2786.99218460734
30
3.28827723987462e-12
 70
     32
  0
VERTEX
  8
MY3DLAYER
10
110.385261283001
20
2779.99218460734
30
3.5497713436203e-12
 70
     32
  0
VERTEX
  8
MY3DLAYER
10
90.3852612830014
20
2779.99218460734
30
2.71278205619803e-12
 70
     32
  0
VERTEX
  8
MY3DLAYER
10
90.3852612830014
20
2786.99218460734
30
2.67688527105618e-12
 70
     32
  0
VERTEX
  8
MY3DLAYER
10
65.3852612830013
20
2786.99218460734
30
1.91828524299823e-12
 70
     32
  0
VERTEX
  8
MY3DLAYER
10
65.3852612830014
20
2779.99218460734
30
2.08954041930238e-12
 70
     32
  0
VERTEX
  8
MY3DLAYER
10
50.3852612830013
20
2779.99218460734
30
1.64791624158384e-12
 70
     32
  0
VERTEX
  8
MY3DLAYER
10
50.3852612830011
20
2794.99218460734
30
1.16169656681297e-12
 70
     32
  0
VERTEX
  8
MY3DLAYER
10
57.3852612830012
20
2794.99218460734
30
1.27303697593467e-12
 70
     32
  0
VERTEX
  8
MY3DLAYER
10
57.3852612830014
20
2811.99218460734
30
7.47555707302746e-13
 70
     32
  0
VERTEX
  8
MY3DLAYER
10
50.3852612830013
20
2811.99218460734
30
6.81334761901805e-13
 70
     32
  0
VERTEX
  8
MY3DLAYER
10
50.3852612830047
20
2874.99218460734
30
2.16304224445587e-12
 70
     32
  0
VERTEX
  8
MY3DLAYER
10
57.3852612830048
20
2874.99218460734
30
2.29694238543796e-12
 70
     32
  0
VERTEX
  8
MY3DLAYER
10
57.3852612830039
20
2891.99218460735
30
1.72634165308523e-12
 70
     32
  0
VERTEX
  8
MY3DLAYER
10
50.3852612830039
20
2891.99218460735
30
1.63756097582391e-12
 70
     32
  0
VERTEX
  8
MY3DLAYER
10
50.3852612830038
20
2899.99218460735
30
1.39027567293829e-12
 70
     32
  0
VERTEX
  8
MY3DLAYER
10
593.385261282999
20
2899.99218460734
30
2.03820271901523e-11
 70
     32
  0
VERTEX
  8
MY3DLAYER
10
593.385261282999
20
2891.99218460735
30
1.29590036605076e-11
 70
     32
  0
VERTEX
  8
MY3DLAYER
10
586.385261282999
20
2891.99218460735
30
1.28927827151067e-11
 70
     32
  0
VERTEX
  8
MY3DLAYER
10
586.385261283
20
2874.99218460735
30
1.49748854821051e-11
 70
     32
  0
VERTEX
  8
MY3DLAYER
10
593.385261283
20
2874.99218460735
30
1.34619251972792e-11
 70
     32
  0
VERTEX
  8
MY3DLAYER
10
593.385261282997
20
2811.99218460734
30
1.19802177147252e-11
 70
     32
  0
VERTEX
  8
MY3DLAYER
10
586.385261282997
20
2811.99218460734
30
1.18688773056035e-11
 70
     32
  0
VERTEX
  8
MY3DLAYER
10
586.385261282996
20
2794.99218460734
30
1.24169183060957e-11
 70
     32
  0
VERTEX
  8
MY3DLAYER
10
593.385261282996
20
2794.99218460734
30
1.24831392514967e-11
 70
     32
  0
VERTEX
  8
MY3DLAYER
10
593.385261282997
20
2779.99218460734
30
1.29016797306865e-11
 70
     32
  0
VERTEX
  8
MY3DLAYER
10
578.385261282996
20
2779.99218460734
30
1.2640533407851e-11
 70
     32
  0
VERTEX
  8
MY3DLAYER
10
578.385261282996
20
2786.99218460734
30
1.24241587678261e-11
 70
     32
  0
VERTEX
  8
MY3DLAYER
10
553.385261282997
20
2786.99218460734
30
1.16655587397681e-11
 70
     32
  0
VERTEX
  8
MY3DLAYER
10
553.385261282997
20
2779.99218460734
30
1.1881933379793e-11
 70
     32
  0
VERTEX
  8
MY3DLAYER
10
533.385261282997
20
2779.99218460734
30
1.12028622153934e-11
 70
     32
  0
VERTEX
  8
MY3DLAYER
10
533.385261282997
20
2786.99218460734
30
1.10090473072289e-11
 70
     32
  0
VERTEX
  8
MY3DLAYER
10
508.385261282997
20
2786.99218460734
30
9.95717076498598e-12
 70
     32
  0
VERTEX
  8
MY3DLAYER
10
508.385261282997
20
2779.99218460734
30
1.03089037961732e-11
 70
     32
  0
VERTEX
  8
MY3DLAYER
10
407.885261283001
20
2779.99218460734
30
1.30080025560432e-11
 70
     32
  0
VERTEX
  8
MY3DLAYER
10
407.885261283001
20
2786.99218460734
30
1.15734023955576e-11
 70
     32
  0
VERTEX
  8
MY3DLAYER
10
382.885261283001
20
2786.99218460734
30
1.08148023674996e-11
 70
     32
  0
VERTEX
  8
MY3DLAYER
10
382.885261283001
20
2779.99218460734
30
1.18884468182191e-11
 70
     32
  0
SEQEND
  0
POLYLINE
 8
Group#4
 66
     1
70
    8
 10
0.0
 20
 0.0
 30
0.0
  0
VERTEX
  8
MY3DLAYER
10
260.885261283002
20
3021.99218460735
30
-7.10217683873681e-12
 70
     32
  0
VERTEX
  8
MY3DLAYER
10
382.885261283002
20
3021.99218460735
30
-1.06669818059485e-11
 70
     32
  0
VERTEX
  8
MY3DLAYER
10
382.885261283003
20
3014.99218460735
30
-1.09961551052753e-11
 70
     32
  0
VERTEX
  8
MY3DLAYER
10
407.885261283002
20
3014.99218460735
30
-1.1799874597054e-11
 70
     32
  0
VERTEX
  8
MY3DLAYER
10
407.885261283002
20
3021.99218460735
30
-1.06585509507534e-11
 70
     32
  0
VERTEX
  8
MY3DLAYER
10
508.385261283002
20
3021.99218460735
30
-1.44566549666738e-11
 70
     32
  0
VERTEX
  8
MY3DLAYER
10
508.385261283002
20
3014.99218460735
30
-1.48986269253026e-11
 70
     32
  0
VERTEX
  8
MY3DLAYER
10
533.385261283002
20
3014.99218460735
30
-1.57023464170813e-11
 70
     32
  0
VERTEX
  8
MY3DLAYER
10
533.385261283002
20
3021.99218460735
30
-1.54408523133356e-11
 70
     32
  0
VERTEX
  8
MY3DLAYER
10
553.385261283001
20
3021.99218460735
30
-1.62778416007579e-11
 70
     32
  0
VERTEX
  8
MY3DLAYER
10
553.385261283001
20
3014.99218460735
30
-1.63137383858997e-11
 70
     32
  0
VERTEX
  8
MY3DLAYER
10
578.385261283001
20
3014.99218460735
30
-1.70723384139577e-11
 70
     32
  0
VERTEX
  8
MY3DLAYER
10
578.385261283001
20
3021.99218460735
30
-1.69010832376535e-11
 70
     32
  0
VERTEX
  8
MY3DLAYER
10
593.385261283002
20
3021.99218460735
30
-1.73427074153721e-11
 70
     32
  0
VERTEX
  8
MY3DLAYER
10
593.385261283002
20
3006.99218460735
30
-1.78289270901429e-11
 70
     32
  0
VERTEX
  8
MY3DLAYER
10
586.385261283002
20
3006.99218460735
30
-1.77175866810212e-11
 70
     32
  0
VERTEX
  8
MY3DLAYER
10
586.385261283001
20
2989.99218460735
30
-1.82430679496532e-11
 70
     32
  0
VERTEX
  8
MY3DLAYER
10
593.385261283002
20
2989.99218460735
30
-1.83092888950541e-11
 70
     32
  0
VERTEX
  8
MY3DLAYER
10
593.385261282998
20
2926.99218460734
30
-1.68275814125001e-11
 70
     32
  0
VERTEX
  8
MY3DLAYER
10
586.385261282998
20
2926.99218460734
30
-1.6693681271518e-11
 70
     32
  0
VERTEX
  8
MY3DLAYER
10
586.385261282999
20
2909.99218460734
30
-1.72642820038707e-11
 70
     32
  0
VERTEX
  8
MY3DLAYER
10
593.385261282999
20
2909.99218460734
30
-1.7353062681132e-11
 70
     32
  0
VERTEX
  8
MY3DLAYER
10
593.385261282999
20
2901.99218460734
30
-1.76003479840176e-11
 70
     32
  0
VERTEX
  8
MY3DLAYER
10
50.3852612830035
20
2901.99218460734
30
1.39140353319638e-12
 70
     32
  0
VERTEX
  8
MY3DLAYER
10
50.3852612830036
20
2909.99218460734
30
-6.03161999644833e-12
 70
     32
  0
VERTEX
  8
MY3DLAYER
10
57.3852612830036
20
2909.99218460734
30
-6.09784094184927e-12
 70
     32
  0
VERTEX
  8
MY3DLAYER
10
57.3852612830027
20
2926.99218460734
30
-4.01573817485086e-12
 70
     32
  0
VERTEX
  8
MY3DLAYER
10
50.3852612830026
20
2926.99218460734
30
-5.52869845967674e-12
 70
     32
  0
VERTEX
  8
MY3DLAYER
10
50.3852612830061
20
2989.99218460735
30
-7.01040594223081e-12
 70
     32
  0
VERTEX
  8
MY3DLAYER
10
57.3852612830059
20
2989.99218460735
30
-7.12174635135251e-12
 70
     32
  0
VERTEX
  8
MY3DLAYER
10
57.3852612830064
20
3006.99218460735
30
-6.57370535086021e-12
 70
     32
  0
VERTEX
  8
MY3DLAYER
10
50.3852612830063
20
3006.99218460735
30
-6.50748440545926e-12
 70
     32
  0
VERTEX
  8
MY3DLAYER
10
50.3852612830063
20
3021.99218460735
30
-6.0889439262695e-12
 70
     32
  0
VERTEX
  8
MY3DLAYER
10
65.3852612830064
20
3021.99218460735
30
-6.35009024910498e-12
 70
     32
  0
VERTEX
  8
MY3DLAYER
10
65.3852612830064
20
3014.99218460735
30
-6.5664648891299e-12
 70
     32
  0
VERTEX
  8
MY3DLAYER
10
90.3852612830063
20
3014.99218460735
30
-7.32506491718784e-12
 70
     32
  0
VERTEX
  8
MY3DLAYER
10
90.3852612830063
20
3021.99218460735
30
-7.10869027716293e-12
 70
     32
  0
VERTEX
  8
MY3DLAYER
10
110.385261283006
20
3021.99218460735
30
-7.78776144156251e-12
 70
     32
  0
VERTEX
  8
MY3DLAYER
10
110.385261283006
20
3014.99218460735
30
-7.98157634972704e-12
 70
     32
  0
VERTEX
  8
MY3DLAYER
10
135.385261283006
20
3014.99218460735
30
-9.03345289196997e-12
 70
     32
  0
VERTEX
  8
MY3DLAYER
10
135.385261283006
20
3021.99218460735
30
-8.68171986078276e-12
 70
     32
  0
VERTEX
  8
MY3DLAYER
10
235.885261283002
20
3021.99218460735
30
-5.98262110091273e-12
 70
     32
  0
VERTEX
  8
MY3DLAYER
10
235.885261283002
20
3014.99218460735
30
-7.41722126139834e-12
 70
     32
  0
VERTEX
  8
MY3DLAYER
10
260.885261283002
20
3014.99218460735
30
-8.17582128945629e-12
 70
     32
  0
VERTEX
  8
MY3DLAYER
10
260.885261283002
20
3021.99218460735
30
-7.10217683873681e-12
 70
     32
  0
SEQEND
 0
ENDSEC
 0
EOF
