 0
SECTION
 2
ENTITIES
  0
POLYLINE
 8
Group#17
 66
     1
70
    8
 10
0.0
 20
 0.0
 30
0.0
  0
VERTEX
  8
MY3DLAYER
10
581.385261282985
20
1985.19218460734
30
0.123379950906421
 70
     32
  0
VERTEX
  8
MY3DLAYER
10
556.385261282985
20
1985.19218460734
30
0.123379950906421
 70
     32
  0
VERTEX
  8
MY3DLAYER
10
556.385261282986
20
1992.19218460734
30
0.123379950906362
 70
     32
  0
VERTEX
  8
MY3DLAYER
10
536.385261282986
20
1992.19218460734
30
0.123379950906362
 70
     32
  0
VERTEX
  8
MY3DLAYER
10
536.385261282986
20
1985.19218460734
30
0.123379950906421
 70
     32
  0
VERTEX
  8
MY3DLAYER
10
511.385261282985
20
1985.19218460734
30
0.123379950906421
 70
     32
  0
VERTEX
  8
MY3DLAYER
10
511.385261282986
20
1992.19218460734
30
0.123379950906362
 70
     32
  0
VERTEX
  8
MY3DLAYER
10
410.885261282989
20
1992.19218460734
30
0.12337995090573
 70
     32
  0
VERTEX
  8
MY3DLAYER
10
410.885261282989
20
1985.19218460734
30
0.123379950905789
 70
     32
  0
VERTEX
  8
MY3DLAYER
10
385.885261282989
20
1985.19218460734
30
0.123379950905789
 70
     32
  0
VERTEX
  8
MY3DLAYER
10
385.885261282989
20
1992.19218460734
30
0.12337995090573
 70
     32
  0
VERTEX
  8
MY3DLAYER
10
263.585261282988
20
1992.19218460735
30
0.123379950905189
 70
     32
  0
VERTEX
  8
MY3DLAYER
10
263.585261282988
20
1985.19218460735
30
0.123379950905248
 70
     32
  0
VERTEX
  8
MY3DLAYER
10
238.585261282988
20
1985.19218460735
30
0.123379950905248
 70
     32
  0
VERTEX
  8
MY3DLAYER
10
238.585261282988
20
1992.19218460735
30
0.123379950905189
 70
     32
  0
VERTEX
  8
MY3DLAYER
10
138.085261282989
20
1992.19218460735
30
0.123379950905189
 70
     32
  0
VERTEX
  8
MY3DLAYER
10
138.085261282989
20
1985.19218460735
30
0.123379950905248
 70
     32
  0
VERTEX
  8
MY3DLAYER
10
113.085261282989
20
1985.19218460735
30
0.123379950905248
 70
     32
  0
VERTEX
  8
MY3DLAYER
10
113.085261282989
20
1992.19218460735
30
0.123379950905189
 70
     32
  0
VERTEX
  8
MY3DLAYER
10
93.0852612829888
20
1992.19218460735
30
0.123379950905189
 70
     32
  0
VERTEX
  8
MY3DLAYER
10
93.0852612829887
20
1985.19218460735
30
0.123379950905248
 70
     32
  0
VERTEX
  8
MY3DLAYER
10
68.0852612829887
20
1985.19218460735
30
0.123379950905248
 70
     32
  0
VERTEX
  8
MY3DLAYER
10
68.0852612829888
20
1992.19218460735
30
0.123379950905189
 70
     32
  0
VERTEX
  8
MY3DLAYER
10
53.0852612829887
20
1992.19218460735
30
0.123379950905189
 70
     32
  0
VERTEX
  8
MY3DLAYER
10
53.0852612829856
20
2007.19218460735
30
0.123379950903258
 70
     32
  0
VERTEX
  8
MY3DLAYER
10
60.0852612829856
20
2007.19218460735
30
0.123379950903349
 70
     32
  0
VERTEX
  8
MY3DLAYER
10
60.0852612829868
20
2032.19218460735
30
0.123379950903229
 70
     32
  0
VERTEX
  8
MY3DLAYER
10
53.0852612829867
20
2032.19218460735
30
0.123379950903139
 70
     32
  0
VERTEX
  8
MY3DLAYER
10
53.0852612829868
20
2047.19218460735
30
0.123379950903104
 70
     32
  0
VERTEX
  8
MY3DLAYER
10
60.0852612829869
20
2047.19218460735
30
0.123379950903104
 70
     32
  0
VERTEX
  8
MY3DLAYER
10
60.085261282988
20
2072.19218460735
30
0.123379950902894
 70
     32
  0
VERTEX
  8
MY3DLAYER
10
53.0852612829879
20
2072.19218460735
30
0.123379950902894
 70
     32
  0
VERTEX
  8
MY3DLAYER
10
53.085261282987
20
2118.57552889992
30
0.123379950902686
 70
     32
  0
VERTEX
  8
MY3DLAYER
10
60.085261282987
20
2118.57552889992
30
0.123379950902776
 70
     32
  0
VERTEX
  8
MY3DLAYER
10
60.0852612829861
20
2180.46015749512
30
0.123379950903701
 70
     32
  0
VERTEX
  8
MY3DLAYER
10
53.0852612829861
20
2180.46015749512
30
0.123379950903611
 70
     32
  0
VERTEX
  8
MY3DLAYER
10
53.085261282987
20
2227.04350178769
30
0.123379950903311
 70
     32
  0
VERTEX
  8
MY3DLAYER
10
60.085261282987
20
2227.04350178769
30
0.123379950903401
 70
     32
  0
VERTEX
  8
MY3DLAYER
10
60.0852612829876
20
2252.04350178769
30
0.12337995090274
 70
     32
  0
VERTEX
  8
MY3DLAYER
10
53.0852612829876
20
2252.04350178769
30
0.12337995090274
 70
     32
  0
VERTEX
  8
MY3DLAYER
10
53.0852612829872
20
2267.04350178769
30
0.123379950903156
 70
     32
  0
VERTEX
  8
MY3DLAYER
10
60.0852612829872
20
2267.04350178769
30
0.123379950903246
 70
     32
  0
VERTEX
  8
MY3DLAYER
10
60.0852612829878
20
2292.04350178769
30
0.123379950902405
 70
     32
  0
VERTEX
  8
MY3DLAYER
10
53.0852612829877
20
2292.04350178769
30
0.123379950902405
 70
     32
  0
VERTEX
  8
MY3DLAYER
10
53.0852612829877
20
2307.04350178769
30
0.123379950902911
 70
     32
  0
VERTEX
  8
MY3DLAYER
10
68.0852612829878
20
2307.04350178769
30
0.123379950902911
 70
     32
  0
VERTEX
  8
MY3DLAYER
10
68.0852612829879
20
2314.04350178769
30
0.123379950902852
 70
     32
  0
VERTEX
  8
MY3DLAYER
10
93.0852612829879
20
2314.04350178769
30
0.123379950902852
 70
     32
  0
VERTEX
  8
MY3DLAYER
10
93.0852612829878
20
2307.04350178769
30
0.123379950902911
 70
     32
  0
VERTEX
  8
MY3DLAYER
10
113.085261282988
20
2307.04350178769
30
0.123379950902911
 70
     32
  0
VERTEX
  8
MY3DLAYER
10
113.085261282988
20
2314.04350178769
30
0.123379950902852
 70
     32
  0
VERTEX
  8
MY3DLAYER
10
138.085261282988
20
2314.04350178769
30
0.123379950902852
 70
     32
  0
VERTEX
  8
MY3DLAYER
10
138.085261282988
20
2307.04350178769
30
0.123379950902911
 70
     32
  0
VERTEX
  8
MY3DLAYER
10
238.585261282987
20
2307.04350178769
30
0.123379950902911
 70
     32
  0
VERTEX
  8
MY3DLAYER
10
238.585261282987
20
2314.04350178769
30
0.123379950902852
 70
     32
  0
VERTEX
  8
MY3DLAYER
10
263.585261282987
20
2314.04350178769
30
0.123379950902852
 70
     32
  0
VERTEX
  8
MY3DLAYER
10
263.585261282987
20
2307.04350178769
30
0.123379950902911
 70
     32
  0
VERTEX
  8
MY3DLAYER
10
385.885261282988
20
2307.04350178768
30
0.123379950903452
 70
     32
  0
VERTEX
  8
MY3DLAYER
10
385.885261282989
20
2314.04350178768
30
0.123379950903394
 70
     32
  0
VERTEX
  8
MY3DLAYER
10
410.885261282988
20
2314.04350178768
30
0.123379950903394
 70
     32
  0
VERTEX
  8
MY3DLAYER
10
410.885261282988
20
2307.04350178768
30
0.123379950903452
 70
     32
  0
VERTEX
  8
MY3DLAYER
10
511.385261282985
20
2307.04350178768
30
0.123379950904084
 70
     32
  0
VERTEX
  8
MY3DLAYER
10
511.385261282985
20
2314.04350178768
30
0.123379950904025
 70
     32
  0
VERTEX
  8
MY3DLAYER
10
536.385261282985
20
2314.04350178768
30
0.123379950904025
 70
     32
  0
VERTEX
  8
MY3DLAYER
10
536.385261282985
20
2307.04350178768
30
0.123379950904084
 70
     32
  0
VERTEX
  8
MY3DLAYER
10
556.385261282985
20
2307.04350178768
30
0.123379950904084
 70
     32
  0
VERTEX
  8
MY3DLAYER
10
556.385261282985
20
2314.04350178768
30
0.123379950904025
 70
     32
  0
VERTEX
  8
MY3DLAYER
10
581.385261282985
20
2314.04350178768
30
0.123379950904025
 70
     32
  0
VERTEX
  8
MY3DLAYER
10
581.385261282984
20
2307.04350178768
30
0.123379950904084
 70
     32
  0
VERTEX
  8
MY3DLAYER
10
596.385261282985
20
2307.04350178768
30
0.123379950904084
 70
     32
  0
VERTEX
  8
MY3DLAYER
10
596.385261282982
20
2292.04350178768
30
0.123379950903488
 70
     32
  0
VERTEX
  8
MY3DLAYER
10
589.385261282981
20
2292.04350178768
30
0.123379950903397
 70
     32
  0
VERTEX
  8
MY3DLAYER
10
589.385261282981
20
2267.04350178768
30
0.123379950904148
 70
     32
  0
VERTEX
  8
MY3DLAYER
10
596.385261282981
20
2267.04350178768
30
0.123379950904239
 70
     32
  0
VERTEX
  8
MY3DLAYER
10
596.385261282981
20
2252.04350178768
30
0.123379950903823
 70
     32
  0
VERTEX
  8
MY3DLAYER
10
589.385261282981
20
2252.04350178768
30
0.123379950903733
 70
     32
  0
VERTEX
  8
MY3DLAYER
10
589.385261282981
20
2227.04350178768
30
0.123379950904394
 70
     32
  0
VERTEX
  8
MY3DLAYER
10
596.385261282981
20
2227.04350178768
30
0.123379950904484
 70
     32
  0
VERTEX
  8
MY3DLAYER
10
596.38526128298
20
2180.46015749512
30
0.123379950904694
 70
     32
  0
VERTEX
  8
MY3DLAYER
10
589.38526128298
20
2180.46015749512
30
0.123379950904604
 70
     32
  0
VERTEX
  8
MY3DLAYER
10
589.385261282981
20
2118.57552889991
30
0.123379950903769
 70
     32
  0
VERTEX
  8
MY3DLAYER
10
596.385261282981
20
2118.57552889991
30
0.123379950903859
 70
     32
  0
VERTEX
  8
MY3DLAYER
10
596.385261282982
20
2072.19218460734
30
0.123379950903977
 70
     32
  0
VERTEX
  8
MY3DLAYER
10
589.385261282982
20
2072.19218460734
30
0.123379950903887
 70
     32
  0
VERTEX
  8
MY3DLAYER
10
589.385261282981
20
2047.19218460734
30
0.123379950904096
 70
     32
  0
VERTEX
  8
MY3DLAYER
10
596.385261282981
20
2047.19218460734
30
0.123379950904187
 70
     32
  0
VERTEX
  8
MY3DLAYER
10
596.38526128298
20
2032.19218460734
30
0.123379950904312
 70
     32
  0
VERTEX
  8
MY3DLAYER
10
589.38526128298
20
2032.19218460734
30
0.123379950904132
 70
     32
  0
VERTEX
  8
MY3DLAYER
10
589.385261282979
20
2007.19218460734
30
0.123379950904341
 70
     32
  0
VERTEX
  8
MY3DLAYER
10
596.385261282979
20
2007.19218460734
30
0.123379950904432
 70
     32
  0
VERTEX
  8
MY3DLAYER
10
596.385261282986
20
1992.19218460734
30
0.123379950906362
 70
     32
  0
VERTEX
  8
MY3DLAYER
10
581.385261282985
20
1992.19218460734
30
0.123379950906362
 70
     32
  0
VERTEX
  8
MY3DLAYER
10
581.385261282985
20
1985.19218460734
30
0.123379950906421
 70
     32
  0
SEQEND
  0
POLYLINE
 8
Group#23
 66
     1
70
    8
 10
0.0
 20
 0.0
 30
0.0
  0
VERTEX
  8
MY3DLAYER
10
385.585261282986
20
1801.20154374946
30
0.123379950913904
 70
     32
  0
VERTEX
  8
MY3DLAYER
10
263.585261282986
20
1801.20154374946
30
0.123379950910362
 70
     32
  0
VERTEX
  8
MY3DLAYER
10
263.585261282986
20
1808.20154374946
30
0.123379950910061
 70
     32
  0
VERTEX
  8
MY3DLAYER
10
238.585261282986
20
1808.20154374946
30
0.12337995090928
 70
     32
  0
VERTEX
  8
MY3DLAYER
10
238.585261282986
20
1801.20154374946
30
0.12337995091037
 70
     32
  0
VERTEX
  8
MY3DLAYER
10
138.085261282987
20
1801.20154374946
30
0.123379950906572
 70
     32
  0
VERTEX
  8
MY3DLAYER
10
138.085261282987
20
1808.20154374946
30
0.123379950906158
 70
     32
  0
VERTEX
  8
MY3DLAYER
10
113.085261282987
20
1808.20154374946
30
0.123379950905377
 70
     32
  0
VERTEX
  8
MY3DLAYER
10
113.085261282987
20
1801.20154374946
30
0.123379950905588
 70
     32
  0
VERTEX
  8
MY3DLAYER
10
93.0852612829868
20
1801.20154374946
30
0.123379950904729
 70
     32
  0
VERTEX
  8
MY3DLAYER
10
93.0852612829867
20
1808.20154374946
30
0.123379950904766
 70
     32
  0
VERTEX
  8
MY3DLAYER
10
68.0852612829868
20
1808.20154374946
30
0.123379950904007
 70
     32
  0
VERTEX
  8
MY3DLAYER
10
68.0852612829868
20
1801.20154374946
30
0.123379950904128
 70
     32
  0
VERTEX
  8
MY3DLAYER
10
53.0852612829868
20
1801.20154374946
30
0.123379950903664
 70
     32
  0
VERTEX
  8
MY3DLAYER
10
53.0852612829867
20
1816.20154374946
30
0.123379950903331
 70
     32
  0
VERTEX
  8
MY3DLAYER
10
60.0852612829867
20
1816.20154374946
30
0.123379950903397
 70
     32
  0
VERTEX
  8
MY3DLAYER
10
60.0852612829869
20
1833.20154374946
30
0.123379950902994
 70
     32
  0
VERTEX
  8
MY3DLAYER
10
53.0852612829868
20
1833.20154374946
30
0.12337995090295
 70
     32
  0
VERTEX
  8
MY3DLAYER
10
53.0852612829902
20
1866.19686417841
30
0.123379950904266
 70
     32
  0
VERTEX
  8
MY3DLAYER
10
60.0852612829902
20
1866.19686417841
30
0.1233799509044
 70
     32
  0
VERTEX
  8
MY3DLAYER
10
60.0852612829894
20
1883.19686417841
30
0.123379950903951
 70
     32
  0
VERTEX
  8
MY3DLAYER
10
53.0852612829894
20
1883.19686417841
30
0.123379950903863
 70
     32
  0
VERTEX
  8
MY3DLAYER
10
53.0852612829893
20
1891.19686417841
30
0.123379950903673
 70
     32
  0
VERTEX
  8
MY3DLAYER
10
596.085261282985
20
1891.19686417841
30
0.12337995092262
 70
     32
  0
VERTEX
  8
MY3DLAYER
10
596.085261282984
20
1883.19686417841
30
0.123379950915139
 70
     32
  0
VERTEX
  8
MY3DLAYER
10
589.085261282985
20
1883.19686417841
30
0.123379950915118
 70
     32
  0
VERTEX
  8
MY3DLAYER
10
589.085261282986
20
1866.19686417841
30
0.123379950917055
 70
     32
  0
VERTEX
  8
MY3DLAYER
10
596.085261282986
20
1866.19686417841
30
0.123379950915565
 70
     32
  0
VERTEX
  8
MY3DLAYER
10
596.085261282982
20
1833.20154374946
30
0.123379950914249
 70
     32
  0
VERTEX
  8
MY3DLAYER
10
589.085261282982
20
1833.20154374946
30
0.123379950914115
 70
     32
  0
VERTEX
  8
MY3DLAYER
10
589.085261282982
20
1816.20154374946
30
0.123379950914541
 70
     32
  0
VERTEX
  8
MY3DLAYER
10
596.085261282982
20
1816.20154374946
30
0.12337995091463
 70
     32
  0
VERTEX
  8
MY3DLAYER
10
596.085261282982
20
1801.20154374946
30
0.123379950914918
 70
     32
  0
VERTEX
  8
MY3DLAYER
10
581.085261282982
20
1801.20154374946
30
0.123379950914656
 70
     32
  0
VERTEX
  8
MY3DLAYER
10
581.085261282982
20
1808.20154374946
30
0.123379950914536
 70
     32
  0
VERTEX
  8
MY3DLAYER
10
556.085261282982
20
1808.20154374946
30
0.123379950913732
 70
     32
  0
VERTEX
  8
MY3DLAYER
10
556.085261282982
20
1801.20154374946
30
0.123379950913943
 70
     32
  0
VERTEX
  8
MY3DLAYER
10
536.085261282982
20
1801.20154374946
30
0.123379950913264
 70
     32
  0
VERTEX
  8
MY3DLAYER
10
536.085261282982
20
1808.20154374946
30
0.123379950913075
 70
     32
  0
VERTEX
  8
MY3DLAYER
10
511.085261282982
20
1808.20154374946
30
0.123379950912023
 70
     32
  0
VERTEX
  8
MY3DLAYER
10
511.085261282982
20
1801.20154374946
30
0.123379950912325
 70
     32
  0
VERTEX
  8
MY3DLAYER
10
410.585261282986
20
1801.20154374946
30
0.123379950915069
 70
     32
  0
VERTEX
  8
MY3DLAYER
10
410.585261282986
20
1808.20154374946
30
0.12337995091364
 70
     32
  0
VERTEX
  8
MY3DLAYER
10
385.585261282986
20
1808.20154374946
30
0.123379950912881
 70
     32
  0
VERTEX
  8
MY3DLAYER
10
385.585261282986
20
1801.20154374946
30
0.123379950913904
 70
     32
  0
SEQEND
  0
POLYLINE
 8
Group#23
 66
     1
70
    8
 10
0.0
 20
 0.0
 30
0.0
  0
VERTEX
  8
MY3DLAYER
10
263.585261282988
20
1983.19218460735
30
0.123379950905153
 70
     32
  0
VERTEX
  8
MY3DLAYER
10
385.585261282988
20
1983.19218460735
30
0.12337995090683
 70
     32
  0
VERTEX
  8
MY3DLAYER
10
385.585261282988
20
1976.19218460735
30
0.123379950906436
 70
     32
  0
VERTEX
  8
MY3DLAYER
10
410.585261282988
20
1976.19218460735
30
0.123379950906724
 70
     32
  0
VERTEX
  8
MY3DLAYER
10
410.585261282988
20
1983.19218460735
30
0.123379950907908
 70
     32
  0
VERTEX
  8
MY3DLAYER
10
511.085261282987
20
1983.19218460735
30
0.123379950908409
 70
     32
  0
VERTEX
  8
MY3DLAYER
10
511.085261282987
20
1976.19218460735
30
0.123379950907902
 70
     32
  0
VERTEX
  8
MY3DLAYER
10
536.085261282987
20
1976.19218460735
30
0.123379950908191
 70
     32
  0
VERTEX
  8
MY3DLAYER
10
536.085261282987
20
1983.19218460735
30
0.123379950908494
 70
     32
  0
VERTEX
  8
MY3DLAYER
10
556.085261282987
20
1983.19218460735
30
0.12337995090849
 70
     32
  0
VERTEX
  8
MY3DLAYER
10
556.085261282987
20
1976.19218460735
30
0.123379950908435
 70
     32
  0
VERTEX
  8
MY3DLAYER
10
581.085261282987
20
1976.19218460735
30
0.123379950908746
 70
     32
  0
VERTEX
  8
MY3DLAYER
10
581.085261282987
20
1983.19218460735
30
0.123379950908959
 70
     32
  0
VERTEX
  8
MY3DLAYER
10
596.085261282987
20
1983.19218460735
30
0.123379950909137
 70
     32
  0
VERTEX
  8
MY3DLAYER
10
596.085261282987
20
1968.19218460735
30
0.123379950908606
 70
     32
  0
VERTEX
  8
MY3DLAYER
10
589.085261282987
20
1968.19218460735
30
0.123379950908372
 70
     32
  0
VERTEX
  8
MY3DLAYER
10
589.085261282987
20
1951.19218460735
30
0.123379950907745
 70
     32
  0
VERTEX
  8
MY3DLAYER
10
596.085261282987
20
1951.19218460735
30
0.123379950908
 70
     32
  0
VERTEX
  8
MY3DLAYER
10
596.085261282984
20
1918.19686417841
30
0.12337995090888
 70
     32
  0
VERTEX
  8
MY3DLAYER
10
589.085261282984
20
1918.19686417841
30
0.123379950908714
 70
     32
  0
VERTEX
  8
MY3DLAYER
10
589.085261282984
20
1901.19686417841
30
0.123379950908042
 70
     32
  0
VERTEX
  8
MY3DLAYER
10
596.085261282984
20
1901.19686417841
30
0.123379950908252
 70
     32
  0
VERTEX
  8
MY3DLAYER
10
596.085261282984
20
1893.19686417841
30
0.123379950907957
 70
     32
  0
VERTEX
  8
MY3DLAYER
10
53.0852612829892
20
1893.19686417841
30
0.123379950903673
 70
     32
  0
VERTEX
  8
MY3DLAYER
10
53.0852612829893
20
1901.19686417841
30
0.123379950896298
 70
     32
  0
VERTEX
  8
MY3DLAYER
10
60.0852612829893
20
1901.19686417841
30
0.123379950896576
 70
     32
  0
VERTEX
  8
MY3DLAYER
10
60.0852612829881
20
1918.1968641784
30
0.123379950898738
 70
     32
  0
VERTEX
  8
MY3DLAYER
10
53.0852612829881
20
1918.1968641784
30
0.123379950896948
 70
     32
  0
VERTEX
  8
MY3DLAYER
10
53.0852612829915
20
1951.19218460735
30
0.123379950896069
 70
     32
  0
VERTEX
  8
MY3DLAYER
10
60.0852612829914
20
1951.19218460735
30
0.123379950896234
 70
     32
  0
VERTEX
  8
MY3DLAYER
10
60.0852612829919
20
1968.19218460735
30
0.123379950896885
 70
     32
  0
VERTEX
  8
MY3DLAYER
10
53.0852612829918
20
1968.19218460735
30
0.123379950896674
 70
     32
  0
VERTEX
  8
MY3DLAYER
10
53.0852612829917
20
1983.19218460735
30
0.12337995089716
 70
     32
  0
VERTEX
  8
MY3DLAYER
10
68.0852612829919
20
1983.19218460735
30
0.123379950897541
 70
     32
  0
VERTEX
  8
MY3DLAYER
10
68.0852612829919
20
1976.19218460735
30
0.123379950897327
 70
     32
  0
VERTEX
  8
MY3DLAYER
10
93.0852612829918
20
1976.19218460735
30
0.123379950897593
 70
     32
  0
VERTEX
  8
MY3DLAYER
10
93.0852612829918
20
1983.19218460735
30
0.123379950897897
 70
     32
  0
VERTEX
  8
MY3DLAYER
10
113.085261282992
20
1983.19218460735
30
0.123379950898073
 70
     32
  0
VERTEX
  8
MY3DLAYER
10
113.085261282992
20
1976.19218460735
30
0.123379950897792
 70
     32
  0
VERTEX
  8
MY3DLAYER
10
138.085261282992
20
1976.19218460735
30
0.12337995089781
 70
     32
  0
VERTEX
  8
MY3DLAYER
10
138.085261282992
20
1983.19218460735
30
0.123379950898204
 70
     32
  0
VERTEX
  8
MY3DLAYER
10
238.585261282988
20
1983.19218460735
30
0.123379950905248
 70
     32
  0
VERTEX
  8
MY3DLAYER
10
238.585261282988
20
1976.19218460735
30
0.123379950903726
 70
     32
  0
VERTEX
  8
MY3DLAYER
10
263.585261282988
20
1976.19218460735
30
0.123379950904037
 70
     32
  0
VERTEX
  8
MY3DLAYER
10
263.585261282988
20
1983.19218460735
30
0.123379950905153
 70
     32
  0
SEQEND
  0
POLYLINE
 8
Group#27
 66
     1
70
    8
 10
0.0
 20
 0.0
 30
0.0
  0
VERTEX
  8
MY3DLAYER
10
53.0852612829886
20
1665.7181994569
30
0.123379950901902
 70
     32
  0
VERTEX
  8
MY3DLAYER
10
53.0852612829886
20
1603.71019091079
30
0.123379950901722
 70
     32
  0
VERTEX
  8
MY3DLAYER
10
60.0852612829886
20
1603.71019091079
30
0.123379950901725
 70
     32
  0
VERTEX
  8
MY3DLAYER
10
60.0852612829888
20
1557.32684661822
30
0.123379950901905
 70
     32
  0
VERTEX
  8
MY3DLAYER
10
53.0852612829888
20
1557.32684661822
30
0.123379950902624
 70
     32
  0
VERTEX
  8
MY3DLAYER
10
53.0852612829888
20
1532.32684661822
30
0.123379950901541
 70
     32
  0
VERTEX
  8
MY3DLAYER
10
60.085261282989
20
1532.32684661822
30
0.123379950903349
 70
     32
  0
VERTEX
  8
MY3DLAYER
10
60.085261282989
20
1517.32684661822
30
0.123379950903349
 70
     32
  0
VERTEX
  8
MY3DLAYER
10
53.0852612829888
20
1517.32684661822
30
0.123379950901451
 70
     32
  0
VERTEX
  8
MY3DLAYER
10
53.085261282989
20
1492.32684661822
30
0.123379950900278
 70
     32
  0
VERTEX
  8
MY3DLAYER
10
60.085261282989
20
1492.32684661822
30
0.123379950901273
 70
     32
  0
VERTEX
  8
MY3DLAYER
10
60.085261282989
20
1477.32684661822
30
0.123379950901183
 70
     32
  0
VERTEX
  8
MY3DLAYER
10
68.0852612829858
20
1477.32684661822
30
0.123379950903443
 70
     32
  0
VERTEX
  8
MY3DLAYER
10
68.0852612829858
20
1470.32684661822
30
0.123379950903263
 70
     32
  0
VERTEX
  8
MY3DLAYER
10
85.0852612829858
20
1470.32684661822
30
0.12337995090228
 70
     32
  0
VERTEX
  8
MY3DLAYER
10
85.0852612829858
20
1477.32684661822
30
0.12337995090237
 70
     32
  0
VERTEX
  8
MY3DLAYER
10
118.08058171193
20
1477.32684661822
30
0.123379950903312
 70
     32
  0
VERTEX
  8
MY3DLAYER
10
118.08058171193
20
1470.32684661822
30
0.123379950903222
 70
     32
  0
VERTEX
  8
MY3DLAYER
10
135.080581711931
20
1470.32684661822
30
0.123379950902418
 70
     32
  0
VERTEX
  8
MY3DLAYER
10
135.080581711931
20
1477.32684661822
30
0.123379950902508
 70
     32
  0
VERTEX
  8
MY3DLAYER
10
143.080581711931
20
1477.32684661822
30
0.123379950902422
 70
     32
  0
VERTEX
  8
MY3DLAYER
10
143.080581711931
20
1792.30154374946
30
0.123379950902513
 70
     32
  0
VERTEX
  8
MY3DLAYER
10
135.080581711931
20
1792.30154374946
30
0.123379950902599
 70
     32
  0
VERTEX
  8
MY3DLAYER
10
135.080581711931
20
1799.30154374946
30
0.123379950902689
 70
     32
  0
VERTEX
  8
MY3DLAYER
10
118.080581711931
20
1799.30154374946
30
0.123379950903493
 70
     32
  0
VERTEX
  8
MY3DLAYER
10
118.080581711931
20
1792.30154374946
30
0.123379950903402
 70
     32
  0
VERTEX
  8
MY3DLAYER
10
85.0852612829867
20
1792.30154374946
30
0.123379950902461
 70
     32
  0
VERTEX
  8
MY3DLAYER
10
85.0852612829867
20
1799.30154374946
30
0.123379950902551
 70
     32
  0
VERTEX
  8
MY3DLAYER
10
68.0852612829868
20
1799.30154374946
30
0.123379950903624
 70
     32
  0
VERTEX
  8
MY3DLAYER
10
68.0852612829868
20
1792.30154374946
30
0.123379950903443
 70
     32
  0
VERTEX
  8
MY3DLAYER
10
60.0852612829881
20
1792.30154374946
30
0.123379950903529
 70
     32
  0
VERTEX
  8
MY3DLAYER
10
60.0852612829881
20
1777.30154374946
30
0.123379950903349
 70
     32
  0
VERTEX
  8
MY3DLAYER
10
53.0852612829888
20
1777.30154374946
30
0.123379950903526
 70
     32
  0
VERTEX
  8
MY3DLAYER
10
53.0852612829882
20
1752.30154374946
30
0.123379950902985
 70
     32
  0
VERTEX
  8
MY3DLAYER
10
60.0852612829883
20
1752.30154374946
30
0.123379950903168
 70
     32
  0
VERTEX
  8
MY3DLAYER
10
60.0852612829883
20
1737.30154374946
30
0.123379950902988
 70
     32
  0
VERTEX
  8
MY3DLAYER
10
53.0852612829888
20
1737.30154374946
30
0.123379950903346
 70
     32
  0
VERTEX
  8
MY3DLAYER
10
53.0852612829884
20
1712.30154374946
30
0.123379950902805
 70
     32
  0
VERTEX
  8
MY3DLAYER
10
60.0852612829884
20
1712.30154374946
30
0.123379950902807
 70
     32
  0
VERTEX
  8
MY3DLAYER
10
60.0852612829884
20
1665.7181994569
30
0.123379950901905
 70
     32
  0
VERTEX
  8
MY3DLAYER
10
53.0852612829886
20
1665.7181994569
30
0.123379950901902
 70
     32
  0
SEQEND
  0
POLYLINE
 8
Group#27
 66
     1
70
    8
 10
0.0
 20
 0.0
 30
0.0
  0
VERTEX
  8
MY3DLAYER
10
99.0852612829866
20
1782.30154374946
30
0.123379950901633
 70
     32
  0
VERTEX
  8
MY3DLAYER
10
99.0852612829844
20
1658.30154374946
30
0.123379950900302
 70
     32
  0
VERTEX
  8
MY3DLAYER
10
64.0852612829845
20
1658.30154374946
30
0.123379950899133
 70
     32
  0
VERTEX
  8
MY3DLAYER
10
64.0852612829867
20
1782.30154374946
30
0.123379950901772
 70
     32
  0
VERTEX
  8
MY3DLAYER
10
99.0852612829866
20
1782.30154374946
30
0.123379950901633
 70
     32
  0
SEQEND
  0
POLYLINE
 8
Group#27
 66
     1
70
    8
 10
0.0
 20
 0.0
 30
0.0
  0
VERTEX
  8
MY3DLAYER
10
64.0852612829814
20
1487.32684661822
30
0.123379950898434
 70
     32
  0
VERTEX
  8
MY3DLAYER
10
64.0852612829837
20
1611.32684661822
30
0.123379950901073
 70
     32
  0
VERTEX
  8
MY3DLAYER
10
99.0852612829836
20
1611.32684661822
30
0.123379950900934
 70
     32
  0
VERTEX
  8
MY3DLAYER
10
99.0852612829813
20
1487.32684661822
30
0.123379950899602
 70
     32
  0
VERTEX
  8
MY3DLAYER
10
64.0852612829814
20
1487.32684661822
30
0.123379950898434
 70
     32
  0
SEQEND
  0
LINE
 8
Group#27
10
119.388036888694
20
1485.93659392557
30
-0.161783885458616
11
120.02909088075
21
1485.82581955375
31
-0.158406440383092
  0
LINE
 8
Group#27
10
120.02909088075
20
1485.82581955375
30
-0.158406440383092
11
120.619634342749
21
1485.5529012857
31
-0.155831993825287
  0
LINE
 8
Group#27
10
120.619634342749
20
1485.5529012857
30
-0.155831993825287
11
121.119422713674
21
1485.13643805037
31
-0.154235990063802
  0
LINE
 8
Group#27
10
117.181546568932
20
1484.77832387383
30
-0.178246227693532
11
117.332859824961
21
1484.95991714162
31
-0.176796302305053
  0
LINE
 8
Group#27
10
121.119422713674
20
1485.13643805037
30
-0.154235990063802
11
121.494396241987
21
1484.60481112902
31
-0.153727194117408
  0
LINE
 8
Group#27
10
121.494396241987
20
1484.60481112902
30
-0.153727194117408
11
121.719001101406
21
1483.99425001777
31
-0.154340279588937
  0
LINE
 8
Group#27
10
121.719001101406
20
1483.99425001777
30
-0.154340279588937
11
121.773172628173
21
1483.31882406691
31
-0.156147646811411
  0
LINE
 8
Group#27
10
120.446202421415
20
1481.24000323894
30
-0.170391008243862
11
120.194656693578
21
1481.14746980158
31
-0.172143610905185
  0
LINE
 8
Group#27
10
119.835652707704
20
1481.01540684378
30
-0.17464491095303
11
119.511713831731
21
1480.98594753639
31
-0.176620049099528
  0
LINE
 8
Group#27
10
119.187774955757
20
1480.956488229
30
-0.178595187246028
11
118.546720963701
21
1481.06726260082
31
-0.181972632321553
  0
LINE
 8
Group#27
10
118.546720963701
20
1481.06726260082
30
-0.181972632321553
11
117.956177501702
21
1481.34018086886
31
-0.184547078879358
  0
LINE
 8
Group#27
10
117.956177501702
20
1481.34018086886
30
-0.184547078879358
11
117.456389130777
21
1481.75664410419
31
-0.186143082640843
  0
LINE
 8
Group#27
10
117.456389130777
20
1481.75664410419
30
-0.186143082640843
11
117.081415602464
21
1482.28827102554
31
-0.186651878587237
  0
LINE
 8
Group#27
10
117.081415602464
20
1482.28827102554
30
-0.186651878587237
11
116.856810743045
21
1482.89883213679
31
-0.186038793115708
  0
LINE
 8
Group#27
10
116.856810743045
20
1482.89883213679
30
-0.186038793115708
11
116.797881002512
21
1483.54671870721
31
-0.184345606987817
  0
LINE
 8
Group#27
10
116.797881002512
20
1483.54671870721
30
-0.184345606987817
11
116.908642345298
21
1484.18777833769
31
-0.181687708040134
  0
LINE
 8
Group#27
10
119.331148055668
20
1655.04931697541
30
-0.152256043809029
11
119.978174464757
21
1654.96412183772
31
-0.148763520046205
  0
LINE
 8
Group#27
10
121.496142392668
20
1651.29935688087
30
-0.151456499201867
11
121.09885914779
21
1650.78160779321
31
-0.155392084457065
  0
LINE
 8
Group#27
10
121.09885914779
20
1650.78160779321
30
-0.155392084457065
11
120.58110940061
21
1650.38432872362
31
-0.159649246742479
  0
LINE
 8
Group#27
10
120.58110940061
20
1650.38432872362
30
-0.159649246742479
11
119.978176940774
21
1650.13459358417
31
-0.163937867483615
  0
LINE
 8
Group#27
10
119.978176940774
20
1650.13459358417
30
-0.163937867483615
11
119.331150619029
21
1650.0494214119
31
-0.167965684264228
  0
LINE
 8
Group#27
10
119.331150619029
20
1650.0494214119
30
-0.167965684264228
11
118.68412420994
21
1650.13461654959
31
-0.171458208027051
  0
LINE
 8
Group#27
10
118.68412420994
20
1650.13461654959
30
-0.171458208027051
11
118.081191494024
21
1650.38437308941
31
-0.174177429049397
  0
LINE
 8
Group#27
10
118.081191494024
20
1650.38437308941
30
-0.174177429049397
11
117.563441339477
21
1650.78167053591
31
-0.175938036912095
  0
LINE
 8
Group#27
10
117.563441339477
20
1650.78167053591
30
-0.175938036912095
11
117.16615756371
21
1651.29943372468
31
-0.176620049099079
  0
LINE
 8
Group#27
10
117.16615756371
20
1651.29943372468
30
-0.176620049099079
11
116.916414399498
21
1651.90237795004
31
-0.176176987606704
  0
LINE
 8
Group#27
10
116.916414399498
20
1651.90237795004
30
-0.176176987606704
11
116.831231430762
21
1652.54941355945
31
-0.174639046343546
  0
LINE
 8
Group#27
10
116.831231430762
20
1652.54941355945
30
-0.174639046343546
11
116.916413736051
21
1653.1964461454
31
-0.172111033465197
  0
LINE
 8
Group#27
10
116.916413736051
20
1653.1964461454
30
-0.172111033465197
11
117.166156282029
21
1653.79938150644
31
-0.168765228871389
  0
LINE
 8
Group#27
10
117.166156282029
20
1653.79938150644
30
-0.168765228871389
11
117.563439526907
21
1654.3171305941
31
-0.164829643616191
  0
LINE
 8
Group#27
10
117.563439526907
20
1654.3171305941
30
-0.164829643616191
11
118.081189274087
21
1654.71440966369
31
-0.160572481330777
  0
LINE
 8
Group#27
10
118.081189274087
20
1654.71440966369
30
-0.160572481330777
11
118.684121733923
21
1654.96414480314
31
-0.156283860589641
  0
LINE
 8
Group#27
10
118.684121733923
20
1654.96414480314
30
-0.156283860589641
11
119.331148055668
21
1655.04931697541
31
-0.152256043809029
  0
LINE
 8
Group#27
10
119.978174464757
20
1654.96412183772
30
-0.148763520046205
11
120.581107180673
21
1654.7143652979
31
-0.146044299023859
  0
LINE
 8
Group#27
10
120.581107180673
20
1654.7143652979
30
-0.146044299023859
11
121.09885733522
21
1654.3170678514
31
-0.144283691161161
  0
LINE
 8
Group#27
10
121.09885733522
20
1654.3170678514
30
-0.144283691161161
11
121.496141110987
21
1653.79930466263
31
-0.143601678974177
  0
LINE
 8
Group#27
10
121.496141110987
20
1653.79930466263
30
-0.143601678974177
11
121.745884275199
21
1653.19636043727
31
-0.144044740466552
  0
LINE
 8
Group#27
10
121.745884275199
20
1653.19636043727
30
-0.144044740466552
11
121.831067243935
21
1652.54932482786
31
-0.14558268172971
  0
LINE
 8
Group#27
10
121.831067243935
20
1652.54932482786
30
-0.14558268172971
11
121.745884938646
21
1651.90229224191
31
-0.148110694608059
  0
LINE
 8
Group#27
10
121.745884938646
20
1651.90229224191
30
-0.148110694608059
11
121.496142392668
21
1651.29935688087
31
-0.151456499201867
  0
POLYLINE
 8
Group#27
 66
     1
70
    8
 10
0.0
 20
 0.0
 30
0.0
  0
VERTEX
  8
MY3DLAYER
10
121.538925883049
20
1615.78143921638
30
-0.160454236447827
 70
     32
  0
VERTEX
  8
MY3DLAYER
10
121.186569523666
20
1615.23512291637
30
-0.164218486318085
 70
     32
  0
VERTEX
  8
MY3DLAYER
10
120.704822377535
20
1614.79862210103
30
-0.16838965338054
 70
     32
  0
VERTEX
  8
MY3DLAYER
10
120.12651471654
20
1614.50168357958
30
-0.172683479493024
 70
     32
  0
VERTEX
  8
MY3DLAYER
10
119.491057252078
20
1614.36454322153
30
-0.176807347501944
 70
     32
  0
VERTEX
  8
MY3DLAYER
10
118.841755360211
20
1614.39654691566
30
-0.180480222617399
 70
     32
  0
VERTEX
  8
MY3DLAYER
10
118.222857891847
20
1614.5955136631
30
-0.183451804470102
 70
     32
  0
VERTEX
  8
MY3DLAYER
10
117.676541686677
20
1614.94788420881
30
-0.185519584667501
 70
     32
  0
VERTEX
  8
MY3DLAYER
10
117.240037291255
20
1615.42964508243
30
-0.18654264740626
 70
     32
  0
VERTEX
  8
MY3DLAYER
10
116.943091758771
20
1616.00796507657
30
-0.186451272651545
 70
     32
  0
VERTEX
  8
MY3DLAYER
10
116.805941436538
20
1616.64343263934
30
-0.185251687441794
 70
     32
  0
VERTEX
  8
MY3DLAYER
10
116.837932892363
20
1617.29274170651
30
-0.183025641526709
 70
     32
  0
VERTEX
  8
MY3DLAYER
10
117.036885961403
20
1617.91164293818
30
-0.179924836256638
 70
     32
  0
VERTEX
  8
MY3DLAYER
10
117.389242320786
20
1618.45795923819
30
-0.176160586386379
 70
     32
  0
VERTEX
  8
MY3DLAYER
10
117.870989466917
20
1618.89446005353
30
-0.171989419323924
 70
     32
  0
VERTEX
  8
MY3DLAYER
10
118.449297127912
20
1619.19139857498
30
-0.167695593211441
 70
     32
  0
VERTEX
  8
MY3DLAYER
10
119.084754592373
20
1619.32853893303
30
-0.16357172520252
 70
     32
  0
VERTEX
  8
MY3DLAYER
10
119.734056484241
20
1619.2965352389
30
-0.159898850087066
 70
     32
  0
VERTEX
  8
MY3DLAYER
10
120.352953952605
20
1619.09756849146
30
-0.156927268234362
 70
     32
  0
VERTEX
  8
MY3DLAYER
10
120.899270157775
20
1618.74519794575
30
-0.154859488036963
 70
     32
  0
VERTEX
  8
MY3DLAYER
10
121.335774553197
20
1618.26343707213
30
-0.153836425298204
 70
     32
  0
VERTEX
  8
MY3DLAYER
10
121.632720085681
20
1617.68511707799
30
-0.153927800052919
 70
     32
  0
VERTEX
  8
MY3DLAYER
10
121.769870407914
20
1617.04964951522
30
-0.15512738526267
 70
     32
  0
VERTEX
  8
MY3DLAYER
10
121.737878952088
20
1616.40034044805
30
-0.157353431177755
 70
     32
  0
VERTEX
  8
MY3DLAYER
10
121.538925883049
20
1615.78143921638
30
-0.160454236447827
 70
     32
  0
SEQEND
  0
POLYLINE
 8
Group#27
 66
     1
70
    8
 10
0.0
 20
 0.0
 30
0.0
  0
VERTEX
  8
MY3DLAYER
10
117.520196111784
20
1607.71430247773
30
-0.174908315931795
 70
     32
  0
VERTEX
  8
MY3DLAYER
10
118.037945858965
20
1608.11158154731
30
-0.170651153646381
 70
     32
  0
VERTEX
  8
MY3DLAYER
10
118.6408783188
20
1608.36131668677
30
-0.166362532905245
 70
     32
  0
VERTEX
  8
MY3DLAYER
10
119.287904640545
20
1608.44648885904
30
-0.162334716124633
 70
     32
  0
VERTEX
  8
MY3DLAYER
10
119.934931049635
20
1608.36129372134
30
-0.158842192361809
 70
     32
  0
VERTEX
  8
MY3DLAYER
10
120.537863765551
20
1608.11153718152
30
-0.156122971339463
 70
     32
  0
VERTEX
  8
MY3DLAYER
10
121.055613920097
20
1607.71423973502
30
-0.154362363476765
 70
     32
  0
VERTEX
  8
MY3DLAYER
10
121.452897695865
20
1607.19647654626
30
-0.153680351289781
 70
     32
  0
VERTEX
  8
MY3DLAYER
10
121.702640860076
20
1606.5935323209
30
-0.154123412782156
 70
     32
  0
VERTEX
  8
MY3DLAYER
10
121.787823828812
20
1605.94649671149
30
-0.155661354045315
 70
     32
  0
VERTEX
  8
MY3DLAYER
10
121.702641523523
20
1605.29946412554
30
-0.158189366923663
 70
     32
  0
VERTEX
  8
MY3DLAYER
10
121.452898977545
20
1604.6965287645
30
-0.161535171517471
 70
     32
  0
VERTEX
  8
MY3DLAYER
10
121.055615732668
20
1604.17877967684
30
-0.165470756772669
 70
     32
  0
VERTEX
  8
MY3DLAYER
10
120.537865985487
20
1603.78150060725
30
-0.169727919058083
 70
     32
  0
VERTEX
  8
MY3DLAYER
10
119.934933525652
20
1603.53176546779
30
-0.17401653979922
 70
     32
  0
VERTEX
  8
MY3DLAYER
10
119.287907203907
20
1603.44659329552
30
-0.178044356579832
 70
     32
  0
VERTEX
  8
MY3DLAYER
10
118.640880794817
20
1603.53178843322
30
-0.181536880342655
 70
     32
  0
VERTEX
  8
MY3DLAYER
10
118.037948078901
20
1603.78154497304
30
-0.184256101365002
 70
     32
  0
VERTEX
  8
MY3DLAYER
10
117.520197924354
20
1604.17884241954
30
-0.186016709227699
 70
     32
  0
VERTEX
  8
MY3DLAYER
10
117.122914148587
20
1604.6966056083
30
-0.186698721414683
 70
     32
  0
VERTEX
  8
MY3DLAYER
10
116.873170984375
20
1605.29954983366
30
-0.186255659922308
 70
     32
  0
VERTEX
  8
MY3DLAYER
10
116.78798801564
20
1605.94658544307
30
-0.18471771865915
 70
     32
  0
VERTEX
  8
MY3DLAYER
10
116.873170320928
20
1606.59361802903
30
-0.182189705780801
 70
     32
  0
VERTEX
  8
MY3DLAYER
10
117.122912866906
20
1607.19655339006
30
-0.178843901186993
 70
     32
  0
VERTEX
  8
MY3DLAYER
10
117.520196111784
20
1607.71430247773
30
-0.174908315931795
 70
     32
  0
SEQEND
  0
LINE
 8
Group#27
10
118.79267997936
20
1485.88245160582
30
-0.165413928746391
11
119.388036888694
21
1485.93659392557
31
-0.161783885458616
  0
LINE
 8
Group#27
10
121.633140831617
20
1482.63166817486
30
-0.159120485874115
11
121.394265275519
21
1482.11475828073
31
-0.162132845011113
  0
LINE
 8
Group#27
10
120.725478957187
20
1481.42002641589
30
-0.168202354978124
11
120.637081030786
21
1481.37463751421
31
-0.168858693031854
  0
LINE
 8
Group#27
10
116.908642345298
20
1484.18777833769
30
-0.181687708040134
11
117.095131309437
21
1484.59132733318
31
-0.179335974173837
  0
LINE
 8
Group#27
10
120.147171296192
20
1481.12308789443
30
-0.172496181090608
11
120.10169838244
21
1481.11327422157
31
-0.172791282344103
  0
LINE
 8
Group#27
10
119.511713831731
20
1480.98594753639
30
-0.176620049099528
11
119.187774955757
21
1480.956488229
31
-0.178595187246028
  0
LINE
 8
Group#27
10
117.095131309437
20
1484.59132733318
30
-0.179335974173837
11
117.332859824961
21
1484.95991714162
31
-0.176796302305053
  0
LINE
 8
Group#27
10
120.619634342749
20
1485.5529012857
30
-0.155831993825287
11
120.919926737427
21
1485.3666022606
31
-0.154672189634548
  0
LINE
 8
Group#27
10
120.194656693578
20
1481.14746980158
30
-0.172143610905185
11
120.147171296192
21
1481.12308789443
31
-0.172496181090608
  0
LINE
 8
Group#27
10
120.637081030786
20
1481.37463751421
30
-0.168858693031854
11
120.194656693578
21
1481.14746980158
31
-0.172143610905185
  0
LINE
 8
Group#27
10
121.494396241987
20
1484.60481112902
30
-0.153727194117408
11
121.653376665333
21
1484.30652139285
31
-0.153740501650504
  0
LINE
 8
Group#27
10
120.02909088075
20
1485.82581955375
30
-0.158406440383092
11
120.373610532257
21
1485.71897280632
31
-0.156739969831947
  0
LINE
 8
Group#27
10
120.977816142882
20
1481.6149715413
30
-0.166123375558257
11
120.809975145143
21
1481.49658660982
31
-0.167470751856185
  0
LINE
 8
Group#27
10
121.092401467363
20
1481.75248707734
30
-0.165025387348526
11
120.977816142882
21
1481.6149715413
31
-0.166123375558257
  0
LINE
 8
Group#27
10
118.129609423036
20
1485.65307891562
30
-0.169988064460783
11
118.232833360796
21
1485.69105080193
31
-0.169268868990314
  0
LINE
 8
Group#27
10
118.05128075547
20
1485.59783059091
30
-0.170616863094711
11
118.129609423036
21
1485.65307891562
31
-0.169988064460783
  0
LINE
 8
Group#27
10
117.597995701569
20
1485.27811061326
30
-0.174255697146388
11
117.739057350015
21
1485.37760700455
31
-0.173123297290393
  0
LINE
 8
Group#27
10
117.501692682779
20
1485.16253594162
30
-0.175178499256232
11
117.597995701569
21
1485.27811061326
31
-0.174255697146388
  0
LINE
 8
Group#27
10
121.119422713674
20
1485.13643805037
30
-0.154235990063802
11
121.356431132849
21
1484.88484138698
31
-0.153649126895789
  0
LINE
 8
Group#27
10
119.388036888694
20
1485.93659392557
30
-0.161783885458616
11
119.754713063893
21
1485.91793955375
31
-0.15971155168465
  0
LINE
 8
Group#27
10
121.773172628173
20
1483.31882406691
30
-0.156147646811411
11
121.633140831617
21
1482.63166817486
31
-0.159120485874115
  0
LINE
 8
Group#27
10
121.394265275519
20
1482.11475828073
30
-0.162132845011113
11
121.30359410963
21
1482.00594247873
31
-0.163001681151845
  0
LINE
 8
Group#27
10
120.10169838244
20
1481.11327422157
30
-0.172791282344103
11
119.511713831731
21
1480.98594753639
31
-0.176620049099528
  0
LINE
 8
Group#27
10
118.232833360796
20
1485.69105080193
30
-0.169268868990314
11
118.79267997936
21
1485.88245160582
31
-0.165413928746391
  0
LINE
 8
Group#27
10
121.719001101406
20
1483.99425001777
30
-0.154340279588937
11
121.790526987567
21
1483.67105383007
31
-0.154940086860255
  0
LINE
 8
Group#27
10
120.637081030786
20
1481.37463751421
30
-0.168858693031854
11
120.446202421415
21
1481.24000323894
31
-0.170391008243862
  0
LINE
 8
Group#27
10
117.095131309437
20
1484.59132733318
30
-0.179335974173837
11
117.181546568932
21
1484.77832387383
31
-0.178246227693532
  0
LINE
 8
Group#27
10
120.10169838244
20
1481.11327422157
30
-0.172791282344103
11
119.835652707704
21
1481.01540684378
31
-0.17464491095303
  0
LINE
 8
Group#27
10
117.332859824961
20
1484.95991714162
30
-0.176796302305053
11
117.409898900438
21
1485.07936355304
31
-0.175973287983964
  0
LINE
 8
Group#27
10
121.773172628173
20
1483.31882406691
30
-0.156147646811411
11
121.758535531741
21
1483.0217447629
31
-0.15716613277534
  0
LINE
 8
Group#27
10
120.809975145143
20
1481.49658660982
30
-0.167470751856185
11
120.725478957187
21
1481.42002641589
31
-0.168202354978124
  0
LINE
 8
Group#27
10
118.232833360796
20
1485.69105080193
30
-0.169268868990314
11
118.469953707564
21
1485.81280288983
31
-0.167508294809025
  0
LINE
 8
Group#27
10
117.739057350015
20
1485.37760700455
30
-0.173123297290393
11
117.891646046569
21
1485.51586436838
31
-0.171802120921509
  0
LINE
 8
Group#27
10
121.633140831617
20
1482.63166817486
30
-0.159120485874115
11
121.559582462701
21
1482.40284353124
31
-0.160266938045411
  0
LINE
 8
Group#27
10
121.30359410963
20
1482.00594247873
30
-0.163001681151845
11
121.207226103318
21
1481.85652723123
31
-0.164031187915669
  0
LINE
 8
Group#27
10
118.79267997936
20
1485.88245160582
30
-0.165413928746391
11
119.105411172026
21
1485.94994324788
31
-0.163384426800105
  0
LINE
 8
Group#27
10
117.358748457837
20
1664.40223414625
30
0.130742698141608
11
117.445163717332
21
1664.5892306869
31
0.131832444621914
  0
LINE
 8
Group#27
10
120.900698179186
20
1661.18554432728
30
0.141219979283592
11
120.709819569815
21
1661.05091005201
31
0.139687664071584
  0
LINE
 8
Group#27
10
117.596476973361
20
1664.77082395469
30
0.133282370010393
11
117.673516048838
21
1664.89027036612
31
0.134105384331481
  0
LINE
 8
Group#27
10
119.651654037094
20
1665.74750073864
30
0.148294786856829
11
120.018330212293
21
1665.72884636683
31
0.150367120630795
  0
LINE
 8
Group#27
10
119.05629712776
20
1665.6933584189
30
0.144664743569055
11
119.651654037094
21
1665.74750073864
31
0.148294786856829
  0
LINE
 8
Group#27
10
118.496450509196
20
1665.50195761501
30
0.140809803325132
11
119.05629712776
21
1665.6933584189
31
0.144664743569055
  0
LINE
 8
Group#27
10
120.36531553084
20
1660.92418103465
30
0.137287389971343
11
120.099269856104
21
1660.82631365685
31
0.135433761362416
  0
LINE
 8
Group#27
10
122.036789776574
20
1663.12973087998
30
0.153931025504036
11
121.896757980017
21
1662.44257498794
31
0.15095818644133
  0
LINE
 8
Group#27
10
117.861612849969
20
1665.08901742633
30
0.135822975169058
11
118.002674498415
21
1665.18851381762
31
0.136955375025053
  0
LINE
 8
Group#27
10
121.241433291282
20
1661.42587835438
30
0.143955296757189
11
121.073592293543
21
1661.3074934229
31
0.142607920459261
  0
LINE
 8
Group#27
10
118.393226571436
20
1665.4639857287
30
0.140090607854663
11
118.496450509196
21
1665.50195761501
31
0.140809803325132
  0
LINE
 8
Group#27
10
120.883251491149
20
1665.36380809877
30
0.154246678490159
11
121.183543885827
21
1665.17750907368
31
0.155406482680898
  0
LINE
 8
Group#27
10
121.758013390387
20
1664.41571794209
30
0.156351478198038
11
121.916993813733
21
1664.11742820592
31
0.156338170664942
  0
LINE
 8
Group#27
10
120.458273841978
20
1660.95837661465
30
0.13793506141026
11
120.410788444592
21
1660.93399470751
31
0.137582491224837
  0
LINE
 8
Group#27
10
117.358748457837
20
1664.40223414625
30
0.130742698141608
11
117.596476973361
21
1664.77082395469
31
0.133282370010393
  0
LINE
 8
Group#27
10
121.657882423919
20
1661.92566509381
30
0.147945827304332
11
121.56721125803
21
1661.81684929181
31
0.147076991163601
  0
LINE
 8
Group#27
10
119.775330980131
20
1660.79685434946
30
0.133458623215917
11
119.451392104157
21
1660.76739504207
31
0.131483485069419
  0
LINE
 8
Group#27
10
120.36531553084
20
1660.92418103465
30
0.137287389971343
11
119.775330980131
21
1660.79685434946
31
0.133458623215917
  0
LINE
 8
Group#27
10
120.900698179186
20
1661.18554432728
30
0.141219979283592
11
120.458273841978
21
1660.95837661465
31
0.13793506141026
  0
LINE
 8
Group#27
10
120.410788444592
20
1660.93399470751
30
0.137582491224837
11
120.36531553084
21
1660.92418103465
31
0.137287389971343
  0
LINE
 8
Group#27
10
121.896757980017
20
1662.44257498794
30
0.15095818644133
11
121.657882423919
21
1661.92566509381
31
0.147945827304332
  0
LINE
 8
Group#27
10
122.036789776574
20
1663.12973087998
30
0.153931025504036
11
122.022152680141
21
1662.83265157598
31
0.152912539540107
  0
LINE
 8
Group#27
10
121.073592293543
20
1661.3074934229
30
0.142607920459261
11
120.989096105587
21
1661.23093322896
31
0.141876317337321
  0
LINE
 8
Group#27
10
121.896757980017
20
1662.44257498794
30
0.15095818644133
11
121.823199611101
21
1662.21375034431
31
0.149811734270034
  0
LINE
 8
Group#27
10
118.31489790387
20
1665.40873740399
30
0.139461809220735
11
118.393226571436
21
1665.4639857287
31
0.140090607854663
  0
LINE
 8
Group#27
10
118.496450509196
20
1665.50195761501
30
0.140809803325132
11
118.733570855964
21
1665.62370970291
31
0.14257037750642
  0
LINE
 8
Group#27
10
118.002674498415
20
1665.18851381762
30
0.136955375025053
11
118.155263194969
21
1665.32677118146
31
0.138276551393937
  0
LINE
 8
Group#27
10
121.383039862074
20
1664.94734486345
30
0.155842682251643
11
121.620048281249
21
1664.69574820006
31
0.156429545419656
  0
LINE
 8
Group#27
10
117.172259493698
20
1663.99868515076
30
0.128390964275311
11
117.358748457837
21
1664.40223414625
31
0.130742698141608
  0
LINE
 8
Group#27
10
121.356018615763
20
1661.56339389042
30
0.145053284966919
11
121.241433291282
21
1661.42587835438
31
0.143955296757189
  0
LINE
 8
Group#27
10
119.05629712776
20
1665.6933584189
30
0.144664743569055
11
119.369028320426
21
1665.76085006096
31
0.146694245515342
  0
LINE
 8
Group#27
10
121.982618249806
20
1663.80515683084
30
0.155738392726509
11
122.054144135967
21
1663.48196064315
31
0.155138585455192
  0
LINE
 8
Group#27
10
120.29270802915
20
1665.63672636682
30
0.151672231932354
11
120.637227680657
21
1665.52987961939
31
0.153338702483499
  0
LINE
 8
Group#27
10
121.56721125803
20
1661.81684929181
30
0.147076991163601
11
121.470843251718
21
1661.6674340443
31
0.146047484399776
  0
LINE
 8
Group#27
10
117.765309831179
20
1664.9734427547
30
0.134900173059213
11
117.861612849969
21
1665.08901742633
31
0.135822975169058
  0
LINE
 8
Group#27
10
120.989096105587
20
1661.23093322896
30
0.141876317337321
11
120.900698179186
21
1661.18554432728
31
0.141219979283592
  0
LINE
 8
Group#27
10
117.05160516404
20
1785.75749225615
30
0.125360953656296
11
117.136787469328
21
1786.4045248421
31
0.127888966534644
  0
LINE
 8
Group#27
10
117.136787469328
20
1786.4045248421
30
0.127888966534644
11
117.386530015306
21
1787.00746020314
31
0.131234771128453
  0
LINE
 8
Group#27
10
117.386530015306
20
1787.00746020314
30
0.131234771128453
11
117.783813260184
21
1787.5252092908
31
0.135170356383651
  0
LINE
 8
Group#27
10
117.783813260184
20
1787.5252092908
30
0.135170356383651
11
118.301563007365
21
1787.92248836039
31
0.139427518669065
  0
LINE
 8
Group#27
10
118.301563007365
20
1787.92248836039
30
0.139427518669065
11
118.9044954672
21
1788.17222349984
31
0.143716139410201
  0
LINE
 8
Group#27
10
118.9044954672
20
1788.17222349984
30
0.143716139410201
11
119.551521788945
21
1788.25739567211
31
0.147743956190814
  0
LINE
 8
Group#27
10
119.551521788945
20
1788.25739567211
30
0.147743956190814
11
120.198548198035
21
1788.17220053442
31
0.151236479953637
  0
LINE
 8
Group#27
10
120.198548198035
20
1788.17220053442
30
0.151236479953637
11
120.801480913951
21
1787.9224439946
31
0.153955700975983
  0
LINE
 8
Group#27
10
120.801480913951
20
1787.9224439946
30
0.153955700975983
11
121.319231068497
21
1787.5251465481
31
0.155716308838681
  0
LINE
 8
Group#27
10
119.651654037094
20
1665.74750073864
30
0.148294786856829
11
120.29270802915
21
1665.63672636682
31
0.151672231932354
  0
LINE
 8
Group#27
10
120.29270802915
20
1665.63672636682
30
0.151672231932354
11
120.883251491149
21
1665.36380809877
31
0.154246678490159
  0
LINE
 8
Group#27
10
120.883251491149
20
1665.36380809877
30
0.154246678490159
11
121.383039862074
21
1664.94734486345
31
0.155842682251643
  0
LINE
 8
Group#27
10
121.319231068497
20
1787.5251465481
30
0.155716308838681
11
121.716514844265
21
1787.00738335933
31
0.156398321025664
  0
LINE
 8
Group#27
10
121.716514844265
20
1787.00738335933
30
0.156398321025664
11
121.966258008477
21
1786.40443913397
31
0.155955259533289
  0
LINE
 8
Group#27
10
121.966258008477
20
1786.40443913397
30
0.155955259533289
11
122.051440977212
21
1785.75740352456
31
0.154417318270133
  0
LINE
 8
Group#27
10
122.051440977212
20
1785.75740352456
30
0.154417318270133
11
121.966258671923
21
1785.11037093861
31
0.151889305391783
  0
LINE
 8
Group#27
10
121.966258671923
20
1785.11037093861
30
0.151889305391783
11
121.716516125945
21
1784.50743557757
31
0.148543500797974
  0
LINE
 8
Group#27
10
121.716516125945
20
1784.50743557757
30
0.148543500797974
11
121.319232881068
21
1783.98968648991
31
0.144607915542776
  0
LINE
 8
Group#27
10
121.319232881068
20
1783.98968648991
30
0.144607915542776
11
120.801483133887
21
1783.59240742032
31
0.140350753257362
  0
LINE
 8
Group#27
10
120.801483133887
20
1783.59240742032
30
0.140350753257362
11
120.198550674052
21
1783.34267228087
31
0.136062132516226
  0
LINE
 8
Group#27
10
120.198550674052
20
1783.34267228087
30
0.136062132516226
11
119.551524352307
21
1783.2575001086
31
0.132034315735615
  0
LINE
 8
Group#27
10
119.551524352307
20
1783.2575001086
30
0.132034315735615
11
118.904497943217
21
1783.34269524629
31
0.12854179197279
  0
LINE
 8
Group#27
10
118.904497943217
20
1783.34269524629
30
0.12854179197279
11
118.301565227301
21
1783.59245178611
31
0.125822570950444
  0
LINE
 8
Group#27
10
118.301565227301
20
1783.59245178611
30
0.125822570950444
11
117.783815072754
21
1783.98974923261
31
0.124061963087747
  0
LINE
 8
Group#27
10
117.783815072754
20
1783.98974923261
30
0.124061963087747
11
117.386531296987
21
1784.50751242138
31
0.123379950900763
  0
LINE
 8
Group#27
10
117.386531296987
20
1784.50751242138
30
0.123379950900763
11
117.136788132775
21
1785.11045664674
31
0.123823012393138
  0
LINE
 8
Group#27
10
117.136788132775
20
1785.11045664674
30
0.123823012393138
11
117.05160516404
21
1785.75749225615
31
0.125360953656296
  0
LINE
 8
Group#27
10
117.445163717332
20
1664.5892306869
30
0.131832444621914
11
117.596476973361
21
1664.77082395469
31
0.133282370010393
  0
LINE
 8
Group#27
10
121.383039862074
20
1664.94734486345
30
0.155842682251643
11
121.758013390387
21
1664.41571794209
31
0.156351478198038
  0
LINE
 8
Group#27
10
121.758013390387
20
1664.41571794209
30
0.156351478198038
11
121.982618249806
21
1663.80515683084
31
0.155738392726509
  0
LINE
 8
Group#27
10
121.982618249806
20
1663.80515683084
30
0.155738392726509
11
122.036789776574
21
1663.12973087998
31
0.153931025504036
  0
LINE
 8
Group#27
10
120.709819569815
20
1661.05091005201
30
0.139687664071584
11
120.458273841978
21
1660.95837661465
31
0.13793506141026
  0
LINE
 8
Group#27
10
120.099269856104
20
1660.82631365685
30
0.135433761362416
11
119.775330980131
21
1660.79685434946
31
0.133458623215917
  0
LINE
 8
Group#27
10
119.451392104157
20
1660.76739504207
30
0.131483485069419
11
118.810338112101
21
1660.87816941389
31
0.128106039993893
  0
LINE
 8
Group#27
10
118.810338112101
20
1660.87816941389
30
0.128106039993893
11
118.219794650102
21
1661.15108768194
31
0.125531593436088
  0
LINE
 8
Group#27
10
118.219794650102
20
1661.15108768194
30
0.125531593436088
11
117.720006279177
21
1661.56755091726
31
0.123935589674603
  0
LINE
 8
Group#27
10
117.720006279177
20
1661.56755091726
30
0.123935589674603
11
117.345032750864
21
1662.09917783862
31
0.123426793728209
  0
LINE
 8
Group#27
10
117.345032750864
20
1662.09917783862
30
0.123426793728209
11
117.120427891445
21
1662.70973894987
31
0.124039879199738
  0
LINE
 8
Group#27
10
117.120427891445
20
1662.70973894987
30
0.124039879199738
11
117.061498150912
21
1663.35762552028
31
0.125733065327628
  0
LINE
 8
Group#27
10
117.061498150912
20
1663.35762552028
30
0.125733065327628
11
117.172259493698
21
1663.99868515076
31
0.128390964275311
  0
LINE
 8
Group#27
10
119.998831044409
20
1521.58552615257
30
-0.148576221643789
11
120.601763760326
21
1521.33576961275
31
-0.145857000621443
  0
LINE
 8
Group#27
10
121.51679769064
20
1520.42070897748
30
-0.143414380571762
11
121.766540854851
21
1519.81776475212
31
-0.143857442064137
  0
LINE
 8
Group#27
10
118.10184585374
20
1521.33581397854
30
-0.160385182928362
11
118.704778313575
21
1521.58554911799
31
-0.156096562187225
  0
LINE
 8
Group#27
10
121.851723823587
20
1519.17072914272
30
-0.145395383327295
11
121.766541518298
21
1518.52369655676
31
-0.147923396205644
  0
LINE
 8
Group#27
10
118.704780789592
20
1516.75602086445
30
-0.171270909624636
11
118.101848073676
21
1517.00577740427
31
-0.173990130646982
  0
LINE
 8
Group#27
10
116.93707097915
20
1518.52378226489
30
-0.175989689204288
11
116.851888010415
21
1519.1708178743
31
-0.17445174794113
  0
LINE
 8
Group#27
10
117.186812861681
20
1520.42078582129
30
-0.168577930468973
11
117.584096106559
21
1520.93853490895
31
-0.164642345213776
  0
LINE
 8
Group#27
10
118.101848073676
20
1517.00577740427
30
-0.173990130646982
11
117.584097919129
21
1517.40307485077
31
-0.17575073850968
  0
LINE
 8
Group#27
10
117.584096106559
20
1520.93853490895
30
-0.164642345213776
11
118.10184585374
21
1521.33581397854
31
-0.160385182928362
  0
LINE
 8
Group#27
10
120.601763760326
20
1521.33576961275
30
-0.145857000621443
11
121.119513914872
21
1520.93847216625
31
-0.144096392758746
  0
LINE
 8
Group#27
10
116.937070315703
20
1519.81785046025
30
-0.171923735062782
11
117.186812861681
21
1520.42078582129
31
-0.168577930468973
  0
LINE
 8
Group#27
10
119.35180463532
20
1521.67072129027
30
-0.152068745406612
11
119.998831044409
21
1521.58552615257
31
-0.148576221643789
  0
LINE
 8
Group#27
10
121.119513914872
20
1520.93847216625
30
-0.144096392758746
11
121.51679769064
21
1520.42070897748
31
-0.143414380571762
  0
LINE
 8
Group#27
10
121.119515727443
20
1517.40301210806
30
-0.15520478605465
11
120.601765980262
21
1517.00573303847
31
-0.159461948340064
  0
LINE
 8
Group#27
10
121.766541518298
20
1518.52369655676
30
-0.147923396205644
11
121.51679897232
21
1517.92076119573
31
-0.151269200799452
  0
LINE
 8
Group#27
10
118.704778313575
20
1521.58554911799
30
-0.156096562187225
11
119.35180463532
21
1521.67072129027
31
-0.152068745406612
  0
LINE
 8
Group#27
10
116.851888010415
20
1519.1708178743
30
-0.17445174794113
11
116.937070315703
21
1519.81785046025
31
-0.171923735062782
  0
LINE
 8
Group#27
10
121.766540854851
20
1519.81776475212
30
-0.143857442064137
11
121.851723823587
21
1519.17072914272
31
-0.145395383327295
  0
LINE
 8
Group#27
10
121.51679897232
20
1517.92076119573
30
-0.151269200799452
11
121.119515727443
21
1517.40301210806
31
-0.15520478605465
  0
LINE
 8
Group#27
10
117.584097919129
20
1517.40307485077
30
-0.17575073850968
11
117.186814143362
21
1517.92083803953
31
-0.176432750696663
  0
LINE
 8
Group#27
10
119.998833520427
20
1516.75599789902
30
-0.1637505690812
11
119.351807198682
21
1516.67082572675
31
-0.167778385861812
  0
LINE
 8
Group#27
10
119.351807198682
20
1516.67082572675
30
-0.167778385861812
11
118.704780789592
21
1516.75602086445
31
-0.171270909624636
  0
LINE
 8
Group#27
10
117.186814143362
20
1517.92083803953
30
-0.176432750696663
11
116.93707097915
21
1518.52378226489
31
-0.175989689204288
  0
LINE
 8
Group#27
10
120.601765980262
20
1517.00573303847
30
-0.159461948340064
11
119.998833520427
21
1516.75599789902
31
-0.1637505690812
  0
LINE
 8
Group#27
10
116.956012254076
20
1698.80697954203
30
0.123823012393769
11
116.870829285341
21
1699.45401515144
31
0.125360953656928
  0
LINE
 8
Group#27
10
116.956011590629
20
1700.10104773739
30
0.127888966535276
11
117.205754136607
21
1700.70398309843
31
0.131234771129084
  0
LINE
 8
Group#27
10
117.953830736618
20
1712.40188976189
30
0.138089252992153
11
118.532138397613
21
1712.69882828334
31
0.142383079104637
  0
LINE
 8
Group#27
10
120.209355986241
20
1708.00911328794
30
0.137395192823054
11
119.573898521779
21
1707.8719729299
31
0.133271324814134
  0
LINE
 8
Group#27
10
121.785482129778
20
1700.10096202926
30
0.155955259533921
11
121.870665098513
21
1699.45392641985
31
0.154417318270763
  0
LINE
 8
Group#27
10
118.924596629912
20
1707.90397662403
30
0.129598449698679
11
118.305699161548
21
1708.10294337146
31
0.126626867845975
  0
LINE
 8
Group#27
10
121.535740247246
20
1698.20395847286
30
0.148543500798606
11
121.138457002369
21
1697.6862093852
31
0.144607915543408
  0
LINE
 8
Group#27
10
121.535738965566
20
1700.70390625462
30
0.156398321026296
11
121.785482129778
21
1700.10096202926
31
0.155955259533921
  0
LINE
 8
Group#27
10
120.982111427476
20
1712.25262765411
30
0.155219184279114
11
121.418615822898
21
1711.77086678049
31
0.156242247017873
  0
LINE
 8
Group#27
10
121.269410793367
20
1708.74255262474
30
0.145860185997993
11
120.787663647236
21
1708.3060518094
31
0.141689018935538
  0
LINE
 8
Group#27
10
118.723722064518
20
1697.03921814158
30
0.128541791973422
11
118.120789348602
21
1697.2889746814
31
0.125822570951076
  0
LINE
 8
Group#27
10
120.017774795353
20
1697.03919517616
30
0.136062132516858
11
119.370748473608
21
1696.95402300389
31
0.132034315736246
  0
LINE
 8
Group#27
10
118.305699161548
20
1708.10294337146
30
0.126626867845975
11
117.759382956378
21
1708.45531391717
31
0.124559087648576
  0
LINE
 8
Group#27
10
117.603039194055
20
1697.6862721279
30
0.124061963088378
11
117.205755418288
21
1698.20403531667
31
0.123379950901395
  0
LINE
 8
Group#27
10
121.138455189798
20
1701.22166944338
30
0.155716308839312
11
121.535738965566
21
1700.70390625462
31
0.156398321026296
  0
LINE
 8
Group#27
10
118.532138397613
20
1712.69882828334
30
0.142383079104637
11
119.167595862074
21
1712.83596864139
31
0.146506947113557
  0
LINE
 8
Group#27
10
121.785482793224
20
1698.8068938339
30
0.151889305392414
11
121.535740247246
21
1698.20395847286
31
0.148543500798606
  0
LINE
 8
Group#27
10
118.723719588501
20
1701.86874639513
30
0.143716139410833
11
119.370745910246
21
1701.9539185674
31
0.147743956191446
  0
LINE
 8
Group#27
10
117.119727231104
20
1711.41907264654
30
0.13015383605944
11
117.472083590487
21
1711.96538894655
31
0.133918085929698
  0
LINE
 8
Group#27
10
119.816897753942
20
1712.80396494726
30
0.150179822229012
11
120.435795222306
21
1712.60499819983
31
0.153151404081715
  0
LINE
 8
Group#27
10
119.573898521779
20
1707.8719729299
30
0.133271324814134
11
118.924596629912
21
1707.90397662403
31
0.129598449698679
  0
LINE
 8
Group#27
10
121.62176715275
20
1709.28886892475
30
0.149624435868251
11
121.269410793367
21
1708.74255262474
31
0.145860185997993
  0
LINE
 8
Group#27
10
117.205755418288
20
1698.20403531667
30
0.123379950901395
11
116.956012254076
21
1698.80697954203
31
0.123823012393769
  0
LINE
 8
Group#27
10
121.870665098513
20
1699.45392641985
30
0.154417318270763
11
121.785482793224
21
1698.8068938339
31
0.151889305392414
  0
LINE
 8
Group#27
10
119.370745910246
20
1701.9539185674
30
0.147743956191446
11
120.017772319336
21
1701.86872342971
31
0.151236479954268
  0
LINE
 8
Group#27
10
117.472083590487
20
1711.96538894655
30
0.133918085929698
11
117.953830736618
21
1712.40188976189
31
0.138089252992153
  0
LINE
 8
Group#27
10
120.017772319336
20
1701.86872342971
30
0.151236479954268
11
120.620705035252
21
1701.61896688988
31
0.153955700976615
  0
LINE
 8
Group#27
10
120.620705035252
20
1701.61896688988
30
0.153955700976615
11
121.138455189798
21
1701.22166944338
31
0.155716308839312
  0
LINE
 8
Group#27
10
120.435795222306
20
1712.60499819983
30
0.153151404081715
11
120.982111427476
21
1712.25262765411
31
0.155219184279114
  0
LINE
 8
Group#27
10
119.370748473608
20
1696.95402300389
30
0.132034315736246
11
118.723722064518
21
1697.03921814158
31
0.128541791973422
  0
LINE
 8
Group#27
10
117.205754136607
20
1700.70398309843
30
0.131234771129084
11
117.603037381485
21
1701.22173218609
31
0.135170356384282
  0
LINE
 8
Group#27
10
121.418615822898
20
1711.77086678049
30
0.156242247017873
11
121.715561355382
21
1711.19254678635
31
0.156150872263158
  0
LINE
 8
Group#27
10
117.025933028472
20
1709.51539478493
30
0.123627399664532
11
116.888782706239
21
1710.15086234771
31
0.124826984874283
  0
LINE
 8
Group#27
10
118.120787128666
20
1701.61901125568
30
0.139427518669696
11
118.723719588501
21
1701.86874639513
31
0.143716139410833
  0
LINE
 8
Group#27
10
121.820720221789
20
1709.90777015641
30
0.152725241138322
11
121.62176715275
21
1709.28886892475
31
0.149624435868251
  0
LINE
 8
Group#27
10
117.759382956378
20
1708.45531391717
30
0.124559087648576
11
117.322878560956
21
1708.93707479079
31
0.123536024909818
  0
LINE
 8
Group#27
10
120.620707255188
20
1697.28893031561
30
0.140350753257994
11
120.017774795353
21
1697.03919517616
31
0.136062132516858
  0
LINE
 8
Group#27
10
121.715561355382
20
1711.19254678635
30
0.156150872263158
11
121.852711677615
21
1710.55707922358
31
0.154951287053407
  0
LINE
 8
Group#27
10
120.787663647236
20
1708.3060518094
30
0.141689018935538
11
120.209355986241
21
1708.00911328794
31
0.137395192823054
  0
LINE
 8
Group#27
10
121.852711677615
20
1710.55707922358
30
0.154951287053407
11
121.820720221789
21
1709.90777015641
31
0.152725241138322
  0
LINE
 8
Group#27
10
119.167595862074
20
1712.83596864139
30
0.146506947113557
11
119.816897753942
21
1712.80396494726
31
0.150179822229012
  0
LINE
 8
Group#27
10
118.120789348602
20
1697.2889746814
30
0.125822570951076
11
117.603039194055
21
1697.6862721279
31
0.124061963088378
  0
LINE
 8
Group#27
10
121.138457002369
20
1697.6862093852
30
0.144607915543408
11
120.620707255188
21
1697.28893031561
31
0.140350753257994
  0
LINE
 8
Group#27
10
117.322878560956
20
1708.93707479079
30
0.123536024909818
11
117.025933028472
21
1709.51539478493
31
0.123627399664532
  0
LINE
 8
Group#27
10
117.603037381485
20
1701.22173218609
30
0.135170356384282
11
118.120787128666
21
1701.61901125568
31
0.139427518669696
  0
LINE
 8
Group#27
10
116.870829285341
20
1699.45401515144
30
0.125360953656928
11
116.956011590629
21
1700.10104773739
31
0.127888966535276
  0
LINE
 8
Group#27
10
116.920774162064
20
1710.80017141487
30
0.127053030789368
11
117.119727231104
21
1711.41907264654
31
0.13015383605944
  0
LINE
 8
Group#27
10
116.888782706239
20
1710.15086234771
30
0.124826984874283
11
116.920774162064
21
1710.80017141487
31
0.127053030789368
  0
LINE
 8
Group#27
10
121.058587569123
20
1741.15197253434
30
0.147062001615159
11
121.455871344891
21
1740.63420934557
31
0.147744013802143
  0
LINE
 8
Group#27
10
119.937904698661
20
1741.79902652066
30
0.142582172730115
11
120.540837414577
21
1741.54926998084
31
0.145301393752461
  0
LINE
 8
Group#27
10
119.937907174678
20
1736.96949826711
30
0.127407825292704
11
119.290880852933
21
1736.88432609484
31
0.123380008512092
  0
LINE
 8
Group#27
10
118.643854443843
20
1736.96952123253
30
0.119887484749269
11
118.040921727927
21
1737.21927777236
31
0.117168263726923
  0
LINE
 8
Group#27
10
121.705614509102
20
1740.03126512021
30
0.147300952309768
11
121.790797477838
21
1739.3842295108
31
0.14576301104661
  0
LINE
 8
Group#27
10
117.52317157338
20
1737.61657521886
30
0.115407655864225
11
117.125887797613
21
1738.13433840762
31
0.114725643677241
  0
LINE
 8
Group#27
10
116.876144633401
20
1738.73728263298
30
0.115168705169616
11
116.790961664666
21
1739.38431824239
31
0.116706646432774
  0
LINE
 8
Group#27
10
118.643851967826
20
1741.79904948608
30
0.135061832186679
11
119.290878289571
21
1741.88422165835
31
0.139089648967291
  0
LINE
 8
Group#27
10
116.876143969954
20
1740.03135082834
30
0.119234659311123
11
117.125886515932
21
1740.63428618938
31
0.122580463904931
  0
LINE
 8
Group#27
10
121.705615172549
20
1738.73719692485
30
0.143234998168261
11
121.455872626571
21
1738.13426156381
31
0.139889193574453
  0
LINE
 8
Group#27
10
121.058589381694
20
1737.61651247615
30
0.135953608319255
11
120.540839634513
21
1737.21923340656
31
0.131696446033841
  0
LINE
 8
Group#27
10
117.52316976081
20
1741.15203527704
30
0.126516049160129
11
118.040919507991
21
1741.54931434663
31
0.130773211445543
  0
LINE
 8
Group#27
10
117.125887797613
20
1738.13433840762
30
0.114725643677241
11
116.876144633401
21
1738.73728263298
31
0.115168705169616
  0
LINE
 8
Group#27
10
118.040921727927
20
1737.21927777236
30
0.117168263726923
11
117.52317157338
21
1737.61657521886
31
0.115407655864225
  0
LINE
 8
Group#27
10
119.290880852933
20
1736.88432609484
30
0.123380008512092
11
118.643854443843
21
1736.96952123253
31
0.119887484749269
  0
LINE
 8
Group#27
10
120.540839634513
20
1737.21923340656
30
0.131696446033841
11
119.937907174678
21
1736.96949826711
31
0.127407825292704
  0
LINE
 8
Group#27
10
121.455872626571
20
1738.13426156381
30
0.139889193574453
11
121.058589381694
21
1737.61651247615
31
0.135953608319255
  0
LINE
 8
Group#27
10
121.790797477838
20
1739.3842295108
30
0.14576301104661
11
121.705615172549
21
1738.73719692485
31
0.143234998168261
  0
LINE
 8
Group#27
10
121.455871344891
20
1740.63420934557
30
0.147744013802143
11
121.705614509102
21
1740.03126512021
31
0.147300952309768
  0
LINE
 8
Group#27
10
120.540837414577
20
1741.54926998084
30
0.145301393752461
11
121.058587569123
21
1741.15197253434
31
0.147062001615159
  0
LINE
 8
Group#27
10
119.290878289571
20
1741.88422165835
30
0.139089648967291
11
119.937904698661
21
1741.79902652066
31
0.142582172730115
  0
LINE
 8
Group#27
10
118.040919507991
20
1741.54931434663
30
0.130773211445543
11
118.643851967826
21
1741.79904948608
31
0.135061832186679
  0
LINE
 8
Group#27
10
117.125886515932
20
1740.63428618938
30
0.122580463904931
11
117.52316976081
21
1741.15203527704
31
0.126516049160129
  0
LINE
 8
Group#27
10
116.790961664666
20
1739.38431824239
30
0.116706646432774
11
116.876143969954
21
1740.03135082834
31
0.119234659311123
  0
LINE
 8
Group#27
10
117.497286444004
20
1751.54975032867
30
0.133762011921275
11
117.979033590135
21
1751.98625114401
31
0.13793317898373
  0
LINE
 8
Group#27
10
117.979033590135
20
1751.98625114401
30
0.13793317898373
11
118.55734125113
21
1752.28318966546
31
0.142227005096214
  0
LINE
 8
Group#27
10
118.55734125113
20
1752.28318966546
30
0.142227005096214
11
119.192798715592
21
1752.42033002351
31
0.146350873105134
  0
LINE
 8
Group#27
10
119.192798715592
20
1752.42033002351
30
0.146350873105134
11
119.842100607459
21
1752.38832632938
31
0.150023748220589
  0
LINE
 8
Group#27
10
119.842100607459
20
1752.38832632938
30
0.150023748220589
11
120.460998075823
21
1752.18935958195
31
0.152995330073292
  0
LINE
 8
Group#27
10
120.460998075823
20
1752.18935958195
30
0.152995330073292
11
121.007314280993
21
1751.83698903623
31
0.155063110270691
  0
LINE
 8
Group#27
10
121.007314280993
20
1751.83698903623
30
0.155063110270691
11
121.443818676415
21
1751.35522816261
31
0.15608617300945
  0
LINE
 8
Group#27
10
121.443818676415
20
1751.35522816261
30
0.15608617300945
11
121.740764208899
21
1750.77690816848
31
0.155994798254735
  0
LINE
 8
Group#27
10
121.740764208899
20
1750.77690816848
30
0.155994798254735
11
121.877914531133
21
1750.1414406057
31
0.154795213044984
  0
LINE
 8
Group#27
10
121.877914531133
20
1750.1414406057
30
0.154795213044984
11
121.845923075307
21
1749.49213153853
31
0.152569167129899
  0
LINE
 8
Group#27
10
121.845923075307
20
1749.49213153853
30
0.152569167129899
11
121.646970006267
21
1748.87323030687
31
0.149468361859828
  0
LINE
 8
Group#27
10
121.646970006267
20
1748.87323030687
30
0.149468361859828
11
121.294613646884
21
1748.32691400686
31
0.14570411198957
  0
LINE
 8
Group#27
10
121.294613646884
20
1748.32691400686
30
0.14570411198957
11
120.812866500753
21
1747.89041319152
31
0.141532944927115
  0
LINE
 8
Group#27
10
120.812866500753
20
1747.89041319152
30
0.141532944927115
11
120.234558839758
21
1747.59347467006
31
0.137239118814631
  0
LINE
 8
Group#27
10
120.234558839758
20
1747.59347467006
30
0.137239118814631
11
119.599101375297
21
1747.45633431202
31
0.133115250805711
  0
LINE
 8
Group#27
10
119.599101375297
20
1747.45633431202
30
0.133115250805711
11
118.949799483429
21
1747.48833800615
31
0.129442375690256
  0
LINE
 8
Group#27
10
118.949799483429
20
1747.48833800615
30
0.129442375690256
11
118.330902015065
21
1747.68730475358
31
0.126470793837552
  0
LINE
 8
Group#27
10
118.330902015065
20
1747.68730475358
30
0.126470793837552
11
117.784585809895
21
1748.03967529929
31
0.124403013640153
  0
LINE
 8
Group#27
10
117.784585809895
20
1748.03967529929
30
0.124403013640153
11
117.348081414473
21
1748.52143617291
31
0.123379950901395
  0
LINE
 8
Group#27
10
117.348081414473
20
1748.52143617291
30
0.123379950901395
11
117.051135881989
21
1749.09975616705
31
0.123471325656109
  0
LINE
 8
Group#27
10
117.051135881989
20
1749.09975616705
30
0.123471325656109
11
116.913985559756
21
1749.73522372983
31
0.12467091086586
  0
LINE
 8
Group#27
10
116.913985559756
20
1749.73522372983
30
0.12467091086586
11
116.945977015582
21
1750.38453279699
31
0.126896956780945
  0
LINE
 8
Group#27
10
116.945977015582
20
1750.38453279699
30
0.126896956780945
11
117.144930084621
21
1751.00343402866
31
0.129997762051017
  0
LINE
 8
Group#27
10
117.144930084621
20
1751.00343402866
30
0.129997762051017
11
117.497286444004
21
1751.54975032867
31
0.133762011921275
  0
LINE
 8
Group#27
10
121.858973256206
20
1569.85824332857
30
-0.145017488553074
11
121.82698180038
21
1569.2089342614
31
-0.147243534468159
  0
LINE
 8
Group#27
10
118.930858208503
20
1567.20514072901
30
-0.170370325907802
11
118.311960740139
21
1567.40410747645
31
-0.173341907760506
  0
LINE
 8
Group#27
10
119.580160100371
20
1567.17313703488
30
-0.166697450792347
11
118.930858208503
21
1567.20514072901
31
-0.170370325907802
  0
LINE
 8
Group#27
10
121.436930069965
20
1560.35101206844
30
-0.152068687795915
11
121.686673234176
21
1559.74806784308
31
-0.15251174928829
  0
LINE
 8
Group#27
10
120.215617564832
20
1567.31027739293
30
-0.162573582783427
11
119.580160100371
21
1567.17313703488
31
-0.166697450792347
  0
LINE
 8
Group#27
10
120.793925225827
20
1567.60721591438
30
-0.158279756670943
11
120.215617564832
21
1567.31027739293
31
-0.162573582783427
  0
LINE
 8
Group#27
10
121.436931351645
20
1557.85106428668
30
-0.159923508023605
11
121.039648106768
21
1557.33331519902
31
-0.163859093278803
  0
LINE
 8
Group#27
10
118.311960740139
20
1567.40410747645
30
-0.173341907760506
11
117.765644534969
21
1567.75647802216
31
-0.175409687957905
  0
LINE
 8
Group#27
10
121.686673234176
20
1559.74806784308
30
-0.15251174928829
11
121.771856202912
21
1559.10103223367
31
-0.154049690551448
  0
LINE
 8
Group#27
10
116.927035740656
20
1570.10133551986
30
-0.172915744817112
11
117.125988809695
21
1570.72023675153
31
-0.169814939547041
  0
LINE
 8
Group#27
10
121.275672371958
20
1568.04371672972
30
-0.154108589608488
11
120.793925225827
21
1567.60721591438
31
-0.158279756670943
  0
LINE
 8
Group#27
10
121.721822933973
20
1570.49371089134
30
-0.143817903343323
11
121.858973256206
21
1569.85824332857
31
-0.145017488553074
  0
LINE
 8
Group#27
10
119.271939578007
20
1556.6011288177
30
-0.176432693085966
11
118.624913168917
21
1556.6863239554
31
-0.179925216848789
  0
LINE
 8
Group#27
10
119.823159332533
20
1572.10512905225
30
-0.149788953377469
11
120.442056800897
21
1571.90616230481
31
-0.146817371524765
  0
LINE
 8
Group#27
10
119.918965899752
20
1556.68630098997
30
-0.172404876305353
11
119.271939578007
21
1556.6011288177
31
-0.176432693085966
  0
LINE
 8
Group#27
10
117.504230298454
20
1557.33337794172
30
-0.184405045733833
11
117.106946522687
21
1557.85114113048
31
-0.185087057920817
  0
LINE
 8
Group#27
10
116.89504428483
20
1569.45202645269
30
-0.175141790732197
11
116.927035740656
21
1570.10133551986
31
-0.172915744817112
  0
LINE
 8
Group#27
10
119.918963423735
20
1561.51582924352
30
-0.157230528867943
11
120.521896139651
21
1561.2660727037
31
-0.154511307845597
  0
LINE
 8
Group#27
10
118.624913168917
20
1556.6863239554
30
-0.179925216848789
11
118.021980453001
21
1556.93608049522
31
-0.182644437871135
  0
LINE
 8
Group#27
10
118.538399976204
20
1571.99999238833
30
-0.157585696501844
11
119.173857440665
21
1572.13713274638
31
-0.153461828492924
  0
LINE
 8
Group#27
10
121.628028731341
20
1568.59003302973
30
-0.15034433973823
11
121.275672371958
21
1568.04371672972
31
-0.154108589608488
  0
LINE
 8
Group#27
10
121.686673897623
20
1558.45399964772
30
-0.156577703429797
11
121.436931351645
21
1557.85106428668
31
-0.159923508023605
  0
LINE
 8
Group#27
10
121.039648106768
20
1557.33331519902
30
-0.163859093278803
11
120.521898359587
21
1556.93603612943
31
-0.168116255564217
  0
LINE
 8
Group#27
10
116.857202695028
20
1559.74815355121
30
-0.180578042286935
11
117.106945241006
21
1560.35108891224
31
-0.177232237693127
  0
LINE
 8
Group#27
10
116.857203358475
20
1558.45408535584
30
-0.184643996428442
11
116.77202038974
21
1559.10112096525
31
-0.183106055165284
  0
LINE
 8
Group#27
10
118.6249106929
20
1561.51585220895
30
-0.164750869411378
11
119.271937014645
21
1561.60102438122
31
-0.160723052630767
  0
LINE
 8
Group#27
10
117.125988809695
20
1570.72023675153
30
-0.169814939547041
11
117.478345169078
21
1571.26655305154
31
-0.166050689676783
  0
LINE
 8
Group#27
10
121.039646294197
20
1560.8687752572
30
-0.152750699982899
11
121.436930069965
21
1560.35101206844
31
-0.152068687795915
  0
LINE
 8
Group#27
10
121.82698180038
20
1569.2089342614
30
-0.147243534468159
11
121.628028731341
21
1568.59003302973
31
-0.15034433973823
  0
LINE
 8
Group#27
10
119.271937014645
20
1561.60102438122
30
-0.160723052630767
11
119.918963423735
21
1561.51582924352
31
-0.157230528867943
  0
LINE
 8
Group#27
10
119.173857440665
20
1572.13713274638
30
-0.153461828492924
11
119.823159332533
21
1572.10512905225
31
-0.149788953377469
  0
LINE
 8
Group#27
10
120.521898359587
20
1556.93603612943
30
-0.168116255564217
11
119.918965899752
21
1556.68630098997
31
-0.172404876305353
  0
LINE
 8
Group#27
10
117.960092315209
20
1571.70305386688
30
-0.161879522614328
11
118.538399976204
21
1571.99999238833
31
-0.157585696501844
  0
LINE
 8
Group#27
10
120.988373006067
20
1571.5537917591
30
-0.144749591327367
11
121.424877401489
21
1571.07203088548
31
-0.143726528588608
  0
LINE
 8
Group#27
10
120.521896139651
20
1561.2660727037
30
-0.154511307845597
11
121.039646294197
21
1560.8687752572
31
-0.152750699982899
  0
LINE
 8
Group#27
10
117.478345169078
20
1571.26655305154
30
-0.166050689676783
11
117.960092315209
21
1571.70305386688
31
-0.161879522614328
  0
LINE
 8
Group#27
10
117.765644534969
20
1567.75647802216
30
-0.175409687957905
11
117.329140139547
21
1568.23823889578
31
-0.176432750696663
  0
LINE
 8
Group#27
10
118.021980453001
20
1556.93608049522
30
-0.182644437871135
11
117.504230298454
21
1557.33337794172
31
-0.184405045733833
  0
LINE
 8
Group#27
10
117.106946522687
20
1557.85114113048
30
-0.185087057920817
11
116.857203358475
21
1558.45408535584
31
-0.184643996428442
  0
LINE
 8
Group#27
10
120.442056800897
20
1571.90616230481
30
-0.146817371524765
11
120.988373006067
21
1571.5537917591
31
-0.144749591327367
  0
LINE
 8
Group#27
10
117.032194607063
20
1568.81655888992
30
-0.176341375941949
11
116.89504428483
21
1569.45202645269
31
-0.175141790732197
  0
LINE
 8
Group#27
10
117.504228485884
20
1560.86883799991
30
-0.173296652437929
11
118.021978233065
21
1561.26611706949
31
-0.169039490152515
  0
LINE
 8
Group#27
10
116.77202038974
20
1559.10112096525
30
-0.183106055165284
11
116.857202695028
21
1559.74815355121
31
-0.180578042286935
  0
LINE
 8
Group#27
10
117.106945241006
20
1560.35108891224
30
-0.177232237693127
11
117.504228485884
21
1560.86883799991
31
-0.173296652437929
  0
LINE
 8
Group#27
10
118.021978233065
20
1561.26611706949
30
-0.169039490152515
11
118.6249106929
21
1561.51585220895
31
-0.164750869411378
  0
LINE
 8
Group#27
10
121.771856202912
20
1559.10103223367
30
-0.154049690551448
11
121.686673897623
21
1558.45399964772
31
-0.156577703429797
  0
LINE
 8
Group#27
10
121.424877401489
20
1571.07203088548
30
-0.143726528588608
11
121.721822933973
21
1570.49371089134
31
-0.143817903343323
  0
LINE
 8
Group#27
10
117.329140139547
20
1568.23823889578
30
-0.176432750696663
11
117.032194607063
21
1568.81655888992
31
-0.176341375941949
  0
LINE
 8
Group#27
10
121.833770402689
20
1530.27388194644
30
-0.144861414544651
11
121.801778946863
21
1529.62457287928
31
-0.147087460459736
  0
LINE
 8
Group#27
10
117.934889461692
20
1532.11869248475
30
-0.161723448605905
11
118.513197122687
21
1532.41563100621
31
-0.157429622493421
  0
LINE
 8
Group#27
10
118.905655354986
20
1527.62077934689
30
-0.170214251899379
11
118.286757886622
21
1527.81974609432
31
-0.173185833752083
  0
LINE
 8
Group#27
10
117.006991753546
20
1529.2321975078
30
-0.176185301933526
11
116.869841431313
21
1529.86766507057
31
-0.174985716723774
  0
LINE
 8
Group#27
10
120.190414711315
20
1527.72591601081
30
-0.162417508775004
11
119.554957246853
21
1527.58877565276
31
-0.166541376783924
  0
LINE
 8
Group#27
10
121.250469518441
20
1528.4593553476
30
-0.153952515600065
11
120.76872237231
21
1528.02285453226
31
-0.15812368266252
  0
LINE
 8
Group#27
10
120.41685394738
20
1532.32180092269
30
-0.146661297516342
11
120.963170152549
21
1531.96943037698
31
-0.144593517318944
  0
LINE
 8
Group#27
10
116.869841431313
20
1529.86766507057
30
-0.174985716723774
11
116.901832887138
21
1530.51697413774
31
-0.17275967080869
  0
LINE
 8
Group#27
10
117.30393728603
20
1528.65387751366
30
-0.17627667668824
11
117.006991753546
21
1529.2321975078
31
-0.176185301933526
  0
LINE
 8
Group#27
10
117.100785956178
20
1531.1358753694
30
-0.169658865538618
11
117.453142315561
21
1531.68219166942
31
-0.16589461566836
  0
LINE
 8
Group#27
10
119.797956479015
20
1532.52076767013
30
-0.149632879369046
11
120.41685394738
21
1532.32180092269
31
-0.146661297516342
  0
LINE
 8
Group#27
10
117.740441681452
20
1528.17211664004
30
-0.175253613949482
11
117.30393728603
21
1528.65387751366
31
-0.17627667668824
  0
LINE
 8
Group#27
10
118.513197122687
20
1532.41563100621
30
-0.157429622493421
11
119.148654587148
21
1532.55277136425
31
-0.153305754484501
  0
LINE
 8
Group#27
10
116.901832887138
20
1530.51697413774
30
-0.17275967080869
11
117.100785956178
21
1531.1358753694
31
-0.169658865538618
  0
LINE
 8
Group#27
10
120.963170152549
20
1531.96943037698
30
-0.144593517318944
11
121.399674547972
21
1531.48766950336
31
-0.143570454580185
  0
LINE
 8
Group#27
10
120.76872237231
20
1528.02285453226
30
-0.15812368266252
11
120.190414711315
21
1527.72591601081
31
-0.162417508775004
  0
LINE
 8
Group#27
10
121.801778946863
20
1529.62457287928
30
-0.147087460459736
11
121.602825877824
21
1529.00567164761
31
-0.150188265729807
  0
LINE
 8
Group#27
10
119.148654587148
20
1532.55277136425
30
-0.153305754484501
11
119.797956479015
21
1532.52076767013
31
-0.149632879369046
  0
LINE
 8
Group#27
10
117.453142315561
20
1531.68219166942
30
-0.16589461566836
11
117.934889461692
21
1532.11869248475
31
-0.161723448605905
  0
LINE
 8
Group#27
10
121.399674547972
20
1531.48766950336
30
-0.143570454580185
11
121.696620080456
21
1530.90934950922
31
-0.1436618293349
  0
LINE
 8
Group#27
10
121.696620080456
20
1530.90934950922
30
-0.1436618293349
11
121.833770402689
21
1530.27388194644
31
-0.144861414544651
  0
LINE
 8
Group#27
10
119.554957246853
20
1527.58877565276
30
-0.166541376783924
11
118.905655354986
21
1527.62077934689
31
-0.170214251899379
  0
LINE
 8
Group#27
10
118.286757886622
20
1527.81974609432
30
-0.173185833752083
11
117.740441681452
21
1528.17211664004
31
-0.175253613949482
  0
LINE
 8
Group#27
10
121.602825877824
20
1529.00567164761
30
-0.150188265729807
11
121.250469518441
21
1528.4593553476
31
-0.153952515600065
  0
POLYLINE
 8
Group#24
 66
     1
70
    8
 10
0.0
 20
 0.0
 30
0.0
  0
VERTEX
  8
MY3DLAYER
10
235.075902140874
20
1666.02409081471
30
0.123379950901197
 70
     32
  0
VERTEX
  8
MY3DLAYER
10
235.075902140874
20
1604.0160822686
30
0.123379950901354
 70
     32
  0
VERTEX
  8
MY3DLAYER
10
228.075902140874
20
1604.0160822686
30
0.123379950901354
 70
     32
  0
VERTEX
  8
MY3DLAYER
10
228.075902140874
20
1557.63273797603
30
0.123379950901153
 70
     32
  0
VERTEX
  8
MY3DLAYER
10
235.075902140874
20
1557.63273797603
30
0.123379950900432
 70
     32
  0
VERTEX
  8
MY3DLAYER
10
235.075902140874
20
1532.63273797603
30
0.123379950901505
 70
     32
  0
VERTEX
  8
MY3DLAYER
10
228.075902140874
20
1532.63273797603
30
0.1233799508997
 70
     32
  0
VERTEX
  8
MY3DLAYER
10
228.075902140874
20
1517.63273797603
30
0.123379950899694
 70
     32
  0
VERTEX
  8
MY3DLAYER
10
235.075902140874
20
1517.63273797603
30
0.123379950901589
 70
     32
  0
VERTEX
  8
MY3DLAYER
10
235.075902140874
20
1492.63273797603
30
0.123379950902752
 70
     32
  0
VERTEX
  8
MY3DLAYER
10
228.075902140874
20
1492.63273797603
30
0.12337995090176
 70
     32
  0
VERTEX
  8
MY3DLAYER
10
228.075902140874
20
1477.63273797603
30
0.123379950901843
 70
     32
  0
VERTEX
  8
MY3DLAYER
10
220.075902140877
20
1477.63273797603
30
0.123379950899587
 70
     32
  0
VERTEX
  8
MY3DLAYER
10
220.075902140877
20
1470.63273797603
30
0.123379950899765
 70
     32
  0
VERTEX
  8
MY3DLAYER
10
203.075902140877
20
1470.63273797603
30
0.123379950900757
 70
     32
  0
VERTEX
  8
MY3DLAYER
10
203.075902140877
20
1477.63273797603
30
0.12337995090067
 70
     32
  0
VERTEX
  8
MY3DLAYER
10
170.080581711932
20
1477.32684661822
30
0.123379950901572
 70
     32
  0
VERTEX
  8
MY3DLAYER
10
170.080581711932
20
1470.32684661822
30
0.12337995090166
 70
     32
  0
VERTEX
  8
MY3DLAYER
10
153.080581711932
20
1470.32684661822
30
0.123379950902472
 70
     32
  0
VERTEX
  8
MY3DLAYER
10
153.080581711932
20
1477.32684661822
30
0.123379950902384
 70
     32
  0
VERTEX
  8
MY3DLAYER
10
145.080581711932
20
1477.32684661822
30
0.123379950902475
 70
     32
  0
VERTEX
  8
MY3DLAYER
10
145.080581711931
20
1792.30154374946
30
0.123379950902511
 70
     32
  0
VERTEX
  8
MY3DLAYER
10
153.080581711931
20
1792.30154374946
30
0.123379950902421
 70
     32
  0
VERTEX
  8
MY3DLAYER
10
153.080581711931
20
1799.30154374946
30
0.123379950902334
 70
     32
  0
VERTEX
  8
MY3DLAYER
10
170.080581711931
20
1799.30154374946
30
0.123379950901521
 70
     32
  0
VERTEX
  8
MY3DLAYER
10
170.080581711931
20
1792.30154374946
30
0.123379950901609
 70
     32
  0
VERTEX
  8
MY3DLAYER
10
203.075902140876
20
1792.60743510727
30
0.123379950900707
 70
     32
  0
VERTEX
  8
MY3DLAYER
10
203.075902140876
20
1799.60743510727
30
0.123379950900619
 70
     32
  0
VERTEX
  8
MY3DLAYER
10
220.075902140876
20
1799.60743510727
30
0.123379950899536
 70
     32
  0
VERTEX
  8
MY3DLAYER
10
220.075902140876
20
1792.60743510727
30
0.123379950899714
 70
     32
  0
VERTEX
  8
MY3DLAYER
10
228.075902140875
20
1792.60743510727
30
0.123379950899624
 70
     32
  0
VERTEX
  8
MY3DLAYER
10
228.075902140875
20
1777.60743510727
30
0.123379950899798
 70
     32
  0
VERTEX
  8
MY3DLAYER
10
235.075902140874
20
1777.60743510727
30
0.123379950899618
 70
     32
  0
VERTEX
  8
MY3DLAYER
10
235.075902140875
20
1752.60743510727
30
0.12337995090015
 70
     32
  0
VERTEX
  8
MY3DLAYER
10
228.075902140875
20
1752.60743510727
30
0.123379950899969
 70
     32
  0
VERTEX
  8
MY3DLAYER
10
228.075902140875
20
1737.60743510727
30
0.123379950900144
 70
     32
  0
VERTEX
  8
MY3DLAYER
10
235.075902140874
20
1737.60743510727
30
0.123379950899783
 70
     32
  0
VERTEX
  8
MY3DLAYER
10
235.075902140875
20
1712.60743510727
30
0.123379950900315
 70
     32
  0
VERTEX
  8
MY3DLAYER
10
228.075902140875
20
1712.60743510727
30
0.123379950900315
 70
     32
  0
VERTEX
  8
MY3DLAYER
10
228.075902140874
20
1666.02409081471
30
0.123379950901197
 70
     32
  0
VERTEX
  8
MY3DLAYER
10
235.075902140874
20
1666.02409081471
30
0.123379950901197
 70
     32
  0
SEQEND
  0
POLYLINE
 8
Group#24
 66
     1
70
    8
 10
0.0
 20
 0.0
 30
0.0
  0
VERTEX
  8
MY3DLAYER
10
189.075902140876
20
1782.60743510728
30
0.123379950901516
 70
     32
  0
VERTEX
  8
MY3DLAYER
10
189.075902140878
20
1658.60743510728
30
0.123379950902819
 70
     32
  0
VERTEX
  8
MY3DLAYER
10
224.075902140878
20
1658.60743510728
30
0.123379950903992
 70
     32
  0
VERTEX
  8
MY3DLAYER
10
224.075902140876
20
1782.60743510727
30
0.123379950901426
 70
     32
  0
VERTEX
  8
MY3DLAYER
10
189.075902140876
20
1782.60743510728
30
0.123379950901516
 70
     32
  0
SEQEND
  0
POLYLINE
 8
Group#24
 66
     1
70
    8
 10
0.0
 20
 0.0
 30
0.0
  0
VERTEX
  8
MY3DLAYER
10
224.075902140882
20
1487.63273797603
30
0.123379950904554
 70
     32
  0
VERTEX
  8
MY3DLAYER
10
224.075902140879
20
1611.63273797603
30
0.123379950901988
 70
     32
  0
VERTEX
  8
MY3DLAYER
10
189.075902140879
20
1611.63273797603
30
0.123379950902169
 70
     32
  0
VERTEX
  8
MY3DLAYER
10
189.075902140882
20
1487.63273797603
30
0.123379950903471
 70
     32
  0
VERTEX
  8
MY3DLAYER
10
224.075902140882
20
1487.63273797603
30
0.123379950904554
 70
     32
  0
SEQEND
  0
LINE
 8
Group#24
10
168.773126535169
20
1486.24248528338
30
0.408543787261679
11
168.132072543113
21
1486.13171091156
31
0.405166342186154
  0
LINE
 8
Group#24
10
168.132072543113
20
1486.13171091156
30
0.405166342186154
11
167.541529081114
21
1485.85879264351
31
0.402591895628349
  0
LINE
 8
Group#24
10
167.541529081114
20
1485.85879264351
30
0.402591895628349
11
167.041740710189
21
1485.44232940818
31
0.400995891866865
  0
LINE
 8
Group#24
10
170.979616854931
20
1485.08421523164
30
0.425006129496593
11
170.828303598902
21
1485.26580849943
31
0.423556204108114
  0
LINE
 8
Group#24
10
167.041740710189
20
1485.44232940818
30
0.400995891866865
11
166.666767181876
21
1484.91070248683
31
0.400487095920471
  0
LINE
 8
Group#24
10
166.666767181876
20
1484.91070248683
30
0.400487095920471
11
166.442162322457
21
1484.30014137558
31
0.401100181391998
  0
LINE
 8
Group#24
10
166.442162322457
20
1484.30014137558
30
0.401100181391998
11
166.387990795689
21
1483.62471542472
31
0.402907548614472
  0
LINE
 8
Group#24
10
167.714961002448
20
1481.54589459675
30
0.417150910046923
11
167.966506730285
21
1481.45336115939
31
0.418903512708247
  0
LINE
 8
Group#24
10
168.325510716159
20
1481.32129820159
30
0.421404812756091
11
168.649449592132
21
1481.2918388942
31
0.42337995090259
  0
LINE
 8
Group#24
10
168.973388468106
20
1481.26237958681
30
0.425355089049087
11
169.614442460162
21
1481.37315395863
31
0.428732534124613
  0
LINE
 8
Group#24
10
169.614442460162
20
1481.37315395863
30
0.428732534124613
11
170.204985922161
21
1481.64607222667
31
0.431306980682418
  0
LINE
 8
Group#24
10
170.204985922161
20
1481.64607222667
30
0.431306980682418
11
170.704774293086
21
1482.062535462
31
0.432902984443902
  0
LINE
 8
Group#24
10
170.704774293086
20
1482.062535462
30
0.432902984443902
11
171.079747821399
21
1482.59416238336
31
0.433411780390297
  0
LINE
 8
Group#24
10
171.079747821399
20
1482.59416238336
30
0.433411780390297
11
171.304352680818
21
1483.2047234946
31
0.432798694918768
  0
LINE
 8
Group#24
10
171.304352680818
20
1483.2047234946
30
0.432798694918768
11
171.36328242135
21
1483.85261006502
31
0.431105508790877
  0
LINE
 8
Group#24
10
171.36328242135
20
1483.85261006502
30
0.431105508790877
11
171.252521078565
21
1484.4936696955
31
0.428447609843194
  0
LINE
 8
Group#24
10
168.830015368195
20
1655.35520833322
30
0.399015945612158
11
168.182988959106
21
1655.27001319553
31
0.395523421849335
  0
LINE
 8
Group#24
10
166.665021031195
20
1651.60524823868
30
0.398216401004996
11
167.062304276073
21
1651.08749915102
31
0.402151986260194
  0
LINE
 8
Group#24
10
167.062304276073
20
1651.08749915102
30
0.402151986260194
11
167.580054023253
21
1650.69022008143
31
0.406409148545608
  0
LINE
 8
Group#24
10
167.580054023253
20
1650.69022008143
30
0.406409148545608
11
168.182986483089
21
1650.44048494198
31
0.410697769286744
  0
LINE
 8
Group#24
10
168.182986483089
20
1650.44048494198
30
0.410697769286744
11
168.830012804834
21
1650.35531276971
31
0.414725586067356
  0
LINE
 8
Group#24
10
168.830012804834
20
1650.35531276971
30
0.414725586067356
11
169.477039213923
21
1650.4405079074
31
0.418218109830179
  0
LINE
 8
Group#24
10
169.477039213923
20
1650.4405079074
30
0.418218109830179
11
170.079971929839
21
1650.69026444722
31
0.420937330852525
  0
LINE
 8
Group#24
10
170.079971929839
20
1650.69026444722
30
0.420937330852525
11
170.597722084386
21
1651.08756189372
31
0.422697938715223
  0
LINE
 8
Group#24
10
170.597722084386
20
1651.08756189372
30
0.422697938715223
11
170.995005860153
21
1651.60532508249
31
0.423379950902206
  0
LINE
 8
Group#24
10
170.995005860153
20
1651.60532508249
30
0.423379950902206
11
171.244749024365
21
1652.20826930785
31
0.422936889409831
  0
LINE
 8
Group#24
10
171.244749024365
20
1652.20826930785
30
0.422936889409831
11
171.329931993101
21
1652.85530491726
31
0.421398948146673
  0
LINE
 8
Group#24
10
171.329931993101
20
1652.85530491726
30
0.421398948146673
11
171.244749687812
21
1653.50233750321
31
0.418870935268326
  0
LINE
 8
Group#24
10
171.244749687812
20
1653.50233750321
30
0.418870935268326
11
170.995007141834
21
1654.10527286425
31
0.415525130674518
  0
LINE
 8
Group#24
10
170.995007141834
20
1654.10527286425
30
0.415525130674518
11
170.597723896956
21
1654.62302195191
31
0.41158954541932
  0
LINE
 8
Group#24
10
170.597723896956
20
1654.62302195191
30
0.41158954541932
11
170.079974149776
21
1655.0203010215
31
0.407332383133906
  0
LINE
 8
Group#24
10
170.079974149776
20
1655.0203010215
30
0.407332383133906
11
169.47704168994
21
1655.27003616095
31
0.40304376239277
  0
LINE
 8
Group#24
10
169.47704168994
20
1655.27003616095
30
0.40304376239277
11
168.830015368195
21
1655.35520833322
31
0.399015945612158
  0
LINE
 8
Group#24
10
168.182988959106
20
1655.27001319553
30
0.395523421849335
11
167.580056243189
21
1655.02025665571
31
0.392804200826989
  0
LINE
 8
Group#24
10
167.580056243189
20
1655.02025665571
30
0.392804200826989
11
167.062306088643
21
1654.62295920921
31
0.391043592964291
  0
LINE
 8
Group#24
10
167.062306088643
20
1654.62295920921
30
0.391043592964291
11
166.665022312876
21
1654.10519602044
31
0.390361580777308
  0
LINE
 8
Group#24
10
166.665022312876
20
1654.10519602044
30
0.390361580777308
11
166.415279148664
21
1653.50225179508
31
0.390804642269683
  0
LINE
 8
Group#24
10
166.415279148664
20
1653.50225179508
30
0.390804642269683
11
166.330096179928
21
1652.85521618567
31
0.392342583532839
  0
LINE
 8
Group#24
10
166.330096179928
20
1652.85521618567
30
0.392342583532839
11
166.415278485217
21
1652.20818359972
31
0.394870596411188
  0
LINE
 8
Group#24
10
166.415278485217
20
1652.20818359972
30
0.394870596411188
11
166.665021031195
21
1651.60524823868
31
0.398216401004996
  0
POLYLINE
 8
Group#24
 66
     1
70
    8
 10
0.0
 20
 0.0
 30
0.0
  0
VERTEX
  8
MY3DLAYER
10
166.622237540814
20
1616.08733057419
30
0.407214138250941
 70
     32
  0
VERTEX
  8
MY3DLAYER
10
166.974593900197
20
1615.54101427418
30
0.4109783881212
 70
     32
  0
VERTEX
  8
MY3DLAYER
10
167.456341046328
20
1615.10451345885
30
0.415149555183655
 70
     32
  0
VERTEX
  8
MY3DLAYER
10
168.034648707323
20
1614.80757493739
30
0.419443381296139
 70
     32
  0
VERTEX
  8
MY3DLAYER
10
168.670106171784
20
1614.67043457935
30
0.423567249305059
 70
     32
  0
VERTEX
  8
MY3DLAYER
10
169.319408063652
20
1614.70243827347
30
0.427240124420512
 70
     32
  0
VERTEX
  8
MY3DLAYER
10
169.938305532016
20
1614.90140502091
30
0.430211706273216
 70
     32
  0
VERTEX
  8
MY3DLAYER
10
170.484621737186
20
1615.25377556662
30
0.432279486470615
 70
     32
  0
VERTEX
  8
MY3DLAYER
10
170.921126132608
20
1615.73553644024
30
0.433302549209373
 70
     32
  0
VERTEX
  8
MY3DLAYER
10
171.218071665092
20
1616.31385643438
30
0.433211174454659
 70
     32
  0
VERTEX
  8
MY3DLAYER
10
171.355221987325
20
1616.94932399716
30
0.432011589244907
 70
     32
  0
VERTEX
  8
MY3DLAYER
10
171.323230531499
20
1617.59863306432
30
0.429785543329822
 70
     32
  0
VERTEX
  8
MY3DLAYER
10
171.12427746246
20
1618.21753429599
30
0.426684738059752
 70
     32
  0
VERTEX
  8
MY3DLAYER
10
170.771921103077
20
1618.763850596
30
0.422920488189494
 70
     32
  0
VERTEX
  8
MY3DLAYER
10
170.290173956946
20
1619.20035141134
30
0.418749321127039
 70
     32
  0
VERTEX
  8
MY3DLAYER
10
169.711866295951
20
1619.49728993279
30
0.414455495014555
 70
     32
  0
VERTEX
  8
MY3DLAYER
10
169.07640883149
20
1619.63443029084
30
0.410331627005635
 70
     32
  0
VERTEX
  8
MY3DLAYER
10
168.427106939622
20
1619.60242659671
30
0.406658751890182
 70
     32
  0
VERTEX
  8
MY3DLAYER
10
167.808209471258
20
1619.40345984928
30
0.403687170037478
 70
     32
  0
VERTEX
  8
MY3DLAYER
10
167.261893266088
20
1619.05108930356
30
0.401619389840079
 70
     32
  0
VERTEX
  8
MY3DLAYER
10
166.825388870666
20
1618.56932842994
30
0.400596327101321
 70
     32
  0
VERTEX
  8
MY3DLAYER
10
166.528443338182
20
1617.9910084358
30
0.400687701856035
 70
     32
  0
VERTEX
  8
MY3DLAYER
10
166.391293015949
20
1617.35554087303
30
0.401887287065785
 70
     32
  0
VERTEX
  8
MY3DLAYER
10
166.423284471775
20
1616.70623180586
30
0.40411333298087
 70
     32
  0
VERTEX
  8
MY3DLAYER
10
166.622237540814
20
1616.08733057419
30
0.407214138250941
 70
     32
  0
SEQEND
  0
POLYLINE
 8
Group#24
 66
     1
70
    8
 10
0.0
 20
 0.0
 30
0.0
  0
VERTEX
  8
MY3DLAYER
10
170.640967312079
20
1608.02019383554
30
0.421668217734906
 70
     32
  0
VERTEX
  8
MY3DLAYER
10
170.123217564898
20
1608.41747290512
30
0.417411055449492
 70
     32
  0
VERTEX
  8
MY3DLAYER
10
169.520285105063
20
1608.66720804458
30
0.413122434708355
 70
     32
  0
VERTEX
  8
MY3DLAYER
10
168.873258783318
20
1608.75238021685
30
0.409094617927744
 70
     32
  0
VERTEX
  8
MY3DLAYER
10
168.226232374228
20
1608.66718507915
30
0.405602094164921
 70
     32
  0
VERTEX
  8
MY3DLAYER
10
167.623299658312
20
1608.41742853933
30
0.402882873142575
 70
     32
  0
VERTEX
  8
MY3DLAYER
10
167.105549503766
20
1608.02013109283
30
0.401122265279877
 70
     32
  0
VERTEX
  8
MY3DLAYER
10
166.708265727998
20
1607.50236790407
30
0.400440253092894
 70
     32
  0
VERTEX
  8
MY3DLAYER
10
166.458522563786
20
1606.89942367871
30
0.400883314585267
 70
     32
  0
VERTEX
  8
MY3DLAYER
10
166.373339595051
20
1606.2523880693
30
0.402421255848425
 70
     32
  0
VERTEX
  8
MY3DLAYER
10
166.45852190034
20
1605.60535548335
30
0.404949268726774
 70
     32
  0
VERTEX
  8
MY3DLAYER
10
166.708264446317
20
1605.00242012231
30
0.408295073320582
 70
     32
  0
VERTEX
  8
MY3DLAYER
10
167.105547691195
20
1604.48467103465
30
0.41223065857578
 70
     32
  0
VERTEX
  8
MY3DLAYER
10
167.623297438376
20
1604.08739196506
30
0.416487820861194
 70
     32
  0
VERTEX
  8
MY3DLAYER
10
168.226229898211
20
1603.83765682561
30
0.420776441602329
 70
     32
  0
VERTEX
  8
MY3DLAYER
10
168.873256219956
20
1603.75248465333
30
0.42480425838294
 70
     32
  0
VERTEX
  8
MY3DLAYER
10
169.520282629046
20
1603.83767979103
30
0.428296782145763
 70
     32
  0
VERTEX
  8
MY3DLAYER
10
170.123215344962
20
1604.08743633085
30
0.431016003168111
 70
     32
  0
VERTEX
  8
MY3DLAYER
10
170.640965499509
20
1604.48473377735
30
0.432776611030808
 70
     32
  0
VERTEX
  8
MY3DLAYER
10
171.038249275276
20
1605.00249696612
30
0.433458623217792
 70
     32
  0
VERTEX
  8
MY3DLAYER
10
171.287992439488
20
1605.60544119148
30
0.433015561725417
 70
     32
  0
VERTEX
  8
MY3DLAYER
10
171.373175408223
20
1606.25247680088
30
0.431477620462259
 70
     32
  0
VERTEX
  8
MY3DLAYER
10
171.287993102934
20
1606.89950938684
30
0.42894960758391
 70
     32
  0
VERTEX
  8
MY3DLAYER
10
171.038250556957
20
1607.50244474787
30
0.425603802990103
 70
     32
  0
VERTEX
  8
MY3DLAYER
10
170.640967312079
20
1608.02019383554
30
0.421668217734906
 70
     32
  0
SEQEND
  0
LINE
 8
Group#24
10
169.368483444503
20
1486.18834296363
30
0.412173830549452
11
168.773126535169
21
1486.24248528338
31
0.408543787261679
  0
LINE
 8
Group#24
10
166.528022592246
20
1482.93755953267
30
0.405880387677177
11
166.766898148344
21
1482.42064963854
31
0.408892746814174
  0
LINE
 8
Group#24
10
167.435684466676
20
1481.7259177737
30
0.414962256781186
11
167.524082393076
21
1481.68052887202
31
0.415618594834915
  0
LINE
 8
Group#24
10
171.252521078565
20
1484.4936696955
30
0.428447609843194
11
171.066032114426
21
1484.89721869099
31
0.426095875976899
  0
LINE
 8
Group#24
10
168.013992127671
20
1481.42897925224
30
0.41925608289367
11
168.059465041423
21
1481.41916557938
31
0.419551184147164
  0
LINE
 8
Group#24
10
168.649449592132
20
1481.2918388942
30
0.42337995090259
11
168.973388468106
21
1481.26237958681
31
0.425355089049087
  0
LINE
 8
Group#24
10
171.066032114426
20
1484.89721869099
30
0.426095875976899
11
170.828303598902
21
1485.26580849943
31
0.423556204108114
  0
LINE
 8
Group#24
10
167.541529081114
20
1485.85879264351
30
0.402591895628349
11
167.241236686436
21
1485.67249361842
31
0.40143209143761
  0
LINE
 8
Group#24
10
167.966506730285
20
1481.45336115939
30
0.418903512708247
11
168.013992127671
21
1481.42897925224
31
0.41925608289367
  0
LINE
 8
Group#24
10
167.524082393076
20
1481.68052887202
30
0.415618594834915
11
167.966506730285
21
1481.45336115939
31
0.418903512708247
  0
LINE
 8
Group#24
10
166.666767181876
20
1484.91070248683
30
0.400487095920471
11
166.50778675853
21
1484.61241275066
31
0.400500403453565
  0
LINE
 8
Group#24
10
168.132072543113
20
1486.13171091156
30
0.405166342186154
11
167.787552891605
21
1486.02486416413
31
0.403499871635009
  0
LINE
 8
Group#24
10
167.183347280981
20
1481.92086289911
30
0.412883277361318
11
167.351188278719
21
1481.80247796763
31
0.414230653659246
  0
LINE
 8
Group#24
10
167.0687619565
20
1482.05837843516
30
0.411785289151588
11
167.183347280981
21
1481.92086289911
31
0.412883277361318
  0
LINE
 8
Group#24
10
170.031554000827
20
1485.95897027343
30
0.416747966263844
11
169.928330063067
21
1485.99694215974
31
0.416028770793375
  0
LINE
 8
Group#24
10
170.109882668393
20
1485.90372194872
30
0.417376764897772
11
170.031554000827
21
1485.95897027343
31
0.416747966263844
  0
LINE
 8
Group#24
10
170.563167722294
20
1485.58400197107
30
0.421015598949449
11
170.422106073848
21
1485.68349836236
31
0.419883199093454
  0
LINE
 8
Group#24
10
170.659470741084
20
1485.46842729943
30
0.421938401059294
11
170.563167722294
21
1485.58400197107
31
0.421015598949449
  0
LINE
 8
Group#24
10
167.041740710189
20
1485.44232940818
30
0.400995891866865
11
166.804732291014
21
1485.19073274479
31
0.400409028698852
  0
LINE
 8
Group#24
10
168.773126535169
20
1486.24248528338
30
0.408543787261679
11
168.40645035997
21
1486.22383091156
31
0.406471453487713
  0
LINE
 8
Group#24
10
166.387990795689
20
1483.62471542472
30
0.402907548614472
11
166.528022592246
21
1482.93755953267
31
0.405880387677177
  0
LINE
 8
Group#24
10
166.766898148344
20
1482.42064963854
30
0.408892746814174
11
166.857569314233
21
1482.31183383654
31
0.409761582954906
  0
LINE
 8
Group#24
10
168.059465041423
20
1481.41916557938
30
0.419551184147164
11
168.649449592132
21
1481.2918388942
31
0.42337995090259
  0
LINE
 8
Group#24
10
169.928330063067
20
1485.99694215974
30
0.416028770793375
11
169.368483444503
21
1486.18834296363
31
0.412173830549452
  0
LINE
 8
Group#24
10
166.442162322457
20
1484.30014137558
30
0.401100181391998
11
166.370636436296
21
1483.97694518788
31
0.401699988663316
  0
LINE
 8
Group#24
10
167.524082393076
20
1481.68052887202
30
0.415618594834915
11
167.714961002448
21
1481.54589459675
31
0.417150910046923
  0
LINE
 8
Group#24
10
171.066032114426
20
1484.89721869099
30
0.426095875976899
11
170.979616854931
21
1485.08421523164
31
0.425006129496593
  0
LINE
 8
Group#24
10
168.059465041423
20
1481.41916557938
30
0.419551184147164
11
168.325510716159
21
1481.32129820159
31
0.421404812756091
  0
LINE
 8
Group#24
10
170.828303598902
20
1485.26580849943
30
0.423556204108114
11
170.751264523425
21
1485.38525491085
31
0.422733189787025
  0
LINE
 8
Group#24
10
166.387990795689
20
1483.62471542472
30
0.402907548614472
11
166.402627892122
21
1483.32763612071
31
0.403926034578401
  0
LINE
 8
Group#24
10
167.351188278719
20
1481.80247796763
30
0.414230653659246
11
167.435684466676
21
1481.7259177737
31
0.414962256781186
  0
LINE
 8
Group#24
10
169.928330063067
20
1485.99694215974
30
0.416028770793375
11
169.691209716299
21
1486.11869424765
31
0.414268196612087
  0
LINE
 8
Group#24
10
170.422106073848
20
1485.68349836236
30
0.419883199093454
11
170.269517377294
21
1485.82175572619
31
0.41856202272457
  0
LINE
 8
Group#24
10
166.528022592246
20
1482.93755953267
30
0.405880387677177
11
166.601580961161
21
1482.70873488905
31
0.407026839848473
  0
LINE
 8
Group#24
10
166.857569314233
20
1482.31183383654
30
0.409761582954906
11
166.953937320544
21
1482.16241858904
31
0.410791089718731
  0
LINE
 8
Group#24
10
169.368483444503
20
1486.18834296363
30
0.412173830549452
11
169.055752251837
21
1486.25583460569
31
0.410144328603166
  0
LINE
 8
Group#24
10
170.802414966026
20
1664.70812550406
30
0.116017203661525
11
170.715999706531
21
1664.89512204471
31
0.114927457181219
  0
LINE
 8
Group#24
10
167.260465244676
20
1661.49143568509
30
0.105539922519541
11
167.451343854048
21
1661.35680140982
31
0.10707223773155
  0
LINE
 8
Group#24
10
170.564686450502
20
1665.0767153125
30
0.113477531792741
11
170.487647375025
21
1665.19616172393
31
0.112654517471652
  0
LINE
 8
Group#24
10
168.509509386769
20
1666.05339209645
30
0.0984651149463053
11
168.14283321157
21
1666.03473772464
31
0.0963927811723393
  0
LINE
 8
Group#24
10
169.104866296103
20
1665.99924977671
30
0.102095158234078
11
168.509509386769
21
1666.05339209645
31
0.0984651149463053
  0
LINE
 8
Group#24
10
169.664712914667
20
1665.80784897282
30
0.105950098478001
11
169.104866296103
21
1665.99924977671
31
0.102095158234078
  0
LINE
 8
Group#24
10
167.795847893023
20
1661.23007239246
30
0.10947251183179
11
168.061893567759
21
1661.13220501467
31
0.111326140440717
  0
LINE
 8
Group#24
10
166.124373647289
20
1663.43562223779
30
0.0928288762990987
11
166.264405443846
21
1662.74846634575
31
0.0958017153618029
  0
LINE
 8
Group#24
10
170.299550573894
20
1665.39490878414
30
0.110936926634076
11
170.158488925448
21
1665.49440517544
31
0.10980452677808
  0
LINE
 8
Group#24
10
166.919730132581
20
1661.73176971219
30
0.102804605045944
11
167.087571130319
21
1661.61338478071
31
0.104151981343872
  0
LINE
 8
Group#24
10
169.767936852427
20
1665.76987708651
30
0.10666929394847
11
169.664712914667
21
1665.80784897282
31
0.105950098478001
  0
LINE
 8
Group#24
10
167.277911932714
20
1665.66969945659
30
0.0925132233129757
11
166.977619538036
21
1665.48340043149
31
0.0913534191222367
  0
LINE
 8
Group#24
10
166.403150033476
20
1664.7216092999
30
0.0904084236050968
11
166.24416961013
21
1664.42331956373
31
0.0904217311381926
  0
LINE
 8
Group#24
10
167.702889581885
20
1661.26426797246
30
0.108824840392873
11
167.750374979271
21
1661.23988606532
31
0.109177410578296
  0
LINE
 8
Group#24
10
170.802414966026
20
1664.70812550406
30
0.116017203661525
11
170.564686450502
21
1665.0767153125
31
0.113477531792741
  0
LINE
 8
Group#24
10
166.503280999944
20
1662.23155645162
30
0.0988140744988007
11
166.593952165833
21
1662.12274064962
31
0.0996829106395323
  0
LINE
 8
Group#24
10
168.385832443732
20
1661.10274570727
30
0.113301278587216
11
168.709771319706
21
1661.07328639988
31
0.115276416733714
  0
LINE
 8
Group#24
10
167.795847893023
20
1661.23007239246
30
0.10947251183179
11
168.385832443732
21
1661.10274570727
31
0.113301278587216
  0
LINE
 8
Group#24
10
167.260465244676
20
1661.49143568509
30
0.105539922519541
11
167.702889581885
21
1661.26426797246
31
0.108824840392873
  0
LINE
 8
Group#24
10
167.750374979271
20
1661.23988606532
30
0.109177410578296
11
167.795847893023
21
1661.23007239246
31
0.10947251183179
  0
LINE
 8
Group#24
10
166.264405443846
20
1662.74846634575
30
0.0958017153618029
11
166.503280999944
21
1662.23155645162
31
0.0988140744988007
  0
LINE
 8
Group#24
10
166.124373647289
20
1663.43562223779
30
0.0928288762990987
11
166.139010743722
21
1663.13854293379
31
0.0938473622630275
  0
LINE
 8
Group#24
10
167.087571130319
20
1661.61338478071
30
0.104151981343872
11
167.172067318276
21
1661.53682458677
31
0.104883584465812
  0
LINE
 8
Group#24
10
166.264405443846
20
1662.74846634575
30
0.0958017153618029
11
166.337963812761
21
1662.51964170212
31
0.0969481675330988
  0
LINE
 8
Group#24
10
169.846265519993
20
1665.7146287618
30
0.107298092582398
11
169.767936852427
21
1665.76987708651
31
0.10666929394847
  0
LINE
 8
Group#24
10
169.664712914667
20
1665.80784897282
30
0.105950098478001
11
169.427592567899
21
1665.92960106072
31
0.104189524296713
  0
LINE
 8
Group#24
10
170.158488925448
20
1665.49440517544
30
0.10980452677808
11
170.005900228894
21
1665.63266253927
31
0.108483350409197
  0
LINE
 8
Group#24
10
166.778123561789
20
1665.25323622126
30
0.0909172195514911
11
166.541115142614
21
1665.00163955787
31
0.0903303563834781
  0
LINE
 8
Group#24
10
170.988903930165
20
1664.30457650858
30
0.118368937527822
11
170.802414966026
21
1664.70812550406
31
0.116017203661525
  0
LINE
 8
Group#24
10
166.8051448081
20
1661.86928524823
30
0.101706616836214
11
166.919730132581
21
1661.73176971219
31
0.102804605045944
  0
LINE
 8
Group#24
10
169.104866296103
20
1665.99924977671
30
0.102095158234078
11
168.792135103437
21
1666.06674141877
31
0.100065656287793
  0
LINE
 8
Group#24
10
166.178545174057
20
1664.11104818865
30
0.0910215090766256
11
166.107019287896
21
1663.78785200096
31
0.0916213163479439
  0
LINE
 8
Group#24
10
167.868455394713
20
1665.94261772463
30
0.0950876698707808
11
167.523935743205
21
1665.8357709772
31
0.0934211993196355
  0
LINE
 8
Group#24
10
166.593952165833
20
1662.12274064962
30
0.0996829106395323
11
166.690320172144
21
1661.97332540211
31
0.100712417403357
  0
LINE
 8
Group#24
10
170.395853592684
20
1665.27933411251
30
0.11185972874392
11
170.299550573894
21
1665.39490878414
31
0.110936926634076
  0
LINE
 8
Group#24
10
167.172067318276
20
1661.53682458677
30
0.104883584465812
11
167.260465244676
21
1661.49143568509
31
0.105539922519541
  0
LINE
 8
Group#24
10
171.109558259823
20
1786.06338361396
30
0.121398948146885
11
171.024375954534
21
1786.71041619991
31
0.118870935268538
  0
LINE
 8
Group#24
10
171.024375954534
20
1786.71041619991
30
0.118870935268538
11
170.774633408557
21
1787.31335156095
31
0.11552513067473
  0
LINE
 8
Group#24
10
170.774633408557
20
1787.31335156095
30
0.11552513067473
11
170.377350163679
21
1787.83110064861
31
0.111589545419532
  0
LINE
 8
Group#24
10
170.377350163679
20
1787.83110064861
30
0.111589545419532
11
169.859600416498
21
1788.2283797182
31
0.107332383134118
  0
LINE
 8
Group#24
10
169.859600416498
20
1788.2283797182
30
0.107332383134118
11
169.256667956663
21
1788.47811485765
31
0.103043762392982
  0
LINE
 8
Group#24
10
169.256667956663
20
1788.47811485765
30
0.103043762392982
11
168.609641634918
21
1788.56328702992
31
0.0990159456123701
  0
LINE
 8
Group#24
10
168.609641634918
20
1788.56328702992
30
0.0990159456123701
11
167.962615225828
21
1788.47809189223
31
0.0955234218495471
  0
LINE
 8
Group#24
10
167.962615225828
20
1788.47809189223
30
0.0955234218495471
11
167.359682509912
21
1788.22833535241
31
0.092804200827201
  0
LINE
 8
Group#24
10
167.359682509912
20
1788.22833535241
30
0.092804200827201
11
166.841932355366
21
1787.83103790591
31
0.0910435929645034
  0
LINE
 8
Group#24
10
168.509509386769
20
1666.05339209645
30
0.0984651149463053
11
167.868455394713
21
1665.94261772463
31
0.0950876698707808
  0
LINE
 8
Group#24
10
167.868455394713
20
1665.94261772463
30
0.0950876698707808
11
167.277911932714
21
1665.66969945659
31
0.0925132233129757
  0
LINE
 8
Group#24
10
167.277911932714
20
1665.66969945659
30
0.0925132233129757
11
166.778123561789
21
1665.25323622126
31
0.0909172195514911
  0
LINE
 8
Group#24
10
166.841932355366
20
1787.83103790591
30
0.0910435929645034
11
166.444648579598
21
1787.31327471714
31
0.0903615807775198
  0
LINE
 8
Group#24
10
166.444648579598
20
1787.31327471714
30
0.0903615807775198
11
166.194905415386
21
1786.71033049178
31
0.0908046422698947
  0
LINE
 8
Group#24
10
166.194905415386
20
1786.71033049178
30
0.0908046422698947
11
166.109722446651
21
1786.06329488237
31
0.0923425835330514
  0
LINE
 8
Group#24
10
166.109722446651
20
1786.06329488237
30
0.0923425835330514
11
166.19490475194
21
1785.41626229642
31
0.0948705964114
  0
LINE
 8
Group#24
10
166.19490475194
20
1785.41626229642
30
0.0948705964114
11
166.444647297917
21
1784.81332693538
31
0.0982164010052083
  0
LINE
 8
Group#24
10
166.444647297917
20
1784.81332693538
30
0.0982164010052083
11
166.841930542795
21
1784.29557784772
31
0.102151986260406
  0
LINE
 8
Group#24
10
166.841930542795
20
1784.29557784772
30
0.102151986260406
11
167.359680289976
21
1783.89829877813
31
0.10640914854582
  0
LINE
 8
Group#24
10
167.359680289976
20
1783.89829877813
30
0.10640914854582
11
167.962612749811
21
1783.64856363868
31
0.110697769286957
  0
LINE
 8
Group#24
10
167.962612749811
20
1783.64856363868
30
0.110697769286957
11
168.609639071556
21
1783.56339146641
31
0.114725586067568
  0
LINE
 8
Group#24
10
168.609639071556
20
1783.56339146641
30
0.114725586067568
11
169.256665480646
21
1783.6485866041
31
0.118218109830391
  0
LINE
 8
Group#24
10
169.256665480646
20
1783.6485866041
30
0.118218109830391
11
169.859598196562
21
1783.89834314393
31
0.120937330852737
  0
LINE
 8
Group#24
10
169.859598196562
20
1783.89834314393
30
0.120937330852737
11
170.377348351109
21
1784.29564059042
31
0.122697938715435
  0
LINE
 8
Group#24
10
170.377348351109
20
1784.29564059042
30
0.122697938715435
11
170.774632126876
21
1784.81340377919
31
0.123379950902418
  0
LINE
 8
Group#24
10
170.774632126876
20
1784.81340377919
30
0.123379950902418
11
171.024375291088
21
1785.41634800455
31
0.122936889410043
  0
LINE
 8
Group#24
10
171.024375291088
20
1785.41634800455
30
0.122936889410043
11
171.109558259823
21
1786.06338361396
31
0.121398948146885
  0
LINE
 8
Group#24
10
170.715999706531
20
1664.89512204471
30
0.114927457181219
11
170.564686450502
21
1665.0767153125
31
0.113477531792741
  0
LINE
 8
Group#24
10
166.778123561789
20
1665.25323622126
30
0.0909172195514911
11
166.403150033476
21
1664.7216092999
31
0.0904084236050968
  0
LINE
 8
Group#24
10
166.403150033476
20
1664.7216092999
30
0.0904084236050968
11
166.178545174057
21
1664.11104818865
31
0.0910215090766256
  0
LINE
 8
Group#24
10
166.178545174057
20
1664.11104818865
30
0.0910215090766256
11
166.124373647289
21
1663.43562223779
31
0.0928288762990987
  0
LINE
 8
Group#24
10
167.451343854048
20
1661.35680140982
30
0.10707223773155
11
167.702889581885
21
1661.26426797246
31
0.108824840392873
  0
LINE
 8
Group#24
10
168.061893567759
20
1661.13220501467
30
0.111326140440717
11
168.385832443732
21
1661.10274570727
31
0.113301278587216
  0
LINE
 8
Group#24
10
168.709771319706
20
1661.07328639988
30
0.115276416733714
11
169.350825311762
21
1661.1840607717
31
0.118653861809239
  0
LINE
 8
Group#24
10
169.350825311762
20
1661.1840607717
30
0.118653861809239
11
169.941368773761
21
1661.45697903975
31
0.121228308367044
  0
LINE
 8
Group#24
10
169.941368773761
20
1661.45697903975
30
0.121228308367044
11
170.441157144686
21
1661.87344227507
31
0.122824312128529
  0
LINE
 8
Group#24
10
170.441157144686
20
1661.87344227507
30
0.122824312128529
11
170.816130672999
21
1662.40506919643
31
0.123333108074923
  0
LINE
 8
Group#24
10
170.816130672999
20
1662.40506919643
30
0.123333108074923
11
171.040735532418
21
1663.01563030768
31
0.122720022603394
  0
LINE
 8
Group#24
10
171.040735532418
20
1663.01563030768
30
0.122720022603394
11
171.09966527295
21
1663.66351687809
31
0.121026836475505
  0
LINE
 8
Group#24
10
171.09966527295
20
1663.66351687809
30
0.121026836475505
11
170.988903930165
21
1664.30457650858
31
0.118368937527822
  0
LINE
 8
Group#24
10
168.162332379453
20
1521.89141751038
30
0.395336123446866
11
167.559399663537
21
1521.64166097056
31
0.39261690242452
  0
LINE
 8
Group#24
10
166.644365733223
20
1520.72660033529
30
0.390174282374839
11
166.394622569011
21
1520.12365610994
31
0.390617343867214
  0
LINE
 8
Group#24
10
170.059317570123
20
1521.64170533635
30
0.407145084731437
11
169.456385110288
21
1521.8914404758
31
0.402856463990301
  0
LINE
 8
Group#24
10
166.309439600276
20
1519.47662050053
30
0.39215528513037
11
166.394621905565
21
1518.82958791457
31
0.394683298008719
  0
LINE
 8
Group#24
10
169.456382634271
20
1517.06191222226
30
0.41803081142771
11
170.059315350187
21
1517.31166876208
31
0.420750032450056
  0
LINE
 8
Group#24
10
171.224092444713
20
1518.8296736227
30
0.422749591007362
11
171.309275413448
21
1519.47670923211
31
0.421211649744204
  0
LINE
 8
Group#24
10
170.974350562182
20
1520.7266771791
30
0.415337832272049
11
170.577067317304
21
1521.24442626676
31
0.411402247016851
  0
LINE
 8
Group#24
10
170.059315350187
20
1517.31166876208
30
0.420750032450056
11
170.577065504734
21
1517.70896620858
31
0.422510640312754
  0
LINE
 8
Group#24
10
170.577067317304
20
1521.24442626676
30
0.411402247016851
11
170.059317570123
21
1521.64170533635
31
0.407145084731437
  0
LINE
 8
Group#24
10
167.559399663537
20
1521.64166097056
30
0.39261690242452
11
167.041649508991
21
1521.24436352406
31
0.390856294561822
  0
LINE
 8
Group#24
10
171.22409310816
20
1520.12374181806
30
0.418683636865857
11
170.974350562182
21
1520.7266771791
31
0.415337832272049
  0
LINE
 8
Group#24
10
168.809358788543
20
1521.97661264808
30
0.398828647209689
11
168.162332379453
21
1521.89141751038
31
0.395336123446866
  0
LINE
 8
Group#24
10
167.041649508991
20
1521.24436352406
30
0.390856294561822
11
166.644365733223
21
1520.72660033529
31
0.390174282374839
  0
LINE
 8
Group#24
10
167.04164769642
20
1517.70890346587
30
0.401964687857725
11
167.559397443601
21
1517.31162439629
31
0.406221850143139
  0
LINE
 8
Group#24
10
166.394621905565
20
1518.82958791457
30
0.394683298008719
11
166.644364451543
21
1518.22665255354
31
0.398029102602527
  0
LINE
 8
Group#24
10
169.456385110288
20
1521.8914404758
30
0.402856463990301
11
168.809358788543
21
1521.97661264808
31
0.398828647209689
  0
LINE
 8
Group#24
10
171.309275413448
20
1519.47670923211
30
0.421211649744204
11
171.22409310816
21
1520.12374181806
31
0.418683636865857
  0
LINE
 8
Group#24
10
166.394622569011
20
1520.12365610994
30
0.390617343867214
11
166.309439600276
21
1519.47662050053
31
0.39215528513037
  0
LINE
 8
Group#24
10
166.644364451543
20
1518.22665255354
30
0.398029102602527
11
167.04164769642
21
1517.70890346587
31
0.401964687857725
  0
LINE
 8
Group#24
10
170.577065504734
20
1517.70896620858
30
0.422510640312754
11
170.974349280501
21
1518.22672939734
31
0.423192652499737
  0
LINE
 8
Group#24
10
168.162329903436
20
1517.06188925683
30
0.410510470884276
11
168.809356225181
21
1516.97671708456
31
0.414538287664887
  0
LINE
 8
Group#24
10
168.809356225181
20
1516.97671708456
30
0.414538287664887
11
169.456382634271
21
1517.06191222226
31
0.41803081142771
  0
LINE
 8
Group#24
10
170.974349280501
20
1518.22672939734
30
0.423192652499737
11
171.224092444713
21
1518.8296736227
31
0.422749591007362
  0
LINE
 8
Group#24
10
167.559397443601
20
1517.31162439629
30
0.406221850143139
11
168.162329903436
21
1517.06188925683
31
0.410510470884276
  0
LINE
 8
Group#24
10
171.205151169787
20
1699.11287089984
30
0.122936889409378
11
171.290334138522
21
1699.75990650925
31
0.12139894814622
  0
LINE
 8
Group#24
10
171.205151833233
20
1700.4069390952
30
0.118870935267871
11
170.955409287256
21
1701.00987445624
31
0.115525130674063
  0
LINE
 8
Group#24
10
170.207332687245
20
1712.7077811197
30
0.108670648811
11
169.62902502625
21
1713.00471964116
31
0.104376822698516
  0
LINE
 8
Group#24
10
167.951807437622
20
1708.31500464575
30
0.109364708980098
11
168.587264902083
21
1708.17786428771
31
0.113488576989018
  0
LINE
 8
Group#24
10
166.375681294085
20
1700.40685338707
30
0.0908046422692277
11
166.29049832535
21
1699.75981777766
31
0.0923425835323859
  0
LINE
 8
Group#24
10
169.236566793951
20
1708.20986798184
30
0.117161452104471
11
169.855464262315
21
1708.40883472927
31
0.120133033957175
  0
LINE
 8
Group#24
10
166.625423176616
20
1698.50984983067
30
0.0982164010045428
11
167.022706421494
21
1697.99210074301
31
0.102151986259739
  0
LINE
 8
Group#24
10
166.625424458297
20
1701.00979761243
30
0.0903615807768529
11
166.375681294085
21
1700.40685338707
31
0.0908046422692277
  0
LINE
 8
Group#24
10
167.179051996387
20
1712.55851901192
30
0.0915407175240401
11
166.742547600965
21
1712.0767581383
31
0.0905176547852801
  0
LINE
 8
Group#24
10
166.891752630496
20
1709.04844398255
30
0.10089971580516
11
167.373499776627
21
1708.61194316721
31
0.105070882867614
  0
LINE
 8
Group#24
10
169.437441359345
20
1697.34510949939
30
0.118218109829724
11
170.040374075261
21
1697.59486603921
31
0.12093733085207
  0
LINE
 8
Group#24
10
168.14338862851
20
1697.34508653397
30
0.11069776928629
11
168.790414950255
21
1697.2599143617
31
0.114725586066901
  0
LINE
 8
Group#24
10
169.855464262315
20
1708.40883472927
30
0.120133033957175
11
170.401780467485
21
1708.76120527498
31
0.122200814154574
  0
LINE
 8
Group#24
10
170.558124229808
20
1697.99216348571
30
0.122697938714768
11
170.955408005575
21
1698.50992667448
31
0.123379950901753
  0
LINE
 8
Group#24
10
167.022708234065
20
1701.5275608012
30
0.0910435929638365
11
166.625424458297
21
1701.00979761243
31
0.0903615807768529
  0
LINE
 8
Group#24
10
169.62902502625
20
1713.00471964116
30
0.104376822698516
11
168.993567561789
21
1713.1418599992
31
0.100252954689596
  0
LINE
 8
Group#24
10
166.375680630639
20
1699.11278519171
30
0.0948705964107345
11
166.625423176616
21
1698.50984983067
31
0.0982164010045428
  0
LINE
 8
Group#24
10
169.437443835362
20
1702.17463775294
30
0.103043762392316
11
168.790417513617
21
1702.25980992521
31
0.0990159456117046
  0
LINE
 8
Group#24
10
171.041436192759
20
1711.72496400435
30
0.116606065743712
11
170.689079833376
21
1712.27128030436
31
0.112841815873454
  0
LINE
 8
Group#24
10
168.344265669921
20
1713.10985630507
30
0.0965800795741427
11
167.725368201557
21
1712.91088955764
31
0.0936084977214389
  0
LINE
 8
Group#24
10
168.587264902083
20
1708.17786428771
30
0.113488576989018
11
169.236566793951
21
1708.20986798184
31
0.117161452104471
  0
LINE
 8
Group#24
10
166.539396271113
20
1709.59476028256
30
0.0971354659349022
11
166.891752630496
21
1709.04844398255
31
0.10089971580516
  0
LINE
 8
Group#24
10
170.955408005575
20
1698.50992667448
30
0.123379950901753
11
171.205151169787
21
1699.11287089984
31
0.122936889409378
  0
LINE
 8
Group#24
10
166.29049832535
20
1699.75981777766
30
0.0923425835323859
11
166.375680630639
21
1699.11278519171
31
0.0948705964107345
  0
LINE
 8
Group#24
10
168.790417513617
20
1702.25980992521
30
0.0990159456117046
11
168.143391104527
21
1702.17461478752
31
0.0955234218488816
  0
LINE
 8
Group#24
10
170.689079833376
20
1712.27128030436
30
0.112841815873454
11
170.207332687245
21
1712.7077811197
31
0.108670648811
  0
LINE
 8
Group#24
10
168.143391104527
20
1702.17461478752
30
0.0955234218488816
11
167.540458388611
21
1701.9248582477
31
0.0928042008265341
  0
LINE
 8
Group#24
10
167.540458388611
20
1701.9248582477
30
0.0928042008265341
11
167.022708234065
21
1701.5275608012
31
0.0910435929638365
  0
LINE
 8
Group#24
10
167.725368201557
20
1712.91088955764
30
0.0936084977214389
11
167.179051996387
21
1712.55851901192
31
0.0915407175240401
  0
LINE
 8
Group#24
10
168.790414950255
20
1697.2599143617
30
0.114725586066901
11
169.437441359345
21
1697.34510949939
31
0.118218109829724
  0
LINE
 8
Group#24
10
170.955409287256
20
1701.00987445624
30
0.115525130674063
11
170.558126042378
21
1701.5276235439
31
0.111589545418865
  0
LINE
 8
Group#24
10
166.742547600965
20
1712.0767581383
30
0.0905176547852801
11
166.445602068481
21
1711.49843814417
31
0.0906090295399946
  0
LINE
 8
Group#24
10
171.135230395391
20
1709.82128614274
30
0.123132502138619
11
171.272380717624
21
1710.45675370552
31
0.121932916928868
  0
LINE
 8
Group#24
10
170.040376295197
20
1701.92490261349
30
0.107332383133451
11
169.437443835362
21
1702.17463775294
31
0.103043762392316
  0
LINE
 8
Group#24
10
166.340443202074
20
1710.21366151422
30
0.0940346606648309
11
166.539396271113
21
1709.59476028256
31
0.0971354659349022
  0
LINE
 8
Group#24
10
170.401780467485
20
1708.76120527498
30
0.122200814154574
11
170.838284862907
21
1709.24296614861
31
0.123223876893334
  0
LINE
 8
Group#24
10
167.540456168675
20
1697.59482167342
30
0.106409148545153
11
168.14338862851
21
1697.34508653397
31
0.11069776928629
  0
LINE
 8
Group#24
10
166.445602068481
20
1711.49843814417
30
0.0906090295399946
11
166.308451746248
21
1710.86297058139
31
0.0918086147497459
  0
LINE
 8
Group#24
10
167.373499776627
20
1708.61194316721
30
0.105070882867614
11
167.951807437622
21
1708.31500464575
31
0.109364708980098
  0
LINE
 8
Group#24
10
166.308451746248
20
1710.86297058139
30
0.0918086147497459
11
166.340443202074
21
1710.21366151422
31
0.0940346606648309
  0
LINE
 8
Group#24
10
168.993567561789
20
1713.1418599992
30
0.100252954689596
11
168.344265669921
21
1713.10985630507
31
0.0965800795741427
  0
LINE
 8
Group#24
10
170.040374075261
20
1697.59486603921
30
0.12093733085207
11
170.558124229808
21
1697.99216348571
31
0.122697938714768
  0
LINE
 8
Group#24
10
167.022706421494
20
1697.99210074301
30
0.102151986259739
11
167.540456168675
21
1697.59482167342
31
0.106409148545153
  0
LINE
 8
Group#24
10
170.838284862907
20
1709.24296614861
30
0.123223876893334
11
171.135230395391
21
1709.82128614274
31
0.123132502138619
  0
LINE
 8
Group#24
10
170.558126042378
20
1701.5276235439
30
0.111589545418865
11
170.040376295197
21
1701.92490261349
31
0.107332383133451
  0
LINE
 8
Group#24
10
171.290334138522
20
1699.75990650925
30
0.12139894814622
11
171.205151833233
21
1700.4069390952
31
0.118870935267871
  0
LINE
 8
Group#24
10
171.240389261798
20
1711.10606277268
30
0.119706871013783
11
171.041436192759
21
1711.72496400435
31
0.116606065743712
  0
LINE
 8
Group#24
10
171.272380717624
20
1710.45675370552
30
0.121932916928868
11
171.240389261798
21
1711.10606277268
31
0.119706871013783
  0
LINE
 8
Group#24
10
167.10257585474
20
1741.45786389215
30
0.0996979001880067
11
166.705292078972
21
1740.94010070338
31
0.0990158880010231
  0
LINE
 8
Group#24
10
168.223258725202
20
1742.10491787847
30
0.10417772907305
11
167.620326009286
21
1741.85516133865
31
0.101458508050704
  0
LINE
 8
Group#24
10
168.223256249185
20
1737.27538962492
30
0.11935207651046
11
168.87028257093
21
1737.19021745265
31
0.123379893291071
  0
LINE
 8
Group#24
10
169.51730898002
20
1737.27541259035
30
0.126872417053894
11
170.120241695936
21
1737.52516913017
31
0.12959163807624
  0
LINE
 8
Group#24
10
166.45554891476
20
1740.33715647802
30
0.0994589494933965
11
166.370365946025
21
1739.69012086862
31
0.100996890756555
  0
LINE
 8
Group#24
10
170.637991850483
20
1737.92246657667
30
0.131352245938938
11
171.03527562625
21
1738.44022976543
31
0.132034258125921
  0
LINE
 8
Group#24
10
171.285018790462
20
1739.04317399079
30
0.131591196633547
11
171.370201759197
21
1739.6902096002
31
0.130053255370388
  0
LINE
 8
Group#24
10
169.517311456037
20
1742.10494084389
30
0.111698069616485
11
168.870285134292
21
1742.19011301617
31
0.107670252835873
  0
LINE
 8
Group#24
10
171.285019453908
20
1740.33724218615
30
0.12752524249204
11
171.035276907931
21
1740.94017754719
31
0.124179437898233
  0
LINE
 8
Group#24
10
166.455548251314
20
1739.04308828266
30
0.103524903634903
11
166.705290797292
21
1738.44015292163
31
0.106870708228712
  0
LINE
 8
Group#24
10
167.102574042169
20
1737.92240383396
30
0.110806293483909
11
167.62032378935
21
1737.52512476437
31
0.115063455769323
  0
LINE
 8
Group#24
10
170.637993663053
20
1741.45792663485
30
0.120243852643035
11
170.120243915872
21
1741.85520570444
31
0.115986690357621
  0
LINE
 8
Group#24
10
171.03527562625
20
1738.44022976543
30
0.132034258125921
11
171.285018790462
21
1739.04317399079
31
0.131591196633547
  0
LINE
 8
Group#24
10
170.120241695936
20
1737.52516913017
30
0.12959163807624
11
170.637991850483
21
1737.92246657667
31
0.131352245938938
  0
LINE
 8
Group#24
10
168.87028257093
20
1737.19021745265
30
0.123379893291071
11
169.51730898002
21
1737.27541259035
31
0.126872417053894
  0
LINE
 8
Group#24
10
167.62032378935
20
1737.52512476437
30
0.115063455769323
11
168.223256249185
21
1737.27538962492
31
0.11935207651046
  0
LINE
 8
Group#24
10
166.705290797292
20
1738.44015292163
30
0.106870708228712
11
167.102574042169
21
1737.92240383396
31
0.110806293483909
  0
LINE
 8
Group#24
10
166.370365946025
20
1739.69012086862
30
0.100996890756555
11
166.455548251314
21
1739.04308828266
31
0.103524903634903
  0
LINE
 8
Group#24
10
166.705292078972
20
1740.94010070338
30
0.0990158880010231
11
166.45554891476
21
1740.33715647802
31
0.0994589494933965
  0
LINE
 8
Group#24
10
167.620326009286
20
1741.85516133865
30
0.101458508050704
11
167.10257585474
21
1741.45786389215
31
0.0996979001880067
  0
LINE
 8
Group#24
10
168.870285134292
20
1742.19011301617
30
0.107670252835873
11
168.223258725202
21
1742.10491787847
31
0.10417772907305
  0
LINE
 8
Group#24
10
170.120243915872
20
1741.85520570444
30
0.115986690357621
11
169.517311456037
21
1742.10494084389
31
0.111698069616485
  0
LINE
 8
Group#24
10
171.035276907931
20
1740.94017754719
30
0.124179437898233
11
170.637993663053
21
1741.45792663485
31
0.120243852643035
  0
LINE
 8
Group#24
10
171.370201759197
20
1739.6902096002
30
0.130053255370388
11
171.285019453908
21
1740.33724218615
31
0.12752524249204
  0
LINE
 8
Group#24
10
170.663876979859
20
1751.85564168648
30
0.112997889881894
11
170.182129833728
21
1752.29214250182
31
0.108826722819439
  0
LINE
 8
Group#24
10
170.182129833728
20
1752.29214250182
30
0.108826722819439
11
169.603822172733
21
1752.58908102328
31
0.104532896706955
  0
LINE
 8
Group#24
10
169.603822172733
20
1752.58908102328
30
0.104532896706955
11
168.968364708271
21
1752.72622138132
31
0.100409028698035
  0
LINE
 8
Group#24
10
168.968364708271
20
1752.72622138132
30
0.100409028698035
11
168.319062816404
21
1752.69421768719
31
0.0967361535825812
  0
LINE
 8
Group#24
10
168.319062816404
20
1752.69421768719
30
0.0967361535825812
11
167.70016534804
21
1752.49525093976
31
0.0937645717298774
  0
LINE
 8
Group#24
10
167.70016534804
20
1752.49525093976
30
0.0937645717298774
11
167.15384914287
21
1752.14288039405
31
0.0916967915324786
  0
LINE
 8
Group#24
10
167.15384914287
20
1752.14288039405
30
0.0916967915324786
11
166.717344747448
21
1751.66111952042
31
0.09067372879372
  0
LINE
 8
Group#24
10
166.717344747448
20
1751.66111952042
30
0.09067372879372
11
166.420399214964
21
1751.08279952629
31
0.0907651035484345
  0
LINE
 8
Group#24
10
166.420399214964
20
1751.08279952629
30
0.0907651035484345
11
166.28324889273
21
1750.44733196351
31
0.0919646887581844
  0
LINE
 8
Group#24
10
166.28324889273
20
1750.44733196351
30
0.0919646887581844
11
166.315240348556
21
1749.79802289634
31
0.0941907346732694
  0
LINE
 8
Group#24
10
166.315240348556
20
1749.79802289634
30
0.0941907346732694
11
166.514193417596
21
1749.17912166468
31
0.0972915399433407
  0
LINE
 8
Group#24
10
166.514193417596
20
1749.17912166468
30
0.0972915399433407
11
166.866549776979
21
1748.63280536467
31
0.101055789813599
  0
LINE
 8
Group#24
10
166.866549776979
20
1748.63280536467
30
0.101055789813599
11
167.34829692311
21
1748.19630454933
31
0.105226956876054
  0
LINE
 8
Group#24
10
167.34829692311
20
1748.19630454933
30
0.105226956876054
11
167.926604584105
21
1747.89936602787
31
0.109520782988538
  0
LINE
 8
Group#24
10
167.926604584105
20
1747.89936602787
30
0.109520782988538
11
168.562062048566
21
1747.76222566983
31
0.113644650997458
  0
LINE
 8
Group#24
10
168.562062048566
20
1747.76222566983
30
0.113644650997458
11
169.211363940433
21
1747.79422936396
31
0.117317526112911
  0
LINE
 8
Group#24
10
169.211363940433
20
1747.79422936396
30
0.117317526112911
11
169.830261408798
21
1747.99319611139
31
0.120289107965615
  0
LINE
 8
Group#24
10
169.830261408798
20
1747.99319611139
30
0.120289107965615
11
170.376577613967
21
1748.34556665711
31
0.122356888163014
  0
LINE
 8
Group#24
10
170.376577613967
20
1748.34556665711
30
0.122356888163014
11
170.813082009389
21
1748.82732753073
31
0.123379950901772
  0
LINE
 8
Group#24
10
170.813082009389
20
1748.82732753073
30
0.123379950901772
11
171.110027541874
21
1749.40564752486
31
0.123288576147058
  0
LINE
 8
Group#24
10
171.110027541874
20
1749.40564752486
30
0.123288576147058
11
171.247177864107
21
1750.04111508764
31
0.122088990937307
  0
LINE
 8
Group#24
10
171.247177864107
20
1750.04111508764
30
0.122088990937307
11
171.215186408281
21
1750.69042415481
31
0.119862945022222
  0
LINE
 8
Group#24
10
171.215186408281
20
1750.69042415481
30
0.119862945022222
11
171.016233339242
21
1751.30932538647
31
0.116762139752152
  0
LINE
 8
Group#24
10
171.016233339242
20
1751.30932538647
30
0.116762139752152
11
170.663876979859
21
1751.85564168648
31
0.112997889881894
  0
LINE
 8
Group#24
10
166.302190167656
20
1570.16413468638
30
0.39177739035617
11
166.334181623482
21
1569.51482561921
31
0.394003436271255
  0
LINE
 8
Group#24
10
169.230305215359
20
1567.51103208682
30
0.417130227710896
11
169.849202683724
21
1567.70999883426
31
0.4201018095636
  0
LINE
 8
Group#24
10
168.581003323492
20
1567.47902839269
30
0.413457352595442
11
169.230305215359
21
1567.51103208682
31
0.417130227710896
  0
LINE
 8
Group#24
10
166.724233353898
20
1560.65690342625
30
0.398828589599008
11
166.474490189686
21
1560.05395920089
31
0.399271651091382
  0
LINE
 8
Group#24
10
167.945545859031
20
1567.61616875074
30
0.409333484586522
11
168.581003323492
21
1567.47902839269
31
0.413457352595442
  0
LINE
 8
Group#24
10
167.367238198036
20
1567.91310727219
30
0.405039658474038
11
167.945545859031
21
1567.61616875074
31
0.409333484586522
  0
LINE
 8
Group#24
10
166.724232072218
20
1558.15695564449
30
0.406683409826696
11
167.121515317095
21
1557.63920655683
31
0.410618995081894
  0
LINE
 8
Group#24
10
169.849202683724
20
1567.70999883426
30
0.4201018095636
11
170.395518888893
21
1568.06236937997
31
0.422169589760998
  0
LINE
 8
Group#24
10
166.474490189686
20
1560.05395920089
30
0.399271651091382
11
166.389307220951
21
1559.40692359148
31
0.400809592354541
  0
LINE
 8
Group#24
10
171.234127683207
20
1570.40722687767
30
0.419675646620208
11
171.035174614168
21
1571.02612810934
31
0.416574841350136
  0
LINE
 8
Group#24
10
166.885491051905
20
1568.34960808753
30
0.400868491411583
11
167.367238198036
21
1567.91310727219
31
0.405039658474038
  0
LINE
 8
Group#24
10
166.43934048989
20
1570.79960224915
30
0.390577805146419
11
166.302190167656
21
1570.16413468638
31
0.39177739035617
  0
LINE
 8
Group#24
10
168.889223845856
20
1556.90702017551
30
0.423192594889056
11
169.536250254946
21
1556.99221531321
31
0.426685118651879
  0
LINE
 8
Group#24
10
168.33800409133
20
1572.41102041006
30
0.396548855180567
11
167.719106622966
21
1572.21205366262
31
0.393577273327862
  0
LINE
 8
Group#24
10
168.242197524111
20
1556.99219234779
30
0.419164778108444
11
168.889223845856
21
1556.90702017551
31
0.423192594889056
  0
LINE
 8
Group#24
10
170.656933125409
20
1557.63926929953
30
0.431164947536922
11
171.054216901176
21
1558.1570324883
31
0.431846959723906
  0
LINE
 8
Group#24
10
171.266119139033
20
1569.7579178105
30
0.421901692535293
11
171.234127683207
21
1570.40722687767
31
0.419675646620208
  0
LINE
 8
Group#24
10
168.242200000128
20
1561.82172060133
30
0.403990430671035
11
167.639267284212
21
1561.57196406151
31
0.401271209648689
  0
LINE
 8
Group#24
10
169.536250254946
20
1556.99221531321
30
0.426685118651879
11
170.139182970862
21
1557.24197185303
31
0.429404339674225
  0
LINE
 8
Group#24
10
169.622763447659
20
1572.30588374614
30
0.404345598304939
11
168.987305983197
21
1572.44302410419
31
0.400221730296021
  0
LINE
 8
Group#24
10
166.533134692522
20
1568.89592438754
30
0.397104241541327
11
166.885491051905
21
1568.34960808753
31
0.400868491411583
  0
LINE
 8
Group#24
10
166.47448952624
20
1558.75989100553
30
0.403337605232889
11
166.724232072218
21
1558.15695564449
31
0.406683409826696
  0
LINE
 8
Group#24
10
167.121515317095
20
1557.63920655683
30
0.410618995081894
11
167.639265064276
21
1557.24192748724
31
0.414876157367308
  0
LINE
 8
Group#24
10
171.303960728835
20
1560.05404490902
30
0.427337944090026
11
171.054218182857
21
1560.65698027005
31
0.423992139496218
  0
LINE
 8
Group#24
10
171.303960065388
20
1558.75997671366
30
0.431403898231533
11
171.389143034123
21
1559.40701232306
31
0.429865956968374
  0
LINE
 8
Group#24
10
169.536252730963
20
1561.82174356676
30
0.411510771214469
11
168.889226409218
21
1561.90691573903
31
0.407482954433859
  0
LINE
 8
Group#24
10
171.035174614168
20
1571.02612810934
30
0.416574841350136
11
170.682818254785
21
1571.57244440935
31
0.412810591479878
  0
LINE
 8
Group#24
10
167.121517129666
20
1561.17466661501
30
0.399510601785991
11
166.724233353898
21
1560.65690342625
31
0.398828589599008
  0
LINE
 8
Group#24
10
166.334181623482
20
1569.51482561921
30
0.394003436271255
11
166.533134692522
21
1568.89592438754
31
0.397104241541327
  0
LINE
 8
Group#24
10
168.889226409218
20
1561.90691573903
30
0.407482954433859
11
168.242200000128
21
1561.82172060133
31
0.403990430671035
  0
LINE
 8
Group#24
10
168.987305983197
20
1572.44302410419
30
0.400221730296021
11
168.33800409133
21
1572.41102041006
31
0.396548855180567
  0
LINE
 8
Group#24
10
167.639265064276
20
1557.24192748724
30
0.414876157367308
11
168.242197524111
21
1556.99219234779
31
0.419164778108444
  0
LINE
 8
Group#24
10
170.201071108654
20
1572.00894522469
30
0.408639424417423
11
169.622763447659
21
1572.30588374614
31
0.404345598304939
  0
LINE
 8
Group#24
10
167.172790417796
20
1571.85968311691
30
0.391509493130463
11
166.736286022374
21
1571.37792224329
31
0.390486430391705
  0
LINE
 8
Group#24
10
167.639267284212
20
1561.57196406151
30
0.401271209648689
11
167.121517129666
21
1561.17466661501
31
0.399510601785991
  0
LINE
 8
Group#24
10
170.682818254785
20
1571.57244440935
30
0.412810591479878
11
170.201071108654
21
1572.00894522469
31
0.408639424417423
  0
LINE
 8
Group#24
10
170.395518888893
20
1568.06236937997
30
0.422169589760998
11
170.832023284315
21
1568.54413025359
31
0.423192652499757
  0
LINE
 8
Group#24
10
170.139182970862
20
1557.24197185303
30
0.429404339674225
11
170.656933125409
21
1557.63926929953
31
0.431164947536922
  0
LINE
 8
Group#24
10
171.054216901176
20
1558.1570324883
30
0.431846959723906
11
171.303960065388
21
1558.75997671366
31
0.431403898231533
  0
LINE
 8
Group#24
10
167.719106622966
20
1572.21205366262
30
0.393577273327862
11
167.172790417796
21
1571.85968311691
31
0.391509493130463
  0
LINE
 8
Group#24
10
171.1289688168
20
1569.12245024773
30
0.423101277745044
11
171.266119139033
21
1569.7579178105
31
0.421901692535293
  0
LINE
 8
Group#24
10
170.656934937979
20
1561.17472935772
30
0.42005655424102
11
170.139185190798
21
1561.57200842731
31
0.415799391955606
  0
LINE
 8
Group#24
10
171.389143034123
20
1559.40701232306
30
0.429865956968374
11
171.303960728835
21
1560.05404490902
31
0.427337944090026
  0
LINE
 8
Group#24
10
171.054218182857
20
1560.65698027005
30
0.423992139496218
11
170.656934937979
21
1561.17472935772
31
0.42005655424102
  0
LINE
 8
Group#24
10
170.139185190798
20
1561.57200842731
30
0.415799391955606
11
169.536252730963
21
1561.82174356676
31
0.411510771214469
  0
LINE
 8
Group#24
10
166.389307220951
20
1559.40692359148
30
0.400809592354541
11
166.47448952624
21
1558.75989100553
31
0.403337605232889
  0
LINE
 8
Group#24
10
166.736286022374
20
1571.37792224329
30
0.390486430391705
11
166.43934048989
21
1570.79960224915
31
0.390577805146419
  0
LINE
 8
Group#24
10
170.832023284315
20
1568.54413025359
30
0.423192652499757
11
171.1289688168
21
1569.12245024773
31
0.423101277745044
  0
LINE
 8
Group#24
10
166.327393021174
20
1530.57977330426
30
0.391621316347732
11
166.359384477
21
1529.93046423709
31
0.393847362262815
  0
LINE
 8
Group#24
10
170.226273962171
20
1532.42458384257
30
0.408483350408985
11
169.647966301176
21
1532.72152236402
31
0.404189524296501
  0
LINE
 8
Group#24
10
169.255508068877
20
1527.9266707047
30
0.416974153702457
11
169.874405537241
21
1528.12563745214
31
0.419945735555161
  0
LINE
 8
Group#24
10
171.154171670317
20
1529.53808886561
30
0.422945203736604
11
171.29132199255
21
1530.17355642838
31
0.421745618526853
  0
LINE
 8
Group#24
10
167.970748712548
20
1528.03180736862
30
0.409177410578084
11
168.60620617701
21
1527.89466701057
31
0.413301278587004
  0
LINE
 8
Group#24
10
166.910693905422
20
1528.76524670541
30
0.400712417403145
11
167.392441051553
21
1528.32874589007
31
0.4048835844656
  0
LINE
 8
Group#24
10
167.744309476483
20
1532.6276922805
30
0.393421199319423
11
167.197993271313
21
1532.27532173479
31
0.391353419122025
  0
LINE
 8
Group#24
10
171.29132199255
20
1530.17355642838
30
0.421745618526853
11
171.259330536724
21
1530.82286549555
31
0.419519572611769
  0
LINE
 8
Group#24
10
170.857226137833
20
1528.95976887147
30
0.423036578491318
11
171.154171670317
21
1529.53808886561
31
0.422945203736604
  0
LINE
 8
Group#24
10
171.060377467685
20
1531.44176672722
30
0.416418767341698
11
170.708021108302
21
1531.98808302723
31
0.41265451747144
  0
LINE
 8
Group#24
10
168.363206944847
20
1532.82665902794
30
0.396392781172127
11
167.744309476483
21
1532.6276922805
31
0.393421199319423
  0
LINE
 8
Group#24
10
170.420721742411
20
1528.47800799785
30
0.42201351575256
11
170.857226137833
21
1528.95976887147
31
0.423036578491318
  0
LINE
 8
Group#24
10
169.647966301176
20
1532.72152236402
30
0.404189524296501
11
169.012508836715
21
1532.85866272207
31
0.400065656287581
  0
LINE
 8
Group#24
10
171.259330536724
20
1530.82286549555
30
0.419519572611769
11
171.060377467685
21
1531.44176672722
31
0.416418767341698
  0
LINE
 8
Group#24
10
167.197993271313
20
1532.27532173479
30
0.391353419122025
11
166.761488875891
21
1531.79356086117
31
0.390330356383266
  0
LINE
 8
Group#24
10
167.392441051553
20
1528.32874589007
30
0.4048835844656
11
167.970748712548
21
1528.03180736862
31
0.409177410578084
  0
LINE
 8
Group#24
10
166.359384477
20
1529.93046423709
30
0.393847362262815
11
166.558337546039
21
1529.31156300542
31
0.396948167532887
  0
LINE
 8
Group#24
10
169.012508836715
20
1532.85866272207
30
0.400065656287581
11
168.363206944847
21
1532.82665902794
31
0.396392781172127
  0
LINE
 8
Group#24
10
170.708021108302
20
1531.98808302723
30
0.41265451747144
11
170.226273962171
21
1532.42458384257
31
0.408483350408985
  0
LINE
 8
Group#24
10
166.761488875891
20
1531.79356086117
30
0.390330356383266
11
166.464543343407
21
1531.21524086703
31
0.390421731137981
  0
LINE
 8
Group#24
10
166.464543343407
20
1531.21524086703
30
0.390421731137981
11
166.327393021174
21
1530.57977330426
31
0.391621316347732
  0
LINE
 8
Group#24
10
168.60620617701
20
1527.89466701057
30
0.413301278587004
11
169.255508068877
21
1527.9266707047
31
0.416974153702457
  0
LINE
 8
Group#24
10
169.874405537241
20
1528.12563745214
30
0.419945735555161
11
170.420721742411
21
1528.47800799785
31
0.42201351575256
  0
LINE
 8
Group#24
10
166.558337546039
20
1529.31156300542
30
0.396948167532887
11
166.910693905422
21
1528.76524670541
31
0.400712417403145
 0
ENDSEC
 0
EOF
