0
SECTION
2
HEADER
9
$INSUNITS
70
4
9
$ACADVER
1
AC1014
9
$HANDSEED
5
FFFF
0
ENDSEC
0
SECTION
2
TABLES
0
TABLE
2
VPORT
5
8
100
AcDbSymbolTable
0
ENDTAB
0
TABLE
2
LTYPE
5
5
100
AcDbSymbolTable
0
LTYPE
5
14
100
AcDbSymbolTableRecord
100
AcDbLinetypeTableRecord
2
BYBLOCK
70
0
0
LTYPE
5
15
100
AcDbSymbolTableRecord
100
AcDbLinetypeTableRecord
2
BYLAYER
70
0
0
ENDTAB
0
TABLE
2
LAYER
5
2
100
AcDbSymbolTable
70
2
0
LAYER
5
50
100
AcDbSymbolTableRecord
100
AcDbLayerTableRecord
2
0
70
0
6
CONTINUOUS
0
ENDTAB
0
TABLE
2
STYLE
5
3
100
AcDbSymbolTable
70
1
0
STYLE
5
11
100
AcDbSymbolTableRecord
100
AcDbTextStyleTableRecord
2
STANDARD
70
0
0
ENDTAB
0
TABLE
2
VIEW
5
6
100
AcDbSymbolTable
70
0
0
ENDTAB
0
TABLE
2
UCS
5
7
100
AcDbSymbolTable
70
0
0
ENDTAB
0
TABLE
2
APPID
5
9
100
AcDbSymbolTable
70
2
0
APPID
5
12
100
AcDbSymbolTableRecord
100
AcDbRegAppTableRecord
2
ACAD
70
0
0
ENDTAB
0
TABLE
2
DIMSTYLE
5
A
100
AcDbSymbolTable
70
1
0
ENDTAB
0
TABLE
2
BLOCK_RECORD
5
1
100
AcDbSymbolTable
70
1
0
BLOCK_RECORD
5
1F
100
AcDbSymbolTableRecord
100
AcDbBlockTableRecord
2
*MODEL_SPACE
0
BLOCK_RECORD
5
1B
100
AcDbSymbolTableRecord
100
AcDbBlockTableRecord
2
*PAPER_SPACE
0
ENDTAB
0
ENDSEC
0
SECTION
2
BLOCKS
0
BLOCK
5
20
100
AcDbEntity
100
AcDbBlockBegin
2
*MODEL_SPACE
0
ENDBLK
5
21
100
AcDbEntity
100
AcDbBlockEnd
0
BLOCK
5
1C
100
AcDbEntity
100
AcDbBlockBegin
2
*PAPER_SPACE
0
ENDBLK
5
1D
100
AcDbEntity
100
AcDbBlockEnd
0
ENDSEC
0
SECTION
2
ENTITIES
0
LWPOLYLINE
5
100
100
AcDbEntity
8
0
100
AcDbPolyline
90
4
70
1
43
0.0
10
-350
20
70
10
-343.65000000000003
20
70
10
-343.65000000000003
20
100
10
-350
20
100
0
LWPOLYLINE
5
101
100
AcDbEntity
8
0
100
AcDbPolyline
90
4
70
1
43
0.0
10
-350
20
220
10
-343.65000000000003
20
220
10
-343.65000000000003
20
250
10
-350
20
250
0
LWPOLYLINE
5
102
100
AcDbEntity
8
0
100
AcDbPolyline
90
4
70
1
43
0.0
10
-350
20
460
10
-343.65000000000003
20
460
10
-343.65000000000003
20
490
10
-350
20
490
0
LWPOLYLINE
5
103
100
AcDbEntity
8
0
100
AcDbPolyline
90
4
70
1
43
0.0
10
-206.77617111998384
20
76.143697418412032
10
-207.87883704816886
20
82.397226650039542
10
-306.35961234938969
20
65.032408883346505
10
-305.25694642120465
20
58.778879651718995
0
LWPOLYLINE
5
104
100
AcDbEntity
8
0
100
AcDbPolyline
90
4
70
1
43
0.0
10
-53.540084751284233
20
103.16335386338639
10
-54.642750679469252
20
109.4168830950139
10
-153.12352598069003
20
92.052065328320879
10
-152.02086005250504
20
85.798536096693354
0
LWPOLYLINE
5
105
100
AcDbEntity
8
0
100
AcDbPolyline
90
4
70
1
43
0.0
10
-206.77617111998384
20
228.54369741841202
10
-207.87883704816886
20
234.79722665003953
10
-306.35961234938969
20
217.43240888334651
10
-305.25694642120465
20
211.178879651719
0
LWPOLYLINE
5
106
100
AcDbEntity
8
0
100
AcDbPolyline
90
4
70
1
43
0.0
10
-53.540084751284233
20
255.5633538633864
10
-54.642750679469252
20
261.81688309501391
10
-153.12352598069003
20
244.45206532832088
10
-152.02086005250504
20
238.19853609669337
0
LWPOLYLINE
5
107
100
AcDbEntity
8
0
100
AcDbPolyline
90
4
70
1
43
0.0
10
-206.77617111998384
20
457.14369741841205
10
-207.87883704816886
20
463.39722665003956
10
-306.35961234938969
20
446.03240888334653
10
-305.25694642120465
20
439.77887965171902
0
LWPOLYLINE
5
108
100
AcDbEntity
8
0
100
AcDbPolyline
90
4
70
1
43
0.0
10
-53.540084751284233
20
484.16335386338636
10
-54.642750679469252
20
490.41688309501387
10
-153.12352598069003
20
473.05206532832085
10
-152.02086005250504
20
466.7985360966934
0
LWPOLYLINE
5
109
100
AcDbEntity
8
0
100
AcDbPolyline
90
8
70
1
43
0.0
10
-66.793173971760183
20
372.66746999496007
10
-66.612363440674898
20
409.12691109760686
42
0.46781791256509009
10
-125.29415748782415
20
458.61525689326783
10
-194.88422784369749
20
446.34464990012702
42
0.36496164969095507
10
-294.04571125093878
20
327.74764226700938
10
-293.92034072168798
20
291.93429947563408
42
0.4652426318738056
10
-235.23823820197808
20
242.86894402154562
10
-165.95391704485522
20
255.08563918161678
42
0.36256682990391714
0
LWPOLYLINE
5
110
100
AcDbEntity
8
0
100
AcDbPolyline
90
6
70
1
43
0.0
10
-96.031488609131543
20
235.17505494411918
10
-194.23218246619138
20
217.85962309282752
42
0.34643167249576329
10
-293.16164471877534
20
107.15312558479178
42
0.43210770376550084
10
-264.01199814612272
20
85.332639839037455
10
-165.91761716978257
20
102.4912190025189
42
0.34672198861319237
10
-66.829197265333548
20
213.18665861197374
42
0.43459016897198166
0
LWPOLYLINE
5
111
100
AcDbEntity
8
0
100
AcDbPolyline
90
8
70
1
43
0.0
10
-1.7763568394002505e-14
20
119.99999999999994
42
-0.41421356237309553
10
-119.99999999999997
20
3.5527136788005003e-14
10
-305.60000000000002
20
0
42
-0.41421356237309548
10
-355.60000000000002
20
50
10
-355.60000000000002
20
489.59999999999991
42
-0.41421356237309515
10
-235.60000000000002
20
609.59999999999991
10
-50.000000000000007
20
609.60000000000002
42
-0.41421356237309515
10
1.7763568394002505e-14
20
559.60000000000002
0
ENDSEC
0
SECTION
2
OBJECTS
0
DICTIONARY
5
C
100
AcDbDictionary
3
ACAD_GROUP
350
D
3
ACAD_MLINESTYLE
350
17
0
DICTIONARY
5
D
100
AcDbDictionary
0
DICTIONARY
5
1A
330
C
100
AcDbDictionary
0
DICTIONARY
5
17
100
AcDbDictionary
0
ENDSEC
0
EOF
