<?xml version="1.0" encoding="UTF-8" standalone="no"?>
<svg
   xmlns:dc="http://purl.org/dc/elements/1.1/"
   xmlns:cc="http://creativecommons.org/ns#"
   xmlns:rdf="http://www.w3.org/1999/02/22-rdf-syntax-ns#"
   xmlns:svg="http://www.w3.org/2000/svg"
   xmlns="http://www.w3.org/2000/svg"
   xmlns:sodipodi="http://sodipodi.sourceforge.net/DTD/sodipodi-0.dtd"
   xmlns:inkscape="http://www.inkscape.org/namespaces/inkscape"
   width="24in"
   height="15in"
   id="svg2"
   version="1.1"
   inkscape:version="0.91 r13725"
   sodipodi:docname="sides.svg">
  <metadata
     id="metadata48">
    <rdf:RDF>
      <cc:Work
         rdf:about="">
        <dc:format>image/svg+xml</dc:format>
        <dc:type
           rdf:resource="http://purl.org/dc/dcmitype/StillImage" />
        <dc:title />
      </cc:Work>
    </rdf:RDF>
  </metadata>
  <sodipodi:namedview
     pagecolor="#ffffff"
     bordercolor="#666666"
     borderopacity="1"
     objecttolerance="10"
     gridtolerance="10"
     guidetolerance="10"
     inkscape:pageopacity="0"
     inkscape:pageshadow="2"
     inkscape:window-width="1536"
     inkscape:window-height="801"
     id="namedview46"
     showgrid="false"
     units="in"
     inkscape:zoom="0.31714785"
     inkscape:cx="610.60632"
     inkscape:cy="864.47662"
     inkscape:window-x="-8"
     inkscape:window-y="-8"
     inkscape:window-maximized="1"
     inkscape:current-layer="g20" />
  <desc
     id="desc4">C:\Users\ashar\Desktop\lasercuts\shoe_rack\sides.dxf - scale = 1.000000, origin = (0.000000, 0.000000), auto = False</desc>
  <defs
     id="defs6">
    <marker
       refY="0"
       refX="0"
       style="overflow:visible"
       id="DistanceX"
       orient="auto">
      <path
         style="stroke:#000000;stroke-width:0.5"
         d="M 3,-3 -3,3 M 0,-5 0,5"
         id="path9"
         inkscape:connector-curvature="0" />
    </marker>
    <pattern
       height="8"
       width="8"
       patternUnits="userSpaceOnUse"
       y="0"
       x="0"
       id="Hatch">
      <path
         linecap="square"
         stroke="#000000"
         stroke-width="0.25"
         d="M8 4 l-4,4"
         id="path12" />
      <path
         linecap="square"
         stroke="#000000"
         stroke-width="0.25"
         d="M6 2 l-4,4"
         id="path14" />
      <path
         linecap="square"
         stroke="#000000"
         stroke-width="0.25"
         d="M4 0 l-4,4"
         id="path16" />
    </pattern>
    <symbol
       id="*MODEL_SPACE" />
    <symbol
       id="*PAPER_SPACE" />
  </defs>
  <g
     inkscape:label="0"
     inkscape:groupmode="layer"
     id="g20"
     transform="translate(0,297.63783)">
    <g
       id="g4188"
       transform="matrix(0,1,-1,0,1052.8622,1006.7684)"
       style="stroke:#0000ff;stroke-opacity:1;stroke-width:1;stroke-miterlimit:4;stroke-dasharray:none">
      <path
         inkscape:connector-curvature="0"
         id="path22"
         d="m -1240.1575,804.33071 22.5,0 0,-106.29921 -22.5,0 0,106.29921 z"
         style="fill:none;stroke:#0000ff;stroke-opacity:1;stroke-width:1;stroke-miterlimit:4;stroke-dasharray:none" />
      <path
         inkscape:connector-curvature="0"
         id="path24"
         d="m -1240.1575,272.83465 22.5,0 0,-106.29922 -22.5,0 0,106.29922 z"
         style="fill:none;stroke:#0000ff;stroke-opacity:1;stroke-width:1;stroke-miterlimit:4;stroke-dasharray:none" />
      <path
         inkscape:connector-curvature="0"
         id="path26"
         d="m -1240.1575,-577.55905 22.5,0 0,-106.29922 -22.5,0 0,106.29922 z"
         style="fill:none;stroke:#0000ff;stroke-opacity:1;stroke-width:1;stroke-miterlimit:4;stroke-dasharray:none" />
      <path
         inkscape:connector-curvature="0"
         id="path28"
         d="m -732.67147,782.5617 -3.90709,-22.15817 -348.94764,61.52888 3.9071,22.15817 348.94763,-61.52888 z"
         style="fill:none;stroke:#0000ff;stroke-opacity:1;stroke-width:1;stroke-miterlimit:4;stroke-dasharray:none" />
      <path
         inkscape:connector-curvature="0"
         id="path30"
         d="m -189.70896,686.82276 -3.90709,-22.15817 -348.94762,61.52888 3.90708,22.15817 348.94763,-61.52888 z"
         style="fill:none;stroke:#0000ff;stroke-opacity:1;stroke-width:1;stroke-miterlimit:4;stroke-dasharray:none" />
      <path
         inkscape:connector-curvature="0"
         id="path32"
         d="m -732.67147,242.5617 -3.90709,-22.15817 -348.94764,61.52888 3.9071,22.15817 348.94763,-61.52888 z"
         style="fill:none;stroke:#0000ff;stroke-opacity:1;stroke-width:1;stroke-miterlimit:4;stroke-dasharray:none" />
      <path
         inkscape:connector-curvature="0"
         id="path34"
         d="m -189.70896,146.82276 -3.90709,-22.15817 -348.94762,61.52888 3.90708,22.15817 348.94763,-61.52888 z"
         style="fill:none;stroke:#0000ff;stroke-opacity:1;stroke-width:1;stroke-miterlimit:4;stroke-dasharray:none" />
      <path
         inkscape:connector-curvature="0"
         id="path36"
         d="m -732.67147,-567.4383 -3.90709,-22.15817 -348.94764,61.52888 3.9071,22.15817 348.94763,-61.52888 z"
         style="fill:none;stroke:#0000ff;stroke-opacity:1;stroke-width:1;stroke-miterlimit:4;stroke-dasharray:none" />
      <path
         inkscape:connector-curvature="0"
         id="path38"
         d="m -189.70896,-663.17724 -3.90709,-22.15817 -348.94762,61.52888 3.90708,22.15817 348.94763,-61.52888 z"
         style="fill:none;stroke:#0000ff;stroke-opacity:1;stroke-width:1;stroke-miterlimit:4;stroke-dasharray:none" />
      <path
         inkscape:connector-curvature="0"
         id="path40"
         d="m -236.66873,-268.11308 0.64067,-129.187 a 177.16535,177.16535 0 0 0 -207.92762,-175.3524 l -246.57899,43.47852 a 425.19685,425.19685 0 0 0 -351.35963,420.22562 l 0.4443,126.897673 a 177.16535,177.16535 0 0 0 207.92868,173.853617 l 245.49563,-43.2875 a 425.19685,425.19685 0 0 0 351.35696,-416.62853 z"
         style="fill:none;stroke:#0000ff;stroke-opacity:1;stroke-width:1;stroke-miterlimit:4;stroke-dasharray:none" />
      <path
         inkscape:connector-curvature="0"
         id="path42"
         d="m -340.26905,219.06477 -347.95522,61.35389 a 425.19685,425.19685 0 0 0 -350.53743,392.26712 88.582677,88.582677 0 0 0 103.28612,77.31668 l 347.57851,-60.79812 a 425.19685,425.19685 0 0 0 351.1007,-392.22793 88.582677,88.582677 0 0 0 -103.47268,-77.91164 z"
         style="fill:none;stroke:#0000ff;stroke-opacity:1;stroke-width:1;stroke-miterlimit:4;stroke-dasharray:none" />
      <path
         inkscape:connector-curvature="0"
         id="path44"
         d="m 0,627.16535 a 425.19685,425.19685 0 0 1 -425.19685,425.19685 l -657.63775,0 A 177.16535,177.16535 0 0 1 -1260,875.19685 l 0,-1557.6378 a 425.19685,425.19685 0 0 1 425.19685,-425.19685 l 657.6378,0 A 177.16535,177.16535 0 0 1 0,-930.47244 L 0,627.16535 Z"
         style="fill:none;stroke:#0000ff;stroke-opacity:1;stroke-width:1;stroke-miterlimit:4;stroke-dasharray:none" />
    </g>
  </g>
</svg>
