0
SECTION
2
HEADER
9
$INSUNITS
70
4
9
$ACADVER
1
AC1014
9
$HANDSEED
5
FFFF
0
ENDSEC
0
SECTION
2
TABLES
0
TABLE
2
VPORT
5
8
100
AcDbSymbolTable
0
ENDTAB
0
TABLE
2
LTYPE
5
5
100
AcDbSymbolTable
0
LTYPE
5
14
100
AcDbSymbolTableRecord
100
AcDbLinetypeTableRecord
2
BYBLOCK
70
0
0
LTYPE
5
15
100
AcDbSymbolTableRecord
100
AcDbLinetypeTableRecord
2
BYLAYER
70
0
0
ENDTAB
0
TABLE
2
LAYER
5
2
100
AcDbSymbolTable
70
2
0
LAYER
5
50
100
AcDbSymbolTableRecord
100
AcDbLayerTableRecord
2
0
70
0
6
CONTINUOUS
0
ENDTAB
0
TABLE
2
STYLE
5
3
100
AcDbSymbolTable
70
1
0
STYLE
5
11
100
AcDbSymbolTableRecord
100
AcDbTextStyleTableRecord
2
STANDARD
70
0
0
ENDTAB
0
TABLE
2
VIEW
5
6
100
AcDbSymbolTable
70
0
0
ENDTAB
0
TABLE
2
UCS
5
7
100
AcDbSymbolTable
70
0
0
ENDTAB
0
TABLE
2
APPID
5
9
100
AcDbSymbolTable
70
2
0
APPID
5
12
100
AcDbSymbolTableRecord
100
AcDbRegAppTableRecord
2
ACAD
70
0
0
ENDTAB
0
TABLE
2
DIMSTYLE
5
A
100
AcDbSymbolTable
70
1
0
ENDTAB
0
TABLE
2
BLOCK_RECORD
5
1
100
AcDbSymbolTable
70
1
0
BLOCK_RECORD
5
1F
100
AcDbSymbolTableRecord
100
AcDbBlockTableRecord
2
*MODEL_SPACE
0
BLOCK_RECORD
5
1B
100
AcDbSymbolTableRecord
100
AcDbBlockTableRecord
2
*PAPER_SPACE
0
ENDTAB
0
ENDSEC
0
SECTION
2
BLOCKS
0
BLOCK
5
20
100
AcDbEntity
100
AcDbBlockBegin
2
*MODEL_SPACE
0
ENDBLK
5
21
100
AcDbEntity
100
AcDbBlockEnd
0
BLOCK
5
1C
100
AcDbEntity
100
AcDbBlockBegin
2
*PAPER_SPACE
0
ENDBLK
5
1D
100
AcDbEntity
100
AcDbBlockEnd
0
ENDSEC
0
SECTION
2
ENTITIES
0
LWPOLYLINE
5
100
100
AcDbEntity
8
0
100
AcDbPolyline
90
4
70
1
43
0.0
10
457.20000000000005
20
-162.6458612640275
42
-0.99999999999999989
10
457.20000000000005
20
-175.34586126402755
10
228.60000000000011
20
-175.34586126402755
42
-0.99999999999999989
10
228.60000000000002
20
-162.6458612640275
0
LWPOLYLINE
5
101
100
AcDbEntity
8
0
100
AcDbPolyline
90
4
70
1
43
0.0
10
50.000000000000007
20
-25.002606468509256
42
-0.99999999999999989
10
50
20
-12.302606468509261
10
292.90000000000015
20
-12.302606468509261
42
-0.99999999999999989
10
292.90000000000009
20
-25.002606468509256
0
LWPOLYLINE
5
102
100
AcDbEntity
8
0
100
AcDbPolyline
90
4
70
1
43
0.0
10
457.20000000000005
20
-61.79381493311471
42
-0.99999999999999989
10
457.20000000000005
20
-74.493814933114706
10
228.60000000000002
20
-74.493814933114706
42
-0.99999999999999989
10
228.60000000000002
20
-61.79381493311471
0
LWPOLYLINE
5
103
100
AcDbEntity
8
0
100
AcDbPolyline
90
4
70
1
43
0.0
10
392.90000000000009
20
-226.1614725853016
42
-0.99999999999999989
10
392.90000000000009
20
-213.46147258530155
10
635.80000000000018
20
-213.46147258530155
42
-0.99999999999999989
10
635.80000000000018
20
-226.1614725853016
0
LWPOLYLINE
5
104
100
AcDbEntity
8
0
100
AcDbPolyline
90
4
70
1
43
0.0
10
50.000000000000007
20
-125.0026064685093
42
-0.99999999999999989
10
50
20
-112.30260646850925
10
292.90000000000009
20
-112.30260646850925
42
-0.99999999999999989
10
292.90000000000009
20
-125.0026064685093
0
LWPOLYLINE
5
105
100
AcDbEntity
8
0
100
AcDbPolyline
90
4
70
1
43
0.0
10
392.9000000000002
20
-25.315833814955617
42
-0.99999999999999989
10
392.90000000000009
20
-12.615833814955622
10
635.8000000000003
20
-12.615833814955622
42
-0.99999999999999989
10
635.80000000000018
20
-25.315833814955617
0
LWPOLYLINE
5
106
100
AcDbEntity
8
0
100
AcDbPolyline
90
4
70
1
43
0.0
10
49.999999999999972
20
-225.00260646850933
42
-0.99999999999999989
10
50
20
-212.30260646850928
10
292.90000000000015
20
-212.30260646850928
42
-0.99999999999999989
10
292.90000000000009
20
-225.00260646850933
0
LWPOLYLINE
5
107
100
AcDbEntity
8
0
100
AcDbPolyline
90
4
70
1
43
0.0
10
228.60000000000002
20
25.156169580597059
42
-0.99999999999999989
10
228.60000000000002
20
37.856169580597054
10
457.20000000000005
20
37.856169580597054
42
-0.99999999999999989
10
457.20000000000005
20
25.156169580597059
0
LWPOLYLINE
5
108
100
AcDbEntity
8
0
100
AcDbPolyline
90
4
70
1
43
0.0
10
392.89999999999992
20
-125.93810529101894
42
-0.99999999999999989
10
392.90000000000009
20
-113.23810529101891
10
635.8000000000003
20
-113.23810529101891
42
-0.99999999999999989
10
635.80000000000018
20
-125.93810529101894
0
LWPOLYLINE
5
109
100
AcDbEntity
8
0
100
AcDbPolyline
90
20
70
1
43
0.0
10
679.45000000000027
20
-274.25260646850927
10
6.349999999999981
20
-274.25260646850927
10
6.349999999999981
20
-224.25260646850938
10
0
20
-224.2526064685093
10
0
20
-124.25260646850928
10
6.349999999999981
20
-124.25260646850933
10
6.349999999999981
20
-68.652606468509276
10
0
20
-68.652606468509248
10
0
20
31.347393531490752
10
6.349999999999981
20
31.347393531490759
10
6.3499999999999091
20
81.347393531490781
10
679.45000000000005
20
81.347393531490752
10
679.45000000000005
20
31.347393531490752
10
685.80000000000018
20
31.347393531490724
10
685.80000000000018
20
-68.652606468509276
10
679.45000000000005
20
-68.652606468509234
10
679.45000000000005
20
-124.25260646850928
10
685.80000000000018
20
-124.25260646850933
10
685.80000000000018
20
-224.25260646850938
10
679.45000000000005
20
-224.25260646850933
0
ENDSEC
0
SECTION
2
OBJECTS
0
DICTIONARY
5
C
100
AcDbDictionary
3
ACAD_GROUP
350
D
3
ACAD_MLINESTYLE
350
17
0
DICTIONARY
5
D
100
AcDbDictionary
0
DICTIONARY
5
1A
330
C
100
AcDbDictionary
0
DICTIONARY
5
17
100
AcDbDictionary
0
ENDSEC
0
EOF
